<?xml version="1.0" encoding="UTF-8" standalone="no"?>
<!-- Created with Inkscape (http://www.inkscape.org/) -->

<svg
   width="582.44763mm"
   height="139.51839mm"
   viewBox="0 0 582.44761 139.51839"
   version="1.1"
   id="svg215672"
   inkscape:version="1.1.1 (3bf5ae0d25, 2021-09-20)"
   sodipodi:docname="alcohol.svg"
   xmlns:inkscape="http://www.inkscape.org/namespaces/inkscape"
   xmlns:sodipodi="http://sodipodi.sourceforge.net/DTD/sodipodi-0.dtd"
   xmlns="http://www.w3.org/2000/svg"
   xmlns:svg="http://www.w3.org/2000/svg">
  <sodipodi:namedview
     id="namedview215674"
     pagecolor="#ffffff"
     bordercolor="#666666"
     borderopacity="1.0"
     inkscape:pageshadow="2"
     inkscape:pageopacity="0.0"
     inkscape:pagecheckerboard="0"
     inkscape:document-units="mm"
     showgrid="false"
     inkscape:zoom="0.77771465"
     inkscape:cx="748.34646"
     inkscape:cy="247.52009"
     inkscape:window-width="1920"
     inkscape:window-height="1144"
     inkscape:window-x="1920"
     inkscape:window-y="28"
     inkscape:window-maximized="1"
     inkscape:current-layer="layer1" />
  <defs
     id="defs215669" />
  <g
     inkscape:label="Layer 1"
     inkscape:groupmode="layer"
     id="layer1"
     transform="translate(278.36953,25.839618)">
    <text
       id="tktg5j70rz"
       x="-279.15088"
       y="-18.937714"
       font-size="9.525px"
       fill="#0074d9"
       style="font-family:Arial;stroke-width:0.264583">Leida saadud lahuse massi- ja mahuprotsent.</text>
    <rect
       id="rktg5kcntt"
       x="-242.90295"
       y="23.660202"
       width="24.341667"
       height="56.620834"
       stroke="#ff851b"
       stroke-width="1.05833"
       style="fill:none" />
    <path
       id="lktg5km428"
       stroke-width="1.05833"
       stroke="#ff851b"
       d="m -211.9467,73.137285 v 0 c 0,0 0,0 0,0 -0.17639,0 -0.68694,-0.07887 -0.52917,0 0.32524,0.162613 0.69692,0.22442 1.05833,0.264584 0.43828,0.04871 0.88324,-0.03381 1.32292,0 0.70895,0.05453 1.40807,0.205528 2.11667,0.264583 0.35156,0.02929 0.73078,-0.131022 1.05833,0 0.1831,0.07324 0.20222,0.34208 0.26458,0.529167 0.0279,0.08366 0.0489,0.191188 0,0.264583 -0.31325,0.469874 -0.73689,0.858599 -1.05833,1.322917 -0.4736,0.68408 -0.84932,1.432586 -1.32292,2.116666 -0.32144,0.464318 -0.69082,0.89416 -1.05833,1.322917 -0.16234,0.189389 -0.52917,0.529167 -0.52917,0.529167"
       style="fill:none;stroke-linecap:round;stroke-linejoin:round" />
    <path
       id="lktg5kmpbn"
       stroke-width="1.05833"
       stroke="#ff851b"
       d="m -212.47587,76.841452 v 0 c 0,0 -0.52917,0.06736 -0.52917,0.264583 0,0.176398 0.35278,0 0.52917,0 0.70556,0 1.41209,0.03709 2.11667,0 0.97279,-0.0512 2.91041,-0.264583 2.91041,-0.264583"
       style="fill:none;stroke-linecap:round;stroke-linejoin:round" />
    <path
       id="lktg5kn4l5"
       stroke-width="1.05833"
       stroke="#ff851b"
       d="m -211.9467,79.222702 v 0 c 0,0 -1.03041,-0.118322 -0.79375,0 0.40222,0.20111 0.87435,0.232542 1.32291,0.264583 0.79174,0.05654 2.38125,0 2.38125,0"
       style="fill:none;stroke-linecap:round;stroke-linejoin:round" />
    <path
       id="lktg5knh7m"
       stroke-width="1.05833"
       stroke="#ff851b"
       d="m -198.98212,74.460202 v 0 c 0,0 -0.14626,-0.225134 -0.26458,-0.264583 -0.16734,-0.05577 -0.35518,-0.029 -0.52917,0 -0.35869,0.05977 -0.82807,-0.01693 -1.05833,0.264583 -0.62441,0.763164 -0.94028,1.737069 -1.32292,2.645833 -0.32468,0.771128 -0.98189,1.56599 -0.79375,2.38125 0.143,0.619681 0.96387,0.933609 1.5875,1.058334 0.78313,0.156633 1.64277,0.0395 2.38125,-0.264584 0.81551,-0.335809 1.65444,-0.836374 2.11667,-1.5875 0.32355,-0.52578 0.22928,-1.27889 0,-1.852083 -0.32755,-0.818859 -1.08549,-1.39155 -1.5875,-2.116667 -0.29273,-0.42283 -0.79375,-1.322916 -0.79375,-1.322916"
       style="fill:none;stroke-linecap:round;stroke-linejoin:round" />
    <path
       id="lktg5knwji"
       stroke-width="1.05833"
       stroke="#ff851b"
       d="m -188.39879,74.989369 v 0 c 0,0 -0.87844,-0.332952 -1.32292,-0.264584 -0.74477,0.114591 -1.4828,0.386266 -2.11666,0.79375 -0.6295,0.404681 -1.25283,0.918157 -1.5875,1.5875 -0.23665,0.473313 -0.33057,1.174301 0,1.5875 0.49278,0.615977 1.33323,0.966153 2.11667,1.058334 0.80754,0.09501 1.71959,-0.05654 2.38124,-0.529167 0.67705,-0.483605 1.17833,-1.297305 1.32292,-2.116667 0.14131,-0.800735 -0.34633,-1.588955 -0.52917,-2.38125 -0.0818,-0.35433 -0.26458,-1.058333 -0.26458,-1.058333"
       style="fill:none;stroke-linecap:round;stroke-linejoin:round" />
    <path
       id="lktg5kofjt"
       stroke-width="1.05833"
       stroke="#ff851b"
       d="m -176.75712,76.841452 v 0 c 0,0 -0.69751,-0.309695 -1.05834,-0.264583 -0.39137,0.04892 -0.74279,0.292523 -1.05833,0.529166 -0.39912,0.29935 -1.00324,0.562478 -1.05833,1.058334 -0.0568,0.511122 0.36586,1.037669 0.79375,1.322916 0.44636,0.297577 1.05103,0.264584 1.5875,0.264584 0.71104,0 1.43298,-0.06924 2.11666,-0.264584 0.56887,-0.162533 1.07033,-0.506439 1.5875,-0.79375 0.27798,-0.154437 0.53936,-0.338375 0.79375,-0.529166 0.0998,-0.07482 0.26459,-0.139859 0.26459,-0.264584 0,-0.08818 -0.18896,-0.04538 -0.26459,0 -0.37812,0.226881 -0.74651,0.481939 -1.05833,0.79375 -0.31181,0.311812 -0.57496,0.675455 -0.79375,1.058334 -0.13837,0.242146 -0.49664,0.639048 -0.26458,0.79375 0.30256,0.201718 0.72604,-0.116893 1.05833,-0.264584 0.46994,-0.208862 0.88906,-0.517657 1.32292,-0.79375 0.53655,-0.341444 1.05833,-0.705564 1.5875,-1.058333 0.26458,-0.176398 0.48525,-0.452041 0.79375,-0.529167 0.121,-0.03024 0.26458,0.139859 0.26458,0.264584 0,0.363643 -0.0629,0.755782 -0.26458,1.058333 -0.17639,0.264583 -0.60296,0.27477 -0.79375,0.529167 -0.10584,0.141102 -0.17399,0.558165 0,0.529166 0.58357,-0.09726 1.09524,-0.465587 1.5875,-0.79375 0.57313,-0.382084 1.01437,-0.940832 1.5875,-1.322916 0.49226,-0.328163 1.02623,-0.606663 1.5875,-0.79375 0.251,-0.08366 0.69548,-0.245666 0.79375,0 0.16701,0.417539 -0.26459,0.873204 -0.26459,1.322916 0,0.363644 -0.0194,0.831162 0.26459,1.058334 0.27547,0.220371 1.05833,0 1.05833,0"
       style="fill:none;stroke-linecap:round;stroke-linejoin:round" />
    <path
       id="lktg5kpdh2"
       stroke-width="1.05833"
       stroke="#ff851b"
       d="m -162.20504,71.285202 v 0 c 0,0 -0.66861,-0.125148 -0.52917,-0.264583 0.18709,-0.187087 0.52917,0 0.79375,0 0.35278,0 0.70556,0 1.05834,0 0.35277,0 0.7124,-0.06919 1.05833,0 0.1223,0.02434 0.33942,0.164809 0.26458,0.264583 -0.26458,0.352769 -0.74651,0.481939 -1.05833,0.79375 -0.39932,0.399309 -0.7195,0.871141 -1.05833,1.322917 -0.1908,0.254397 -0.38696,0.509323 -0.52917,0.79375 -0.0394,0.07887 -0.0865,0.247279 0,0.264583 0.43241,0.08649 0.88194,0 1.32292,0 0.44097,0 0.88194,0 1.32291,0 0.0882,0 0.26459,-0.08819 0.26459,0 0,0.19722 -0.11308,0.402908 -0.26459,0.529167 -0.39506,0.329221 -1.32291,0.79375 -1.32291,0.79375"
       style="fill:none;stroke-linecap:round;stroke-linejoin:round" />
    <rect
       id="rktg5kx726"
       x="-242.90295"
       y="79.751869"
       width="24.341667"
       height="19.314583"
       stroke="#ffdc00"
       stroke-width="1.05833"
       style="fill:none" />
    <path
       id="lktg5l2ps9"
       stroke-width="1.05833"
       stroke="#ffdc00"
       d="m -214.32795,97.214368 v 0 c 0,0 -0.70556,-0.352769 -0.52917,-0.529166 0.24945,-0.249449 0.70556,0 1.05833,0 0.70556,0 1.41932,-0.107289 2.11667,0 0.46942,0.07223 0.98708,0.193331 1.32292,0.529166 0.18708,0.187087 0.11832,0.557107 0,0.79375 -0.3393,0.678577 -0.76544,1.337496 -1.32292,1.852084 -0.61138,0.564358 -1.42438,0.861408 -2.11667,1.322918 -0.36691,0.24461 -0.86112,0.39933 -1.05833,0.79375 -0.0882,0.1764 0.34606,0.19135 0.52917,0.26458 0.25894,0.10359 0.516,0.23934 0.79375,0.26459 0.70265,0.0639 2.11666,0 2.11666,0"
       style="fill:none;stroke-linecap:round;stroke-linejoin:round" />
    <path
       id="lktg5l3btm"
       stroke-width="1.05833"
       stroke="#ffdc00"
       d="m -201.36337,96.420618 v 0 c 0,0 -0.1781,0.0172 -0.26458,0 -0.35658,-0.07131 -0.73309,-0.10197 -1.05834,-0.264583 -0.22311,-0.111548 -0.28456,-0.578088 -0.52916,-0.529167 -0.36692,0.0734 -0.62642,0.459079 -0.79375,0.79375 -0.20112,0.40222 -0.26459,0.873205 -0.26459,1.322917 0,0.449712 0.0263,0.941573 0.26459,1.322917 0.23371,0.373935 0.66391,0.596529 1.05833,0.79375 0.32524,0.162608 0.6947,0.264588 1.05833,0.264588 0.36364,0 0.70176,-0.193283 1.05834,-0.264588 0.0865,-0.0172 0.26458,-0.08819 0.26458,0 0,0.124724 -0.20041,0.157638 -0.26458,0.264588 -0.20293,0.33821 -0.44361,0.67331 -0.52917,1.05833 -0.0957,0.43048 0,0.88193 0,1.32292 0,0.35276 0.0692,0.71241 0,1.05833 -0.0245,0.12232 -0.14156,0.24408 -0.26458,0.26458 -0.43498,0.0725 -0.88465,0.0487 -1.32292,0 -0.36141,-0.0402 -0.75577,-0.0629 -1.05833,-0.26458 -0.26459,-0.1764 -0.30432,-0.56891 -0.52917,-0.79375 -0.13945,-0.13944 -0.52917,-0.26458 -0.52917,-0.26458"
       style="fill:none;stroke-linecap:round;stroke-linejoin:round" />
    <path
       id="lktg5l419u"
       stroke-width="1.05833"
       stroke="#ffdc00"
       d="m -190.78004,97.214368 v 0 c 0,0 -0.66553,-0.564885 -1.05833,-0.529166 -0.66891,0.0608 -1.31475,0.390736 -1.85208,0.79375 -0.89803,0.673523 -1.78183,1.432163 -2.38125,2.38125 -0.49169,0.778508 -1.04671,1.760488 -0.79375,2.645838 0.19533,0.68368 1.15071,0.94144 1.85208,1.05833 0.96088,0.16015 1.99181,0.0596 2.91042,-0.26459 0.64955,-0.22926 1.31615,-0.68979 1.5875,-1.32291 0.31267,-0.72956 0.0927,-1.59293 0,-2.381252 -0.085,-0.722286 -0.35278,-1.411102 -0.52917,-2.116666 -0.0882,-0.352769 -0.26458,-1.058334 -0.26458,-1.058334"
       style="fill:none;stroke-linecap:round;stroke-linejoin:round" />
    <path
       id="lktg5l4s0k"
       stroke-width="1.05833"
       stroke="#ffdc00"
       d="m -176.49254,99.595618 v 0 c 0,0 -0.48525,-0.45204 -0.79375,-0.529166 -0.4278,-0.106945 -0.92147,-0.182483 -1.32292,0 -0.62707,0.285035 -1.21768,0.741786 -1.5875,1.322918 -0.28801,0.45259 -0.48246,1.09728 -0.26458,1.5875 0.20886,0.46992 0.84822,0.59595 1.32292,0.79375 0.59267,0.24693 1.21002,0.52916 1.85208,0.52916 0.72727,0 1.4225,-0.31223 2.11667,-0.52916 0.71923,-0.22477 1.47052,-0.40606 2.11666,-0.79375 0.27268,-0.16359 0.28086,-0.5951 0.52917,-0.79375 0.21778,-0.17423 0.51486,-0.26458 0.79375,-0.26458 0.12473,0 -0.17639,0.17639 -0.26458,0.26458 -0.26459,0.26458 -0.52917,0.52917 -0.79375,0.79375 -0.26459,0.26458 -0.60124,0.47289 -0.79375,0.79375 -0.0907,0.15126 -0.17639,0.52916 0,0.52916 0.39442,0 0.69927,-0.36594 1.05833,-0.52916 0.61147,-0.27795 1.2607,-0.47533 1.85208,-0.79375 0.55997,-0.30152 1.05834,-0.70557 1.5875,-1.05833 0.26459,-0.1764 0.47577,-0.52917 0.79375,-0.52917 0.17639,0 0.0875,0.37602 0,0.52917 -0.28018,0.49032 -0.73009,0.86338 -1.05833,1.32291 -0.11462,0.16047 -0.40403,0.38973 -0.26458,0.52917 0.13945,0.13943 0.36193,-0.16007 0.52916,-0.26458 0.53931,-0.33708 1.03532,-0.7428 1.5875,-1.05834 0.68491,-0.39137 1.38852,-0.75493 2.11667,-1.05833 0.33567,-0.13986 0.76743,-0.48276 1.05833,-0.26458 0.28223,0.21166 0,0.70556 0,1.05833 0,0.44098 0,0.88193 0,1.32292 0,0.26458 0,0.79374 0,0.79374"
       style="fill:none;stroke-linecap:round;stroke-linejoin:round" />
    <path
       id="lktg5l5r4d"
       stroke-width="1.05833"
       stroke="#ffdc00"
       d="m -160.35296,93.510202 v 0 c 0,0 -0.26458,0.08818 -0.26458,0 0,-0.197221 0.0775,-0.466805 0.26458,-0.529167 0.41835,-0.139435 0.88195,0 1.32292,0 0.35278,0 0.7428,-0.157771 1.05833,0 0.15777,0.07887 0.12473,0.404442 0,0.529167 -0.27889,0.278897 -0.77943,0.250269 -1.05833,0.529166 -0.27889,0.278898 -0.40444,0.68416 -0.52917,1.058334 -0.0558,0.167349 -0.12472,0.404442 0,0.529166 0.2789,0.278898 0.68903,0.390684 1.05834,0.529167 0.34048,0.127688 0.71336,0.149596 1.05833,0.264583 0.18709,0.06236 0.48134,0.07326 0.52917,0.264584 0.0676,0.270563 -0.0468,0.619522 -0.26459,0.79375 -0.28395,0.227171 -1.05833,0.264583 -1.05833,0.264583"
       style="fill:none;stroke-linecap:round;stroke-linejoin:round" />
    <path
       id="lktg5l7i5e"
       stroke-width="1.05833"
       stroke="#ffdc00"
       d="m -150.56337,100.91854 v 0 c 0,0 -0.37614,0.2088 -0.26459,0.26458 0.23666,0.11832 0.55056,0.10422 0.79375,0 0.40532,-0.1737 0.67286,-0.5796 1.05834,-0.79375 0.41517,-0.23067 0.93644,-0.2531 1.32291,-0.529168 0.25876,-0.184838 0.52917,-1.111753 0.52917,-0.79375 0,0.394414 -0.36595,0.699267 -0.52917,1.058338 -0.27794,0.61145 -0.68332,1.18954 -0.79375,1.85208 -0.0739,0.44357 -0.12852,1.10453 0.26459,1.32291 0.61677,0.34264 1.44732,0.22313 2.11666,0 0.4733,-0.15777 0.70556,-0.70556 1.05834,-1.05833 0.35277,-0.35277 0.70555,-0.70556 1.05833,-1.05833 0.0882,-0.0882 0.14228,-0.24011 0.26458,-0.26458 0.34593,-0.0692 0.70731,-0.0351 1.05834,0 0.5338,0.0534 1.05642,0.18872 1.5875,0.26458 0.7039,0.10057 1.40562,0.26458 2.11666,0.26458 0.71105,0 1.4153,-0.14769 2.11667,-0.26458 0.35869,-0.0598 0.83117,0.0193 1.05833,-0.26458 0.22038,-0.27549 0.22959,-0.7905 0,-1.058338 -0.38502,-0.449183 -1.01354,-0.650267 -1.5875,-0.79375 -0.51336,-0.12835 -1.08548,-0.167349 -1.5875,0 -0.60334,0.20111 -1.20591,0.549539 -1.5875,1.058338 -0.21166,0.28223 -0.11155,0.72366 0,1.05833 0.16263,0.48786 0.36586,1.03767 0.79375,1.32292 0.69617,0.4641 1.54551,0.75395 2.38125,0.79374 1.07172,0.051 2.15258,-0.20386 3.175,-0.52916 0.93963,-0.29898 1.81992,-0.78428 2.64584,-1.32292 1.2116,-0.79018 2.33314,-1.714101 3.43958,-2.645832 0.57243,-0.482044 1.13849,-0.988827 1.5875,-1.5875 0.35498,-0.473313 0.50022,-1.073811 0.79375,-1.5875 0.0619,-0.108294 0.32036,-0.376131 0.26458,-0.264583 -0.1422,0.284427 -0.38695,0.509323 -0.52916,0.79375 -0.38846,0.776923 -0.70189,1.58914 -1.05834,2.38125 -0.4373,0.971788 -0.93667,1.917225 -1.32291,2.910415 -0.23272,0.59841 -0.68489,1.2292 -0.52917,1.85208 0.0882,0.35277 0.73309,0.4272 1.05833,0.26459 0.5051,-0.25255 1.05834,-1.32292 1.05834,-1.32292"
       style="fill:none;stroke-linecap:round;stroke-linejoin:round" />
    <path
       id="lktg5l8k7j"
       stroke-width="1.05833"
       stroke="#ffdc00"
       d="m -131.77796,99.066452 v 0 c 0,0 1.58126,-0.383725 2.38125,-0.529167 1.14131,-0.207513 3.43959,-0.529167 3.43959,-0.529167"
       style="fill:none;stroke-linecap:round;stroke-linejoin:round" />
    <path
       id="lktg5l8zzk"
       stroke-width="1.05833"
       stroke="#ffdc00"
       d="m -129.66129,101.4477 v 0 c 0,0 0,0 0,0 0.26458,0.1764 0.47576,0.52917 0.79375,0.52917 0.81311,0 1.6041,-0.29004 2.38125,-0.52917 1.51964,-0.46757 3.06537,-0.89776 4.49792,-1.587498 0.96997,-0.467016 1.77309,-1.221767 2.64583,-1.852084 0.71497,-0.51636 1.46112,-0.997505 2.11667,-1.5875 0.23636,-0.212725 0.72781,-1.042061 0.52916,-0.79375 -0.90361,1.129533 -1.83097,2.244461 -2.64583,3.439584 -0.51152,0.750226 -0.96523,1.546648 -1.32292,2.381248 -0.17714,0.41333 -0.54551,0.97176 -0.26458,1.32292 0.27547,0.34433 0.91002,0.15483 1.32292,0 0.35035,-0.13139 0.79375,-0.79375 0.79375,-0.79375"
       style="fill:none;stroke-linecap:round;stroke-linejoin:round" />
    <path
       id="lktg5l9ezc"
       stroke-width="1.05833"
       stroke="#ffdc00"
       d="m -124.10504,98.801868 v 0 c 0,0 0.33246,-0.250534 0.52917,-0.264583 1.05564,-0.07541 2.11666,0 3.175,0 1.41111,0 4.23333,0 4.23333,0"
       style="fill:none;stroke-linecap:round;stroke-linejoin:round" />
    <path
       id="lktg5lbft9"
       stroke-width="1.05833"
       stroke="#ff851b"
       d="m -154.53212,78.164369 v 0 c 0,0 0.14878,0.218254 0.26458,0.264583 0.33763,0.135043 0.69596,0.294772 1.05833,0.264583 0.72476,-0.0604 1.45634,-0.224393 2.11667,-0.529166 0.51275,-0.236644 1.04867,-0.564674 1.32292,-1.058334 0.21415,-0.385471 0.15483,-0.910034 0,-1.322916 -0.13138,-0.350362 -0.42247,-0.747342 -0.79375,-0.79375 -0.47128,-0.0589 -0.94297,0.24421 -1.32292,0.529166 -0.35278,0.264584 -0.53744,0.699506 -0.79375,1.058334 -0.18483,0.258762 -0.73274,0.54946 -0.52917,0.79375 0.43,0.51599 1.19192,0.669978 1.85209,0.79375 0.78015,0.146288 1.61804,0.218069 2.38125,0 1.13772,-0.325067 2.21214,-0.899742 3.175,-1.5875 0.91344,-0.652463 1.65424,-1.525958 2.38125,-2.38125 0.7769,-0.914003 1.39692,-1.950747 2.11666,-2.910417 0.33884,-0.451776 0.7301,-0.863388 1.05834,-1.322917 0.11462,-0.160469 0.26458,-0.726387 0.26458,-0.529166 0,0.278897 -0.13986,0.544301 -0.26458,0.79375 -0.58235,1.164696 -1.28597,2.266897 -1.85209,3.439583 -0.66962,1.387078 -1.38507,2.765584 -1.85208,4.233333 -0.16044,0.50427 -0.37418,1.213327 0,1.5875 0.44097,0.440981 1.2423,0.395261 1.85208,0.264584 0.69527,-0.148987 1.85209,-1.058334 1.85209,-1.058334"
       style="fill:none;stroke-linecap:round;stroke-linejoin:round" />
    <path
       id="lktg5lc3gi"
       stroke-width="1.05833"
       stroke="#ff851b"
       d="m -145.80087,73.401869 v 0 c 0,0 0.33277,-0.246724 0.52916,-0.264584 0.79049,-0.07186 1.5875,0 2.38125,0 0.97014,0 2.91042,0 2.91042,0"
       style="fill:none;stroke-linecap:round;stroke-linejoin:round" />
    <path
       id="lktg5lcdlt"
       stroke-width="1.05833"
       stroke="#ff851b"
       d="m -136.27587,77.370619 v 0 c 0,0 -0.0955,-0.427699 -0.26459,-0.529167 -0.31181,-0.187087 -0.69469,-0.264583 -1.05833,-0.264583 -0.53647,0 -1.08679,0.07199 -1.5875,0.264583 -0.66365,0.255244 -1.2522,0.676592 -1.85208,1.058333 -0.37203,0.236749 -0.98584,0.358775 -1.05834,0.79375 -0.0615,0.369094 0.43075,0.702998 0.79375,0.79375 0.77006,0.192511 1.60641,0.172191 2.38125,0 0.84794,-0.188436 1.64149,-0.603091 2.38125,-1.058333 0.4249,-0.261461 0.70556,-0.705564 1.05834,-1.058333 0.0882,-0.08819 0.2088,-0.376132 0.26458,-0.264584 0.11833,0.236644 0.0574,0.535464 0,0.79375 -0.121,0.544513 -0.59076,1.033119 -0.52917,1.5875 0.0413,0.371899 0.42247,0.747342 0.79375,0.79375 0.47128,0.0589 0.89812,-0.316759 1.32292,-0.529166 0.63598,-0.318003 1.2522,-0.676593 1.85208,-1.058334 0.37203,-0.236749 0.66392,-0.596529 1.05834,-0.79375 0.15776,-0.07887 0.52916,-0.176397 0.52916,0 0,0.249449 -0.35277,0.352769 -0.52916,0.529167 -0.44098,0.440981 -0.88195,0.881936 -1.32292,1.322917 -0.26458,0.264583 -0.96109,0.459078 -0.79375,0.79375 0.16262,0.325252 0.74261,-0.08416 1.05833,-0.264584 0.93471,-0.534114 1.71416,-1.312703 2.64584,-1.852083 0.75172,-0.435213 1.55104,-0.802878 2.38125,-1.058333 0.33717,-0.103743 0.80888,-0.24945 1.05833,0 0.24945,0.249449 0.0319,0.706993 0,1.058333 -0.0565,0.621056 -0.33345,1.23227 -0.26458,1.852083 0.0276,0.247915 0.28095,0.504349 0.52916,0.529167 0.70752,0.07075 2.11667,-0.264583 2.11667,-0.264583"
       style="fill:none;stroke-linecap:round;stroke-linejoin:round" />
    <path
       id="lktg5ld6id"
       stroke-width="1.05833"
       stroke="#ff851b"
       d="m -118.28421,77.370619 v 0 c 0,0 -0.69469,-0.264584 -1.05833,-0.264584 -0.53647,0 -1.09441,0.05326 -1.5875,0.264584 -0.76475,0.327739 -1.52834,0.734589 -2.11667,1.322916 -0.50278,0.502788 -0.99395,1.143953 -1.05833,1.852084 -0.0399,0.439155 0.35989,0.979461 0.79375,1.058333 0.71554,0.130096 1.43787,-0.268102 2.11667,-0.529167 0.47998,-0.1846 1.00719,-0.387826 1.32291,-0.79375 0.34245,-0.440293 0.25828,-1.099899 0.52917,-1.5875 0.18172,-0.327078 0.43397,-0.690959 0.79375,-0.79375 0.34964,-0.09991 0.69835,0.213149 1.05833,0.264584 0.26193,0.03741 0.79375,0 0.79375,0"
       style="fill:none;stroke-linecap:round;stroke-linejoin:round" />
    <path
       id="lktg5ldjqb"
       stroke-width="1.05833"
       stroke="#ff851b"
       d="m -112.46337,77.899785 v 0 c 0,0 -0.0674,-0.529166 -0.26459,-0.529166 -0.55779,0 -1.07261,0.314642 -1.5875,0.529166 -0.54611,0.227542 -1.14774,0.39796 -1.5875,0.79375 -0.47272,0.42545 -1.05833,0.951521 -1.05833,1.5875 0,0.394415 0.66392,0.529167 1.05833,0.529167 0.81312,0 1.6638,-0.146526 2.38125,-0.529167 0.66032,-0.35216 1.05834,-1.058333 1.5875,-1.5875 0.26459,-0.264583 0.45908,-0.626401 0.79375,-0.79375 0.11156,-0.05577 0.14878,0.218255 0.26459,0.264584 0.33762,0.135043 0.6965,0.228388 1.05833,0.264583 0.52654,0.05265 1.07869,0.145362 1.5875,0 0.75848,-0.21672 1.45439,-0.629788 2.11667,-1.058333 0.84425,-0.546286 1.76389,-1.058334 2.38125,-1.852084 0.65425,-0.841189 1.03016,-1.885764 1.32291,-2.910416 0.0766,-0.268155 0.0143,-0.79375 -0.26458,-0.79375 -0.83669,0 -1.74803,0.246882 -2.38125,0.79375 -1.37604,1.188402 -2.35888,2.771193 -3.43958,4.233333 -0.42264,0.571817 -1.05834,1.141042 -1.05834,1.852083 0,0.635979 0.49838,1.285981 1.05834,1.5875 0.70317,0.378645 1.587,0.348192 2.38125,0.264584 0.91571,-0.09639 1.81269,-0.401691 2.64583,-0.79375 0.68646,-0.32303 1.28112,-0.823331 1.85208,-1.322917 0.14842,-0.129858 0.30326,-0.722551 0.26459,-0.529167 -0.12592,0.629603 -0.46528,1.213194 -0.52917,1.852084 -0.0278,0.277521 0.0151,0.669025 0.26458,0.79375 0.39442,0.19722 1.32292,0 1.32292,0"
       style="fill:none;stroke-linecap:round;stroke-linejoin:round" />
    <path
       id="lktg5lecoa"
       stroke-width="1.05833"
       stroke="#ff851b"
       d="m -95.53004,74.724785 v 0 c 0,0 -0.481935,-0.746522 -0.79375,-1.058333 -0.139448,-0.139435 -0.529166,-0.264583 -0.529166,-0.264583"
       style="fill:none;stroke-linecap:round;stroke-linejoin:round" />
    <path
       id="lktg5m6r2y"
       stroke-width="1.05833"
       stroke="#ff851b"
       d="m -83.359206,76.047702 v 0 c 0,0 0,0 0,0 0,-0.08819 0.06236,-0.202221 0,-0.264583 -0.06236,-0.06236 -0.202221,0.06236 -0.264584,0 -0.06236,-0.06236 0.08367,-0.236697 0,-0.264584 -0.251005,-0.08366 -0.531825,-0.03741 -0.79375,0 -0.359981,0.05143 -0.74046,0.08797 -1.058333,0.264584 -0.493654,0.27424 -0.9236,0.659024 -1.322917,1.058333 -0.487068,0.487071 -1.037881,0.960411 -1.322916,1.5875 -0.182475,0.401452 -0.311814,1.011105 0,1.322917 0.532828,0.532818 1.368295,0.705696 2.116666,0.79375 0.793166,0.09332 1.629143,0.004 2.38125,-0.264584 0.531821,-0.189944 1.0525,-0.562557 1.322917,-1.058333 0.298627,-0.547476 0.16206,-1.236927 0.264583,-1.852083 0.07393,-0.443574 0.03321,-0.937287 0.264584,-1.322917 0.09075,-0.151262 0.365395,-0.06551 0.529166,0 0.295246,0.11811 0.498504,0.411057 0.79375,0.529167 0.596144,0.238469 1.218753,0.423624 1.852084,0.529166 0.434972,0.0725 0.884131,0.04387 1.322916,0 0.447474,-0.04474 0.89629,-0.122369 1.322917,-0.264583 0.118324,-0.03945 0.389308,-0.264583 0.264583,-0.264583 -0.19721,0 -0.377666,0.138324 -0.529166,0.264583 -0.383268,0.319379 -0.682871,0.7298 -1.058334,1.058333 -0.331864,0.290381 -0.746519,0.481939 -1.058333,0.79375 -0.06236,0.06236 0.182004,0.03096 0.264583,0 0.628904,-0.235849 1.234723,-0.529166 1.852084,-0.79375 0.61736,-0.264583 1.210116,-0.596212 1.852083,-0.79375 0.512744,-0.157771 1.055177,-0.331126 1.5875,-0.264583 0.247526,0.03093 0.460637,0.289322 0.529167,0.529167 0.121144,0.423994 -0.139449,0.904584 0,1.322916 0.139448,0.418333 0.79375,1.058334 0.79375,1.058334"
       style="fill:none;stroke-linecap:round;stroke-linejoin:round" />
    <path
       id="lktg5m7tzj"
       stroke-width="1.05833"
       stroke="#ff851b"
       d="m -58.22379,71.814369 v 0 c 0,0 -0.539348,0.07268 -0.79375,0 -0.379243,-0.108347 -0.730157,-0.310383 -1.058333,-0.529167 -0.207555,-0.138377 -0.28456,-0.480245 -0.529167,-0.529167 -0.273479,-0.05469 -0.615206,0.05032 -0.79375,0.264584 -0.304051,0.36486 -0.378976,0.872357 -0.529167,1.322916 -0.203038,0.609124 -0.529166,1.210019 -0.529166,1.852084 0,0.474953 0.225115,0.958056 0.529166,1.322916 0.178544,0.21426 0.514856,0.264584 0.79375,0.264584 0.363636,0 0.698352,-0.213149 1.058334,-0.264584 0.261924,-0.03741 0.557098,-0.118321 0.79375,0 0.111559,0.05577 -0.202703,0.15629 -0.264584,0.264584 -0.293528,0.513688 -0.545824,1.050316 -0.79375,1.5875 -0.281469,0.609838 -0.617021,1.204092 -0.79375,1.852083 -0.09282,0.34036 0.111559,0.723662 0,1.058333 -0.07888,0.236644 -0.292515,0.450295 -0.529166,0.529167 -0.334674,0.111548 -0.707713,0.03895 -1.058334,0 -0.446955,-0.04966 -0.905375,-0.09758 -1.322916,-0.264583 -0.08189,-0.03276 -0.0173,-0.178091 0,-0.264584 0.07132,-0.356579 0.06287,-0.755782 0.264583,-1.058333 0.17639,-0.264583 0.568897,-0.304324 0.79375,-0.529167 0.06236,-0.06236 0,-0.264583 0,-0.264583"
       style="fill:none;stroke-linecap:round;stroke-linejoin:round" />
    <path
       id="lktg5m8prh"
       stroke-width="1.05833"
       stroke="#ff851b"
       d="m -49.227957,71.285202 v 0 c 0,0 -0.881935,-0.352769 -1.322916,-0.529167 -0.440981,-0.176397 -0.850874,-0.581607 -1.322917,-0.529166 -0.438282,0.04871 -0.813726,0.426826 -1.058333,0.79375 -0.309404,0.464105 -0.352769,1.058333 -0.529167,1.5875 -0.352769,1.058333 -0.705564,2.116666 -1.058333,3.175 -0.264584,0.79375 -0.547688,1.581573 -0.79375,2.38125 -0.106945,0.347556 -0.324353,0.699637 -0.264584,1.058333 0.04101,0.246062 0.337529,0.369464 0.529167,0.529167 0.338772,0.28231 0.645451,0.638915 1.058333,0.79375 0.330306,0.123878 0.707708,-0.03895 1.058334,0 0.44696,0.04966 0.877728,0.200977 1.322916,0.264583 0.174625,0.02487 0.358034,0.04278 0.529167,0 0.19132,-0.04784 0.440981,-0.08819 0.529167,-0.264583 0.201109,-0.40222 0.214921,-0.875956 0.264583,-1.322917 0.03895,-0.350626 0.123878,-0.728028 0,-1.058333 -0.154834,-0.412883 -0.399336,-0.861113 -0.79375,-1.058334 -0.557795,-0.278897 -1.230286,-0.216746 -1.852083,-0.264583 -0.527606,-0.04059 -1.061562,0.05845 -1.5875,0 -0.277178,-0.0308 -0.79375,-0.264583 -0.79375,-0.264583"
       style="fill:none;stroke-linecap:round;stroke-linejoin:round" />
    <path
       id="lktg5m9e5x"
       stroke-width="1.05833"
       stroke="#ff851b"
       d="m -37.057124,72.078952 v 0 c 0,0 -0.33393,-0.236696 -0.529166,-0.264583 -0.436536,-0.06236 -0.895112,-0.106945 -1.322917,0 -0.651616,0.162904 -1.362974,0.333401 -1.852083,0.79375 -1.053333,0.991367 -2.047267,2.122752 -2.645834,3.439583 -0.328453,0.722604 -0.218069,1.618033 0,2.38125 0.155152,0.543004 0.531257,1.120193 1.058334,1.322917 0.740833,0.284929 1.628246,0.25101 2.38125,0 0.905007,-0.301678 1.815359,-0.819494 2.38125,-1.5875 0.728689,-0.988933 1.093073,-2.232872 1.322916,-3.439584 0.133033,-0.6985 -0.0217,-1.448435 -0.264583,-2.116666 -0.127873,-0.351658 -0.559991,-0.501571 -0.79375,-0.79375 -0.12319,-0.153988 -0.264583,-0.529167 -0.264583,-0.529167"
       style="fill:none;stroke-linecap:round;stroke-linejoin:round" />
    <path
       id="lktg5m9zhh"
       stroke-width="1.05833"
       stroke="#ff851b"
       d="m -26.209207,76.576869 v 0 c 0,0 0.428598,-0.492072 0.529167,-0.79375 0.08366,-0.251011 0.261911,-0.756338 0,-0.79375 -0.635609,-0.09081 -1.324187,0.163697 -1.852084,0.529166 -0.668522,0.462836 -1.136464,1.175544 -1.5875,1.852084 -0.437568,0.656352 -1.058333,1.327838 -1.058333,2.116666 0,0.440981 0.618649,0.759937 1.058333,0.79375 0.81071,0.06236 1.623431,-0.234447 2.38125,-0.529166 0.84627,-0.329116 1.654837,-0.778113 2.38125,-1.322917 0.352769,-0.264583 0.51144,-0.719561 0.79375,-1.058333 0.159703,-0.191638 0.608039,-0.76581 0.529167,-0.529167 -0.337,1.010973 -0.927153,1.920981 -1.322917,2.910417 -0.486939,1.217321 -0.736573,2.53148 -1.322916,3.704166 -0.568828,1.137682 -1.275107,2.22123 -2.116667,3.175 -0.501968,0.568881 -1.151758,1.031108 -1.852083,1.322917 -0.407062,0.169598 -0.984145,0.28231 -1.322917,0 -0.345466,-0.287893 -0.554249,-0.978932 -0.264583,-1.322917 1.251082,-1.485662 2.881841,-2.626783 4.497916,-3.704166 2.366513,-1.577658 4.932283,-2.83382 7.408334,-4.233334 1.580964,-0.893603 4.762499,-2.645833 4.762499,-2.645833"
       style="fill:none;stroke-linecap:round;stroke-linejoin:round" />
    <path
       id="lktg5mf5wp"
       stroke-width="1.05833"
       stroke="#ffdc00"
       d="m -98.705039,98.537285 v 0 c 0,0 0.146764,-0.57359 0,-0.79375 -0.09784,-0.146764 -0.352777,0 -0.529167,0 -0.352777,0 -0.73596,-0.143272 -1.058334,0 -0.51605,0.229367 -0.94774,0.636244 -1.32292,1.058333 -0.34165,0.384361 -0.84492,0.811213 -0.79375,1.322922 0.0562,0.56192 0.55324,1.07037 1.05834,1.32291 0.4733,0.23665 1.08173,0.15563 1.587497,0 0.679604,-0.2091 1.379691,-0.52689 1.852084,-1.05833 0.298767,-0.33613 0.214921,-0.875958 0.264583,-1.322918 0.03896,-0.350626 -0.342244,-0.972767 0,-1.058334 0.427805,-0.106944 0.63999,0.654315 1.058333,0.79375 0.674558,0.224843 1.407195,0.217276 2.116667,0.264584 0.615995,0.04106 1.237258,0.05591 1.852083,0 0.362141,-0.03291 0.705557,-0.176398 1.058333,-0.264584 0.352777,-0.08818 0.694698,-0.264583 1.058334,-0.264583 0.124724,0 -0.168767,0.184732 -0.264584,0.264583 -0.433829,0.361527 -0.90084,0.683155 -1.322916,1.058334 -0.372885,0.331448 -0.738944,0.675058 -1.058334,1.058338 -0.126251,0.1515 -0.440973,0.44098 -0.264583,0.52916 0.249452,0.12473 0.539853,-0.14917 0.79375,-0.26458 0.71813,-0.32642 1.402914,-0.72245 2.116667,-1.05833 0.785939,-0.369866 1.56324,-0.766185 2.38125,-1.058338 0.423505,-0.151263 0.896289,-0.406797 1.322916,-0.264584 0.264584,0.08819 0.233784,0.516573 0.264584,0.79375 0.05844,0.525942 0,1.058332 0,1.587502 0,0.44098 -0.244608,0.95599 0,1.32292 0.201707,0.30255 1.058333,0.26458 1.058333,0.26458"
       style="fill:none;stroke-linecap:round;stroke-linejoin:round" />
    <path
       id="lktg5mg9tu"
       stroke-width="1.05833"
       stroke="#ffdc00"
       d="m -73.569623,95.097702 v 0 c 0,0 0,0 0,0 0.440973,-0.264584 0.8314,-0.642514 1.322917,-0.79375 0.679603,-0.2091 1.40562,-0.264584 2.116666,-0.264584 0.711047,0 1.52504,-0.129831 2.116667,0.264584 0.374176,0.249449 0.477787,0.926967 0.264583,1.322916 -0.473059,0.878549 -1.370896,1.453754 -2.116667,2.116667 -0.844153,0.750358 -1.815917,1.350592 -2.645833,2.116667 -0.324027,0.299108 -0.99096,0.663918 -0.79375,1.058338 0.19721,0.39441 0.883468,-0.0366 1.322917,0 0.621474,0.0518 1.228455,0.26458 1.852083,0.26458 0.711047,0 2.116667,-0.26458 2.116667,-0.26458"
       style="fill:none;stroke-linecap:round;stroke-linejoin:round" />
    <path
       id="lktg5mgtj4"
       stroke-width="1.05833"
       stroke="#ffdc00"
       d="m -55.84254,92.716452 v 0 c 0,0 -0.531839,0.03741 -0.79375,0 -0.359992,-0.05143 -0.720699,-0.12954 -1.058333,-0.264584 -0.549312,-0.219736 -1.005417,-0.687916 -1.5875,-0.79375 -0.442452,-0.08043 -0.98448,-0.03154 -1.322917,0.264584 -0.445243,0.389599 -0.660717,1.011026 -0.79375,1.5875 -0.138819,0.601556 -0.210979,1.271878 0,1.852083 0.170498,0.468868 0.649616,0.772239 1.058333,1.058333 0.48468,0.339276 0.99881,0.734881 1.5875,0.79375 0.392459,0.03924 0.720125,-0.326231 1.058334,-0.529166 0.106952,-0.06416 0.320357,-0.376132 0.264583,-0.264584 -0.142208,0.284427 -0.417512,0.496015 -0.529167,0.79375 -0.157903,0.421085 -0.146259,0.889053 -0.264583,1.322917 -0.146764,0.538136 -0.419775,1.040553 -0.529167,1.587505 -0.06919,0.34591 0.131019,0.73077 0,1.05833 -0.07324,0.18309 -0.333163,0.24281 -0.529166,0.26458 -0.613585,0.0682 -1.237787,0.0614 -1.852084,0 -0.27751,-0.0277 -0.575968,-0.0904 -0.79375,-0.26458 -0.248308,-0.19865 -0.529166,-0.47575 -0.529166,-0.79375 0,-0.24945 0.352777,-0.35277 0.529166,-0.529168 0.08819,-0.08819 0.264584,-0.264584 0.264584,-0.264584"
       style="fill:none;stroke-linecap:round;stroke-linejoin:round" />
    <path
       id="lktg5mhi1t"
       stroke-width="1.05833"
       stroke="#ffdc00"
       d="m -44.994623,94.303952 v 0 c 0,0 -0.306044,-0.417619 -0.529167,-0.529167 -0.325252,-0.162613 -0.700564,-0.329644 -1.058333,-0.264583 -0.660824,0.120147 -1.338316,0.361103 -1.852084,0.79375 -1.193509,1.005046 -2.363708,2.106771 -3.175,3.439583 -0.467651,0.768271 -0.747315,1.773264 -0.529166,2.645835 0.181504,0.72602 0.886804,1.32474 1.5875,1.5875 0.825791,0.30967 1.818269,0.3049 2.645833,0 0.943583,-0.34764 1.833218,-1.00896 2.38125,-1.85208 0.653759,-1.005792 1.058333,-2.24002 1.058333,-3.439588 0,-0.711041 -0.692494,-1.242378 -1.058333,-1.852084 -0.163592,-0.272679 -0.529167,-0.79375 -0.529167,-0.79375"
       style="fill:none;stroke-linecap:round;stroke-linejoin:round" />
    <path
       id="lktg5mi012"
       stroke-width="1.05833"
       stroke="#ffdc00"
       d="m -29.64879,97.743535 v 0 c 0,0 -0.331947,-0.264583 -0.529167,-0.264583 -0.623623,0 -1.27889,0.01905 -1.852083,0.264583 -0.697336,0.298847 -1.366388,0.740093 -1.852084,1.322917 -0.43,0.51599 -0.939456,1.196418 -0.79375,1.852088 0.103029,0.46362 0.849181,0.49532 1.322917,0.52916 0.796608,0.0569 1.61507,-0.0392 2.38125,-0.26458 0.756788,-0.2226 1.485609,-0.58502 2.116667,-1.05833 0.451776,-0.33883 0.696806,-0.889084 1.058333,-1.322922 0.07985,-0.0958 0.352769,-0.352769 0.264583,-0.264583 -0.176397,0.176398 -0.400817,0.315251 -0.529166,0.529167 -0.669952,1.116598 -1.241161,2.289628 -1.852084,3.439588 -0.888391,1.67227 -1.638114,3.42386 -2.645833,5.02708 -0.938689,1.49336 -1.991572,2.92534 -3.175,4.23333 -0.509005,0.56259 -1.110245,1.16396 -1.852083,1.32292 -0.627804,0.13454 -1.613615,0.067 -1.852084,-0.52917 -0.279849,-0.69964 0.23167,-1.6148 0.79375,-2.11667 1.988926,-1.77583 4.281832,-3.20656 6.614584,-4.49791 2.624587,-1.45291 8.202083,-3.70417 8.202083,-3.70417"
       style="fill:none;stroke-linecap:round;stroke-linejoin:round" />
    <path
       id="lktg5nc25o"
       stroke-width="1.05833"
       stroke="#3d9970"
       d="m 20.622042,17.574786 v 0 c 0,0 0.304033,-0.146262 0.264584,-0.264583 -0.07887,-0.236644 -0.329618,-0.379492 -0.529167,-0.529167 -0.157771,-0.118322 -0.33954,-0.210397 -0.529167,-0.264583 -0.432408,-0.123534 -0.896276,-0.12237 -1.322916,-0.264584 -0.374174,-0.124724 -0.663919,-0.529166 -1.058334,-0.529166 -0.249449,0 -0.417618,0.306043 -0.529166,0.529166 -0.07887,0.157771 -0.02487,0.354542 0,0.529167 0.06361,0.445188 0.190658,0.879343 0.264583,1.322917 0.102526,0.615156 0.100489,1.250421 0.264583,1.852083 0.10377,0.380524 0.352769,0.705564 0.529167,1.058333 0.08819,0.176398 0.09549,0.427699 0.264583,0.529167 0.311812,0.187087 0.69469,0.264583 1.058334,0.264583 0.449712,0 0.890508,-0.141049 1.322916,-0.264583 0.189627,-0.05419 0.335783,-0.225901 0.529167,-0.264583 0.25945,-0.05189 0.79375,-0.264584 0.79375,0 0,0.51427 -0.642514,0.8314 -0.79375,1.322916 -0.2091,0.679609 -0.156475,1.413881 -0.264583,2.116667 -0.06837,0.444474 -0.200978,0.877729 -0.264584,1.322917 -0.02487,0.174625 0.105834,0.388064 0,0.529166 -0.190791,0.254397 -0.475747,0.529167 -0.79375,0.529167 -0.474953,0 -0.859287,-0.426138 -1.322916,-0.529167 -0.344382,-0.07652 -0.712417,0.06919 -1.058334,0 -0.122316,-0.02434 -0.153035,-0.208809 -0.264583,-0.264583 -0.07887,-0.03945 -0.202221,0.06236 -0.264583,0 -0.06236,-0.06236 0,-0.176398 0,-0.264583 0,-0.08819 -0.0172,-0.178091 0,-0.264584 0.0713,-0.356579 0.204814,-0.699637 0.264583,-1.058333 0.029,-0.17399 0,-0.529167 0,-0.529167"
       style="fill:none;stroke-linecap:round;stroke-linejoin:round" />
    <path
       id="lktg5ndb1q"
       stroke-width="1.05833"
       stroke="#3d9970"
       d="m 30.676209,16.516453 v 0 c 0,0 -0.352769,-0.176398 -0.529167,-0.264584 -0.352769,-0.176397 -0.675693,-0.433493 -1.058333,-0.529166 -0.342239,-0.08557 -0.752025,-0.175022 -1.058333,0 -0.382879,0.218784 -0.664078,0.636852 -0.79375,1.058333 -0.234871,0.763323 -0.16129,1.589326 -0.264584,2.38125 -0.161316,1.236768 -0.315462,2.475362 -0.529166,3.704167 -0.13933,0.801079 -0.529167,1.568132 -0.529167,2.38125 0,0.474953 0.413967,0.862144 0.529167,1.322916 0.06416,0.256673 -0.06416,0.537078 0,0.79375 0.03024,0.120994 0.176397,0.176398 0.264583,0.264584 0.08819,0.08818 0.143589,0.234341 0.264583,0.264583 0.256673,0.06416 0.529167,0 0.79375,0 0.352769,0 0.705565,0 1.058334,0 0.264583,0 0.529166,0 0.79375,0 0.264583,0 0.542739,0.08366 0.79375,0 0.08366,-0.02789 -0.01455,-0.177588 0,-0.264583 0.07392,-0.443574 0.146261,-0.889053 0.264583,-1.322917 0.146764,-0.538136 0.419788,-1.040553 0.529167,-1.5875 0.06919,-0.345916 0.220371,-0.782849 0,-1.058333 -0.227172,-0.283951 -0.705565,-0.176398 -1.058334,-0.264584 -0.705564,-0.176397 -1.405546,-0.376793 -2.116666,-0.529166 -0.524563,-0.112395 -1.5875,-0.264584 -1.5875,-0.264584"
       style="fill:none;stroke-linecap:round;stroke-linejoin:round" />
    <path
       id="lktg5ne9tc"
       stroke-width="1.05833"
       stroke="#3d9970"
       d="m 13.213709,30.010203 v 0 c 0,0 -1.069843,0.225134 -0.79375,0.264583 0.873072,0.124725 1.764586,-0.03524 2.645833,0 3.529357,0.141182 7.052522,0.431086 10.583334,0.529167 2.821146,0.07837 5.644435,0 8.466666,0 2.293065,0 4.586949,-0.06194 6.879167,0 0.973772,0.02646 2.910416,0.264583 2.910416,0.264583"
       style="fill:none;stroke-linecap:round;stroke-linejoin:round" />
    <path
       id="lktg5neqyb"
       stroke-width="1.05833"
       stroke="#3d9970"
       d="m 23.003292,36.360203 v 0 c 0,0 -0.906621,0.676751 -1.322916,1.058333 -0.643599,0.589968 -1.257988,1.212294 -1.852084,1.852083 -0.55327,0.595842 -1.114874,1.190413 -1.5875,1.852083 -0.413279,0.578591 -0.979805,1.145382 -1.058333,1.852084 -0.03511,0.316045 0.480087,0.476885 0.79375,0.529166 0.782955,0.130493 1.5875,0 2.38125,0 0.79375,0 1.600306,0.142002 2.38125,0 0.245427,-0.04463 0.667544,-0.321601 0.529167,-0.529166 -0.352769,-0.529167 -1.066483,-0.693632 -1.5875,-1.058334 -1.243066,-0.870135 -2.524813,-1.69111 -3.704167,-2.645833 -0.678603,-0.549328 -1.428088,-1.088866 -1.852083,-1.852083 -0.121153,-0.21807 0.301228,-0.427858 0.529166,-0.529167 0.586714,-0.260773 1.210019,-0.529166 1.852084,-0.529166 0.899398,0 2.645833,0.529166 2.645833,0.529166"
       style="fill:none;stroke-linecap:round;stroke-linejoin:round" />
    <path
       id="lktg5nfdq3"
       stroke-width="1.05833"
       stroke="#3d9970"
       d="m 28.824126,39.535202 v 0 c 0,0 -0.06236,-0.202221 0,-0.264583 0.399309,-0.399309 0.847883,-0.752951 1.322916,-1.058333 0.763799,-0.491014 1.607926,-0.847037 2.38125,-1.322917 0.37555,-0.231113 0.617352,-0.79375 1.058334,-0.79375 0.318002,0 0.480827,0.479452 0.529166,0.79375 0.134117,0.871696 0.04006,1.764797 0,2.645833 -0.04823,1.0609 -0.205687,2.11463 -0.264583,3.175 -0.02934,0.528347 0,1.5875 0,1.5875"
       style="fill:none;stroke-linecap:round;stroke-linejoin:round" />
    <path
       id="lktg5npm51"
       stroke-width="1.05833"
       stroke="#3d9970"
       d="m 36.761625,21.278953 v 0 c 0,0 -0.264583,-0.139859 -0.264583,-0.264584 0,-0.08818 0.182007,-0.03096 0.264583,0 0.628915,0.23585 1.242246,0.512287 1.852084,0.79375 0.537183,0.247915 1.5875,0.79375 1.5875,0.79375"
       style="fill:none;stroke-linecap:round;stroke-linejoin:round" />
    <path
       id="lktg5npts7"
       stroke-width="1.05833"
       stroke="#3d9970"
       d="m 37.819959,22.866453 v 0 c 0,0 0.153035,-0.208809 0.264583,-0.264584 0.249449,-0.124724 0.544301,-0.139858 0.79375,-0.264583 0.459978,-0.229976 0.862939,-0.563774 1.322917,-0.79375 0.249449,-0.124725 0.79375,-0.264583 0.79375,-0.264583"
       style="fill:none;stroke-linecap:round;stroke-linejoin:round" />
    <path
       id="lktg5nq23j"
       stroke-width="1.05833"
       stroke="#3d9970"
       d="m 39.142875,19.956036 v 0 c 0,0 -0.202697,0.156289 -0.264583,0.264583 -0.293529,0.513689 -0.660717,1.011026 -0.79375,1.5875 -0.138827,0.601557 0,1.852084 0,1.852084"
       style="fill:none;stroke-linecap:round;stroke-linejoin:round" />
    <path
       id="lktg5nqbv2"
       stroke-width="1.05833"
       stroke="#3d9970"
       d="m 47.080375,23.395619 v 0 c 0,0 -0.948452,0.49665 -0.79375,0.264584 0.313241,-0.469874 0.88908,-0.696807 1.322917,-1.058334 0.624655,-0.520541 1.254601,-1.035976 1.852083,-1.5875 0.549884,-0.507603 1.019308,-1.100481 1.5875,-1.5875 0.06697,-0.05739 0.272574,-0.08784 0.264584,0 -0.08927,0.982001 -0.395949,1.933417 -0.529167,2.910417 -0.13163,0.9652 -0.532209,1.973765 -0.264583,2.910417 0.141287,0.494479 1.322916,0.79375 1.322916,0.79375"
       style="fill:none;stroke-linecap:round;stroke-linejoin:round" />
    <path
       id="lktg5nqn8q"
       stroke-width="1.05833"
       stroke="#3d9970"
       d="m 59.251209,20.485203 v 0 c 0,0 0.176397,-0.529167 0,-0.529167 -0.727261,0 -1.56935,0.05024 -2.116667,0.529167 -0.957236,0.837591 -1.808163,1.941009 -2.116667,3.175 -0.182747,0.731043 0.210556,1.63949 0.79375,2.116666 0.550307,0.450268 1.44616,0.501227 2.116667,0.264584 0.94824,-0.334672 1.931538,-0.952686 2.38125,-1.852084 0.433864,-0.867727 0.178779,-1.956884 0,-2.910416 -0.09477,-0.50546 -0.652463,-0.828437 -0.79375,-1.322917 -0.05419,-0.189627 0.264583,-0.529167 0.264583,-0.529167"
       style="fill:none;stroke-linecap:round;stroke-linejoin:round" />
    <path
       id="lktg5nqz1z"
       stroke-width="1.05833"
       stroke="#3d9970"
       d="m 69.305375,19.162286 v 0 c 0,0 -0.360204,-0.05069 -0.529167,0 -0.721756,0.216535 -1.521856,0.331126 -2.116666,0.79375 -1.034918,0.804942 -2.158894,1.693095 -2.645834,2.910417 -0.301995,0.754962 -0.0458,1.806284 0.529167,2.38125 0.574966,0.574966 1.601179,0.758587 2.38125,0.529166 0.899425,-0.26453 1.717463,-1.003802 2.116667,-1.852083 0.375523,-0.79801 0.05866,-1.765829 0,-2.645833 -0.02992,-0.448707 -0.264584,-1.322917 -0.264584,-1.322917"
       style="fill:none;stroke-linecap:round;stroke-linejoin:round" />
    <path
       id="lktg5nrb8y"
       stroke-width="1.05833"
       stroke="#3d9970"
       d="m 79.624125,15.458119 v 0 c 0,0 -1.090189,-0.180842 -1.5875,0 -0.530728,0.192988 -1.144349,0.522605 -1.322917,1.058334 -0.150177,0.450559 0.113983,1.092253 0.529167,1.322916 0.539671,0.299826 1.27889,0.229288 1.852083,0 0.409443,-0.163777 0.79375,-0.617352 0.79375,-1.058333 0,-0.514271 -0.508502,-0.895032 -0.79375,-1.322917 -0.06919,-0.103769 -0.264583,-0.264583 -0.264583,-0.264583"
       style="fill:none;stroke-linecap:round;stroke-linejoin:round" />
    <path
       id="lktg5nrm7u"
       stroke-width="1.05833"
       stroke="#3d9970"
       d="m 87.297042,17.574786 v 0 c 0,0 -0.927735,0.265721 -1.322917,0.529167 -1.731883,1.154588 -3.336899,2.489358 -5.027083,3.704166 -1.132338,0.813859 -2.41771,1.432375 -3.439584,2.38125 -0.266462,0.247439 -0.264583,1.058334 -0.264583,1.058334"
       style="fill:none;stroke-linecap:round;stroke-linejoin:round" />
    <path
       id="lktg5nrtqe"
       stroke-width="1.05833"
       stroke="#3d9970"
       d="m 85.180375,24.718536 v 0 c 0,0 0.736732,-0.667544 0.529167,-0.529167 -0.469874,0.313241 -0.923608,0.659024 -1.322917,1.058334 -0.399309,0.399309 -1.138185,0.763878 -1.058333,1.322916 0.06718,0.470165 0.847963,0.529167 1.322916,0.529167 0.557795,0 1.133607,-0.204946 1.5875,-0.529167 0.22696,-0.16211 0.402961,-0.551603 0.264584,-0.79375 -0.280168,-0.490326 -1.322917,-1.058333 -1.322917,-1.058333"
       style="fill:none;stroke-linecap:round;stroke-linejoin:round" />
    <path
       id="lktg5nsi7w"
       stroke-width="1.05833"
       stroke="#3d9970"
       d="m 42.053292,30.010203 v 0 c 0,0 0.04892,0.191188 0,0.264583 -0.138377,0.207566 -0.390789,0.321601 -0.529167,0.529167 -0.04892,0.0734 -0.07339,0.215661 0,0.264583 0.232066,0.154702 0.516573,0.233786 0.79375,0.264583 0.525939,0.05845 1.058334,0 1.5875,0 0.881936,0 1.763898,0 2.645834,0 1.146519,0 2.293725,0.0395 3.439583,0 1.413034,-0.04874 2.820088,-0.223017 4.233333,-0.264583 1.586812,-0.04667 3.175,0 4.7625,0 1.763898,0 3.527769,0 5.291667,0 2.028481,0 4.056935,0 6.085416,0 1.675686,0 3.351398,0 5.027084,0 1.499314,0 2.998602,0 4.497916,0 1.146519,0 2.294493,-0.05726 3.439584,0 0.622855,0.03114 1.22846,0.264583 1.852083,0.264583 0.798645,0 1.583981,-0.217672 2.38125,-0.264583 0.704347,-0.04143 1.411102,0 2.116666,0 0.529167,0 1.058334,0 1.5875,0 0.529167,0 1.058334,0 1.5875,0 0.176398,0 0.529167,0 0.529167,0"
       style="fill:none;stroke-linecap:round;stroke-linejoin:round" />
    <path
       id="lktg5ntmtk"
       stroke-width="1.05833"
       stroke="#3d9970"
       d="m 101.31996,28.422703 v 0 c 0,0 0.52916,0 0.79375,0 0.70556,0 1.41192,-0.03355 2.11666,0 1.14861,0.05469 3.43959,0.264583 3.43959,0.264583"
       style="fill:none;stroke-linecap:round;stroke-linejoin:round" />
    <path
       id="lktg5ntt3z"
       stroke-width="1.05833"
       stroke="#3d9970"
       d="m 101.84912,31.333119 v 0 c 0,0 -1.05833,0.134753 -1.05833,0.529167 0,0.352769 0.70617,-0.02064 1.05833,0 1.14793,0.06752 3.43959,0.264583 3.43959,0.264583"
       style="fill:none;stroke-linecap:round;stroke-linejoin:round" />
    <path
       id="lktg5nu2pf"
       stroke-width="1.05833"
       stroke="#3d9970"
       d="m 113.75537,29.481036 v 0 c 0,0 -0.34345,0.03945 -0.26458,0 0.42479,-0.212408 0.85087,-0.476726 1.32292,-0.529167 1.13951,-0.126603 3.43958,0 3.43958,0"
       style="fill:none;stroke-linecap:round;stroke-linejoin:round" />
    <path
       id="lktg5nu98q"
       stroke-width="1.05833"
       stroke="#3d9970"
       d="m 116.13662,31.068536 v 0 c 0,0 -1.44764,0.294852 -1.32291,0.79375 0.13012,0.520435 1.05103,0.264583 1.5875,0.264583 1.06201,0 3.175,-0.264583 3.175,-0.264583"
       style="fill:none;stroke-linecap:round;stroke-linejoin:round" />
    <path
       id="lktg5nuhhc"
       stroke-width="1.05833"
       stroke="#3d9970"
       d="m 125.13246,28.951869 v 0 c 0,0 -0.70557,0 -0.52917,0 0.35277,0 0.70633,0.02355 1.05833,0 0.97198,-0.0648 1.93964,-0.183673 2.91042,-0.264583 1.14594,-0.09549 3.43958,-0.264583 3.43958,-0.264583"
       style="fill:none;stroke-linecap:round;stroke-linejoin:round" />
    <path
       id="lktg5nuomi"
       stroke-width="1.05833"
       stroke="#3d9970"
       d="m 128.04287,31.333119 v 0 c 0,0 -1.11461,0.601239 -0.79375,0.79375 0.605,0.363009 1.41111,0 2.11667,0 0.97015,0 2.91042,0 2.91042,0"
       style="fill:none;stroke-linecap:round;stroke-linejoin:round" />
    <path
       id="lktg5pc9o6"
       stroke-width="1.05833"
       stroke="#3d9970"
       d="m 151.32621,16.781036 v 0 c 0,0 -0.17902,0.02143 -0.26459,0 -0.27056,-0.06765 -0.5443,-0.139859 -0.79375,-0.264583 -0.45997,-0.229976 -0.84545,-0.602748 -1.32291,-0.79375 -0.41754,-0.167005 -0.8767,-0.208809 -1.32292,-0.264584 -0.26255,-0.03281 -0.635,-0.211666 -0.79375,0 -0.21167,0.282231 -0.058,0.710354 0,1.058334 0.11957,0.717365 0.36563,1.408033 0.52917,2.116666 0.10112,0.438177 0.12237,0.896276 0.26458,1.322917 0.12473,0.374174 0.1764,0.881936 0.52917,1.058333 0.47331,0.236644 1.05833,0 1.5875,0 0.26458,0 0.52916,0 0.79375,0 0.1764,0 0.60804,-0.157771 0.52916,0 -0.14221,0.284427 -0.63931,0.251196 -0.79375,0.529167 -0.31181,0.561261 -0.34033,1.238409 -0.52916,1.852083 -0.16404,0.533136 -0.322,1.069605 -0.52917,1.5875 -0.14647,0.36621 -0.28279,0.750332 -0.52917,1.058334 -0.12319,0.153987 -0.33194,0.264583 -0.52916,0.264583 -0.2789,0 -0.55161,-0.126206 -0.79375,-0.264583 -0.38288,-0.218784 -0.71956,-0.51144 -1.05834,-0.79375 -0.19163,-0.159703 -0.45029,-0.292524 -0.52916,-0.529167 -0.11155,-0.334671 0,-0.705564 0,-1.058333 0,-0.08819 0,-0.264584 0,-0.264584"
       style="fill:none;stroke-linecap:round;stroke-linejoin:round" />
    <path
       id="lktg5pd51f"
       stroke-width="1.05833"
       stroke="#3d9970"
       d="m 162.43871,15.722703 v 0 c 0,0 -0.14626,-0.225134 -0.26459,-0.264584 -0.42664,-0.142213 -0.87545,-0.219842 -1.32291,-0.264583 -0.43879,-0.04387 -0.88464,-0.04871 -1.32292,0 -0.36142,0.04016 -0.81888,-0.009 -1.05833,0.264583 -0.44231,0.505487 -0.60569,1.207294 -0.79375,1.852084 -0.43127,1.47865 -0.75626,2.987569 -1.05834,4.497916 -0.13943,0.69723 -0.20552,1.408086 -0.26458,2.116667 -0.0293,0.351552 -0.1815,0.755835 0,1.058333 0.14348,0.239157 0.51766,0.225134 0.79375,0.264584 0.34922,0.0499 0.70556,0 1.05833,0 0.44098,0 0.89244,-0.09567 1.32292,0 0.38502,0.08557 0.69212,0.382693 1.05833,0.529166 0.0819,0.03276 0.21567,0.0734 0.26459,0 0.1547,-0.232066 0.23,-0.516996 0.26458,-0.79375 0.0547,-0.437568 0.0725,-0.887941 0,-1.322916 -0.10554,-0.633333 -0.14393,-1.338422 -0.52917,-1.852084 -0.21817,-0.290909 -0.69963,-0.204814 -1.05833,-0.264583 -0.70138,-0.116893 -1.41528,-0.14769 -2.11667,-0.264583 -0.35869,-0.05977 -1.05833,-0.264584 -1.05833,-0.264584"
       style="fill:none;stroke-linecap:round;stroke-linejoin:round" />
    <path
       id="lktg5pdtuu"
       stroke-width="1.05833"
       stroke="#3d9970"
       d="m 171.96371,17.310203 v 0 c 0,0 -0.84918,-0.563007 -1.32292,-0.529167 -0.83455,0.05961 -1.66984,0.353351 -2.38125,0.79375 -1.17136,0.725117 -2.43538,1.483572 -3.175,2.645833 -0.57602,0.905193 -0.70556,2.116667 -0.52917,3.175 0.11325,0.67945 0.70681,1.279446 1.32292,1.5875 1.05243,0.52623 2.28259,1.00801 3.43958,0.79375 1.39833,-0.258947 2.74757,-1.064392 3.70417,-2.116666 0.90363,-0.993987 1.30215,-2.39149 1.5875,-3.704167 0.16965,-0.780415 0.0701,-1.656133 -0.26458,-2.38125 -0.23665,-0.512736 -0.79415,-0.860054 -1.32292,-1.058333 -0.26114,-0.09792 -0.79375,0.264583 -0.79375,0.264583"
       style="fill:none;stroke-linecap:round;stroke-linejoin:round" />
    <path
       id="lktg5pe8cw"
       stroke-width="1.05833"
       stroke="#3d9970"
       d="m 184.39912,18.633119 v 0 c 0,0 -0.0851,-0.610764 -0.26458,-0.529166 -0.98004,0.445479 -1.8846,1.09085 -2.64583,1.852083 -1.02283,1.022826 -2.168,2.074307 -2.64584,3.439583 -0.22188,0.633968 0.25641,1.44907 0.79375,1.852084 0.65048,0.487865 1.5875,0.705564 2.38125,0.529166 0.93126,-0.206957 1.84082,-0.801396 2.38125,-1.5875 0.50954,-0.74115 0.57907,-1.747811 0.52917,-2.645833 -0.0418,-0.752369 -0.5139,-1.417029 -0.79375,-2.116667 -0.0732,-0.183091 -0.26458,-0.529166 -0.26458,-0.529166"
       style="fill:none;stroke-linecap:round;stroke-linejoin:round" />
    <path
       id="lktg5pfbz1"
       stroke-width="1.05833"
       stroke="#3d9970"
       d="m 143.65329,30.803953 v 0 c 0,0 -0.70556,0 -0.52917,0 0.61736,0 1.2355,0.03082 1.85209,0 2.91211,-0.145601 5.81633,-0.45892 8.73125,-0.529167 4.40843,-0.10623 8.81967,0.04366 13.22916,0 4.49856,-0.04453 8.99528,-0.211032 13.49375,-0.264583 2.91021,-0.03463 5.82229,0.09234 8.73125,0 2.65039,-0.08414 5.30117,-0.244158 7.9375,-0.529167 0.63834,-0.069 1.85209,-0.529167 1.85209,-0.529167"
       style="fill:none;stroke-linecap:round;stroke-linejoin:round" />
    <path
       id="lktg5pfuoo"
       stroke-width="1.05833"
       stroke="#3d9970"
       d="m 163.23246,34.772703 v 0 c 0,0 0.32694,-0.06236 0.26458,0 -0.48707,0.487071 -1.07415,0.863626 -1.5875,1.322916 -1.16282,1.040421 -2.33627,2.071688 -3.43958,3.175 -0.39931,0.399309 -1.05834,0.75819 -1.05834,1.322917 0,0.363643 0.69893,0.209285 1.05834,0.264583 0.78936,0.121444 1.58438,0.211455 2.38125,0.264583 0.528,0.03519 1.06156,0.05845 1.5875,0 0.27717,-0.0308 0.93212,-0.02249 0.79375,-0.264583 -0.40341,-0.705988 -1.24913,-1.041982 -1.85209,-1.5875 -1.24944,-1.130459 -2.54936,-2.212604 -3.70416,-3.439583 -0.27033,-0.287205 -0.67564,-0.692124 -0.52917,-1.058333 0.13504,-0.337635 0.69551,-0.240401 1.05833,-0.264584 0.96798,-0.06453 1.94107,0.03876 2.91042,0 1.23687,-0.04948 3.70417,-0.264583 3.70417,-0.264583"
       style="fill:none;stroke-linecap:round;stroke-linejoin:round" />
    <path
       id="lktg5pgek4"
       stroke-width="1.05833"
       stroke="#3d9970"
       d="m 171.69912,37.418536 v 0 c 0,0 0,0 0,0 0.52917,-0.440981 1.00809,-0.950436 1.5875,-1.322917 0.66355,-0.426561 1.36832,-0.808884 2.11667,-1.058333 0.33467,-0.111548 0.91506,-0.322368 1.05833,0 0.32237,0.725329 0.079,1.591442 0,2.38125 -0.0981,0.981154 -0.52916,1.924367 -0.52916,2.910416 0,0.557795 0.52916,1.5875 0.52916,1.5875"
       style="fill:none;stroke-linecap:round;stroke-linejoin:round" />
    <path
       id="lktg5pgy58"
       stroke-width="1.05833"
       stroke="#3d9970"
       d="m 212.97412,17.574786 v 0 c 0,0 0.0706,-0.211667 0,-0.264583 -0.31554,-0.236644 -0.68056,-0.642514 -1.05833,-0.529167 -0.65977,0.197935 -1.2265,0.736283 -1.5875,1.322917 -0.38116,0.619389 -0.88236,1.480926 -0.52917,2.116666 0.30287,0.545148 1.23029,0.31242 1.85209,0.264584 0.55615,-0.04278 1.26762,-0.0722 1.5875,-0.529167 0.40775,-0.582507 0.19383,-1.409144 0.26458,-2.116667 0.0175,-0.175524 0,-0.529166 0,-0.529166"
       style="fill:none;stroke-linecap:round;stroke-linejoin:round" />
    <path
       id="lktg5phb4u"
       stroke-width="1.05833"
       stroke="#3d9970"
       d="m 221.17621,22.337286 v 0 c 0,0 -1.3869,1.263544 -2.11667,1.852083 -2.00507,1.616975 -4.1297,3.08618 -6.08542,4.7625 -1.75257,1.502199 -3.36055,3.165396 -5.02708,4.7625 -0.45024,0.431483 -1.32292,1.322917 -1.32292,1.322917"
       style="fill:none;stroke-linecap:round;stroke-linejoin:round" />
    <path
       id="lktg5phjea"
       stroke-width="1.05833"
       stroke="#3d9970"
       d="m 218.00121,32.391453 v 0 c 0,0 0,0 0,0 -0.35277,0.264583 -0.81373,0.426825 -1.05834,0.79375 -0.3094,0.464105 -0.47365,1.032483 -0.52916,1.5875 -0.0362,0.361817 -0.0607,0.89572 0.26458,1.058333 0.40222,0.20111 0.93729,-0.0332 1.32292,-0.264583 0.53475,-0.320861 1.08307,-0.747263 1.32291,-1.322917 0.23744,-0.56986 0.2761,-1.299898 0,-1.852083 -0.16261,-0.325253 -1.05833,-0.264584 -1.05833,-0.264584"
       style="fill:none;stroke-linecap:round;stroke-linejoin:round" />
    <path
       id="lktg5rxsr9"
       stroke-width="1.05833"
       stroke="#3d9970"
       d="m 234.40537,23.660203 v 0 c 0,0 -0.70556,0.352769 -0.52916,0.264583 0.70556,-0.352769 1.4111,-0.705564 2.11666,-1.058333 0.35277,-0.176398 0.6757,-0.433494 1.05834,-0.529167 0.34223,-0.08557 0.72366,-0.111548 1.05833,0 0.23664,0.07887 0.33753,0.369464 0.52917,0.529167 0.33877,0.28231 0.66392,0.596529 1.05833,0.79375 0.32525,0.162613 0.69652,0.300778 1.05833,0.264583 0.55502,-0.05551 1.5875,-0.529167 1.5875,-0.529167"
       style="fill:none;stroke-linecap:round;stroke-linejoin:round" />
    <path
       id="lktg5ry9ls"
       stroke-width="1.05833"
       stroke="#3d9970"
       d="m 234.40537,27.628953 v 0 c 0,0 0.32618,-0.384175 0.52917,-0.529167 0.41846,-0.2989 0.83505,-0.631137 1.32292,-0.79375 0.33467,-0.111548 0.70829,-0.04376 1.05833,0 0.36084,0.04511 0.73308,0.10197 1.05833,0.264583 0.39442,0.197221 0.65538,0.614654 1.05834,0.79375 0.41095,0.182642 0.8732,0.264584 1.32291,0.264584 0.79865,0 2.38125,-0.264584 2.38125,-0.264584"
       style="fill:none;stroke-linecap:round;stroke-linejoin:round" />
    <path
       id="lktg5ryyj10"
       stroke-width="1.05833"
       stroke="#3d9970"
       d="m 297.37621,17.839369 v 0 c 0,0 -0.33264,-0.280961 -0.52917,-0.264583 -0.8963,0.07469 -1.92056,-0.0026 -2.64583,0.529167 -0.73224,0.536972 -1.39833,1.476375 -1.32292,2.38125 0.0491,0.589571 0.9969,0.828489 1.5875,0.79375 1.0305,-0.06062 2.18048,-0.328401 2.91042,-1.058334 0.50278,-0.502787 0.26458,-1.405625 0.26458,-2.116666 0,-0.449713 -0.26458,-1.322917 -0.26458,-1.322917"
       style="fill:none;stroke-linecap:round;stroke-linejoin:round" />
    <path
       id="lktg5rzcol"
       stroke-width="1.05833"
       stroke="#3d9970"
       d="m 297.37621,27.364369 v 0 c 0,0 -2.35202,1.874626 -3.43959,2.910417 -0.76904,0.732419 -2.11666,2.38125 -2.11666,2.38125"
       style="fill:none;stroke-linecap:round;stroke-linejoin:round" />
    <path
       id="lktg5rzlge"
       stroke-width="1.05833"
       stroke="#3d9970"
       d="m 301.60954,29.745619 v 0 c 0,0 -1.13361,0.204947 -1.5875,0.529167 -0.81195,0.579967 -1.59372,1.266878 -2.11667,2.116667 -0.23111,0.375549 -0.39441,1.125696 0,1.322916 0.78883,0.394415 1.79782,0.242279 2.64584,0 1.06256,-0.303583 2.21064,-0.732208 2.91041,-1.5875 0.30075,-0.367585 -0.23757,-0.948028 -0.52916,-1.322916 -0.34671,-0.44577 -1.32292,-1.058334 -1.32292,-1.058334"
       style="fill:none;stroke-linecap:round;stroke-linejoin:round" />
    <path
       id="lktg5sn8yw"
       stroke-width="1.05833"
       stroke="#91e99b"
       d="m 13.742876,57.791452 v 0 c 0,0 -0.264584,-0.08819 -0.264584,0 0,0.124725 0.140626,0.250799 0.264584,0.264584 0.701251,0.07792 1.411102,0 2.116666,0 0.79375,0 1.588717,0.04403 2.38125,0 0.797402,-0.04429 1.58496,-0.203333 2.38125,-0.264584 0.351737,-0.02707 0.705565,0 1.058334,0 0.08818,0 0.264583,-0.08819 0.264583,0 0,0.278898 -0.109881,0.561684 -0.264583,0.79375 -0.382085,0.573141 -0.900033,1.043781 -1.322917,1.5875 -0.812191,1.044258 -1.577631,2.124128 -2.38125,3.175 -0.343032,0.448601 -1.058333,1.322917 -1.058333,1.322917"
       style="fill:none;stroke-linecap:round;stroke-linejoin:round" />
    <path
       id="lktg5snzof"
       stroke-width="1.05833"
       stroke="#91e99b"
       d="m 15.065792,64.670619 v 0 c 0,0 -0.352769,0 -0.529166,0 -0.264584,0 -0.54274,-0.08366 -0.79375,0 -0.08366,0.02789 -0.08752,0.253656 0,0.264583 0.700114,0.08752 1.411102,0 2.116666,0 0.881936,0 1.765406,0.05178 2.645834,0 0.622564,-0.03662 1.852083,-0.264583 1.852083,-0.264583"
       style="fill:none;stroke-linecap:round;stroke-linejoin:round" />
    <path
       id="lktg5sohsi"
       stroke-width="1.05833"
       stroke="#91e99b"
       d="m 30.411626,57.526869 v 0 c 0,0 -0.142267,-0.240109 -0.264584,-0.264583 -0.345916,-0.06919 -0.747712,-0.167244 -1.058333,0 -0.885375,0.476752 -1.710743,1.102677 -2.38125,1.852083 -0.848148,0.947923 -1.878674,1.925505 -2.116667,3.175 -0.162533,0.853281 0.391054,1.825175 1.058334,2.38125 0.546232,0.455189 1.409964,0.343111 2.116666,0.264583 0.915141,-0.101679 1.89656,-0.258551 2.645834,-0.79375 0.57859,-0.413279 1.058333,-1.141042 1.058333,-1.852083 0,-0.949881 -0.696674,-1.767496 -1.058333,-2.645833 -0.255747,-0.621083 -0.710433,-1.185598 -0.79375,-1.852084 -0.02434,-0.195686 0.529166,-0.264583 0.529166,-0.264583"
       style="fill:none;stroke-linecap:round;stroke-linejoin:round" />
    <path
       id="lktg5soyca"
       stroke-width="1.05833"
       stroke="#91e99b"
       d="m 42.582459,59.114369 v 0 c 0,0 -0.333481,-0.240109 -0.529167,-0.264583 -0.525092,-0.06564 -1.093602,-0.189971 -1.5875,0 -0.708104,0.272362 -1.369774,0.737261 -1.852083,1.322916 -0.778881,0.945806 -1.723814,1.956488 -1.852084,3.175 -0.07943,0.754512 0.66167,1.480132 1.322917,1.852083 0.85942,0.483421 1.925479,0.576078 2.910417,0.529167 0.919744,-0.04379 1.903306,-0.249237 2.645833,-0.79375 0.670957,-0.492019 1.274048,-1.286087 1.322917,-2.116666 0.05101,-0.867119 -0.605393,-1.640073 -1.058334,-2.38125 -0.524351,-0.858044 -1.141042,-1.670209 -1.852083,-2.38125 -0.19722,-0.197221 -0.79375,-0.264584 -0.79375,-0.264584"
       style="fill:none;stroke-linecap:round;stroke-linejoin:round" />
    <path
       id="lktg5sr46e"
       stroke-width="1.05833"
       stroke="#91e99b"
       d="m 51.049125,59.908119 v 0 c 0,0 -0.264583,-0.08819 -0.264583,0 0,0.124724 0.163089,0.192087 0.264583,0.264583 0.517525,0.36965 1.018673,0.773906 1.5875,1.058334 0.498899,0.249449 1.5875,0.529166 1.5875,0.529166"
       style="fill:none;stroke-linecap:round;stroke-linejoin:round" />
    <path
       id="lktg5srbrp"
       stroke-width="1.05833"
       stroke="#91e99b"
       d="m 51.313709,62.553952 v 0 c 0,0 0.270404,-0.608912 0.529166,-0.79375 0.386477,-0.276066 0.907733,-0.298503 1.322917,-0.529166 0.385471,-0.214154 1.058333,-0.79375 1.058333,-0.79375"
       style="fill:none;stroke-linecap:round;stroke-linejoin:round" />
    <path
       id="lktg5srj34"
       stroke-width="1.05833"
       stroke="#91e99b"
       d="m 53.165792,59.643536 v 0 c 0,0 -0.46064,0.289321 -0.529167,0.529166 -0.121152,0.423995 -0.106944,0.895112 0,1.322917 0.162904,0.651616 0.79375,1.852083 0.79375,1.852083"
       style="fill:none;stroke-linecap:round;stroke-linejoin:round" />
    <path
       id="lktg5srrwg"
       stroke-width="1.05833"
       stroke="#91e99b"
       d="m 60.309542,61.760202 v 0 c 0,0 0,0 0,0 0.176398,-0.264583 0.319775,-0.554434 0.529167,-0.79375 0.410659,-0.469318 0.927999,-0.840264 1.322916,-1.322916 0.402722,-0.492231 0.575469,-1.173613 1.058333,-1.5875 0.200899,-0.172191 0.760942,-0.262546 0.79375,0 0.0902,0.721651 -0.444182,1.39438 -0.529166,2.116666 -0.09274,0.788326 -0.104907,1.594459 0,2.38125 0.07371,0.5529 0.529166,1.5875 0.529166,1.5875"
       style="fill:none;stroke-linecap:round;stroke-linejoin:round" />
    <path
       id="lktg5ss2ol"
       stroke-width="1.05833"
       stroke="#91e99b"
       d="m 73.009542,59.908119 v 0 c 0,0 0.01482,-0.825553 -0.264584,-1.058333 -0.345466,-0.287894 -0.920697,-0.465694 -1.322916,-0.264584 -0.616109,0.308055 -0.998776,0.979726 -1.322917,1.5875 -0.393726,0.738241 -1.075161,1.593321 -0.79375,2.38125 0.27985,0.783564 1.298893,1.169591 2.116667,1.322917 0.714824,0.134038 1.602396,-0.01482 2.116666,-0.529167 0.440981,-0.440981 0.395261,-1.242298 0.264584,-1.852083 -0.148987,-0.695272 -0.676593,-1.252194 -1.058334,-1.852083 -0.236749,-0.372031 -0.79375,-1.058334 -0.79375,-1.058334"
       style="fill:none;stroke-linecap:round;stroke-linejoin:round" />
    <path
       id="lktg5ssf51"
       stroke-width="1.05833"
       stroke="#91e99b"
       d="m 84.915792,58.056036 v 0 c 0,0 -0.352769,0 -0.529167,0 -0.705564,0 -1.451346,-0.234818 -2.116667,0 -0.899583,0.3175 -1.774798,0.851111 -2.38125,1.5875 -0.677439,0.822616 -1.38938,1.846844 -1.322916,2.910416 0.04297,0.687467 0.912045,1.187821 1.5875,1.322917 0.797321,0.159464 1.691719,-0.09821 2.38125,-0.529167 0.79502,-0.496887 1.594537,-1.215231 1.852083,-2.116666 0.162533,-0.568855 -0.574014,-1.038199 -0.79375,-1.5875 -0.135043,-0.337635 -0.264583,-1.058334 -0.264583,-1.058334"
       style="fill:none;stroke-linecap:round;stroke-linejoin:round" />
    <path
       id="lktg5sss31"
       stroke-width="1.05833"
       stroke="#91e99b"
       d="m 93.382458,55.145619 v 0 c 0,0 0.01058,-0.747898 -0.264583,-0.79375 -0.468471,-0.07808 -1.026213,0.1583 -1.322917,0.529167 -0.174228,0.217778 0.102473,0.56679 0.264583,0.79375 0.289984,0.405976 0.591185,0.883152 1.058334,1.058333 0.340492,0.127688 0.774382,-0.03741 1.058333,-0.264583 0.217779,-0.174229 0.264583,-0.514853 0.264583,-0.79375 0,-0.278898 -0.264583,-0.79375 -0.264583,-0.79375"
       style="fill:none;stroke-linecap:round;stroke-linejoin:round" />
    <path
       id="lktg5st37g"
       stroke-width="1.05833"
       stroke="#91e99b"
       d="m 99.203291,57.262286 v 0 c 0,0 -0.172931,0.179996 -0.264583,0.264583 -1.054947,0.973799 -2.120053,1.936618 -3.175,2.910417 -1.238118,1.142867 -2.512721,2.248138 -3.704167,3.439583 -0.399309,0.399309 -1.058333,1.322916 -1.058333,1.322916"
       style="fill:none;stroke-linecap:round;stroke-linejoin:round" />
    <path
       id="lktg5stavx"
       stroke-width="1.05833"
       stroke="#91e99b"
       d="m 99.467875,64.670619 v 0 c 0,0 0.352769,-0.529167 0.264583,-0.79375 -0.05577,-0.167349 -0.38563,-0.102526 -0.529167,0 -0.50747,0.362479 -0.965279,0.812033 -1.322916,1.322916 -0.272362,0.389097 -0.764805,0.910564 -0.529167,1.322917 0.276754,0.484293 1.029705,0.529167 1.5875,0.529167 0.557795,0 1.158982,-0.172085 1.587502,-0.529167 0.20325,-0.169386 0.12848,-0.562451 0,-0.79375 -0.33451,-0.602139 -1.322919,-1.5875 -1.322919,-1.5875"
       style="fill:none;stroke-linecap:round;stroke-linejoin:round" />
    <path
       id="lktg5su0pc"
       stroke-width="1.05833"
       stroke="#91e99b"
       d="m 11.890792,69.962285 v 0 c 0,0 -1.307782,-0.249449 -1.058333,0 0.318003,0.318003 0.873363,0.252757 1.322917,0.264584 2.909411,0.07657 5.821045,0.03463 8.73125,0 4.498472,-0.05355 8.99496,-0.264584 13.49375,-0.264584 3.617039,0 7.233919,0.116073 10.847916,0.264584 2.825353,0.116099 5.639276,0.573352 8.466667,0.529166 2.834243,-0.04429 5.639011,-0.595312 8.466666,-0.79375 2.201201,-0.154463 4.414467,-0.09535 6.614583,-0.264583 2.388844,-0.183753 4.756865,-0.586184 7.14375,-0.79375 1.671717,-0.145362 3.349758,-0.216667 5.027084,-0.264583 1.410546,-0.0403 2.822231,0 4.233333,0 1.499314,0 2.998602,0 4.497916,0 1.322917,0 2.64668,-0.04723 3.96875,0 1.149192,0.04104 2.290842,0.212381 3.439584,0.264583 0.79293,0.03604 1.5875,0 2.38125,0 0.617355,0 1.234735,0 1.852085,0 0.26458,0 0.52916,0 0.79375,0 0.26458,0 0.5571,-0.118322 0.79375,0 0.1764,0.08819 0.12515,0.389731 0.26458,0.529167 0.0624,0.06236 0.35277,0 0.26458,0 -0.17639,0 -0.52916,0 -0.52916,0"
       style="fill:none;stroke-linecap:round;stroke-linejoin:round" />
    <path
       id="lktg5sw8b8"
       stroke-width="1.05833"
       stroke="#91e99b"
       d="m 39.936625,78.164369 v 0 c 0,0 -0.529166,0 -0.79375,0 -0.440981,0 -0.884131,0.04387 -1.322916,0 -0.447464,-0.04474 -0.948743,-0.01508 -1.322917,-0.264584 -0.469873,-0.31324 -0.828966,-0.806873 -1.058333,-1.322916 -0.143272,-0.322369 -0.171318,-0.749962 0,-1.058334 0.302868,-0.545147 0.791792,-0.996077 1.322916,-1.322916 0.641747,-0.394917 1.371892,-0.679159 2.116667,-0.79375 0.444474,-0.06837 1.004914,-0.05342 1.322917,0.264583 0.474953,0.474954 0.79375,1.180412 0.79375,1.852083 0,0.671672 -0.477679,1.259443 -0.79375,1.852084 -0.391531,0.734139 -0.713211,1.550511 -1.322917,2.116666 -0.6654,0.617855 -1.525005,1.02071 -2.38125,1.322917 -0.670507,0.236643 -2.116666,0.264583 -2.116666,0.264583"
       style="fill:none;stroke-linecap:round;stroke-linejoin:round" />
    <path
       id="lktg5swwu4"
       stroke-width="1.05833"
       stroke="#91e99b"
       d="m 51.313709,73.666452 v 0 c 0,0 -0.521494,-0.204073 -0.79375,-0.264583 -0.52369,-0.116364 -1.078574,-0.09493 -1.5875,-0.264584 -0.301678,-0.100568 -0.492072,-0.428598 -0.79375,-0.529166 -0.251011,-0.08366 -0.606663,-0.187087 -0.79375,0 -0.257122,0.257122 -0.264584,0.69469 -0.264584,1.058333 0,0.623623 0.162058,1.236927 0.264584,1.852083 0.07392,0.443574 0.0032,0.956972 0.264583,1.322917 0.229261,0.32094 0.666327,0.485616 1.058333,0.529167 0.446961,0.04966 0.886646,-0.155522 1.322917,-0.264584 0.270563,-0.06765 0.514853,-0.264583 0.79375,-0.264583 0.08819,0 0.05509,0.195712 0,0.264583 -0.311653,0.389573 -0.772239,0.649605 -1.058333,1.058334 -0.339276,0.48469 -0.61976,1.022032 -0.79375,1.5875 -0.18341,0.596053 -0.129302,1.243303 -0.264584,1.852083 -0.04278,0.192511 -0.125148,0.389731 -0.264583,0.529167 -0.311811,0.311811 -0.645451,0.638915 -1.058333,0.79375 -0.330306,0.123878 -0.742792,0.157771 -1.058334,0 -0.284427,-0.142214 -0.411056,-0.498502 -0.529166,-0.79375 -0.06551,-0.163777 0,-0.352769 0,-0.529167 0,-0.352769 0,-0.705564 0,-1.058333 0,-0.264584 0,-0.79375 0,-0.79375"
       style="fill:none;stroke-linecap:round;stroke-linejoin:round" />
    <path
       id="lktg5sxphd"
       stroke-width="1.05833"
       stroke="#91e99b"
       d="m 59.515792,74.195619 v 0 c 0,0 -0.666327,-0.572717 -1.058333,-0.529167 -0.511123,0.05678 -0.924904,0.468101 -1.322917,0.79375 -0.579199,0.473895 -1.179645,0.960041 -1.5875,1.5875 -0.752343,1.157446 -1.593771,2.348098 -1.852083,3.704167 -0.125677,0.659818 0.318796,1.377129 0.79375,1.852083 0.557794,0.557795 1.333235,0.966152 2.116666,1.058333 0.807535,0.09501 1.68402,-0.110834 2.38125,-0.529166 0.69723,-0.418333 1.318895,-1.084633 1.5875,-1.852084 0.379862,-1.085347 0.427196,-2.301213 0.264584,-3.439583 -0.111549,-0.780918 -0.605976,-1.470422 -1.058334,-2.116667 -0.182351,-0.260508 -0.79375,-0.529166 -0.79375,-0.529166"
       style="fill:none;stroke-linecap:round;stroke-linejoin:round" />
    <path
       id="lktg5t2e76"
       stroke-width="1.05833"
       stroke="#91e99b"
       d="m 111.37412,65.993535 v 0 c 0,0 0.70557,0 1.05834,0 0.79375,0 1.5875,0 2.38125,0 0.61735,0 1.23629,0.04397 1.85208,0 0.62204,-0.04442 1.85208,-0.264583 1.85208,-0.264583"
       style="fill:none;stroke-linecap:round;stroke-linejoin:round" />
    <path
       id="lktg5t2lox"
       stroke-width="1.05833"
       stroke="#91e99b"
       d="m 112.69704,68.374785 v 0 c 0,0 -0.37613,0.20881 -0.26458,0.264584 0.40222,0.20111 0.87434,0.232542 1.32291,0.264583 0.79174,0.05654 2.38125,0 2.38125,0"
       style="fill:none;stroke-linecap:round;stroke-linejoin:round" />
    <path
       id="lktg5t2wny"
       stroke-width="1.05833"
       stroke="#91e99b"
       d="m 124.33871,65.199785 v 0 c 0,0 0.14155,-0.244078 0.26458,-0.264583 0.43498,-0.0725 0.88413,-0.04387 1.32292,0 0.44746,0.04474 1.32291,0.264583 1.32291,0.264583"
       style="fill:none;stroke-linecap:round;stroke-linejoin:round" />
    <path
       id="lktg5t33q8"
       stroke-width="1.05833"
       stroke="#91e99b"
       d="m 123.54496,67.316452 v 0 c 0,0 0.14081,0.249105 0.26458,0.264583 0.61259,0.07657 1.23473,0 1.85208,0 0.88194,0 2.64584,0 2.64584,0"
       style="fill:none;stroke-linecap:round;stroke-linejoin:round" />
    <path
       id="lktg5t3dbl"
       stroke-width="1.05833"
       stroke="#91e99b"
       d="m 132.80537,65.199785 v 0 c 0,0 0,0 0,0 0.44099,0 0.88194,0 1.32292,0 0.88194,0 2.64583,0 2.64583,0"
       style="fill:none;stroke-linecap:round;stroke-linejoin:round" />
    <path
       id="lktg5t3jt4"
       stroke-width="1.05833"
       stroke="#91e99b"
       d="m 134.39287,67.316452 v 0 c 0,0 -1.05833,0 -0.79375,0 0.52917,0 1.05834,0 1.5875,0 0.88194,0 2.64584,0 2.64584,0"
       style="fill:none;stroke-linecap:round;stroke-linejoin:round" />
    <path
       id="lktg5t5mju"
       stroke-width="1.05833"
       stroke="#91e99b"
       d="m 53.694959,81.868535 v 0 c 0,0 1.273492,-0.645054 1.852083,-1.058333 1.894708,-1.353344 3.723666,-2.79699 5.55625,-4.233333 1.430999,-1.121596 4.233333,-3.439584 4.233333,-3.439584"
       style="fill:none;stroke-linecap:round;stroke-linejoin:round" />
    <path
       id="lktg5t6jis"
       stroke-width="1.05833"
       stroke="#91e99b"
       d="m 33.851209,67.581035 v 0 c 0,0 0.369305,-0.149119 0.529167,-0.264583 1.42994,-1.032748 2.83673,-2.097617 4.233333,-3.175 1.690423,-1.304052 3.406087,-2.579343 5.027083,-3.96875 0.852302,-0.730541 2.38125,-2.38125 2.38125,-2.38125"
       style="fill:none;stroke-linecap:round;stroke-linejoin:round" />
    <path
       id="lktg5tcqbe"
       stroke-width="1.05833"
       stroke="#91e99b"
       d="m 144.44704,74.195619 v 0 c 0,0 0.50964,-0.550228 0.79375,-0.79375 0.3348,-0.286994 0.74652,-0.481939 1.05833,-0.79375 0.39931,-0.399309 0.7451,-0.853043 1.05834,-1.322917 0.21878,-0.328163 0.31038,-1.386496 0.52916,-1.058333 0.34245,0.513688 0.0362,1.235789 0,1.852083 -0.052,0.88482 -0.16102,1.765565 -0.26458,2.645833 -0.0729,0.619363 -0.26458,1.228461 -0.26458,1.852084 0,0.19722 0.26458,0.529166 0.26458,0.529166"
       style="fill:none;stroke-linecap:round;stroke-linejoin:round" />
    <path
       id="lktg5td7vs"
       stroke-width="1.05833"
       stroke="#91e99b"
       d="m 157.14704,74.195619 v 0 c 0,0 0,0 0,0 -0.1764,0 -0.37139,0.07887 -0.52917,0 -0.22312,-0.111549 -0.30122,-0.427858 -0.52916,-0.529167 -0.58672,-0.260773 -1.25942,-0.282231 -1.85209,-0.529167 -0.47468,-0.197802 -0.98824,-0.403304 -1.32291,-0.79375 -0.23665,-0.276092 -0.39227,-0.717841 -0.26459,-1.058333 0.17518,-0.467148 0.62738,-0.806953 1.05834,-1.058333 0.65087,-0.379677 1.40703,-0.540306 2.11666,-0.79375 0.52531,-0.187616 1.03249,-0.584676 1.5875,-0.529167 0.43879,0.04387 0.90763,0.379333 1.05834,0.79375 0.24111,0.663072 0,1.411102 0,2.116667 0,0.79375 0.14629,1.601099 0,2.38125 -0.12377,0.660162 -0.40336,1.305533 -0.79375,1.852083 -0.50747,0.710459 -1.09112,1.42404 -1.85209,1.852083 -0.70868,0.398648 -2.38125,0.529167 -2.38125,0.529167"
       style="fill:none;stroke-linecap:round;stroke-linejoin:round" />
    <path
       id="lktg5tln9y"
       stroke-width="1.05833"
       stroke="#91e99b"
       d="m 145.24079,57.791452 v 0 c 0,0 0,0 0,0 -0.0882,-0.08819 -0.26458,-0.139859 -0.26458,-0.264583 0,-0.124725 0.1764,-0.176398 0.26458,-0.264583 0.35277,-0.352769 0.70557,-0.705565 1.05833,-1.058334 0.35277,-0.352769 0.76835,-0.652356 1.05834,-1.058333 0.16211,-0.22696 0.13986,-0.544301 0.26458,-0.79375 0.0558,-0.111548 0.15304,-0.208809 0.26458,-0.264583 0.0789,-0.03945 0.24728,-0.08649 0.26459,0 0.0865,0.432408 0.0338,0.883232 0,1.322916 -0.0545,0.708951 -0.21392,1.407425 -0.26459,2.116667 -0.0377,0.527817 0,1.058333 0,1.5875 0,0.352769 0,1.058333 0,1.058333"
       style="fill:none;stroke-linecap:round;stroke-linejoin:round" />
    <path
       id="lktg5tmjqn"
       stroke-width="1.05833"
       stroke="#91e99b"
       d="m 156.35329,57.526869 v 0 c 0,0 -0.17706,0.01085 -0.26458,0 -0.61881,-0.07736 -1.24709,-0.113321 -1.85209,-0.264583 -0.46077,-0.1152 -0.8782,-0.3624 -1.32291,-0.529167 -0.26115,-0.09792 -0.51864,-0.218731 -0.79375,-0.264583 -0.26099,-0.0435 -0.54274,0.08366 -0.79375,0 -0.0837,-0.02789 -0.0624,-0.202221 0,-0.264584 0.31181,-0.311811 0.72646,-0.50337 1.05833,-0.79375 0.37547,-0.328533 0.75898,-0.659209 1.05833,-1.058333 0.23665,-0.315542 0.35277,-0.705564 0.52917,-1.058333 0.0882,-0.176398 0.21675,-0.720487 0.26458,-0.529167 0.12835,0.513371 -0.0699,1.062963 0,1.5875 0.10748,0.805974 0.43937,1.573107 0.52917,2.38125 0.0877,0.788908 0.0984,1.593638 0,2.38125 -0.0796,0.637117 -0.52917,1.852083 -0.52917,1.852083"
       style="fill:none;stroke-linecap:round;stroke-linejoin:round" />
    <path
       id="lktg5tnlk2"
       stroke-width="1.05833"
       stroke="#91e99b"
       d="m 164.29079,53.028952 v 0 c 0,0 -0.5312,-0.03281 -0.79375,0 -0.44622,0.05577 -0.95922,8e-5 -1.32292,0.264584 -0.65759,0.47826 -1.15654,1.162552 -1.5875,1.852083 -0.46037,0.736573 -0.95684,1.518576 -1.05833,2.38125 -0.085,0.722286 0.0686,1.553792 0.52917,2.116667 0.42531,0.519853 1.18041,0.79375 1.85208,0.79375 0.67167,0 1.35509,-0.341948 1.85208,-0.79375 0.52613,-0.478314 0.8577,-1.169935 1.05834,-1.852084 0.25008,-0.850318 0.26458,-1.759479 0.26458,-2.645833 0,-0.449712 -0.10668,-0.901832 -0.26458,-1.322917 -0.11166,-0.297735 -0.52917,-0.79375 -0.52917,-0.79375"
       style="fill:none;stroke-linecap:round;stroke-linejoin:round" />
    <path
       id="lktg5to0zh"
       stroke-width="1.05833"
       stroke="#91e99b"
       d="m 174.34496,55.145619 v 0 c 0,0 -0.13986,-0.264583 -0.26459,-0.264583 -0.44971,0 -0.92069,0.06347 -1.32291,0.264583 -0.67858,0.339302 -1.35835,0.746892 -1.85209,1.322917 -0.59092,0.689424 -1.2029,1.48119 -1.32291,2.38125 -0.0782,0.586449 0.33925,1.208749 0.79375,1.5875 0.66728,0.556074 1.51384,1.103973 2.38125,1.058333 0.98467,-0.05183 1.90068,-0.677122 2.64583,-1.322917 0.62876,-0.544909 1.26757,-1.286483 1.32292,-2.116666 0.0473,-0.709481 -0.55555,-1.349296 -1.05834,-1.852084 -0.58832,-0.588327 -2.11666,-1.322916 -2.11666,-1.322916"
       style="fill:none;stroke-linecap:round;stroke-linejoin:round" />
    <path
       id="lktg5toncw"
       stroke-width="1.05833"
       stroke="#91e99b"
       d="m 145.24079,64.141452 v 0 c 0,0 -0.54808,-0.09827 -0.79375,0 -0.23162,0.09266 -0.72871,0.379492 -0.52917,0.529167 0.42918,0.321892 1.05154,0.241273 1.5875,0.264583 1.49789,0.06511 2.99861,0 4.49792,0 2.82223,0 5.64444,0 8.46667,0 2.73402,0 5.46806,0 8.20208,0 1.32292,0 2.64583,0 3.96875,0 1.14652,0 2.29306,0 3.43958,0 0.52917,0 1.5875,0 1.5875,0"
       style="fill:none;stroke-linecap:round;stroke-linejoin:round" />
    <path
       id="lktg5tpcni"
       stroke-width="1.05833"
       stroke="#91e99b"
       d="m 187.30954,58.585202 v 0 c 0,0 -0.25307,-0.635979 -0.52917,-0.79375 -0.39044,-0.223123 -0.87545,-0.309324 -1.32291,-0.264583 -0.47258,0.04725 -1.0712,0.126418 -1.32292,0.529167 -0.28046,0.448733 -0.37417,1.213326 0,1.5875 0.44098,0.440981 1.24442,0.404812 1.85208,0.264583 0.61968,-0.143007 1.16499,-0.583009 1.5875,-1.058333 0.31555,-0.354965 0.52917,-0.847964 0.52917,-1.322917 0,-0.394414 -0.29252,-0.742791 -0.52917,-1.058333 -0.0529,-0.07057 -0.26458,0 -0.26458,0"
       style="fill:none;stroke-linecap:round;stroke-linejoin:round" />
    <path
       id="lktg5tprlm"
       stroke-width="1.05833"
       stroke="#91e99b"
       d="m 193.65954,62.553952 v 0 c 0,0 -0.73895,0.675058 -1.05833,1.058334 -1.00526,1.206314 -1.91852,2.486845 -2.91042,3.704166 -0.94872,1.164326 -1.97218,2.266791 -2.91042,3.439583 -0.47394,0.592429 -0.96321,1.18409 -1.32291,1.852084 -0.26445,0.491119 -0.52917,1.5875 -0.52917,1.5875"
       style="fill:none;stroke-linecap:round;stroke-linejoin:round" />
    <path
       id="lktg5tq49l"
       stroke-width="1.05833"
       stroke="#91e99b"
       d="m 193.92412,70.226869 v 0 c 0,0 -0.37139,-0.07887 -0.52916,0 -0.39442,0.19722 -0.76796,0.461883 -1.05834,0.79375 -0.33864,0.387006 -0.73697,0.811794 -0.79375,1.322916 -0.0435,0.392007 0.16664,0.90297 0.52917,1.058334 0.41333,0.177138 0.98147,0.02807 1.32292,-0.264584 0.3606,-0.309086 0.44421,-0.855636 0.52916,-1.322916 0.0947,-0.520621 0.0657,-1.062408 0,-1.5875 -0.0243,-0.195686 -0.26458,-0.529167 -0.26458,-0.529167"
       style="fill:none;stroke-linecap:round;stroke-linejoin:round" />
    <path
       id="lktg5ue0hf"
       stroke-width="1.05833"
       stroke="#91e99b"
       d="m 231.49496,58.585202 v 0 c 0,0 0,0 0,0 0.44098,0 0.88706,0.06705 1.32291,0 0.71882,-0.110596 1.40351,-0.38653 2.11667,-0.529166 0.61153,-0.122317 1.23156,-0.202539 1.85208,-0.264584 0.26326,-0.02646 0.5343,-0.05188 0.79375,0 0.19339,0.03868 0.52917,0.06736 0.52917,0.264584 0,0.318002 -0.35721,0.526256 -0.52917,0.79375 -0.62182,0.96729 -1.24264,1.935294 -1.85208,2.910416 -0.7135,1.141598 -1.47201,2.257743 -2.11667,3.439583 -0.41592,0.762556 -0.68847,1.595306 -1.05833,2.38125 -0.33589,0.71374 -0.6449,1.444837 -1.05833,2.116667 -0.29597,0.48096 -0.6245,0.96139 -1.05834,1.322917 -0.13549,0.112924 -0.52916,0 -0.52916,0"
       style="fill:none;stroke-linecap:round;stroke-linejoin:round" />
    <path
       id="lktg5uerxe"
       stroke-width="1.05833"
       stroke="#91e99b"
       d="m 228.31996,70.226869 v 0 c 0,0 0,0.352769 0,0.529166 0,0.08819 -0.0865,0.24728 0,0.264584 0.4324,0.08649 0.88193,0 1.32291,0 0.97015,0 1.94027,0 2.91042,0 0.79375,0 2.38125,0 2.38125,0"
       style="fill:none;stroke-linecap:round;stroke-linejoin:round" />
    <path
       id="lktg5uskh4"
       stroke-width="1.05833"
       stroke="#91e99b"
       d="m 243.40121,57.262286 v 0 c 0,0 0.17639,0 0.26458,0 0.52917,0 1.0645,0.08046 1.5875,0 0.6346,-0.09763 1.21497,-0.449527 1.85208,-0.529167 0.78761,-0.09845 1.5875,0 2.38125,0 0.35277,0 0.70557,0 1.05834,0 0.26458,0 0.71008,-0.25101 0.79375,0 0.10056,0.301678 -0.33052,0.545438 -0.52917,0.79375 -0.15584,0.194786 -0.36491,0.341445 -0.52917,0.529167 -0.4536,0.518398 -0.83584,1.100428 -1.32291,1.5875 -0.57497,0.574966 -1.25042,1.040553 -1.85209,1.5875 -0.36914,0.335597 -0.70556,0.705564 -1.05833,1.058333 -0.1764,0.176398 -0.37949,0.329618 -0.52917,0.529167 -0.11832,0.157771 -0.20222,0.342079 -0.26458,0.529166 -0.0279,0.08366 -0.0394,0.185711 0,0.264584 0.0558,0.111548 0.16719,0.186663 0.26458,0.264583 0.34433,0.275484 0.71401,0.518266 1.05834,0.79375 0.53787,0.430292 1.10042,0.835845 1.5875,1.322916 0.39931,0.39931 0.7195,0.871141 1.05833,1.322917 0.19079,0.254397 0.33052,0.545439 0.52917,0.79375 0.15584,0.194786 0.35277,0.352769 0.52916,0.529167 0.0882,0.08818 0.15304,0.208809 0.26459,0.264583 0.0789,0.03945 0.30403,-0.07887 0.26458,0 -0.11155,0.223123 -0.29025,0.457491 -0.52917,0.529167 -0.68106,0.204311 -1.40951,0.190156 -2.11666,0.264583 -0.9688,0.101971 -1.93763,0.213387 -2.91042,0.264583 -0.70459,0.0371 -2.11667,0 -2.11667,0"
       style="fill:none;stroke-linecap:round;stroke-linejoin:round" />
    <path
       id="lktg5uxa1n"
       stroke-width="1.05833"
       stroke="#91e99b"
       d="m 255.04287,67.316452 v 0 c 0,0 0,0 0,0 -0.17639,0.529167 -0.40375,1.043993 -0.52916,1.5875 -0.14023,0.607669 -0.26459,1.852083 -0.26459,1.852083"
       style="fill:none;stroke-linecap:round;stroke-linejoin:round" />
    <path
       id="lktg5wc100"
       stroke-width="1.05833"
       stroke="#91e99b"
       d="m 261.12829,58.849786 v 0 c 0,0 0,0 0,0 0.35277,0.08818 0.70752,0.16891 1.05833,0.264583 0.61945,0.168936 1.21441,0.454157 1.85209,0.529167 0.8759,0.103055 1.76993,0.103055 2.64583,0 0.63767,-0.07501 1.22531,-0.38989 1.85208,-0.529167 0.17219,-0.03826 0.57195,-0.171133 0.52917,0 -0.10695,0.427805 -0.52131,0.711597 -0.79375,1.058333 -0.69779,0.888101 -1.42608,1.752124 -2.11667,2.645834 -0.80888,1.046797 -1.62261,2.091213 -2.38125,3.174999 -0.47712,0.68162 -0.88685,1.40806 -1.32291,2.116667 -0.26954,0.437965 -0.52121,0.886831 -0.79375,1.322917 -0.16854,0.269663 -0.33052,0.545438 -0.52917,0.79375 -0.15584,0.194786 -0.52917,0.529166 -0.52917,0.529166"
       style="fill:none;stroke-linecap:round;stroke-linejoin:round" />
    <path
       id="lktg5wcr34"
       stroke-width="1.05833"
       stroke="#91e99b"
       d="m 258.74704,69.697702 v 0 c 0,0 -0.52917,0.06736 -0.52917,0.264583 0,0.176398 0.35454,-0.02487 0.52917,0 0.44519,0.06361 0.87506,0.223864 1.32292,0.264584 0.52699,0.04792 1.05833,0 1.5875,0 0.88193,0 2.64583,0 2.64583,0"
       style="fill:none;stroke-linecap:round;stroke-linejoin:round" />
    <path
       id="lktg5wd8mc"
       stroke-width="1.05833"
       stroke="#91e99b"
       d="m 281.23662,54.087286 v 0 c 0,0 -0.18351,-0.03474 -0.26458,0 -0.5438,0.233045 -1.12961,0.4191 -1.5875,0.79375 -0.53311,0.436192 -1.25439,0.902096 -1.32292,1.5875 -0.0496,0.496437 0.55944,1.058333 1.05834,1.058333 1.11558,0 2.33195,-0.327713 3.175,-1.058333 0.63227,-0.547979 0.79375,-1.544559 0.79375,-2.38125 0,-0.374174 -0.42334,-0.740834 -0.79375,-0.79375 -0.39045,-0.05578 -1.05834,0.529166 -1.05834,0.529166"
       style="fill:none;stroke-linecap:round;stroke-linejoin:round" />
    <path
       id="lktg5wdnpc"
       stroke-width="1.05833"
       stroke="#91e99b"
       d="m 285.20537,60.172702 v 0 c 0,0 -1.43219,1.031346 -2.11666,1.5875 -2.13842,1.737466 -4.25805,3.498559 -6.35,5.291667 -0.99547,0.853255 -2.05174,1.655048 -2.91042,2.645833 -0.31105,0.358907 -0.52917,1.322917 -0.52917,1.322917"
       style="fill:none;stroke-linecap:round;stroke-linejoin:round" />
    <path
       id="lktg5wdvu4"
       stroke-width="1.05833"
       stroke="#91e99b"
       d="m 284.67621,68.374785 v 0 c 0,0 -0.19233,-0.05059 -0.26459,0 -0.8238,0.57666 -1.79678,1.033807 -2.38125,1.852084 -0.36248,0.507471 -0.51787,1.282197 -0.26458,1.852083 0.19288,0.433996 0.86402,0.651537 1.32292,0.529167 0.99377,-0.265007 2.11666,-0.705565 2.64583,-1.5875 0.4109,-0.684821 0.3451,-1.865366 -0.26458,-2.38125 -0.81907,-0.69305 -3.175,-0.529167 -3.175,-0.529167"
       style="fill:none;stroke-linecap:round;stroke-linejoin:round" />
    <path
       id="lktg5wem0z"
       stroke-width="1.05833"
       stroke="#91e99b"
       d="m 207.41787,61.495619 v 0 c 0,0 0.53184,0.03741 0.79375,0 0.36,-0.05143 0.72605,-0.116893 1.05834,-0.264583 0.46992,-0.208863 0.81179,-0.736971 1.32291,-0.79375 0.39201,-0.04355 0.70557,0.352768 1.05834,0.529166 0.35277,0.176398 0.71355,0.337609 1.05833,0.529167 0.44955,0.24974 0.82677,0.658442 1.32292,0.79375 0.51051,0.139224 1.5875,0 1.5875,0"
       style="fill:none;stroke-linecap:round;stroke-linejoin:round" />
    <path
       id="lktg5wf1hd"
       stroke-width="1.05833"
       stroke="#91e99b"
       d="m 208.21162,66.258119 v 0 c 0,0 0.17759,0.01455 0.26459,0 0.44357,-0.07392 0.8905,-0.14105 1.32291,-0.264584 0.8045,-0.229843 1.58158,-0.547687 2.38125,-0.79375 0.34756,-0.106944 0.69469,-0.264583 1.05834,-0.264583 0.36364,0 0.71337,0.149596 1.05833,0.264583 0.45056,0.150178 0.85852,0.429657 1.32292,0.529167 0.78091,0.167349 2.38125,0.264583 2.38125,0.264583"
       style="fill:none;stroke-linecap:round;stroke-linejoin:round" />
    <path
       id="sktg5wnovs"
       stroke-width="1.05833"
       stroke="#91e99b"
       d="m -148.18212,-13.381464 h 60.324997"
       style="fill:none;stroke-linecap:round;stroke-linejoin:round" />
    <path
       id="lktg5zmdfc"
       stroke-width="1.05833"
       stroke="#3d9970"
       d="m 256.63037,19.426869 v 0 c 0,0 -0.17639,0 -0.26458,0 -0.1764,0 -0.35621,0.03458 -0.52917,0 -0.27347,-0.05469 -0.5443,-0.139858 -0.79375,-0.264583 -0.28442,-0.142213 -0.54544,-0.330517 -0.79375,-0.529167 -0.19478,-0.155839 -0.30604,-0.417618 -0.52916,-0.529166 -0.15777,-0.07887 -0.43133,-0.146765 -0.52917,0 -0.14676,0.22016 0.0292,0.53078 0,0.79375 -0.0592,0.533188 -0.11721,1.071668 -0.26458,1.5875 -0.20701,0.724535 -0.58113,1.393745 -0.79375,2.116666 -0.22942,0.780071 -0.29975,1.601179 -0.52917,2.38125 -0.21262,0.722921 -0.53623,1.40851 -0.79375,2.116667 -0.0953,0.262096 -0.18796,0.525595 -0.26458,0.79375 -0.0999,0.349647 -0.12134,0.724112 -0.26459,1.058333 -0.12525,0.292285 -0.33837,0.539353 -0.52916,0.79375 -0.0748,0.09977 -0.37614,0.208809 -0.26459,0.264584 0.23665,0.118321 0.52917,0 0.79375,0 0.35277,0 0.70771,-0.03895 1.05834,0 0.44696,0.04966 0.87772,0.200977 1.32291,0.264583 0.17463,0.02487 0.35277,0 0.52917,0 0.1764,0 0.3714,0.07887 0.52917,0 0.0789,-0.03945 0,-0.176398 0,-0.264583 0,-0.352769 -0.0389,-0.707708 0,-1.058334 0.0497,-0.44696 0.21492,-0.875956 0.26458,-1.322916 0.0389,-0.350626 0,-0.705565 0,-1.058334 0,-0.176397 0,-0.352769 0,-0.529166 0,-0.08819 0.0856,-0.243205 0,-0.264584 -0.34224,-0.08557 -0.70556,0 -1.05833,0 -0.52917,0 -1.07093,0.114803 -1.5875,0 -0.31041,-0.06898 -0.79375,-0.529166 -0.79375,-0.529166"
       style="fill:none;stroke-linecap:round;stroke-linejoin:round" />
    <path
       id="lktg60k3uu"
       stroke-width="1.05833"
       stroke="#3d9970"
       d="m 266.41996,23.924786 v 0 c 0,0 -0.35277,0 -0.52917,0 -0.26458,0 -0.52917,0 -0.79375,0 -0.44098,0 -0.88464,0.04871 -1.32292,0 -0.36142,-0.04016 -0.73308,-0.10197 -1.05833,-0.264583 -0.39442,-0.197221 -0.77134,-0.458947 -1.05833,-0.79375 -0.25668,-0.299456 -0.40445,-0.68416 -0.52917,-1.058334 -0.0558,-0.167349 -0.0978,-0.382402 0,-0.529166 0.27675,-0.415105 0.66453,-0.752025 1.05833,-1.058334 0.40593,-0.315727 0.88683,-0.521202 1.32292,-0.79375 0.26966,-0.168539 0.50932,-0.386953 0.79375,-0.529166 0.24945,-0.124725 0.5443,-0.389308 0.79375,-0.264584 0.24945,0.124725 0.1764,0.529167 0.26458,0.79375 0.1764,0.529167 0.44434,1.036188 0.52917,1.5875 0.0939,0.610182 0.12107,1.246717 0,1.852084 -0.14777,0.738902 -0.42431,1.459918 -0.79375,2.116666 -0.43238,0.768694 -0.94123,1.516539 -1.5875,2.116667 -0.60971,0.566155 -1.36123,0.974249 -2.11667,1.322917 -0.4083,0.188462 -1.32291,0.264583 -1.32291,0.264583"
       style="fill:none;stroke-linecap:round;stroke-linejoin:round" />
    <path
       id="lktg60kwt8"
       stroke-width="1.05833"
       stroke="#3d9970"
       d="m 267.74287,29.481036 v 0 c 0,0 -0.18341,0.169889 -0.26458,0.264583 -0.44828,0.523002 -0.86717,1.071007 -1.32292,1.5875 -0.86746,0.983113 -2.64583,2.910417 -2.64583,2.910417"
       style="fill:none;stroke-linecap:round;stroke-linejoin:round" />
    <path
       id="lktg6195so"
       stroke-width="1.05833"
       stroke="#3d9970"
       d="m 274.62204,22.601869 v 0 c 0,0 0,0 0,0 0.1764,-0.08818 0.38973,-0.125148 0.52917,-0.264583 0.31181,-0.311811 0.53437,-0.701701 0.79375,-1.058333 0.44622,-0.613569 0.83722,-1.269259 1.32291,-1.852084 0.39923,-0.479081 0.82402,-0.948743 1.32292,-1.322916 0.22312,-0.167349 0.6264,-0.487707 0.79375,-0.264584 0.26458,0.352769 0.0756,0.888471 0,1.322917 -0.27863,1.602184 -0.68882,3.17881 -1.05833,4.7625 -0.24789,1.062381 -0.55711,2.110079 -0.79375,3.175 -0.11637,0.52369 -0.16862,1.059683 -0.26459,1.5875 -0.0804,0.442463 -0.26458,1.322917 -0.26458,1.322917"
       style="fill:none;stroke-linecap:round;stroke-linejoin:round" />
    <path
       id="sktg61jwxx"
       stroke-width="1.05833"
       stroke="#3d9970"
       d="m -189.45712,-13.646047 h 27.25208"
       style="fill:none;stroke-linecap:round;stroke-linejoin:round" />
  </g>
</svg>
