<?xml version="1.0" encoding="UTF-8" standalone="no"?>
<!-- Created with Inkscape (http://www.inkscape.org/) -->

<svg
   width="601.6828mm"
   height="65.352081mm"
   viewBox="0 0 601.6828 65.352081"
   version="1.1"
   id="svg215672"
   inkscape:version="1.1.1 (3bf5ae0d25, 2021-09-20)"
   sodipodi:docname="calcium-hydroxide.svg"
   xmlns:inkscape="http://www.inkscape.org/namespaces/inkscape"
   xmlns:sodipodi="http://sodipodi.sourceforge.net/DTD/sodipodi-0.dtd"
   xmlns="http://www.w3.org/2000/svg"
   xmlns:svg="http://www.w3.org/2000/svg">
  <sodipodi:namedview
     id="namedview215674"
     pagecolor="#ffffff"
     bordercolor="#666666"
     borderopacity="1.0"
     inkscape:pageshadow="2"
     inkscape:pageopacity="0.0"
     inkscape:pagecheckerboard="0"
     inkscape:document-units="mm"
     showgrid="false"
     inkscape:zoom="0.77771465"
     inkscape:cx="968.22145"
     inkscape:cy="548.40166"
     inkscape:window-width="1920"
     inkscape:window-height="1144"
     inkscape:window-x="1920"
     inkscape:window-y="28"
     inkscape:window-maximized="1"
     inkscape:current-layer="layer1" />
  <defs
     id="defs215669" />
  <g
     inkscape:label="Layer 1"
     inkscape:groupmode="layer"
     id="layer1"
     transform="translate(153.87232,-3.3858159)">
    <path
       id="lkteqjt30m"
       stroke-width="1.05833"
       stroke="#aaaaaa"
       d="m -124.74784,15.292064 v 0 c 0,0 0,0 0,0 -0.26458,-0.08819 -0.51765,-0.225142 -0.79375,-0.264583 -0.34923,-0.04989 -0.70828,0.04376 -1.05833,0 -0.36083,-0.0451 -0.69596,-0.294783 -1.05833,-0.264584 -0.72476,0.0604 -1.44142,0.259065 -2.11667,0.529167 -0.66019,0.264075 -1.31697,0.590106 -1.85208,1.058333 -0.89296,0.781339 -1.74765,1.642632 -2.38125,2.645834 -0.44679,0.707408 -0.89753,1.551024 -0.79375,2.38125 0.0941,0.752819 0.78645,1.315616 1.32291,1.852083 0.53647,0.536466 1.10681,1.18096 1.85209,1.322917 1.216,0.231619 2.48314,-0.06108 3.70416,-0.264584 0.90825,-0.151376 2.64584,-0.79375 2.64584,-0.79375"
       style="fill:none;stroke-linecap:round;stroke-linejoin:round" />
    <path
       id="lkteqjtqh7"
       stroke-width="1.05833"
       stroke="#aaaaaa"
       d="m -119.19159,20.848314 v 0 c 0,0 -0.52916,0 -0.79375,0 -0.17639,0 -0.35517,-0.029 -0.52916,0 -0.35869,0.05978 -0.70176,0.193268 -1.05834,0.264583 -0.52604,0.105209 -1.07856,0.09494 -1.5875,0.264584 -0.56126,0.187089 -1.04138,0.5662 -1.5875,0.79375 -0.51488,0.214534 -1.1706,0.158591 -1.5875,0.529166 -0.44218,0.393055 -0.79375,0.995873 -0.79375,1.5875 0,0.514258 0.33379,1.092933 0.79375,1.322917 0.71432,0.357161 1.58622,0.340302 2.38125,0.264583 1.08599,-0.103428 2.17812,-0.350692 3.175,-0.79375 0.62945,-0.279757 1.12987,-0.808085 1.5875,-1.322916 0.26204,-0.294791 0.28278,-0.750345 0.52917,-1.058334 0.12319,-0.153995 0.59153,-0.451673 0.52917,-0.264583 -0.13945,0.418343 -0.61466,0.655368 -0.79375,1.058333 -0.18265,0.410946 -0.26459,0.873213 -0.26459,1.322917 0,0.363635 0.007,0.801203 0.26459,1.058333 0.25713,0.25713 0.69469,0.264584 1.05833,0.264584 0.4497,0 1.32292,-0.264584 1.32292,-0.264584"
       style="fill:none;stroke-linecap:round;stroke-linejoin:round" />
    <path
       id="lkteqjuut6"
       stroke-width="1.05833"
       stroke="#aaaaaa"
       d="m -101.99367,11.852481 v 0 c 0,0 0,0 0,0 -0.44097,0.264583 -0.99863,0.394628 -1.32292,0.79375 -0.84892,1.044829 -1.54528,2.220626 -2.11666,3.439583 -0.75796,1.616969 -1.43307,3.291139 -1.85209,5.027083 -0.20694,0.857322 -0.22262,1.792449 0,2.645834 0.31875,1.221861 0.82044,2.436505 1.5875,3.439583 0.43193,0.564824 1.85209,1.058333 1.85209,1.058333"
       style="fill:none;stroke-linecap:round;stroke-linejoin:round" />
    <path
       id="lkteqjva80"
       stroke-width="1.05833"
       stroke="#aaaaaa"
       d="m -93.791588,13.704564 v 0 c 0,0 -0.139859,-0.264583 -0.264583,-0.264583 -0.363636,0 -0.755772,0.06288 -1.058334,0.264583 -0.51889,0.345927 -1.044022,0.765125 -1.322916,1.322917 -0.536467,1.072933 -0.813676,2.265225 -1.058333,3.439583 -0.198681,0.953664 -0.303517,1.937054 -0.264584,2.910417 0.04985,1.246261 0.211749,2.497976 0.529167,3.704166 0.130876,0.497327 0.372454,1.02801 0.79375,1.322917 0.525999,0.368199 1.229188,0.68489 1.852083,0.529167 1.263296,-0.315826 2.36278,-1.119857 3.439583,-1.852084 1.139209,-0.77466 2.32921,-1.558388 3.175,-2.645833 0.446501,-0.574072 0.488826,-1.390518 0.529167,-2.116667 0.04917,-0.884978 0.08456,-1.831154 -0.264583,-2.645833 -0.222454,-0.51906 -0.765882,-0.965494 -1.322917,-1.058333 -0.63333,-0.105556 -1.263851,0.271814 -1.852083,0.529166 -0.831887,0.363951 -1.683692,0.74162 -2.38125,1.322917 -0.395063,0.329218 -0.79375,1.322917 -0.79375,1.322917"
       style="fill:none;stroke-linecap:round;stroke-linejoin:round" />
    <path
       id="lkteqjvyh6"
       stroke-width="1.05833"
       stroke="#aaaaaa"
       d="m -81.620755,17.673314 v 0 c 0,0 -0.337965,0.04892 -0.264583,0 0.328176,-0.218784 0.735214,-0.302982 1.058333,-0.529167 0.564304,-0.395012 1.023197,-0.927904 1.5875,-1.322916 0.32312,-0.226185 0.671576,-0.606518 1.058334,-0.529167 0.273478,0.0547 0.102478,0.566804 0.264583,0.79375 0.289981,0.405974 0.630528,0.80165 1.058333,1.058333 0.478301,0.286981 1.032,0.478666 1.5875,0.529167 0.447858,0.04071 0.911971,-0.08194 1.322917,-0.264583 0.402966,-0.179097 0.691422,-0.549143 1.058333,-0.79375 0.164087,-0.109392 0.576998,-0.455904 0.529167,-0.264584 -0.124725,0.498904 -0.607359,0.843627 -0.79375,1.322917 -0.434782,1.118007 -0.641705,2.314683 -1.058333,3.439583 -0.466561,1.259713 -0.866297,2.570845 -1.5875,3.704167 -0.535697,0.841811 -1.256623,1.610759 -2.116667,2.116667 -0.70085,0.412263 -1.568138,0.529166 -2.38125,0.529166 -0.249452,0 -0.682315,-0.332261 -0.529167,-0.529166 0.617361,-0.79375 1.518981,-1.334723 2.38125,-1.852084 1.792833,-1.0757 3.726307,-1.899134 5.55625,-2.910416 1.522452,-0.841357 3.042036,-1.693913 4.497917,-2.645834 0.841631,-0.550299 1.646121,-1.165963 2.38125,-1.852083 0.594431,-0.554802 1.124667,-1.183547 1.5875,-1.852083 0.336759,-0.486431 0.79375,-0.995873 0.79375,-1.5875 0,-0.374177 -0.472895,-0.601237 -0.79375,-0.79375 -0.151252,-0.09075 -0.384665,-0.101153 -0.529167,0 -0.768046,0.537633 -1.58949,1.076822 -2.116667,1.852083 -0.998032,1.467694 -1.787712,3.089804 -2.381249,4.7625 -0.387922,1.093232 -0.529167,2.279565 -0.529167,3.439583 0,0.727271 0.101407,1.528498 0.529167,2.116667 0.347977,0.47847 1.013539,0.650258 1.587499,0.79375 0.513369,0.128341 1.5875,0 1.5875,0"
       style="fill:none;stroke-linecap:round;stroke-linejoin:round" />
    <path
       id="lkteqjwzoh"
       stroke-width="1.05833"
       stroke="#aaaaaa"
       d="m -64.687422,9.2066475 v 0 c 0,0 -0.348252,-0.02789 -0.264583,0 0.344974,0.1149905 0.715883,0.1422797 1.058333,0.2645833 0.894546,0.3194791 1.851687,0.5371732 2.645834,1.0583332 2.050039,1.345338 4.147748,2.705325 5.820833,4.497917 0.8616,0.923142 1.372949,2.195192 1.5875,3.439583 0.240226,1.393306 0.118213,2.872274 -0.264583,4.233333 -0.427146,1.518746 -1.333924,2.863533 -2.116667,4.233334 -0.280181,0.490315 -1.058333,1.322916 -1.058333,1.322916"
       style="fill:none;stroke-linecap:round;stroke-linejoin:round" />
    <path
       id="lkteqjxx0g"
       stroke-width="1.05833"
       stroke="#aaaaaa"
       d="m -49.870755,26.139981 v 0 c 0,0 0.531209,0.03282 0.79375,0 0.446233,-0.05578 0.879329,-0.190654 1.322917,-0.264584 0.087,-0.0145 0.177588,-0.0145 0.264583,0 0.443587,0.07393 1.004927,-0.05341 1.322917,0.264584 0.249451,0.249451 0.123867,0.728016 0,1.058333 -0.154837,0.412895 -0.471374,0.757449 -0.79375,1.058333 -1.007132,0.939991 -2.253406,1.62184 -3.175,2.645834 -0.176996,0.196662 0.530785,0.02922 0.79375,0 0.533185,-0.05924 1.052398,-0.226362 1.5875,-0.264584 0.703762,-0.05027 1.41111,0 2.116666,0 0.529167,0 1.5875,0 1.5875,0"
       style="fill:none;stroke-linecap:round;stroke-linejoin:round" />
    <path
       id="lkteqnonbw"
       stroke-width="1.05833"
       stroke="#aaaaaa"
       d="m -145.64992,39.104564 v 0 c 0,0 0,0 0,0 -0.0882,0 -0.17639,0 -0.26458,0 -0.44098,0 -0.88195,0 -1.32292,0 -0.61736,0 -1.23472,0 -1.85208,0 -0.79375,0 -1.5875,0 -2.38125,0 -0.44098,0 -0.88638,0.06236 -1.32292,0 -0.19523,-0.02789 -0.48134,-0.07326 -0.52917,-0.264584 -0.0676,-0.270568 0.10248,-0.566803 0.26459,-0.79375 0.28998,-0.405974 0.6875,-0.724585 1.05833,-1.058333 0.51199,-0.460796 1.0755,-0.862121 1.5875,-1.322917 0.37083,-0.333748 0.65236,-0.768352 1.05833,-1.058333 0.22695,-0.162105 0.59654,-0.461793 0.79375,-0.264583 0.24945,0.249452 0.0793,0.714589 0,1.058333 -0.18813,0.815261 -0.58255,1.57166 -0.79375,2.38125 -0.31874,1.221862 -0.5461,2.465935 -0.79375,3.704167 -0.10521,0.526047 -0.18871,1.056425 -0.26458,1.5875 -0.0125,0.08731 0,0.264583 0,0.264583"
       style="fill:none;stroke-linecap:round;stroke-linejoin:round" />
    <path
       id="lkteqnpb8x"
       stroke-width="1.05833"
       stroke="#aaaaaa"
       d="m -139.29992,36.723314 v 0 c 0,0 0.0279,-0.180914 0,-0.264584 -0.0624,-0.187089 -0.15519,-0.36508 -0.26458,-0.529166 -0.0692,-0.103778 -0.16481,-0.339418 -0.26459,-0.264584 -0.35277,0.264584 -0.51827,0.713992 -0.79375,1.058334 -0.4303,0.537879 -0.96852,0.996841 -1.32291,1.5875 -0.4469,0.744831 -0.95685,1.518584 -1.05834,2.38125 -0.085,0.722288 0.16834,1.48522 0.52917,2.116666 0.37129,0.649754 0.89267,1.309569 1.5875,1.5875 0.73698,0.294791 1.61804,0.218059 2.38125,0 0.54299,-0.155141 1.0525,-0.562567 1.32292,-1.058333 0.29862,-0.547481 0.29572,-1.229233 0.26458,-1.852083 -0.0579,-1.158571 -0.21049,-2.324201 -0.52917,-3.439584 -0.21671,-0.758483 -0.62076,-1.460317 -1.05833,-2.116666 -0.27674,-0.415113 -0.70556,-0.705557 -1.05833,-1.058334 -0.0882,-0.08819 -0.26459,-0.264583 -0.26459,-0.264583"
       style="fill:none;stroke-linecap:round;stroke-linejoin:round" />
    <path
       id="lkteqnqeis"
       stroke-width="1.05833"
       stroke="#aaaaaa"
       d="m -133.2145,43.073314 v 0 c 0,0 0.0574,0.535466 0,0.79375 -0.12101,0.544507 -0.26207,1.097817 -0.52917,1.5875 -0.27042,0.495765 -1.05833,1.322916 -1.05833,1.322916"
       style="fill:none;stroke-linecap:round;stroke-linejoin:round" />
    <path
       id="lkteqnqrpt"
       stroke-width="1.05833"
       stroke="#aaaaaa"
       d="m -124.74784,35.66498 v 0 c 0,0 0.0865,-0.281879 0,-0.264583 -0.46572,0.09314 -1.01383,0.168564 -1.32291,0.529167 -0.79738,0.930269 -1.30415,2.079114 -1.85209,3.175 -0.4248,0.849601 -0.95343,1.70176 -1.05833,2.645833 -0.0803,0.722823 0.0636,1.557962 0.52917,2.116667 0.505,0.605999 1.35138,0.867013 2.11666,1.058333 0.68449,0.171122 1.44232,0.207494 2.11667,0 0.53975,-0.166076 1.07037,-0.553233 1.32292,-1.058333 0.40222,-0.804458 0.45125,-1.749804 0.52916,-2.645834 0.0993,-1.142216 0.16215,-2.304579 0,-3.439583 -0.10656,-0.745961 -0.34163,-1.51384 -0.79375,-2.116667 -0.38158,-0.508783 -1.13779,-0.608629 -1.5875,-1.058333 -0.27889,-0.278894 -0.52916,-1.058333 -0.52916,-1.058333"
       style="fill:none;stroke-linecap:round;stroke-linejoin:round" />
    <path
       id="lkteqnrggi"
       stroke-width="1.05833"
       stroke="#aaaaaa"
       d="m -118.66242,35.929564 v 0 c 0,0 0.69619,-0.231661 1.05833,-0.264584 0.61483,-0.05589 1.23473,0 1.85209,0 0.88194,0 1.7656,0.05501 2.64583,0 0.53542,-0.03346 1.05103,-0.264583 1.5875,-0.264583 0.27889,0 0.79375,-0.01431 0.79375,0.264583 0,0.278895 -0.5853,0.0793 -0.79375,0.264584 -0.60773,0.540202 -1.0473,1.244356 -1.5875,1.852083 -0.87105,0.979932 -1.74912,1.953916 -2.64583,2.910417 -0.42653,0.454961 -0.90574,0.859377 -1.32292,1.322916 -0.37778,0.419754 -0.65902,0.9236 -1.05833,1.322917 -0.22486,0.224854 -0.79375,0.529167 -0.79375,0.529167"
       style="fill:none;stroke-linecap:round;stroke-linejoin:round" />
    <path
       id="lkteqns76e"
       stroke-width="1.05833"
       stroke="#aaaaaa"
       d="m -120.24992,43.337897 v 0 c 0,0 0.17639,0 0.26458,0 0.26459,0 0.53707,-0.06417 0.79375,0 0.46076,0.115189 0.85564,0.444206 1.32292,0.529167 0.52063,0.09466 1.5875,0 1.5875,0"
       style="fill:none;stroke-linecap:round;stroke-linejoin:round" />
    <path
       id="lkteqnsnmd"
       stroke-width="1.05833"
       stroke="#aaaaaa"
       d="m -103.58117,36.723314 v 0 c 0,0 0.20222,-0.06236 0.26458,0 0.0624,0.06236 0.0565,0.196831 0,0.264583 -0.39924,0.479084 -0.91031,0.855297 -1.32291,1.322917 -0.91148,1.033007 -1.6717,2.200859 -2.64584,3.175 -0.62363,0.623628 -1.43914,1.022892 -2.11666,1.5875 -0.38327,0.319389 -0.74667,0.668755 -1.05834,1.058333 -0.0551,0.06887 -0.0756,0.219207 0,0.264583 0.40726,0.244356 0.86014,0.422371 1.32292,0.529167 0.69284,0.159885 1.40685,0.222829 2.11667,0.264583 0.79238,0.04661 1.58951,0.05655 2.38125,0 0.44856,-0.03204 0.94874,-0.01513 1.32291,-0.264583 0.23206,-0.154704 0.33223,-0.523182 0.26459,-0.79375 -0.12473,-0.498904 -0.50103,-0.900099 -0.79375,-1.322917 -0.50202,-0.725127 -1.06596,-1.405461 -1.5875,-2.116666 -0.44866,-0.611802 -0.86035,-1.250739 -1.32292,-1.852084 -0.41998,-0.545975 -0.90002,-1.043778 -1.32292,-1.5875 -0.19522,-0.251004 -0.33052,-0.545441 -0.52916,-0.79375 -0.15584,-0.194788 -0.35278,-0.352776 -0.52917,-0.529166 -0.0882,-0.08819 -0.26458,-0.139859 -0.26458,-0.264584 0,-0.08819 0.17639,0 0.26458,0 0.26458,0 0.52917,0 0.79375,0 0.44097,0 0.88375,0.03992 1.32292,0 0.53426,-0.04857 1.05288,-0.220032 1.5875,-0.264583 0.52733,-0.04395 1.05833,0 1.5875,0 0.26458,0 0.53276,-0.0435 0.79375,0 0.2751,0.04585 0.79375,0.264583 0.79375,0.264583"
       style="fill:none;stroke-linecap:round;stroke-linejoin:round" />
    <path
       id="lkteqouumh"
       stroke-width="1.05833"
       stroke="#aaaaaa"
       d="m -122.63117,56.567064 v 0 c 0,0 -0.23669,-0.08367 -0.26458,0 -0.0837,0.251004 -0.25945,0.84564 0,0.79375 0.55375,-0.110752 0.8662,-0.726181 1.32291,-1.058334 0.51434,-0.374065 1.04215,-0.731126 1.5875,-1.058333 0.33821,-0.202925 0.69213,-0.675651 1.05834,-0.529167 0.33762,0.135051 0.26458,0.694698 0.26458,1.058334 0,1.237869 -0.16179,2.470573 -0.26458,3.704166 -0.0736,0.883283 -0.15465,1.766335 -0.26459,2.645833 -0.0665,0.532324 -0.26458,1.5875 -0.26458,1.5875"
       style="fill:none;stroke-linecap:round;stroke-linejoin:round" />
    <path
       id="lkteqovcs2"
       stroke-width="1.05833"
       stroke="#aaaaaa"
       d="m -110.46034,54.71498 v 0 c 0,0 0.0558,-0.361828 0,-0.529166 -0.0394,-0.118325 -0.1954,-0.160806 -0.26458,-0.264584 -0.10939,-0.164086 -0.0882,-0.440973 -0.26458,-0.529166 -0.23666,-0.118325 -0.53707,-0.06417 -0.79375,0 -0.46077,0.115189 -0.98709,0.193331 -1.32292,0.529166 -0.50279,0.502785 -0.80308,1.188432 -1.05833,1.852084 -0.19258,0.500708 -0.26459,1.051033 -0.26459,1.5875 0,0.363635 0.007,0.801203 0.26459,1.058333 0.25713,0.25713 0.70335,0.1857 1.05833,0.264583 0.439,0.09755 0.87596,0.214921 1.32292,0.264584 0.35062,0.03896 0.71035,0.058 1.05833,0 0.19452,-0.03242 0.33785,-0.216752 0.52917,-0.264584 0.17112,-0.04278 0.52916,-0.17639 0.52916,0 0,0.19721 -0.4277,0.09548 -0.52916,0.264584 -0.18709,0.311814 -0.18282,0.704011 -0.26459,1.058333 -0.18283,0.792289 -0.33195,1.592416 -0.52916,2.38125 -0.15573,0.622895 -0.40325,1.222486 -0.52917,1.852083 -0.0519,0.259445 0,0.529167 0,0.79375 0,0.17639 0.17639,0.529167 0,0.529167 -0.47494,0 -0.87235,-0.378976 -1.32292,-0.529167 -0.34497,-0.11499 -0.71336,-0.149593 -1.05833,-0.264583 -0.18709,-0.06236 -0.34606,-0.191342 -0.52917,-0.264584 -0.25895,-0.103579 -0.59654,-0.06737 -0.79375,-0.264583 -0.12472,-0.124724 0,-0.352777 0,-0.529167 0,-0.08819 0,-0.176389 0,-0.264583 0,-0.08819 0,-0.264583 0,-0.264583"
       style="fill:none;stroke-linecap:round;stroke-linejoin:round" />
    <path
       id="lkteqowi4l"
       stroke-width="1.05833"
       stroke="#aaaaaa"
       d="m -105.96242,65.562897 v 0 c 0,0 0,0 0,0 -0.26458,0.440973 -0.4725,0.921348 -0.79375,1.322916 -0.38958,0.486974 -1.32292,1.322917 -1.32292,1.322917"
       style="fill:none;stroke-linecap:round;stroke-linejoin:round" />
    <path
       id="lkteqowvyp"
       stroke-width="1.05833"
       stroke="#aaaaaa"
       d="m -96.966588,59.47748 v 0 c 0,0 0.06236,0.202221 0,0.264584 -0.139448,0.139448 -0.333941,0.236693 -0.529166,0.264583 -0.436542,0.06236 -0.887945,0.0725 -1.322917,0 -0.633331,-0.105556 -1.317849,-0.173014 -1.852079,-0.529167 -0.32818,-0.218784 -0.43351,-0.675693 -0.52917,-1.058333 -0.0856,-0.342244 -0.0765,-0.713957 0,-1.058333 0.10303,-0.463632 0.23758,-0.948021 0.52917,-1.322917 0.3467,-0.445762 0.835118,-0.773787 1.322912,-1.058333 0.580173,-0.338434 1.182394,-0.742236 1.852084,-0.79375 0.556148,-0.04278 1.147206,0.186716 1.5875,0.529166 0.405929,0.315725 0.678113,0.821828 0.793749,1.322917 0.158653,0.687488 0.138372,1.424813 0,2.116667 -0.131725,0.658624 -0.421174,1.293219 -0.793749,1.852083 -0.520042,0.780063 -1.124461,1.525474 -1.852084,2.116666 -0.704725,0.572591 -1.559658,0.936287 -2.381252,1.322917 -0.68181,0.320852 -2.11666,0.79375 -2.11666,0.79375"
       style="fill:none;stroke-linecap:round;stroke-linejoin:round" />
    <path
       id="lkteqoxoyb"
       stroke-width="1.05833"
       stroke="#aaaaaa"
       d="m -85.324921,60.27123 v 0 c 0,0 -0.182698,-0.03276 -0.264584,0 -0.366207,0.146484 -0.663916,0.529167 -1.058333,0.529167 -0.727271,0 -1.40802,-0.365633 -2.116667,-0.529167 -0.438189,-0.101121 -1.004927,0.05341 -1.322916,-0.264583 -0.31799,-0.31799 -0.393806,-0.892178 -0.264584,-1.322917 0.162272,-0.540903 0.711629,-0.877154 1.058334,-1.322916 0.270729,-0.348084 0.503367,-0.72647 0.79375,-1.058334 0.32853,-0.375462 0.64322,-0.781592 1.058333,-1.058333 0.395176,-0.263451 0.850331,-0.48191 1.322917,-0.529167 0.447474,-0.04475 0.928121,0.04924 1.322916,0.264584 0.604713,0.329842 1.26093,0.71643 1.5875,1.322916 0.337106,0.626055 0.358558,1.411859 0.264584,2.116667 -0.08877,0.665776 -0.46051,1.268912 -0.79375,1.852083 -0.37641,0.658717 -0.78645,1.315617 -1.322917,1.852083 -0.798634,0.798635 -1.617628,1.649302 -2.645833,2.116667 -0.976763,0.443982 -2.108632,0.410681 -3.175,0.529167 -0.525931,0.05844 -1.5875,0 -1.5875,0"
       style="fill:none;stroke-linecap:round;stroke-linejoin:round" />
    <path
       id="lkteqoyhnt"
       stroke-width="1.05833"
       stroke="#aaaaaa"
       d="m -73.418671,60.006647 v 0 c 0,0 -0.53121,-0.03282 -0.79375,0 -0.446233,0.05578 -0.873213,0.264583 -1.322917,0.264583 -0.711047,0 -1.41709,-0.137387 -2.116667,-0.264583 -0.274396,-0.04989 -0.669025,-0.01513 -0.79375,-0.264583 -0.19721,-0.394418 -0.214153,-0.937438 0,-1.322917 0.274251,-0.493654 0.838674,-0.767787 1.322917,-1.058333 0.845526,-0.507315 1.76389,-0.881944 2.645833,-1.322917 0.529167,-0.264583 0.995873,-0.79375 1.5875,-0.79375 0.440973,0 0.84418,0.40827 1.058334,0.79375 0.260529,0.468955 0.264583,1.051033 0.264583,1.5875 0,0.886343 -0.118869,1.771549 -0.264583,2.645833 -0.119563,0.717376 -0.146365,1.498293 -0.529167,2.116667 -0.79053,1.277011 -1.794066,2.434868 -2.910417,3.439583 -0.674923,0.60743 -1.544389,0.970555 -2.38125,1.322917 -0.848622,0.357314 -2.645833,0.79375 -2.645833,0.79375"
       style="fill:none;stroke-linecap:round;stroke-linejoin:round" />
    <path
       id="lkteqp7hx3"
       stroke-width="1.05833"
       stroke="#aaaaaa"
       d="m -85.324921,38.310814 v 0 c 0,0 -0.455904,0.576998 -0.264584,0.529166 0.498904,-0.124724 0.901621,-0.498842 1.322917,-0.79375 0.462637,-0.323844 0.85304,-0.745082 1.322917,-1.058333 0.328176,-0.218784 0.692126,-0.382683 1.058333,-0.529167 0.08189,-0.03276 0.264583,-0.08819 0.264583,0 0,0.449705 -0.144221,0.889617 -0.264583,1.322917 -0.321059,1.155811 -0.780486,2.272631 -1.058333,3.439583 -0.164693,0.691711 -0.264584,2.116667 -0.264584,2.116667"
       style="fill:none;stroke-linecap:round;stroke-linejoin:round" />
    <path
       id="lkteqp7z8v"
       stroke-width="1.05833"
       stroke="#aaaaaa"
       d="m -77.916588,43.867064 v 0 c 0,0 -0.21826,0.148778 -0.264583,0.264583 -0.135052,0.337627 -0.04133,0.771297 -0.264584,1.058333 -0.422894,0.543722 -1.5875,1.322917 -1.5875,1.322917"
       style="fill:none;stroke-linecap:round;stroke-linejoin:round" />
    <path
       id="lkteqp88y0"
       stroke-width="1.05833"
       stroke="#aaaaaa"
       d="m -66.274922,36.987897 v 0 c 0,0 -0.337846,-0.216752 -0.529166,-0.264583 -0.171122,-0.04278 -0.355177,-0.029 -0.529167,0 -0.358688,0.05978 -0.733089,0.10196 -1.058333,0.264583 -0.568838,0.284419 -1.078717,0.676746 -1.5875,1.058333 -0.551056,0.413293 -1.226492,0.736278 -1.5875,1.322917 -0.381162,0.619384 -0.614143,1.394378 -0.529167,2.116667 0.101489,0.862666 0.52873,1.692764 1.058334,2.38125 0.387762,0.504092 0.98857,0.844431 1.5875,1.058333 0.669623,0.239152 1.423828,0.424468 2.116666,0.264583 0.550259,-0.126981 1.055182,-0.561112 1.322917,-1.058333 0.385495,-0.715923 0.444045,-1.572604 0.529166,-2.38125 0.09233,-0.877099 0.0974,-1.769282 0,-2.645833 -0.08031,-0.722823 -0.15499,-1.493039 -0.529166,-2.116667 -0.202925,-0.338209 -0.715883,-0.333481 -1.058334,-0.529167 -0.276092,-0.157765 -0.79375,-0.529166 -0.79375,-0.529166"
       style="fill:none;stroke-linecap:round;stroke-linejoin:round" />
    <path
       id="lkteqp8uec"
       stroke-width="1.05833"
       stroke="#aaaaaa"
       d="m -55.162422,37.781647 v 0 c 0,0 -0.67909,-0.420812 -1.058333,-0.529167 -0.254402,-0.07269 -0.582083,-0.15875 -0.79375,0 -0.551056,0.413293 -0.881944,1.058334 -1.322917,1.5875 -0.440973,0.529167 -0.985215,0.987142 -1.322916,1.5875 -0.465691,0.827895 -1.005644,1.697414 -1.058334,2.645834 -0.0418,0.752374 0.289664,1.55657 0.79375,2.116666 0.373142,0.414602 1.034603,0.455446 1.5875,0.529167 0.786787,0.104905 1.632752,0.264176 2.38125,0 0.831665,-0.293529 1.595118,-0.876295 2.116667,-1.5875 0.494787,-0.674709 0.656198,-1.555948 0.79375,-2.38125 0.130492,-0.78295 0.218059,-1.618041 0,-2.38125 -0.155141,-0.542991 -0.636257,-0.947737 -1.058333,-1.322917 -0.384361,-0.341653 -1.322917,-0.79375 -1.322917,-0.79375"
       style="fill:none;stroke-linecap:round;stroke-linejoin:round" />
    <path
       id="lkteqp9gao"
       stroke-width="1.05833"
       stroke="#aaaaaa"
       d="m -41.668672,39.104564 v 0 c 0,0 0.352777,-0.352777 0.264583,-0.264584 -0.176389,0.17639 -0.341434,0.364903 -0.529166,0.529167 -1.223859,1.070877 -2.420501,2.176595 -3.704167,3.175 -1.100733,0.856126 -2.268823,1.623698 -3.439583,2.38125 -0.331142,0.214268 -0.980982,0.142409 -1.058333,0.529167 -0.07338,0.366911 0.435353,0.686231 0.79375,0.79375 0.591325,0.177398 1.234723,0 1.852083,0 0.79375,0 1.595477,0.112252 2.38125,0 0.470167,-0.06717 1.087279,-0.116803 1.322917,-0.529167 0.223115,-0.390454 0.0013,-0.960273 -0.264584,-1.322917 -0.737584,-1.005795 -1.76389,-1.763889 -2.645833,-2.645833 -0.705557,-0.705556 -1.445469,-1.378349 -2.116667,-2.116667 -0.213902,-0.235294 -0.529166,-0.47576 -0.529166,-0.79375 0,-0.249451 0.290234,-0.457488 0.529166,-0.529166 0.681059,-0.204317 1.406605,-0.227211 2.116667,-0.264584 0.968798,-0.05099 1.94128,-0.04405 2.910417,0 0.973134,0.04423 1.936276,0.264584 2.910416,0.264584 0.278895,0 0.79375,-0.264584 0.79375,-0.264584"
       style="fill:none;stroke-linecap:round;stroke-linejoin:round" />
    <path
       id="lkteqpn9gg"
       stroke-width="1.05833"
       stroke="#e65194"
       d="m 8.0729942,10.264981 v 0 c 0,0 0,0 0,0 -0.088194,0.08819 -0.1530244,0.208804 -0.2645833,0.264583 -0.078883,0.03944 -0.1763898,0 -0.2645834,0 -0.2645833,0 -0.5291666,0 -0.79375,0 -0.4409731,0 -0.8819435,0 -1.3229166,0 -0.4409731,0 -0.8841317,0.04388 -1.3229167,0 -0.4474739,-0.04475 -0.8766836,-0.208804 -1.3229166,-0.264583 -0.2625408,-0.03282 -0.5291667,0 -0.79375,0 -0.1763898,0 -0.4733872,0.167338 -0.5291667,0 C 1.3702174,10.000397 1.50874,9.6497743 1.7229943,9.4712308 2.0878547,9.1671796 2.6452206,9.1970484 3.0459109,8.9420641 3.6270417,8.5722534 4.0874353,8.0391285 4.6334109,7.6191475 5.2347559,7.1565738 5.8983097,6.7766533 6.4854942,6.2962308 6.8716245,5.9803078 7.1910506,5.5906744 7.5438275,5.2378975 7.6320211,5.149704 7.7526314,4.8617553 7.8084109,4.9733142 c 0.1183243,0.2366513 0.02196,0.5300795 0,0.79375 C 7.7420878,6.5629414 7.7170767,7.3686982 7.5438275,8.1483141 7.362326,8.965075 6.9042688,9.70721 6.7500775,10.529564 c -0.1137734,0.606788 0,1.234723 0,1.852083 0,0.17639 0,0.529167 0,0.529167"
       style="fill:none;stroke-linecap:round;stroke-linejoin:round" />
    <path
       id="lkteqpo4ba"
       stroke-width="1.05833"
       stroke="#e65194"
       d="m 20.243827,6.2962308 v 0 c 0,0 -0.106817,-0.4108423 -0.264583,-0.5291666 -0.223115,-0.1673384 -0.514855,-0.2645834 -0.79375,-0.2645834 -0.449704,0 -0.913519,0.078494 -1.322917,0.2645834 -0.578974,0.2631704 -1.118684,0.6285865 -1.5875,1.0583333 -0.599389,0.549439 -1.091737,1.2075901 -1.5875,1.8520833 -0.387762,0.5040921 -0.968393,0.9579134 -1.058333,1.5875002 -0.102851,0.71996 0.09281,1.53485 0.529167,2.116666 0.426627,0.568839 1.146527,0.97014 1.852083,1.058334 0.806834,0.100854 1.619909,-0.243663 2.38125,-0.529167 0.665774,-0.249666 1.392788,-0.51553 1.852083,-1.058333 0.561076,-0.663088 0.847665,-1.538571 1.058334,-2.3812502 0.149733,-0.5989293 0.195225,-1.2664043 0,-1.8520833 C 21.12358,7.0834059 20.557078,6.766107 20.243827,6.2962308 20.025043,5.9680549 19.714661,5.2378975 19.714661,5.2378975"
       style="fill:none;stroke-linecap:round;stroke-linejoin:round" />
    <path
       id="lkteqpotz8"
       stroke-width="1.05833"
       stroke="#e65194"
       d="m 27.652161,12.910814 v 0 c 0,0 0.08367,0.542745 0,0.79375 -0.18709,0.561266 -0.510448,1.068115 -0.79375,1.5875 -0.246253,0.451464 -0.79375,1.322917 -0.79375,1.322917"
       style="fill:none;stroke-linecap:round;stroke-linejoin:round" />
    <path
       id="lkteqpp5z1"
       stroke-width="1.05833"
       stroke="#e65194"
       d="m 40.35216,5.5024808 v 0 c 0,0 -0.148777,-0.21826 -0.264583,-0.2645833 C 39.74995,5.1028463 39.391384,4.9403921 39.029244,4.9733142 38.389815,5.0314431 37.699631,5.1292887 37.17716,5.5024808 36.414269,6.0474034 35.80042,6.8110677 35.325077,7.6191475 34.90086,8.340317 34.475672,9.1655656 34.531327,10.000397 c 0.0423,0.634572 0.608629,1.137796 1.058334,1.5875 0.449704,0.449705 0.975989,0.883616 1.587499,1.058334 0.678408,0.193831 1.452216,0.237305 2.116667,0 0.648692,-0.231675 1.195417,-0.756574 1.5875,-1.322917 0.428919,-0.619548 0.79375,-1.3631332 0.79375,-2.1166665 0,-0.8366866 -0.512342,-1.5933076 -0.79375,-2.38125 C 40.721588,6.3781247 40.502351,5.9530504 40.35216,5.5024808 40.23717,5.1575065 40.087577,4.4441475 40.087577,4.4441475"
       style="fill:none;stroke-linecap:round;stroke-linejoin:round" />
    <path
       id="lkteqpprdu"
       stroke-width="1.05833"
       stroke="#e65194"
       d="m 50.141744,5.5024808 v 0 c 0,0 -0.529167,0 -0.79375,0 -0.17639,0 0.353502,-0.015981 0.529166,0 0.795356,0.072305 1.583611,0.2247027 2.38125,0.2645834 0.968928,0.048445 1.940277,0 2.910417,0 0.705556,0 1.456034,-0.2477373 2.116667,0 0.247737,0.0929 0.162438,0.5849011 0,0.79375 -0.499203,0.6418315 -1.261804,1.0282872 -1.852084,1.5874999 -1.08654,1.0293536 -2.05959,2.1770019 -3.175,3.1749999 -0.565398,0.505883 -1.245142,0.867709 -1.852083,1.322917 -0.451776,0.33883 -1.322917,1.058333 -1.322917,1.058333"
       style="fill:none;stroke-linecap:round;stroke-linejoin:round" />
    <path
       id="lkteqpqae7"
       stroke-width="1.05833"
       stroke="#e65194"
       d="m 46.70216,13.439981 v 0 c 0,0 -0.705556,0 -0.529166,0 0.61736,0 1.235786,-0.03625 1.852083,0 0.884814,0.05205 1.760493,0.222424 2.645833,0.264583 0.969042,0.04615 2.910417,0 2.910417,0"
       style="fill:none;stroke-linecap:round;stroke-linejoin:round" />
    <path
       id="lkteqpqsdf"
       stroke-width="1.05833"
       stroke="#e65194"
       d="m 67.33966,7.3545642 v 0 c 0,0 0,0 0,0 -0.352777,0.1763897 -0.730157,0.3103827 -1.058333,0.5291666 -0.998106,0.6654033 -1.90564,1.4613784 -2.910417,2.1166662 -1.026271,0.669306 -2.129528,1.213184 -3.175,1.852084 -0.542668,0.331631 -1.217845,0.540816 -1.5875,1.058333 -0.162105,0.226946 0.0097,0.680479 0.264584,0.79375 0.649761,0.288782 1.406715,0.225142 2.116666,0.264583 0.880586,0.04892 1.76389,0 2.645833,0 0.705557,0 1.471923,0.286555 2.116667,0 0.332293,-0.147685 0.399635,-0.720706 0.264583,-1.058333 -0.25582,-0.639553 -0.854207,-1.082736 -1.322916,-1.5875 C 64.014869,10.592127 63.185532,9.997532 62.57716,9.2066475 62.287584,8.8301983 62.115161,8.353898 62.047994,7.8837308 c -0.02789,-0.1952254 0.104108,-0.4145412 0.264583,-0.5291666 0.481425,-0.3438763 1.007361,-0.6777223 1.5875,-0.79375 0.778335,-0.1556676 1.588722,0.044029 2.38125,0 0.797404,-0.044299 1.584171,-0.214765 2.38125,-0.2645834 0.616159,-0.03851 1.852083,0 1.852083,0"
       style="fill:none;stroke-linecap:round;stroke-linejoin:round" />
    <path
       id="lkteqps1lm"
       stroke-width="1.05833"
       stroke="#e65194"
       d="m -9.9186722,22.171231 v 0 c 0,0 0,0 0,0 -0.088194,0.352777 -0.2131568,0.698351 -0.2645838,1.058333 -0.125349,0.877435 -0.166703,1.764911 -0.264583,2.645833 -0.07852,0.706697 -0.210047,1.407716 -0.264583,2.116667 -0.03382,0.439674 0,1.322917 0,1.322917"
       style="fill:none;stroke-linecap:round;stroke-linejoin:round" />
    <path
       id="lkteqpscxx"
       stroke-width="1.05833"
       stroke="#e65194"
       d="m -15.210339,25.610814 v 0 c 0,0 -0.264583,0.139859 -0.264583,0.264583 0,0.08819 0.17639,0 0.264583,0 0.881944,0 1.76389,0 2.645833,0 1.234724,0 3.7041671,0 3.7041671,0"
       style="fill:none;stroke-linecap:round;stroke-linejoin:round" />
    <path
       id="lkteqq6wou"
       stroke-width="1.05833"
       stroke="#e65194"
       d="m 1.4584109,20.848314 v 0 c 0,0 -0.078883,-0.371401 0,-0.529167 0.039441,-0.07888 0.1763898,0 0.2645834,0 0.3527769,0 0.7055564,0 1.0583333,0 0.6173602,0 1.2347231,0 1.8520833,0 0.79375,0 1.5875,0 2.38125,0 0.3527769,0 0.7055564,0 1.0583333,0 0.2645833,0 0.6754257,-0.236651 0.79375,0 0.1115589,0.223116 -0.3296047,0.379495 -0.5291667,0.529167 -0.1577657,0.118324 -0.3776662,0.138332 -0.5291666,0.264583 -0.3832675,0.319389 -0.6592121,0.758992 -1.0583334,1.058334 -0.6656202,0.499215 -1.4437783,0.833543 -2.1166666,1.322916 -0.3026119,0.220081 -0.5015653,0.560004 -0.79375,0.79375 -0.1539954,0.123196 -0.389718,0.125135 -0.5291666,0.264584 -0.062362,0.06236 -0.086482,0.247287 0,0.264583 0.4324085,0.08648 0.8837559,-0.03992 1.3229166,0 0.5342625,0.04857 1.0670513,0.134472 1.5875,0.264583 0.5411364,0.135284 1.0532321,0.368888 1.5875,0.529167 0.3483001,0.104489 0.7330889,0.10196 1.0583333,0.264583 0.2231152,0.111559 0.5291666,0.279715 0.5291666,0.529167 0,0.317989 -0.2564923,0.630145 -0.5291666,0.79375 -0.6461496,0.387689 -1.3921264,0.586737 -2.1166667,0.79375 -0.5158237,0.147378 -1.0596879,0.36055 -1.5874999,0.264583 -0.5059627,-0.09199 -1.3229167,-0.79375 -1.3229167,-0.79375"
       style="fill:none;stroke-linecap:round;stroke-linejoin:round" />
    <path
       id="lkteqq7t58"
       stroke-width="1.05833"
       stroke="#e65194"
       d="m 21.037577,24.817064 v 0 c 0,0 0,0 0,0 -0.264583,0.08819 -0.516559,0.233783 -0.79375,0.264583 -0.52593,0.05844 -1.062974,-0.06994 -1.5875,0 -0.805979,0.107463 -1.575271,0.421704 -2.38125,0.529167 -0.524525,0.06994 -1.058333,0 -1.5875,0 -0.352776,0 -0.705556,0 -1.058333,0 -0.17639,0 -0.584946,0.167338 -0.529167,0 0.118325,-0.354976 0.514086,-0.545161 0.79375,-0.79375 0.514832,-0.457629 1.077815,-0.859565 1.5875,-1.322917 0.46145,-0.419497 0.933339,-0.835943 1.322917,-1.322916 0.321255,-0.401569 0.459076,-0.932463 0.79375,-1.322917 0.206944,-0.241435 0.475761,-0.529167 0.79375,-0.529167 0.17639,0 0,0.352777 0,0.529167 0,0.61736 0,1.234723 0,1.852083 0,0.97014 0,1.940277 0,2.910417 0,0.61736 0,1.234723 0,1.852083 0,0.440973 0,1.322917 0,1.322917"
       style="fill:none;stroke-linecap:round;stroke-linejoin:round" />
    <path
       id="lkteqq8rm1"
       stroke-width="1.05833"
       stroke="#e65194"
       d="m 27.652161,28.521231 v 0 c 0,0 0.331956,-0.264584 0.529166,-0.264584 0.08819,0 0.04538,0.188958 0,0.264584 -0.226877,0.378129 -0.59654,0.663916 -0.79375,1.058333 -0.249452,0.498903 -0.352777,1.058333 -0.529166,1.5875 -0.17639,0.529167 -0.529167,1.5875 -0.529167,1.5875"
       style="fill:none;stroke-linecap:round;stroke-linejoin:round" />
    <path
       id="lkteqqahli"
       stroke-width="1.05833"
       stroke="#e65194"
       d="m 39.293827,20.054564 v 0 c 0,0 0,0 0,0 -0.352777,-0.08819 -0.694698,-0.264583 -1.058333,-0.264583 -0.449705,0 -0.913519,0.07849 -1.322917,0.264583 -0.578974,0.26317 -1.137795,0.608629 -1.5875,1.058333 -0.623628,0.623629 -1.251699,1.301152 -1.5875,2.116667 -0.30408,0.738481 -0.458279,1.60646 -0.264583,2.38125 0.184007,0.736026 0.667586,1.469808 1.322917,1.852083 0.533262,0.311071 1.274029,0.216771 1.852083,0 0.893228,-0.33496 1.743077,-0.878419 2.38125,-1.5875 0.981937,-1.091043 1.953868,-2.299914 2.38125,-3.704166 0.236746,-0.777883 -0.103016,-1.688756 -0.529167,-2.38125 -0.333314,-0.541637 -1.008525,-0.795163 -1.5875,-1.058334 -0.409398,-0.186089 -1.322917,-0.264583 -1.322917,-0.264583"
       style="fill:none;stroke-linecap:round;stroke-linejoin:round" />
    <path
       id="lkteqqb653"
       stroke-width="1.05833"
       stroke="#e65194"
       d="m 48.025077,23.494147 v 0 c 0,0 0,0 0,0 0.264583,-0.08819 0.557247,-0.116768 0.79375,-0.264583 0.478883,-0.299302 0.881944,-0.705556 1.322917,-1.058333 0.440973,-0.352777 0.844034,-0.759032 1.322916,-1.058334 0.236503,-0.147814 0.529167,-0.352777 0.79375,-0.264583 0.167339,0.05578 0.03156,0.355624 0,0.529167 -0.145454,0.799996 -0.444045,1.572604 -0.529166,2.38125 -0.09233,0.877099 -0.109392,1.7707 0,2.645833 0.06919,0.553484 0.408164,1.042993 0.529166,1.5875 0.0574,0.258284 0,0.79375 0,0.79375"
       style="fill:none;stroke-linecap:round;stroke-linejoin:round" />
    <path
       id="lkteqqbovl"
       stroke-width="1.05833"
       stroke="#e65194"
       d="m 63.37091,24.817064 v 0 c 0,0 -0.177276,0.01246 -0.264583,0 -0.531074,-0.07587 -1.057273,-0.18301 -1.5875,-0.264583 -0.616376,-0.09483 -1.23004,-0.220152 -1.852083,-0.264584 -0.615792,-0.04398 -1.246712,0.121074 -1.852084,0 -0.311814,-0.06236 -0.521075,-0.365561 -0.79375,-0.529166 -0.169106,-0.101463 -0.576998,-0.07326 -0.529166,-0.264584 0.09075,-0.363005 0.48927,-0.576265 0.79375,-0.79375 0.32095,-0.229251 0.779438,-0.250272 1.058333,-0.529166 0.278895,-0.278895 0.373798,-0.695807 0.529167,-1.058334 0.109862,-0.256344 0,-0.705556 0.264583,-0.79375 0.236651,-0.07888 0.430903,0.299884 0.529167,0.529167 0.177146,0.413345 0.234669,0.874207 0.264583,1.322917 0.05867,0.879991 0,1.763889 0,2.645833 0,0.79375 0.0528,1.589257 0,2.38125 -0.03568,0.535278 -0.264583,1.5875 -0.264583,1.5875"
       style="fill:none;stroke-linecap:round;stroke-linejoin:round" />
    <path
       id="lkteqqcj70"
       stroke-width="1.05833"
       stroke="#e65194"
       d="m -13.093672,35.929564 v 0 c 0,0 -0.711245,-0.06311 -1.058334,0 -0.631708,0.114855 -1.242967,0.326128 -1.852083,0.529166 -0.187089,0.06236 -0.529166,0.06737 -0.529166,0.264584 0,0.17639 0.353226,-0.01257 0.529166,0 1.059302,0.07567 2.114145,0.215241 3.175,0.264583 2.732495,0.127093 5.4668976,0.226595 8.2020833,0.264583 3.6156239,0.05022 7.2322081,0.04356 10.8479166,0 3.7049471,-0.04464 7.4077221,-0.207586 11.1125001,-0.264583 2.028232,-0.0312 4.057319,0.039 6.085416,0 2.558685,-0.0492 5.115333,-0.174844 7.672917,-0.264583 2.469499,-0.08665 4.941932,-0.113581 7.408333,-0.264584 1.856986,-0.113694 3.701267,-0.386476 5.55625,-0.529166 1.585264,-0.121944 3.173283,-0.216427 4.7625,-0.264584 1.322311,-0.04007 2.645833,0 3.96875,0 1.058333,0 2.116667,0 3.175,0 0.97014,0 1.940277,0 2.910417,0 1.058333,0 2.116666,0 3.175,0 0.61736,0 1.234723,0 1.852083,0 0.61736,0 1.234723,0 1.852083,0 0.440973,0 0.881944,0 1.322917,0 0.440973,0 0.881943,0 1.322916,0 0.352777,0 0.705557,0 1.058334,0 0.352777,0 0.705556,0 1.058333,0 0.17639,0 0.352777,0 0.529167,0 0.176389,0 0.529166,-0.176389 0.529166,0 0,0.19721 -0.529166,0.264584 -0.529166,0.264584"
       style="fill:none;stroke-linecap:round;stroke-linejoin:round" />
    <path
       id="lkteqqfg0f"
       stroke-width="1.05833"
       stroke="#e65194"
       d="m 60.19591,42.80873 v 0 c 0,0 0,0 0,0 -0.08819,0 -0.202221,-0.06236 -0.264583,0 -0.06236,0.06236 -0.08367,0.292473 0,0.264584 0.301672,-0.100558 0.549463,-0.325594 0.79375,-0.529167 0.287451,-0.239543 0.459076,-0.626412 0.79375,-0.79375 0.574281,-0.287139 1.218753,-0.423611 1.852083,-0.529167 0.434973,-0.07249 0.910021,-0.154836 1.322917,0 0.350353,0.131382 0.830982,0.421429 0.79375,0.79375 -0.07075,0.707517 -0.68756,1.24536 -1.058334,1.852084 -0.599622,0.981202 -1.214225,1.95363 -1.852083,2.910416 -0.420838,0.631259 -0.78645,1.315617 -1.322916,1.852084 -0.278895,0.278894 -0.779439,0.250272 -1.058334,0.529166 -0.19721,0.19721 -0.109879,0.561695 -0.264583,0.79375 -0.04892,0.07338 -0.264583,-0.08819 -0.264583,0 0,0.124725 0.141554,0.244078 0.264583,0.264584 0.434972,0.07249 0.883065,-0.03142 1.322917,0 0.796604,0.0569 1.582615,0.264583 2.381249,0.264583 0.798635,0 2.38125,-0.264583 2.38125,-0.264583"
       style="fill:none;stroke-linecap:round;stroke-linejoin:round" />
    <path
       id="lkteqqhm3p"
       stroke-width="1.05833"
       stroke="#e65194"
       d="m 52.522994,43.337897 v 0 c 0,0 0.05578,0.361828 0,0.529167 -0.03944,0.118324 -0.14228,0.240122 -0.264584,0.264583 -0.345927,0.06919 -0.705556,0 -1.058333,0 -0.61736,0 -1.236856,0.05127 -1.852083,0 -0.448152,-0.03735 -0.977443,0.02331 -1.322917,-0.264583 -0.279352,-0.232794 -0.352777,-0.705557 -0.264583,-1.058334 0.106952,-0.427804 0.464164,-0.765368 0.79375,-1.058333 0.475337,-0.422521 1.029176,-0.753793 1.5875,-1.058333 0.416949,-0.227428 0.850331,-0.48191 1.322916,-0.529167 0.447474,-0.04475 0.929804,0.04619 1.322917,0.264583 0.436121,0.24229 0.835218,0.612101 1.058333,1.058334 0.239914,0.47983 0.264584,1.051033 0.264584,1.5875 0,0.711046 -0.0525,1.437986 -0.264584,2.116666 -0.235288,0.752928 -0.523282,1.537028 -1.058333,2.116667 -0.564346,0.611375 -1.403212,0.894845 -2.116667,1.322917 -0.609716,0.365831 -1.142611,1.011036 -1.852083,1.058333 -0.751864,0.05013 -2.116667,-0.79375 -2.116667,-0.79375"
       style="fill:none;stroke-linecap:round;stroke-linejoin:round" />
    <path
       id="lkteqqj81k"
       stroke-width="1.05833"
       stroke="#e65194"
       d="m 38.500077,39.63373 v 0 c 0,0 -0.153024,-0.208803 -0.264583,-0.264583 -0.07888,-0.03944 -0.195715,-0.05509 -0.264584,0 -0.389577,0.311663 -0.754147,0.66289 -1.058333,1.058333 -0.581644,0.75614 -1.14115,1.538145 -1.5875,2.38125 -0.352568,0.665965 -0.79375,1.363134 -0.79375,2.116667 0,0.671669 0.47212,1.262428 0.79375,1.852083 0.211161,0.387128 0.408271,0.84418 0.79375,1.058334 0.468956,0.26053 1.052888,0.309134 1.5875,0.264583 0.555863,-0.04632 1.1092,-0.242186 1.5875,-0.529167 0.427805,-0.256683 0.835218,-0.6121 1.058333,-1.058333 0.325245,-0.650491 0.433049,-1.395778 0.529167,-2.116667 0.08159,-0.611946 0.101494,-1.243121 0,-1.852083 -0.07808,-0.468479 -0.23758,-0.948021 -0.529167,-1.322917 -0.346704,-0.445762 -0.877154,-0.711628 -1.322916,-1.058333 -0.348083,-0.27073 -1.058334,-0.79375 -1.058334,-0.79375"
       style="fill:none;stroke-linecap:round;stroke-linejoin:round" />
    <path
       id="lkteqqk29t"
       stroke-width="1.05833"
       stroke="#e65194"
       d="m 28.445911,47.306647 v 0 c 0,0 0,0 0,0 -0.08819,0.17639 -0.191342,0.346062 -0.264584,0.529167 -0.279855,0.699637 -0.79375,2.116666 -0.79375,2.116666"
       style="fill:none;stroke-linecap:round;stroke-linejoin:round" />
    <path
       id="lkteqqkmug"
       stroke-width="1.05833"
       stroke="#e65194"
       d="m 22.360494,44.131647 v 0 c 0,0 -0.153024,0.208804 -0.264583,0.264583 -0.424802,0.2124 -0.858518,0.429652 -1.322917,0.529167 -0.780907,0.167338 -1.583846,0.220284 -2.38125,0.264583 -0.792528,0.04403 -1.5875,0 -2.38125,0 -0.61736,0 -1.239488,0.07657 -1.852083,0 -0.123762,-0.01548 -0.328756,-0.15763 -0.264584,-0.264583 0.256683,-0.427805 0.722736,-0.689176 1.058334,-1.058333 0.54696,-0.601655 1.038061,-1.252694 1.5875,-1.852084 0.421402,-0.459711 0.9086,-0.85681 1.322916,-1.322916 0.292966,-0.329586 0.365946,-0.951381 0.79375,-1.058334 0.270569,-0.06764 0.241422,0.515819 0.264584,0.79375 0.06592,0.791009 0.06088,1.589839 0,2.38125 -0.115785,1.505199 -0.254275,3.013509 -0.529167,4.497917 -0.167664,0.905383 -0.556501,1.756145 -0.79375,2.645833 -0.115872,0.43452 -0.264583,1.322917 -0.264583,1.322917"
       style="fill:none;stroke-linecap:round;stroke-linejoin:round" />
    <path
       id="lkteqqlivi"
       stroke-width="1.05833"
       stroke="#e65194"
       d="m 4.3688276,42.01498 v 0 c 0,0 -0.088194,-0.264583 0,-0.264583 0.2788946,0 0.5165592,0.233783 0.79375,0.264583 0.5259308,0.05844 1.0629741,-0.06994 1.5874999,0 0.8059791,0.107464 1.5763108,0.414176 2.38125,0.529167 0.4365413,0.06236 0.8819435,0 1.3229165,0 0.264583,0 0.79375,-0.264583 0.79375,0 0,0.31799 -0.568896,0.304313 -0.79375,0.529167 -0.5749579,0.574958 -1.0342164,1.256239 -1.5874998,1.852083 -0.5940875,0.639789 -1.3066739,1.170321 -1.8520833,1.852083 -0.5197608,0.649703 -0.8493205,1.432581 -1.3229167,2.116667 -0.3214449,0.464309 -0.6590162,0.9236 -1.0583333,1.322917 -0.062362,0.06236 -0.2645833,0 -0.2645833,0"
       style="fill:none;stroke-linecap:round;stroke-linejoin:round" />
    <path
       id="lkteqqm36i"
       stroke-width="1.05833"
       stroke="#e65194"
       d="m 0.92924428,49.687897 v 0 c 0,0 -0.4409731,0.08819 -0.52916666,0.264583 -0.0557795,0.111559 0.13985875,0.264584 0.26458333,0.264584 0.71104655,0 1.40642445,-0.230762 2.11666665,-0.264584 1.1452304,-0.05454 2.2930564,0 3.4395833,0 0.8819435,0 2.6458333,0 2.6458333,0"
       style="fill:none;stroke-linecap:round;stroke-linejoin:round" />
    <path
       id="lkteqsdvn9"
       stroke-width="1.05833"
       stroke="#001f3f"
       d="m 119.19799,12.646231 v 0 c 0,0 0,0 0,0 -0.0882,-0.08819 -0.13986,-0.264584 -0.26458,-0.264584 -0.44971,0 -0.87434,0.232543 -1.32292,0.264584 -0.79174,0.05655 -1.58871,-0.04403 -2.38125,0 -0.7974,0.0443 -1.58464,0.207682 -2.38125,0.264583 -0.43984,0.03142 -0.88193,0 -1.32291,0 -0.35277,0 -0.70557,0 -1.05834,0 -0.17639,0 -0.65389,0.124725 -0.52916,0 0.27889,-0.278895 0.73017,-0.310383 1.05833,-0.529167 0.46987,-0.31325 0.92361,-0.659016 1.32292,-1.058333 0.39931,-0.399317 0.68315,-0.90084 1.05833,-1.322917 0.33144,-0.3728848 0.76835,-0.6523588 1.05833,-1.0583329 0.16211,-0.2269463 0.0972,-0.5706348 0.26459,-0.79375 0.11832,-0.1577657 0.33194,-0.2645833 0.52916,-0.2645833 0.0882,0 -0.0214,0.1790224 0,0.2645833 0.0677,0.2705683 0.26459,0.5148554 0.26459,0.79375 0,0.7986342 -0.0913,1.6016339 -0.26459,2.3812499 -0.1815,0.816761 -0.69598,1.550294 -0.79375,2.38125 -0.0831,0.706176 0.0603,1.435608 0.26459,2.116667 0.0717,0.238932 0.52916,0.529166 0.52916,0.529166"
       style="fill:none;stroke-linecap:round;stroke-linejoin:round" />
    <path
       id="lkteqsesfz"
       stroke-width="1.05833"
       stroke="#001f3f"
       d="m 130.04591,8.6774808 v 0 c 0,0 0.14676,-0.4313237 0,-0.5291667 -0.22016,-0.1467643 -0.54274,-0.083669 -0.79375,0 -0.56126,0.1870896 -1.10416,0.4525698 -1.5875,0.79375 -1.02404,0.7228602 -2.09111,1.4325889 -2.91042,2.3812499 -0.87992,1.018858 -1.59424,2.198852 -2.11666,3.439583 -0.20535,0.487699 -0.21897,1.105766 0,1.5875 0.25804,0.56773 0.74972,1.077257 1.32291,1.322917 0.73406,0.314598 1.58438,0.317709 2.38125,0.264583 0.55655,-0.0371 1.2069,-0.12139 1.5875,-0.529166 0.91856,-0.984168 1.62611,-2.185916 2.11667,-3.439584 0.32298,-0.825399 0.21799,-1.760714 0.26458,-2.645833 0.0417,-0.792652 0.12071,-1.5967285 0,-2.3812499 -0.06,-0.3898317 -0.35277,-0.7055564 -0.52916,-1.0583333 -0.1764,-0.3527769 -0.52917,-1.0583333 -0.52917,-1.0583333"
       style="fill:none;stroke-linecap:round;stroke-linejoin:round" />
    <path
       id="lkteqsibet"
       stroke-width="1.05833"
       stroke="#001f3f"
       d="m 141.68758,9.2066475 v 0 c 0,0 0.0624,-0.2022211 0,-0.2645834 -0.13944,-0.1394486 -0.33195,-0.2645833 -0.52917,-0.2645833 -0.19722,0 -0.3479,0.186899 -0.52917,0.2645833 -0.43653,0.1870896 -0.93882,0.2498196 -1.32291,0.5291667 -0.60524,0.4401608 -1.20248,0.9457902 -1.5875,1.5875002 -0.43048,0.717452 -0.62966,1.560811 -0.79375,2.38125 -0.10377,0.51889 -0.087,1.065532 0,1.5875 0.0917,0.550201 0.18671,1.147207 0.52916,1.5875 0.31573,0.405929 0.81465,0.715552 1.32292,0.79375 0.70279,0.108119 1.44703,-0.02543 2.11667,-0.264584 0.59893,-0.213902 1.22549,-0.535437 1.5875,-1.058333 0.47625,-0.687917 0.69598,-1.550294 0.79375,-2.38125 0.0831,-0.706175 -0.0525,-1.437987 -0.26459,-2.116667 -0.23529,-0.752927 -0.63481,-1.451157 -1.05833,-2.1166662 -0.2009,-0.3156797 -0.55999,-0.5015653 -0.79375,-0.79375 -0.12319,-0.1539954 -0.26458,-0.5291667 -0.26458,-0.5291667"
       style="fill:none;stroke-linecap:round;stroke-linejoin:round" />
    <path
       id="lkteqsj05e"
       stroke-width="1.05833"
       stroke="#001f3f"
       d="m 150.41883,7.6191475 v 0 c 0,0 -1.06985,0.2251419 -0.79375,0.2645833 0.87307,0.1247246 1.76458,0.03525 2.64583,0 1.32479,-0.052991 2.64395,-0.2115926 3.96875,-0.2645833 0.88125,-0.03525 1.76583,0.058666 2.64583,0 0.44871,-0.029914 0.88665,-0.3736525 1.32292,-0.2645833 0.19132,0.047831 -0.14139,0.3751712 -0.26458,0.5291666 -0.58566,0.7320809 -1.20404,1.4391746 -1.85209,2.1166662 -1.2932,1.351982 -2.74111,2.556968 -3.96875,3.96875 -0.54597,0.627851 -0.84931,1.432582 -1.32291,2.116667 -0.32145,0.464309 -1.05834,1.322917 -1.05834,1.322917"
       style="fill:none;stroke-linecap:round;stroke-linejoin:round" />
    <path
       id="lkteqsjjdf"
       stroke-width="1.05833"
       stroke="#001f3f"
       d="m 148.30216,16.350397 v 0 c 0,0 -0.35804,-0.04278 -0.52917,0 -0.19132,0.04783 -0.38973,0.125135 -0.52916,0.264584 -0.13944,0.139448 -0.45421,0.474988 -0.26459,0.529166 0.67842,0.193831 1.4111,0 2.11667,0 1.05833,0 2.11667,0 3.175,0 1.32292,0 3.96875,0 3.96875,0"
       style="fill:none;stroke-linecap:round;stroke-linejoin:round" />
    <path
       id="lkteqsk2hi"
       stroke-width="1.05833"
       stroke="#001f3f"
       d="m 175.55424,8.1483141 v 0 c 0,0 0.33097,-0.058076 0.26459,0 -0.75677,0.6621727 -1.55448,1.2797023 -2.38125,1.8520829 -1.46828,1.016495 -3.02964,1.893922 -4.49792,2.910417 -0.82677,0.572381 -1.64235,1.170025 -2.38125,1.852083 -0.41495,0.383038 -0.74509,0.853041 -1.05833,1.322917 -0.0489,0.07338 -0.0734,0.215662 0,0.264583 0.23206,0.154705 0.5326,0.166656 0.79375,0.264584 0.44471,0.166764 0.85563,0.444206 1.32291,0.529166 0.52062,0.09466 1.06553,0.08699 1.5875,0 0.5502,-0.0917 1.15898,-0.172077 1.5875,-0.529166 0.20326,-0.169381 0.14309,-0.571188 0,-0.79375 -0.67783,-1.054399 -1.49489,-2.024073 -2.38125,-2.910417 -0.62362,-0.623628 -1.43915,-1.022892 -2.11666,-1.5875 -0.38328,-0.319389 -0.79391,-0.635264 -1.05834,-1.058333 -0.19272,-0.3083615 -0.42719,-0.7330892 -0.26458,-1.0583335 0.1764,-0.3527769 0.67908,-0.4208119 1.05833,-0.5291667 0.86482,-0.2470864 1.75398,-0.4128373 2.64584,-0.5291667 1.14024,-0.1487302 2.29065,-0.2167122 3.43958,-0.2645833 0.9693,-0.040389 1.94027,0 2.91042,0 0.79375,0 2.38125,0 2.38125,0"
       style="fill:none;stroke-linecap:round;stroke-linejoin:round" />
    <path
       id="lkteqslc3q"
       stroke-width="1.05833"
       stroke="#001f3f"
       d="m 125.01883,32.754564 v 0 c 0,0 0,0 0,0 0.17639,0 0.37602,0.08751 0.52916,0 0.49033,-0.280181 0.87715,-0.711629 1.32292,-1.058333 0.34809,-0.27073 0.69141,-0.549143 1.05833,-0.79375 0.1641,-0.109392 0.34208,-0.326946 0.52917,-0.264584 0.18709,0.06236 0.26458,0.331957 0.26458,0.529167 0,1.062 -0.21407,2.114201 -0.26458,3.175 -0.0378,0.79285 -0.0565,1.589516 0,2.38125 0.032,0.448561 0.26458,1.322916 0.26458,1.322916"
       style="fill:none;stroke-linecap:round;stroke-linejoin:round" />
    <path
       id="lkteqslqor"
       stroke-width="1.05833"
       stroke="#001f3f"
       d="m 141.68758,30.373314 v 0 c 0,0 -0.29988,-0.430903 -0.52917,-0.529167 -0.41333,-0.177146 -0.88905,-0.382907 -1.32292,-0.264583 -0.61357,0.167338 -1.15776,0.589518 -1.5875,1.058333 -0.56221,0.613331 -1.07473,1.322515 -1.32291,2.116667 -0.21045,0.673438 -0.26205,1.461574 0,2.116666 0.30199,0.754957 0.93702,1.364216 1.5875,1.852084 0.44622,0.334674 1.03134,0.486386 1.5875,0.529166 0.62179,0.04783 1.35318,0.109594 1.85208,-0.264583 0.66561,-0.499216 1.04807,-1.331354 1.32292,-2.116667 0.35443,-1.012695 0.47558,-2.103405 0.52916,-3.174999 0.0355,-0.710161 0.0759,-1.492444 -0.26458,-2.116667 -0.24625,-0.451464 -0.82677,-0.65844 -1.32292,-0.79375 -0.51051,-0.139232 -1.05833,0 -1.5875,0 -0.26458,0 -0.79375,0 -0.79375,0"
       style="fill:none;stroke-linecap:round;stroke-linejoin:round" />
    <path
       id="lkteqsm9z8"
       stroke-width="1.05833"
       stroke="#001f3f"
       d="m 154.65216,30.902481 v 0 c 0,0 -0.35385,-0.01947 -0.52917,0 -0.61981,0.06887 -1.30299,-0.03108 -1.85208,0.264583 -0.65889,0.354796 -1.09239,1.026356 -1.5875,1.5875 -0.82934,0.939906 -1.79962,1.800045 -2.38125,2.910416 -0.41733,0.796727 -0.72427,1.76784 -0.52917,2.645834 0.19132,0.860943 0.86074,1.617019 1.5875,2.116666 0.75877,0.521648 1.7335,0.91816 2.64584,0.79375 1.17239,-0.159871 2.31817,-0.771464 3.175,-1.5875 1.06293,-1.012309 2.13185,-2.25766 2.38125,-3.704166 0.23262,-1.349238 -0.54986,-2.69753 -1.05834,-3.96875 -0.20973,-0.52433 -0.65902,-0.9236 -1.05833,-1.322917 -0.39931,-0.399317 -0.85304,-0.745082 -1.32292,-1.058333 -0.0734,-0.04892 -0.26458,0 -0.26458,0"
       style="fill:none;stroke-linecap:round;stroke-linejoin:round" />
    <path
       id="lkteqsmu6m"
       stroke-width="1.05833"
       stroke="#001f3f"
       d="m 171.32091,32.754564 v 0 c 0,0 -0.0815,-0.455925 -0.26458,-0.529167 -0.32756,-0.131019 -0.70557,0 -1.05834,0 -0.35277,0 -0.73078,-0.131019 -1.05833,0 -0.5905,0.236196 -1.12146,0.625581 -1.5875,1.058333 -0.77822,0.722641 -1.60814,1.448925 -2.11667,2.38125 -0.57441,1.0531 -1.00126,2.241368 -1.05833,3.439584 -0.0358,0.752681 0.23617,1.609786 0.79375,2.116666 0.53813,0.489215 1.39052,0.488826 2.11667,0.529167 0.88497,0.04917 1.82895,0.07937 2.64583,-0.264583 0.92678,-0.390218 1.81157,-1.023451 2.38125,-1.852084 0.46064,-0.670038 0.48405,-1.569389 0.52917,-2.38125 0.0443,-0.797403 0.0426,-1.644049 -0.26459,-2.38125 -0.1696,-0.40705 -0.71025,-0.52302 -1.05833,-0.79375 -0.44577,-0.346704 -1.32292,-1.058333 -1.32292,-1.058333"
       style="fill:none;stroke-linecap:round;stroke-linejoin:round" />
    <path
       id="lkteqsrwne"
       stroke-width="1.05833"
       stroke="#001f3f"
       d="m 180.05216,34.87123 v 0 c 0,0 0,0 0,0 0.1764,0.17639 0.35277,0.352777 0.52917,0.529167 0.35276,0.352777 0.66452,0.752036 1.05833,1.058333 0.40592,0.315725 0.87336,0.544005 1.32292,0.79375 0.34477,0.191546 1.05833,0.529167 1.05833,0.529167"
       style="fill:none;stroke-linecap:round;stroke-linejoin:round" />
    <path
       id="lkteqss5rn"
       stroke-width="1.05833"
       stroke="#001f3f"
       d="m 180.84591,37.25248 v 0 c 0,0 -0.32036,-0.153024 -0.26458,-0.264583 0.0882,-0.17639 0.33665,-0.221803 0.52916,-0.264583 0.60878,-0.135284 1.24709,-0.113332 1.85209,-0.264584 0.46077,-0.115189 0.87235,-0.378975 1.32291,-0.529166 0.34497,-0.114991 1.05834,-0.264584 1.05834,-0.264584"
       style="fill:none;stroke-linecap:round;stroke-linejoin:round" />
    <path
       id="lkteqssewy"
       stroke-width="1.05833"
       stroke="#001f3f"
       d="m 182.16883,34.606647 v 0 c 0,0 -0.20223,-0.06236 -0.26459,0 -0.0624,0.06236 0.0172,0.178102 0,0.264583 -0.0713,0.356574 -0.23167,0.696193 -0.26458,1.058334 -0.0559,0.614825 -0.0559,1.237258 0,1.852083 0.0329,0.362141 0.26458,1.058333 0.26458,1.058333"
       style="fill:none;stroke-linecap:round;stroke-linejoin:round" />
    <path
       id="lkteqst1jo"
       stroke-width="1.05833"
       stroke="#001f3f"
       d="m 181.11049,12.646231 v 0 c 0,0 0,0 0,0 0.1764,0 0.37603,-0.08751 0.52917,0 0.49032,0.28018 0.88193,0.705556 1.32292,1.058333 0.44098,0.352777 0.82925,0.784082 1.32291,1.058333 0.31787,0.176597 1.05834,0.264584 1.05834,0.264584"
       style="fill:none;stroke-linecap:round;stroke-linejoin:round" />
    <path
       id="lkteqst9lt"
       stroke-width="1.05833"
       stroke="#001f3f"
       d="m 181.11049,14.762897 v 0 c 0,0 0.29988,-0.430903 0.52917,-0.529166 0.41333,-0.177147 0.88045,-0.184137 1.32292,-0.264584 0.52781,-0.09597 1.08333,-0.08125 1.5875,-0.264583 0.48328,-0.175744 1.32291,-0.79375 1.32291,-0.79375"
       style="fill:none;stroke-linecap:round;stroke-linejoin:round" />
    <path
       id="lkteqsthyd"
       stroke-width="1.05833"
       stroke="#001f3f"
       d="m 184.55008,11.323314 v 0 c 0,0 -0.24011,0.333481 -0.26459,0.529167 -0.0656,0.525081 0.0406,1.059891 0,1.5875 -0.0478,0.621792 -0.11332,1.247074 -0.26458,1.852083 -0.1152,0.460761 -0.52917,1.322917 -0.52917,1.322917"
       style="fill:none;stroke-linecap:round;stroke-linejoin:round" />
    <path
       id="lkteqsy7gh"
       stroke-width="1.05833"
       stroke="#001f3f"
       d="m 196.72091,31.167064 v 0 c 0,0 0,0 0,0 -0.0882,0.17639 -0.32695,0.342077 -0.26458,0.529167 0.0624,0.187089 0.33348,0.240122 0.52916,0.264583 0.52509,0.06564 1.0599,0.04058 1.5875,0 0.6218,-0.04783 1.23103,-0.208124 1.85209,-0.264583 0.35134,-0.03194 0.70556,0 1.05833,0 0.26458,0 0.52917,0 0.79375,0 0.0882,0 0.20222,-0.06236 0.26458,0 0.0624,0.06236 0.0551,0.195714 0,0.264583 -0.31165,0.389578 -0.69056,0.721212 -1.05833,1.058333 -0.69109,0.633505 -1.45375,1.189157 -2.11667,1.852083 -0.57496,0.574959 -1.09172,1.207591 -1.5875,1.852084 -0.38777,0.504092 -0.63582,1.112163 -1.05833,1.5875 -0.29297,0.329586 -0.71401,0.518276 -1.05833,0.79375 -0.0974,0.07791 -0.26459,0.264583 -0.26459,0.264583"
       style="fill:none;stroke-linecap:round;stroke-linejoin:round" />
    <path
       id="lkteqsyy92"
       stroke-width="1.05833"
       stroke="#001f3f"
       d="m 194.33966,39.104564 v 0 c 0,0 -0.18571,-0.03944 -0.26458,0 -0.11155,0.05578 -0.37614,0.208804 -0.26459,0.264583 0.23665,0.118324 0.52917,0 0.79375,0 0.26459,0 0.53121,-0.03282 0.79375,0 0.44622,0.05578 0.87434,0.232542 1.32292,0.264583 0.79174,0.05655 2.38125,0 2.38125,0"
       style="fill:none;stroke-linecap:round;stroke-linejoin:round" />
    <path
       id="lkteqszm9c"
       stroke-width="1.05833"
       stroke="#001f3f"
       d="m 213.12507,35.66498 v 0 c 0,0 -0.35803,-0.04278 -0.52916,0 -0.19132,0.04783 -0.34208,0.202222 -0.52917,0.264584 -0.60912,0.203038 -1.22102,0.410842 -1.85208,0.529166 -0.78497,0.14718 -1.58438,0.211458 -2.38125,0.264584 -0.528,0.0352 -1.05833,0 -1.5875,0 -0.26458,0 -0.79375,0.264583 -0.79375,0 0,-0.374177 0.47643,-0.595437 0.79375,-0.79375 0.40275,-0.251719 0.96988,-0.211447 1.32292,-0.529167 0.56393,-0.507529 0.8677,-1.245142 1.32291,-1.852083 0.33883,-0.451776 0.65903,-0.9236 1.05833,-1.322917 0.22485,-0.224853 0.47575,-0.529166 0.79375,-0.529166 0.1764,0 0,0.352776 0,0.529166 0,0.705557 0.0779,1.415426 0,2.116667 -0.0993,0.89391 -0.39573,1.756373 -0.52916,2.645833 -0.13147,0.876538 -0.13923,1.768398 -0.26459,2.645833 -0.0514,0.359982 -0.26458,1.058334 -0.26458,1.058334"
       style="fill:none;stroke-linecap:round;stroke-linejoin:round" />
    <path
       id="lkteqt4z5a"
       stroke-width="1.05833"
       stroke="#001f3f"
       d="m 223.17924,32.225397 v 0 c 0,0 0.0624,-0.202221 0,-0.264583 -0.0624,-0.06236 -0.17809,-0.0173 -0.26458,0 -0.35658,0.07132 -0.72268,0.124724 -1.05834,0.264583 -0.72815,0.303398 -1.50772,0.556866 -2.11666,1.058333 -0.91594,0.754291 -1.71125,1.666579 -2.38125,2.645834 -0.49049,0.716872 -0.99645,1.514843 -1.05834,2.38125 -0.0366,0.51295 0.40939,0.981263 0.79375,1.322916 0.4422,0.393055 1.01672,0.638083 1.5875,0.79375 0.42543,0.116028 0.91586,0.169606 1.32292,0 0.70033,-0.291798 1.34805,-0.755874 1.85208,-1.322916 0.92644,-1.042244 1.78174,-2.180566 2.38125,-3.439584 0.3057,-0.641974 0.21006,-1.407715 0.26459,-2.116666 0.0338,-0.439674 0.12115,-0.898911 0,-1.322917 -0.0685,-0.239853 -0.37333,-0.334378 -0.52917,-0.529166 -0.19865,-0.248309 -0.52917,-0.79375 -0.52917,-0.79375"
       style="fill:none;stroke-linecap:round;stroke-linejoin:round" />
    <path
       id="lkteqt5o8j"
       stroke-width="1.05833"
       stroke="#001f3f"
       d="m 235.61466,36.45873 v 0 c 0,0 -0.53049,-0.02633 -0.79375,0 -0.62053,0.06205 -1.22846,0.264584 -1.85209,0.264584 -0.79864,0 -1.60033,-0.09725 -2.38125,-0.264584 -0.46439,-0.09952 -1.05947,-0.13399 -1.32291,-0.529166 -0.20172,-0.302562 0.007,-0.801204 0.26458,-1.058334 0.58833,-0.58833 1.39428,-0.910116 2.11667,-1.322916 0.51369,-0.293529 1.05833,-0.529167 1.5875,-0.79375 0.35277,-0.17639 0.67569,-0.433507 1.05833,-0.529167 0.34224,-0.08556 0.77126,-0.205047 1.05833,0 0.41847,0.298905 0.63114,0.835049 0.79375,1.322917 0.19723,0.591627 0.35941,1.235707 0.26459,1.852083 -0.09,0.584748 -0.44577,1.10903 -0.79375,1.5875 -0.36679,0.504352 -0.90152,0.863206 -1.32292,1.322917 -0.54943,0.599389 -0.91898,1.38925 -1.5875,1.852083 -0.5279,0.365469 -1.21875,0.423611 -1.85208,0.529167 -0.43498,0.0725 -1.32292,0 -1.32292,0"
       style="fill:none;stroke-linecap:round;stroke-linejoin:round" />
    <path
       id="lkteqt6foc"
       stroke-width="1.05833"
       stroke="#001f3f"
       d="m 245.13966,34.342064 v 0 c 0,0 -0.70176,0.193267 -1.05834,0.264583 -0.0865,0.0173 -0.32694,0.06236 -0.26458,0 0.22484,-0.224853 0.50316,-0.400018 0.79375,-0.529167 0.50972,-0.226541 1.03532,-0.450283 1.5875,-0.529166 0.69847,-0.09978 1.44732,-0.223115 2.11667,0 0.47331,0.157766 0.85188,0.604149 1.05833,1.058333 0.25805,0.56773 0.44799,1.256033 0.26458,1.852083 -0.20256,0.658361 -0.78226,1.160677 -1.32291,1.5875 -1.1521,0.909545 -2.4561,1.608641 -3.70417,2.38125 -0.60457,0.374264 -1.26045,0.663917 -1.85208,1.058334 -0.20757,0.138372 -0.73673,0.390795 -0.52917,0.529166 0.36693,0.244608 0.88194,0 1.32292,0 0.79375,0 1.5875,0 2.38125,0 0.88193,0 2.64583,0 2.64583,0"
       style="fill:none;stroke-linecap:round;stroke-linejoin:round" />
    <path
       id="lkteqt7car"
       stroke-width="1.05833"
       stroke="#001f3f"
       d="m 195.66258,11.323314 v 0 c 0,0 0,0 0,0 0.35276,-0.352777 0.63743,-0.790485 1.05833,-1.058333 0.56666,-0.3606035 1.26494,-0.4675586 1.85208,-0.7937502 0.21807,-0.1211448 0.35277,-0.7055564 0.52917,-0.5291667 0.24945,0.2494518 0.0271,0.7065936 0,1.0583329 -0.0613,0.796283 -0.2299,1.58337 -0.26458,2.38125 -0.0536,1.233557 0,2.469444 0,3.704167 0,0.440973 0,0.881944 0,1.322917 0,0.08819 0,0.264583 0,0.264583"
       style="fill:none;stroke-linecap:round;stroke-linejoin:round" />
    <path
       id="lkteqt7rhz"
       stroke-width="1.05833"
       stroke="#001f3f"
       d="m 211.27299,8.9420641 v 0 c 0,0 -0.70771,-0.038957 -1.05833,0 -0.44696,0.049662 -0.90781,0.09162 -1.32292,0.2645834 -0.65635,0.2734786 -1.33225,0.5731721 -1.85208,1.0583335 -0.82569,0.770638 -1.68902,1.600483 -2.11667,2.645833 -0.40211,0.982932 -0.56425,2.156153 -0.26458,3.175 0.19436,0.660831 0.93004,1.11746 1.5875,1.322917 0.8418,0.263062 1.78734,0.201998 2.64583,0 0.69215,-0.162857 1.43881,-0.479732 1.85208,-1.058334 0.5352,-0.749268 0.74536,-1.726329 0.79375,-2.645833 0.0427,-0.811988 -0.20886,-1.633881 -0.52916,-2.38125 -0.22246,-0.519059 -0.78409,-0.829262 -1.05834,-1.322917 -0.1766,-0.3178726 -0.26458,-1.0583329 -0.26458,-1.0583329"
       style="fill:none;stroke-linecap:round;stroke-linejoin:round" />
    <path
       id="lkteqt88vu"
       stroke-width="1.05833"
       stroke="#001f3f"
       d="m 224.50216,10.000397 v 0 c 0,0 -0.29253,-0.4502833 -0.52917,-0.5291662 -0.33467,-0.1115589 -0.72366,-0.1115589 -1.05833,0 -0.74835,0.2494518 -1.52517,0.5364242 -2.11667,1.0583332 -0.9399,0.829329 -1.74358,1.831263 -2.38125,2.910417 -0.52514,0.888725 -0.99772,1.879909 -1.05833,2.910416 -0.0347,0.590606 0.32044,1.232525 0.79375,1.5875 0.66934,0.502013 1.54456,0.79375 2.38125,0.79375 0.83669,0 1.69071,-0.321286 2.38125,-0.79375 1.02936,-0.704307 2.08804,-1.530252 2.64583,-2.645833 0.64207,-1.284131 0.72856,-2.799112 0.79375,-4.233333 0.0254,-0.557215 -0.21976,-1.1233893 -0.52917,-1.5875002 -0.2446,-0.3669109 -0.68019,-0.5668724 -1.05833,-0.79375 -0.0756,-0.045376 -0.26458,0 -0.26458,0"
       style="fill:none;stroke-linecap:round;stroke-linejoin:round" />
    <path
       id="lkteqt8pou"
       stroke-width="1.05833"
       stroke="#001f3f"
       d="m 240.90632,8.9420641 v 0 c 0,0 0.087,-0.2790825 0,-0.2645833 -0.5502,0.091699 -1.08204,0.2932853 -1.5875,0.5291667 -0.82282,0.3839871 -1.68669,0.7380314 -2.38125,1.3229165 -1.00287,0.844529 -1.91857,1.819511 -2.64583,2.910417 -0.35615,0.534231 -0.52917,1.210019 -0.52917,1.852083 0,0.727271 0.0427,1.576091 0.52917,2.116667 0.42953,0.477242 1.21166,0.48342 1.85208,0.529166 0.62204,0.04443 1.27307,-0.03297 1.85209,-0.264583 0.7725,-0.309007 1.57519,-0.691197 2.11666,-1.322917 0.56529,-0.6595 0.91554,-1.524455 1.05834,-2.38125 0.13128,-0.787767 -0.0119,-1.623599 -0.26459,-2.38125 -0.20111,-0.603342 -0.60862,-1.137795 -1.05833,-1.5875 -0.36364,-0.3636349 -1.32292,-0.7937495 -1.32292,-0.7937495"
       style="fill:none;stroke-linecap:round;stroke-linejoin:round" />
    <path
       id="lkteqtb71l"
       stroke-width="1.05833"
       stroke="#001f3f"
       d="m 247.52091,12.381647 v 0 c 0,0 0,0 0,0 0,0.17639 -0.0346,0.356204 0,0.529167 0.0547,0.273479 0.0674,0.59654 0.26458,0.79375 0.44971,0.449704 1.11218,0.635812 1.5875,1.058333 0.32959,0.292966 0.44942,0.78286 0.79375,1.058334 0.13774,0.110188 0.52917,0 0.52917,0"
       style="fill:none;stroke-linecap:round;stroke-linejoin:round" />
    <path
       id="lkteqtbghy"
       stroke-width="1.05833"
       stroke="#001f3f"
       d="m 246.46257,15.292064 v 0 c 0,0 -0.35276,0 -0.52916,0 -0.0882,0 0.17809,0.0173 0.26458,0 0.35658,-0.07132 0.69964,-0.204803 1.05833,-0.264583 0.70139,-0.116896 1.44844,-0.02159 2.11667,-0.264584 0.35166,-0.127873 0.79375,-0.79375 0.79375,-0.79375"
       style="fill:none;stroke-linecap:round;stroke-linejoin:round" />
    <path
       id="lkteqtbpip"
       stroke-width="1.05833"
       stroke="#001f3f"
       d="m 248.57924,12.910814 v 0 c 0,0 0,0 0,0 0,0.352777 0,0.705557 0,1.058333 0,0.617361 0.0474,1.236541 0,1.852084 -0.0411,0.534887 -0.26458,1.5875 -0.26458,1.5875"
       style="fill:none;stroke-linecap:round;stroke-linejoin:round" />
    <path
       id="lkteqtc1yo"
       stroke-width="1.05833"
       stroke="#001f3f"
       d="m 260.22091,12.646231 v 0 c 0,0 -0.34208,0.202221 -0.52917,0.264583 -0.0837,0.02789 -0.34345,0.03944 -0.26458,0 0.24945,-0.124724 0.57949,-0.08604 0.79375,-0.264583 0.33877,-0.282303 0.48194,-0.746519 0.79375,-1.058334 0.39931,-0.399317 0.87114,-0.719502 1.32291,-1.058333 0.2544,-0.190794 0.65154,-0.8135857 0.79375,-0.529167 0.23993,0.47983 -0.13446,1.067052 -0.26458,1.5875 -0.22331,0.893287 -0.55941,1.755373 -0.79375,2.645834 -0.20693,0.786341 -0.40553,1.577591 -0.52917,2.38125 -0.0536,0.348676 0,1.058333 0,1.058333"
       style="fill:none;stroke-linecap:round;stroke-linejoin:round" />
    <path
       id="lkteqtci8r"
       stroke-width="1.05833"
       stroke="#001f3f"
       d="m 273.18549,10.264981 v 0 c 0,0 0.0106,-0.7479006 -0.26458,-0.7937502 -0.46847,-0.078081 -0.88194,0.3527769 -1.32292,0.5291662 -0.44098,0.17639 -0.9715,0.209688 -1.32292,0.529167 -0.65259,0.593259 -1.17485,1.337215 -1.5875,2.116667 -0.39147,0.739452 -0.79375,1.544563 -0.79375,2.38125 0,0.753533 0.29314,1.553469 0.79375,2.116666 0.29877,0.336114 0.88046,0.34503 1.32292,0.264584 0.58208,-0.105834 1.16917,-0.375407 1.5875,-0.79375 0.84823,-0.848228 1.62441,-1.8165 2.11667,-2.910417 0.32774,-0.728292 0.26458,-1.582616 0.26458,-2.38125 0,-0.449704 -0.0262,-0.941567 -0.26458,-1.322917 -0.23371,-0.3739431 -0.64889,-0.6299777 -1.05834,-0.7937495 -0.1158,-0.046323 -0.26458,0.2645833 -0.26458,0.2645833"
       style="fill:none;stroke-linecap:round;stroke-linejoin:round" />
    <path
       id="lkteqtczck"
       stroke-width="1.05833"
       stroke="#001f3f"
       d="m 286.41466,11.323314 v 0 c 0,0 -0.51658,-0.233783 -0.79375,-0.264583 -0.52594,-0.05844 -1.07188,-0.118989 -1.5875,0 -0.65448,0.151032 -1.29323,0.421174 -1.85209,0.79375 -0.78007,0.520041 -1.57601,1.086159 -2.11666,1.852083 -0.5478,0.776023 -1.00566,1.697413 -1.05834,2.645833 -0.0418,0.752375 0.34163,1.51384 0.79375,2.116667 0.38159,0.508783 0.95711,0.974281 1.5875,1.058333 0.80598,0.107464 1.67527,-0.125751 2.38125,-0.529166 1.19613,-0.683501 2.32135,-1.564548 3.175,-2.645834 0.51846,-0.656701 0.70136,-1.54968 0.79375,-2.38125 0.0882,-0.79375 0.11785,-1.680133 -0.26458,-2.38125 -0.22744,-0.416948 -0.89813,-0.316767 -1.32292,-0.529166 -0.45997,-0.229984 -1.32291,-0.79375 -1.32291,-0.79375"
       style="fill:none;stroke-linecap:round;stroke-linejoin:round" />
    <path
       id="lkteqtefai"
       stroke-width="1.05833"
       stroke="#001f3f"
       d="m 108.35008,23.229564 v 0 c 0,0 -0.7161,-0.08556 -1.05834,0 -0.0856,0.02138 -0.0865,0.247287 0,0.264583 0.86913,0.173826 1.76491,0.166704 2.64584,0.264584 1.5004,0.166711 2.99071,0.443042 4.49791,0.529166 1.58491,0.09057 3.175,0 4.7625,0 1.67569,0 3.35383,0.09044 5.02709,0 1.59493,-0.08621 3.16798,-0.435372 4.7625,-0.529166 1.40866,-0.08286 2.82223,0 4.23333,0 1.23473,0 2.47023,0.04407 3.70417,0 1.23708,-0.04418 2.46708,-0.220404 3.70416,-0.264584 1.23394,-0.04407 2.47018,0.04255 3.70417,0 1.32506,-0.04569 2.64948,-0.132656 3.96875,-0.264583 1.328,-0.1328 2.63752,-0.434078 3.96875,-0.529167 1.14361,-0.08169 2.29383,0.04243 3.43958,0 1.23704,-0.04581 2.46629,-0.264583 3.70417,-0.264583 1.1499,0 2.29058,0.218623 3.43958,0.264583 1.05749,0.0423 2.11667,0 3.175,0 0.97015,0 1.94392,-0.08404 2.91042,0 1.06889,0.09295 2.10611,0.436219 3.175,0.529167 0.9665,0.08404 1.94027,0 2.91042,0 1.14651,0 2.29414,-0.0498 3.43958,0 0.88551,0.0385 1.76255,0.190976 2.64583,0.264583 1.2336,0.102799 2.46714,0.218768 3.70417,0.264584 1.14575,0.04243 2.29671,-0.09143 3.43958,0 1.06953,0.08556 2.10524,0.446876 3.175,0.529166 1.23108,0.0947 2.47023,-0.04407 3.70417,0 1.23708,0.04418 2.46703,0.221925 3.70417,0.264584 1.32212,0.04559 2.64652,-0.04265 3.96875,0 1.41313,0.04558 2.82204,0.179051 4.23333,0.264583 1.49915,0.09086 2.9967,0.219091 4.49791,0.264583 1.41047,0.04274 2.82454,-0.0805 4.23334,0 1.68222,0.09613 3.34764,0.392996 5.02708,0.529167 1.58475,0.128492 3.17513,0.173876 4.7625,0.264583 1.49945,0.08568 2.99847,0.178901 4.49792,0.264584 1.58737,0.09071 3.17312,0.221628 4.7625,0.264583 1.67508,0.04527 3.3537,-0.08807 5.02708,0 1.68262,0.08856 3.34764,0.392996 5.02708,0.529167 1.58475,0.128492 3.175,0.176389 4.7625,0.264583 1.5875,0.08819 3.17328,0.216426 4.7625,0.264583 1.32231,0.04007 2.64827,-0.08003 3.96875,0 1.59436,0.09663 3.17074,0.396521 4.7625,0.529167 1.58446,0.132038 3.17321,0.219175 4.7625,0.264583 1.49871,0.04282 2.99951,0.05167 4.49792,0 1.06138,-0.0366 2.11392,-0.220371 3.175,-0.264583 1.05741,-0.04406 2.11667,0 3.175,0 0.70557,0 1.41819,0.09978 2.11667,0 0.55218,-0.07888 1.0373,-0.437467 1.5875,-0.529167 0.52197,-0.087 1.05833,0 1.5875,0 0.35277,0 0.70556,0 1.05833,0 0.35277,0 0.70829,0.04376 1.05833,0 0.36084,-0.0451 0.70176,-0.193267 1.05834,-0.264583 0.0865,-0.0173 0.26458,0 0.26458,0"
       style="fill:none;stroke-linecap:round;stroke-linejoin:round" />
    <path
       id="lkteqtiqsj"
       stroke-width="1.05833"
       stroke="#001f3f"
       d="m 294.88132,25.081647 v 0 c 0,0 0,0 0,0 0,0.17639 -0.14676,0.431324 0,0.529167 0.22016,0.146764 0.53026,-0.02395 0.79375,0 0.70813,0.06438 1.40563,0.264583 2.11667,0.264583 0.97414,0 2.91042,-0.264583 2.91042,-0.264583"
       style="fill:none;stroke-linecap:round;stroke-linejoin:round" />
    <path
       id="lkteqtj1fa"
       stroke-width="1.05833"
       stroke="#001f3f"
       d="m 295.41049,28.785814 v 0 c 0,0 -0.79375,0.211177 -0.79375,0.529167 0,0.264583 0.53049,-0.02633 0.79375,0 0.62053,0.06205 1.22941,0.229991 1.85208,0.264583 0.96864,0.05381 2.91042,0 2.91042,0"
       style="fill:none;stroke-linecap:round;stroke-linejoin:round" />
    <path
       id="lkteqtjbez"
       stroke-width="1.05833"
       stroke="#001f3f"
       d="m 308.11049,26.933731 v 0 c 0,0 -0.88194,0 -1.32292,0 -0.0882,0 0.1764,0 0.26459,0 0.79375,0 1.5875,0 2.38125,0 1.05833,0 3.175,0 3.175,0"
       style="fill:none;stroke-linecap:round;stroke-linejoin:round" />
    <path
       id="lkteqtjjh9"
       stroke-width="1.05833"
       stroke="#001f3f"
       d="m 307.05216,29.579564 v 0 c 0,0 -0.63905,0.03253 -0.79375,0.264583 -0.10938,0.164087 0.0721,0.486386 0.26458,0.529167 0.68876,0.153056 1.41232,-0.04143 2.11667,0 0.79727,0.0469 2.38125,0.264583 2.38125,0.264583"
       style="fill:none;stroke-linecap:round;stroke-linejoin:round" />
    <path
       id="lkteqtjtcc"
       stroke-width="1.05833"
       stroke="#001f3f"
       d="m 319.75216,27.198314 v 0 c 0,0 -1.06887,-0.218734 -0.79375,-0.264583 0.78295,-0.130493 1.5875,0 2.38125,0 1.05833,0 3.175,0 3.175,0"
       style="fill:none;stroke-linecap:round;stroke-linejoin:round" />
    <path
       id="lkteqtk16h"
       stroke-width="1.05833"
       stroke="#001f3f"
       d="m 320.28132,29.579564 v 0 c 0,0 -0.38973,0.125135 -0.52916,0.264583 -0.13944,0.139449 -0.44768,0.455925 -0.26459,0.529167 0.49133,0.196527 1.05834,0 1.5875,0 1.14652,0 3.43959,0 3.43959,0"
       style="fill:none;stroke-linecap:round;stroke-linejoin:round" />
    <path
       id="lkteqtlqo4"
       stroke-width="1.05833"
       stroke="#001f3f"
       d="m 193.01674,18.731647 v 0 c 0,0 0.89051,0.08648 1.32292,0 3.10491,-0.620985 6.17572,-1.401921 9.26042,-2.116666 4.14729,-0.960954 8.33688,-1.759146 12.43541,-2.910417 3.75904,-1.055912 7.40833,-2.469443 11.1125,-3.704167 3.175,-1.0583329 6.31666,-2.2225207 9.525,-3.1749995 2.44017,-0.7244292 4.94983,-1.192485 7.40833,-1.8520833 1.15861,-0.3108431 3.43959,-1.0583333 3.43959,-1.0583333"
       style="fill:none;stroke-linecap:round;stroke-linejoin:round" />
    <path
       id="lkteqtmiu4"
       stroke-width="1.05833"
       stroke="#001f3f"
       d="m 122.37299,40.42748 v 0 c 0,0 -0.0881,0.268989 0,0.264584 1.77049,-0.08853 3.53825,-0.268523 5.29167,-0.529167 4.77573,-0.709903 9.53595,-1.524413 14.2875,-2.38125 6.00892,-1.083574 12.03365,-2.104168 17.99167,-3.439583 4.27966,-0.959234 8.45235,-2.347328 12.7,-3.439583 1.92706,-0.495531 3.89376,-0.827387 5.82083,-1.322917 1.16178,-0.298744 3.43958,-1.058333 3.43958,-1.058333"
       style="fill:none;stroke-linecap:round;stroke-linejoin:round" />
    <path
       id="lkteqttxwf"
       stroke-width="1.05833"
       stroke="#001f3f"
       d="m 336.68549,14.233731 v 0 c 0,0 0,0 0,0 -0.0882,0 -0.32695,0.06236 -0.26458,0 0.13943,-0.139449 0.34208,-0.202221 0.52916,-0.264584 0.34497,-0.11499 0.72605,-0.116898 1.05834,-0.264583 0.46992,-0.208859 0.85299,-0.58489 1.32291,-0.79375 0.33229,-0.147685 0.6975,-0.21948 1.05834,-0.264583 0.35004,-0.04376 0.70556,0 1.05833,0 0.1764,0 0.3779,-0.09075 0.52917,0 0.32086,0.192513 0.67542,0.438774 0.79375,0.79375 0.0882,0.264583 -0.15132,0.538892 -0.26459,0.79375 -0.24029,0.540633 -0.46558,1.095237 -0.79375,1.5875 -0.20756,0.311335 -0.52916,0.529166 -0.79375,0.79375 -0.44098,0.440973 -0.928,0.840256 -1.32291,1.322916 -0.40273,0.492221 -0.66789,1.085488 -1.05834,1.5875 -0.22971,0.295357 -0.5063,0.554207 -0.79375,0.79375 -0.24429,0.203573 -0.52107,0.365562 -0.79375,0.529167 -0.16909,0.101462 -0.34607,0.191341 -0.52916,0.264583 -0.25895,0.103579 -0.5443,0.139859 -0.79375,0.264584 -0.0789,0.03944 0.17639,0 0.26458,0 0.26458,0 0.5343,0.05189 0.79375,0 0.19338,-0.03868 0.33465,-0.232162 0.52917,-0.264584 0.34798,-0.058 0.70556,0 1.05833,0 0.26458,0 0.79375,0 0.79375,0"
       style="fill:none;stroke-linecap:round;stroke-linejoin:round" />
    <path
       id="lkteqtuy35"
       stroke-width="1.05833"
       stroke="#001f3f"
       d="m 352.82507,13.439981 v 0 c 0,0 0,0 0,0 -0.17639,0 -0.35454,-0.02495 -0.52916,0 -0.44519,0.0636 -0.92814,0.04924 -1.32292,0.264583 -0.60471,0.329843 -1.13922,0.799925 -1.5875,1.322917 -0.62084,0.724307 -1.31831,1.466045 -1.5875,2.38125 -0.20063,0.682154 -0.0882,1.499306 0.26458,2.116666 0.40341,0.70598 1.20161,1.099632 1.85209,1.5875 0.4114,0.308555 0.81076,0.747192 1.32291,0.79375 0.5555,0.0505 1.10919,-0.242186 1.5875,-0.529166 0.42781,-0.256683 0.81082,-0.625166 1.05834,-1.058334 0.47127,-0.82473 0.91019,-1.707573 1.05833,-2.645833 0.12457,-0.78886 -0.0452,-1.613344 -0.26458,-2.38125 -0.14129,-0.494472 -0.38235,-1.014362 -0.79375,-1.322917 -0.35976,-0.269822 -1.32292,-0.264583 -1.32292,-0.264583"
       style="fill:none;stroke-linecap:round;stroke-linejoin:round" />
    <path
       id="lkteqtvmrj"
       stroke-width="1.05833"
       stroke="#001f3f"
       d="m 364.73132,14.233731 v 0 c 0,0 0.0837,-0.236694 0,-0.264584 -0.25101,-0.08367 -0.54274,-0.08367 -0.79375,0 -0.56126,0.18709 -1.10902,0.445773 -1.5875,0.79375 -0.50435,0.3668 -0.92368,0.843833 -1.32291,1.322917 -0.4857,0.582832 -1.05654,1.141712 -1.32292,1.852083 -0.28043,0.747784 -0.31149,1.583995 -0.26458,2.38125 0.0427,0.726014 0.1152,1.518711 0.52916,2.116667 0.43186,0.623779 1.11025,1.163952 1.85209,1.322917 0.6278,0.13453 1.32299,-0.165418 1.85208,-0.529167 0.92501,-0.635947 1.68,-1.504699 2.38125,-2.38125 0.71834,-0.897932 1.6152,-1.785168 1.85208,-2.910417 0.15523,-0.73737 -0.45675,-1.442685 -0.79375,-2.116666 -0.28442,-0.568839 -0.52916,-1.234723 -1.05833,-1.5875 -0.60513,-0.403416 -2.11667,-0.529167 -2.11667,-0.529167"
       style="fill:none;stroke-linecap:round;stroke-linejoin:round" />
    <path
       id="lkteqtzdg6"
       stroke-width="1.05833"
       stroke="#001f3f"
       d="m 373.19799,13.439981 v 0 c 0,0 0,0 0,0 0.26458,0 0.5343,0.05189 0.79375,0 0.6296,-0.125921 1.22103,-0.410843 1.85208,-0.529167 0.78497,-0.14718 1.58496,-0.20333 2.38125,-0.264583 0.35174,-0.02706 0.70557,0 1.05834,0 0.35277,0 0.71609,-0.08556 1.05833,0 0.0856,0.02138 0.0624,0.202221 0,0.264583 -0.31181,0.311814 -0.71401,0.518277 -1.05833,0.79375 -0.53788,0.430303 -1.10043,0.835848 -1.5875,1.322917 -0.39931,0.399317 -0.68647,0.897921 -1.05834,1.322916 -0.2464,0.281596 -0.52916,0.529167 -0.79375,0.79375 -0.0882,0.08819 -0.35277,0.17639 -0.26458,0.264584 0.2789,0.278894 0.69212,0.382682 1.05833,0.529166 0.5179,0.207159 1.05437,0.365128 1.5875,0.529167 0.61368,0.188823 1.25595,0.290711 1.85209,0.529167 0.29524,0.118099 0.65153,0.244747 0.79375,0.529166 0.0882,0.17639 -0.10412,0.414542 -0.26459,0.529167 -0.48143,0.343876 -1.01354,0.650259 -1.5875,0.79375 -0.85987,0.214969 -1.76122,0.209296 -2.64583,0.264583 -0.52814,0.03301 -1.5875,0 -1.5875,0"
       style="fill:none;stroke-linecap:round;stroke-linejoin:round" />
    <path
       id="lktequ7nuc"
       stroke-width="1.05833"
       stroke="#001f3f"
       d="m 392.51257,16.350397 v 0 c 0,0 -0.17901,-0.02138 -0.26458,0 -0.27056,0.06764 -0.52028,0.209889 -0.79375,0.264584 -0.17296,0.03459 -0.35277,0 -0.52917,0 -0.52916,0 -1.06016,0.04394 -1.5875,0 -0.53461,-0.04455 -1.06145,-0.159375 -1.5875,-0.264584 -0.35658,-0.07132 -0.80121,-0.0075 -1.05833,-0.264583 -0.18709,-0.187089 -0.13613,-0.566872 0,-0.79375 0.16359,-0.272674 0.53935,-0.338373 0.79375,-0.529167 0.45178,-0.33883 0.84648,-0.75515 1.32292,-1.058333 0.49913,-0.31763 1.02203,-0.61976 1.5875,-0.79375 0.59605,-0.183401 1.23227,-0.195715 1.85208,-0.264583 0.17531,-0.01947 0.35621,-0.03459 0.52917,0 0.27347,0.05469 0.63904,0.03253 0.79375,0.264583 0.24945,0.374176 0.26458,0.873212 0.26458,1.322917 0,0.711046 -0.0525,1.437986 -0.26458,2.116666 -0.2353,0.752928 -0.63178,1.453116 -1.05834,2.116667 -0.37248,0.579422 -0.85958,1.077815 -1.32291,1.5875 -0.4195,0.461449 -0.78426,1.008687 -1.32292,1.322917 -0.55459,0.323519 -1.21748,0.626798 -1.85208,0.529166 -0.62857,-0.09671 -1.5875,-1.058333 -1.5875,-1.058333"
       style="fill:none;stroke-linecap:round;stroke-linejoin:round" />
    <path
       id="lktequcwb1"
       stroke-width="1.05833"
       stroke="#001f3f"
       d="m 399.39174,15.821231 v 0 c 0,0 0,0 0,0 0.26458,0.176389 0.52917,0.352777 0.79375,0.529166 0.52917,0.352777 1.10463,0.644443 1.5875,1.058334 0.14973,0.128341 0.26458,0.529166 0.26458,0.529166"
       style="fill:none;stroke-linecap:round;stroke-linejoin:round" />
    <path
       id="lktequd5g5"
       stroke-width="1.05833"
       stroke="#001f3f"
       d="m 399.39174,18.467064 v 0 c 0,0 0.0955,-0.427704 0.26458,-0.529167 0.31181,-0.187089 0.70176,-0.193267 1.05834,-0.264583 0.52604,-0.105209 1.08939,-0.06534 1.5875,-0.264583 0.40944,-0.163772 1.05833,-0.79375 1.05833,-0.79375"
       style="fill:none;stroke-linecap:round;stroke-linejoin:round" />
    <path
       id="lktequde61"
       stroke-width="1.05833"
       stroke="#001f3f"
       d="m 402.03757,15.027481 v 0 c 0,0 -0.20881,0.153024 -0.26458,0.264583 -0.21241,0.424802 -0.45694,0.853498 -0.52917,1.322917 -0.10729,0.697351 0,1.41111 0,2.116666 0,0.352777 0,1.058334 0,1.058334"
       style="fill:none;stroke-linecap:round;stroke-linejoin:round" />
    <path
       id="lktequdriv"
       stroke-width="1.05833"
       stroke="#001f3f"
       d="m 409.44591,17.937897 v 0 c 0,0 -0.0624,-0.202221 0,-0.264583 0.22484,-0.224853 0.53935,-0.338373 0.79375,-0.529167 0.45177,-0.33883 0.90082,-0.683154 1.32291,-1.058333 0.37288,-0.331454 0.70557,-0.705556 1.05834,-1.058333 0.0882,-0.08819 0.22513,-0.382908 0.26458,-0.264584 0.11155,0.334674 0.0351,0.707306 0,1.058334 -0.0534,0.533802 -0.15939,1.061452 -0.26458,1.5875 -0.15947,0.797322 -0.35881,1.586187 -0.52917,2.38125 -0.0942,0.439721 -0.26458,1.322916 -0.26458,1.322916"
       style="fill:none;stroke-linecap:round;stroke-linejoin:round" />
    <path
       id="lkteque5gt"
       stroke-width="1.05833"
       stroke="#001f3f"
       d="m 421.88132,13.969147 v 0 c 0,0 -0.14877,-0.310906 -0.26458,-0.264583 -0.84307,0.33723 -1.7617,0.659106 -2.38125,1.322917 -0.67278,0.720852 -1.03958,1.701374 -1.32292,2.645833 -0.25469,0.848963 -0.61373,1.831155 -0.26458,2.645833 0.28009,0.653556 1.15485,0.918885 1.85208,1.058334 0.69723,0.139448 1.53808,0.148703 2.11667,-0.264584 0.77629,-0.554482 1.35612,-1.455764 1.5875,-2.38125 0.23627,-0.945054 -0.0283,-1.965362 -0.26458,-2.910416 -0.21067,-0.84268 -0.72425,-1.579452 -1.05834,-2.38125 -0.10726,-0.257442 -0.19693,-0.523182 -0.26458,-0.79375 -0.0214,-0.08556 0,-0.264584 0,-0.264584"
       style="fill:none;stroke-linecap:round;stroke-linejoin:round" />
    <path
       id="lktequel2q"
       stroke-width="1.05833"
       stroke="#001f3f"
       d="m 432.46466,15.292064 v 0 c 0,0 1.74955,-0.406792 1.32291,-0.264583 -0.95398,0.317989 -2.03501,0.29895 -2.91041,0.79375 -1.19933,0.677878 -2.20086,1.671693 -3.175,2.645833 -0.79865,0.798634 -1.97657,1.525114 -2.11667,2.645833 -0.0928,0.742577 0.8868,1.324735 1.5875,1.5875 0.82579,0.309671 1.79782,0.24229 2.64583,0 1.06257,-0.303588 2.17117,-0.766106 2.91042,-1.5875 0.92347,-1.026088 1.52818,-2.362245 1.85208,-3.704166 0.31041,-1.285984 0.2299,-2.665963 0,-3.96875 -0.0553,-0.31315 -0.48334,-0.460185 -0.79375,-0.529167 -0.51657,-0.114792 -1.5875,0 -1.5875,0"
       style="fill:none;stroke-linecap:round;stroke-linejoin:round" />
    <path
       id="lktequfh0h"
       stroke-width="1.05833"
       stroke="#001f3f"
       d="m 334.56882,28.785814 v 0 c 0,0 -0.72011,0.326242 -1.05833,0.529167 -0.10694,0.06417 -0.37613,0.208803 -0.26458,0.264583 0.23664,0.118324 0.52975,-0.0176 0.79375,0 1.05965,0.07064 2.11299,0.264583 3.175,0.264583 2.9999,0 5.9963,-0.216971 8.99583,-0.264583 2.5573,-0.04059 5.11567,0.04486 7.67292,0 2.47062,-0.04334 4.94233,-0.10718 7.40833,-0.264583 1.68153,-0.107331 3.34412,-0.447072 5.02708,-0.529167 1.93797,-0.09454 3.88057,0 5.82084,0 1.5875,0 3.1756,0.04408 4.7625,0 1.58932,-0.04415 3.17317,-0.220435 4.7625,-0.264583 1.58689,-0.04408 3.175,0 4.7625,0 1.67568,0 3.35139,0 5.02708,0 1.49931,0 2.9986,0 4.49792,0 2.02848,0 4.05693,0 6.08541,0 1.5875,0 3.17577,-0.04959 4.7625,0 1.23727,0.03866 2.46674,0.232018 3.70417,0.264583 2.11592,0.05568 4.23333,0 6.35,0 1.14652,0 2.29306,0 3.43958,0 0.52917,0 1.05834,0 1.5875,0 0.70557,0 1.4111,0 2.11667,0 0.44098,0 0.88193,0 1.32292,0 0.44098,0 0.89244,-0.09566 1.32291,0 0.38502,0.08556 0.6757,0.433506 1.05834,0.529167 0.34223,0.08556 1.05833,0 1.05833,0"
       style="fill:none;stroke-linecap:round;stroke-linejoin:round" />
    <path
       id="lktequltz10"
       stroke-width="1.05833"
       stroke="#001f3f"
       d="m 336.68549,36.45873 v 0 c 0,0 -0.1764,0 -0.26458,0 -0.1764,0 -0.70557,0 -0.52917,0 0.35277,0 0.70556,0 1.05833,0 0.70557,0 1.4173,0.09325 2.11667,0 0.63643,-0.08486 1.21647,-0.438364 1.85208,-0.529166 0.61116,-0.08731 1.23473,0 1.85209,0 0.17639,0 0.35277,0 0.52916,0 0.1764,0 0.60804,-0.157766 0.52917,0 -0.14221,0.284419 -0.50932,0.386958 -0.79375,0.529166 -0.42479,0.2124 -0.90474,0.303996 -1.32292,0.529167 -0.73258,0.394462 -1.41679,0.872993 -2.11666,1.322917 -0.53496,0.34391 -1.08548,0.66788 -1.5875,1.058333 -0.29536,0.229722 -0.703,0.430744 -0.79375,0.79375 -0.0478,0.19132 0.34208,0.202221 0.52916,0.264583 0.0837,0.02789 0.17809,-0.0173 0.26459,0 0.35658,0.07132 0.7207,0.129532 1.05833,0.264584 0.5493,0.219723 1.04688,0.553468 1.5875,0.79375 0.25485,0.11327 0.56168,0.109879 0.79375,0.264583 0.0734,0.04892 0.0624,0.202221 0,0.264583 -0.39931,0.399317 -0.80163,0.841135 -1.32292,1.058334 -0.57565,0.239858 -1.24441,0.124354 -1.85208,0.264583 -0.54351,0.125426 -1.5875,0.529167 -1.5875,0.529167"
       style="fill:none;stroke-linecap:round;stroke-linejoin:round" />
    <path
       id="lktequnrbj"
       stroke-width="1.05833"
       stroke="#001f3f"
       d="m 348.59174,35.929564 v 0 c 0,0 -0.70556,-0.17639 -0.52917,-0.264584 0.31555,-0.157765 0.70557,0 1.05834,0 0.79375,0 1.58858,0.04172 2.38125,0 0.88511,-0.04659 1.76146,-0.205623 2.64583,-0.264583 0.44,-0.02933 0.88194,0 1.32292,0 0.26458,0 0.53707,-0.06417 0.79375,0 0.12099,0.03025 0.29482,0.143582 0.26458,0.264583 -0.0771,0.308497 -0.31644,0.55739 -0.52917,0.79375 -0.58406,0.648957 -1.26992,1.201428 -1.85208,1.852084 -0.91861,1.026676 -1.75845,2.121228 -2.64583,3.175 -0.52375,0.621958 -1.04056,1.250428 -1.5875,1.852083 -0.3356,0.369157 -1.05834,1.058333 -1.05834,1.058333"
       style="fill:none;stroke-linecap:round;stroke-linejoin:round" />
    <path
       id="lktequodh8"
       stroke-width="1.05833"
       stroke="#001f3f"
       d="m 345.68132,44.131647 v 0 c 0,0 -0.18571,-0.03944 -0.26458,0 -0.11155,0.05578 -0.38291,0.225142 -0.26458,0.264583 0.33467,0.111559 0.70556,0 1.05833,0 0.79375,0 1.5875,0 2.38125,0 0.88194,0 1.76511,0.04635 2.64583,0 0.79754,-0.04198 2.38125,-0.264583 2.38125,-0.264583"
       style="fill:none;stroke-linecap:round;stroke-linejoin:round" />
    <path
       id="lktequp036"
       stroke-width="1.05833"
       stroke="#001f3f"
       d="m 368.70007,36.45873 v 0 c 0,0 -0.10049,-0.419774 -0.26458,-0.529166 -0.14676,-0.09784 -0.3602,-0.05069 -0.52917,0 -0.72175,0.216527 -1.45991,0.424323 -2.11666,0.79375 -0.7687,0.432382 -1.5149,0.94275 -2.11667,1.5875 -0.6509,0.697404 -1.22428,1.499137 -1.5875,2.38125 -0.27072,0.657489 -0.31911,1.407715 -0.26458,2.116666 0.0364,0.473544 0.19333,0.987081 0.52916,1.322917 0.41834,0.418343 0.9969,0.828492 1.5875,0.79375 1.0305,-0.06062 1.99808,-0.575336 2.91042,-1.058333 0.60878,-0.322292 1.24979,-0.722559 1.5875,-1.322917 0.493,-0.876432 0.84397,-1.906101 0.79375,-2.910417 -0.0434,-0.867531 -0.58862,-1.650589 -1.05833,-2.38125 -0.33724,-0.524584 -0.80402,-0.976989 -1.32292,-1.322916 -0.30255,-0.201708 -1.05833,-0.264584 -1.05833,-0.264584"
       style="fill:none;stroke-linecap:round;stroke-linejoin:round" />
    <path
       id="lktequqen4"
       stroke-width="1.05833"
       stroke="#001f3f"
       d="m 380.60632,40.162897 v 0 c 0,0 -0.12515,-0.389718 -0.26458,-0.529167 -0.0624,-0.06236 -0.1764,0 -0.26458,0 -0.61736,0 -1.24093,-0.08731 -1.85209,0 -0.63561,0.0908 -1.22428,0.394637 -1.85208,0.529167 -0.60979,0.130667 -1.23227,0.195715 -1.85208,0.264583 -0.17532,0.01947 -0.35804,0.04278 -0.52917,0 -0.19132,-0.04783 -0.52917,-0.06737 -0.52917,-0.264583 0,-0.317989 0.3179,-0.556083 0.52917,-0.79375 0.49718,-0.559326 1.0799,-1.037606 1.5875,-1.5875 0.55152,-0.597477 1.01253,-1.277125 1.5875,-1.852083 0.48707,-0.487069 1.10043,-0.835848 1.5875,-1.322917 0.13943,-0.139448 0.20222,-0.716256 0.26458,-0.529167 0.13944,0.418344 0,0.881944 0,1.322917 0,0.79375 0.0417,1.588598 0,2.38125 -0.0466,0.885119 -0.21799,1.760715 -0.26458,2.645833 -0.0417,0.792652 0.15565,1.602915 0,2.38125 -0.11602,0.580139 -0.79375,1.5875 -0.79375,1.5875"
       style="fill:none;stroke-linecap:round;stroke-linejoin:round" />
    <path
       id="lktequs5re"
       stroke-width="1.05833"
       stroke="#001f3f"
       d="m 393.30632,34.87123 v 0 c 0,0 -0.52149,-0.204083 -0.79375,-0.264583 -0.52369,-0.116377 -1.06145,-0.159374 -1.5875,-0.264583 -0.35658,-0.07132 -0.69834,-0.213156 -1.05833,-0.264584 -0.26191,-0.03742 -0.62847,-0.206605 -0.79375,0 -0.28094,0.351161 -0.23466,0.874208 -0.26458,1.322917 -0.0587,0.879991 0.10509,1.770171 0,2.645833 -0.16074,1.339506 -0.61148,2.632007 -0.79375,3.96875 -0.0834,0.611701 0.0559,1.237258 0,1.852084 -0.0329,0.36214 -0.19328,0.701759 -0.26459,1.058333 -0.0172,0.08648 -0.0837,0.236694 0,0.264583 0.25101,0.08367 0.53277,-0.0435 0.79375,0 0.27512,0.04585 0.51658,0.233784 0.79375,0.264584 0.52594,0.05844 1.05834,0 1.5875,0 0.44098,0 0.88464,0.0487 1.32292,0 0.36142,-0.04016 0.77438,-0.03742 1.05833,-0.264584 0.21778,-0.174225 0.19693,-0.523181 0.26459,-0.79375 0.10906,-0.436279 0.17639,-0.881943 0.26458,-1.322916 0.0882,-0.440973 0.26458,-0.873213 0.26458,-1.322917 0,-0.363635 0.038,-0.856626 -0.26458,-1.058333 -0.36692,-0.244608 -0.88194,0 -1.32292,0 -0.79375,0 -1.5875,0 -2.38125,0 -0.70556,0 -2.11666,0 -2.11666,0"
       style="fill:none;stroke-linecap:round;stroke-linejoin:round" />
    <path
       id="lkteqvogwt"
       stroke-width="1.05833"
       stroke="#001f3f"
       d="m 295.41049,59.742064 v 0 c 0,0 0,0 0,0 0,0.08819 -0.0624,0.202221 0,0.264583 0.0624,0.06236 0.18571,0.03944 0.26458,0 0.11155,-0.05578 0.16719,-0.186669 0.26459,-0.264583 0.34433,-0.275474 0.66392,-0.596541 1.05833,-0.79375 0.67397,-0.33699 1.41335,-0.523248 2.11667,-0.79375 0.44328,-0.170495 0.88638,-0.342078 1.32291,-0.529167 0.18127,-0.07768 0.34608,-0.337825 0.52917,-0.264583 0.34742,0.138967 0.4944,0.569243 0.79375,0.79375 0.4114,0.308554 0.85476,0.580948 1.32292,0.79375 0.50779,0.230814 1.03618,0.444351 1.5875,0.529166 0.61018,0.09387 1.25314,0.149733 1.85208,0 0.4989,-0.124724 1.32292,-0.79375 1.32292,-0.79375"
       style="fill:none;stroke-linecap:round;stroke-linejoin:round" />
    <path
       id="lkteqvp6s6"
       stroke-width="1.05833"
       stroke="#001f3f"
       d="m 297.26257,63.710813 v 0 c 0,0 -0.17639,0.529167 0,0.529167 0.31801,0 0.52107,-0.365561 0.79375,-0.529167 0.1691,-0.101462 0.34896,-0.184488 0.52917,-0.264583 0.61378,-0.272791 1.21013,-0.596223 1.85208,-0.79375 0.51274,-0.157766 1.06146,-0.159374 1.5875,-0.264583 0.35658,-0.07132 0.69469,-0.264584 1.05834,-0.264584 0.36364,0 0.70556,0.17639 1.05833,0.264584 0.35277,0.08819 0.73308,0.10196 1.05833,0.264583 0.22313,0.111559 0.28933,0.460637 0.52917,0.529167 0.424,0.121145 0.88194,0 1.32292,0 0.35277,0 0.70556,0 1.05833,0 0.35277,0 0.73078,0.131019 1.05833,0 0.1831,-0.07324 0.26459,-0.529167 0.26459,-0.529167"
       style="fill:none;stroke-linecap:round;stroke-linejoin:round" />
    <path
       id="lkteqw9wig"
       stroke-width="1.05833"
       stroke="#001f3f"
       d="m 325.04382,53.92123 v 0 c 0,0 0,0 0,0 0.1764,-0.08819 0.52917,-0.06737 0.52917,-0.264583 0,-0.17639 -0.35803,0.04278 -0.52917,0 -0.19132,-0.04783 -0.35277,-0.17639 -0.52916,-0.264583 -0.35277,-0.17639 -0.68903,-0.390679 -1.05834,-0.529167 -0.34049,-0.12768 -0.69834,-0.213156 -1.05833,-0.264583 -0.26191,-0.03742 -0.54274,-0.08367 -0.79375,0 -0.0837,0.02789 0,0.176389 0,0.264583 0,0.440973 0,0.881943 0,1.322917 0,0.352776 0.0438,0.708279 0,1.058333 -0.0451,0.360828 -0.26458,0.694698 -0.26458,1.058333 0,0.278895 0.0972,0.570635 0.26458,0.79375 0.11832,0.157766 0.33785,0.216752 0.52917,0.264584 0.17113,0.04278 0.35621,-0.03459 0.52916,0 0.27348,0.05469 0.52028,0.209888 0.79375,0.264583 0.17296,0.03459 0.35277,0 0.52917,0 0.26458,0 0.53277,0.0435 0.79375,0 0.27511,-0.04585 0.52028,-0.209889 0.79375,-0.264583 0.17296,-0.03459 0.36182,0.05578 0.52917,0 0.11832,-0.03944 0.13986,-0.264584 0.26458,-0.264584 0.19722,0 0.34208,0.202221 0.52917,0.264584 0.0837,0.02789 0.26458,-0.08819 0.26458,0 0,0.278894 -0.16666,0.532611 -0.26458,0.79375 -0.16677,0.444701 -0.41397,0.862155 -0.52917,1.322916 -0.15126,0.60501 -0.1764,1.234723 -0.26458,1.852083 -0.0882,0.617361 -0.0515,1.266003 -0.26459,1.852084 -0.1507,0.414422 -0.4156,0.831456 -0.79375,1.058333 -0.55057,0.33034 -1.21002,0.529167 -1.85208,0.529167 -0.64206,0 -1.33281,-0.151522 -1.85208,-0.529167 -0.51435,-0.374065 -1.05834,-1.5875 -1.05834,-1.5875"
       style="fill:none;stroke-linecap:round;stroke-linejoin:round" />
    <path
       id="lkteqwb2mn"
       stroke-width="1.05833"
       stroke="#001f3f"
       d="m 342.50632,58.154564 v 0 c 0,0 -0.53009,-0.02199 -0.79375,0 -0.79586,0.06632 -1.58657,0.185115 -2.38125,0.264583 -0.9693,0.09693 -1.9372,0.222268 -2.91041,0.264583 -1.05733,0.04597 -2.11667,0 -3.175,0 -0.52917,0 -1.08548,0.167339 -1.5875,0 -0.16735,-0.05578 -0.0655,-0.365395 0,-0.529166 0.11811,-0.295246 0.30432,-0.568897 0.52916,-0.79375 0.39931,-0.399318 0.92361,-0.659017 1.32292,-1.058334 0.48707,-0.487069 0.88672,-1.054383 1.32292,-1.5875 0.35761,-0.437068 0.71162,-0.877154 1.05833,-1.322916 0.27072,-0.348084 0.41561,-0.831456 0.79375,-1.058334 0.1691,-0.101462 0.50739,0.06858 0.52917,0.264584 0.0785,0.706696 -0.20553,1.408075 -0.26459,2.116666 -0.11742,1.408981 -0.16012,2.823332 -0.26458,4.233334 -0.072,0.971478 -0.20381,1.938173 -0.26458,2.910416 -0.0275,0.440113 0,1.322917 0,1.322917"
       style="fill:none;stroke-linecap:round;stroke-linejoin:round" />
    <path
       id="lkteqwcfjv"
       stroke-width="1.05833"
       stroke="#001f3f"
       d="m 347.79799,63.181647 v 0 c 0,0 0,0 0,0 0,0.08819 0.0438,0.18801 0,0.264583 -0.31554,0.552186 -0.74279,1.035315 -1.05833,1.5875 -0.39138,0.684901 -1.05834,2.116667 -1.05834,2.116667"
       style="fill:none;stroke-linecap:round;stroke-linejoin:round" />
    <path
       id="lkteqwengq"
       stroke-width="1.05833"
       stroke="#001f3f"
       d="m 361.02716,53.92123 v 0 c 0,0 0.0837,-0.236693 0,-0.264583 -0.25101,-0.08367 -0.53547,-0.0574 -0.79375,0 -0.54452,0.121002 -1.12787,0.213161 -1.5875,0.529167 -0.97777,0.672205 -1.88624,1.469728 -2.64584,2.38125 -0.58129,0.697558 -1.12593,1.494856 -1.32291,2.38125 -0.17325,0.779615 0.0265,1.618969 0.26458,2.381249 0.21209,0.678681 0.50311,1.407896 1.05833,1.852084 0.41892,0.335126 1.05643,0.34045 1.5875,0.264583 0.74597,-0.106566 1.47492,-0.398825 2.11667,-0.79375 0.53112,-0.326842 1.04402,-0.765125 1.32292,-1.322917 0.44971,-0.899411 0.74088,-1.906235 0.79375,-2.910416 0.0382,-0.726266 -0.32938,-1.417378 -0.52917,-2.116667 -0.15325,-0.536329 -0.24217,-1.109199 -0.52917,-1.5875 -0.25667,-0.427805 -0.70556,-0.705556 -1.05833,-1.058333 -0.26458,-0.264583 -0.79375,-0.79375 -0.79375,-0.79375"
       style="fill:none;stroke-linecap:round;stroke-linejoin:round" />
    <path
       id="lkteqwfd2j"
       stroke-width="1.05833"
       stroke="#001f3f"
       d="m 373.99174,58.948314 v 0 c 0,0 -0.33195,-0.264584 -0.52917,-0.264584 -0.36364,0 -0.6962,0.231661 -1.05833,0.264584 -0.61484,0.05589 -1.23473,0 -1.85208,0 -0.79375,0 -1.59364,0.09845 -2.38125,0 -0.63712,-0.07964 -1.33842,-0.143929 -1.85209,-0.529167 -0.29091,-0.218181 -0.37957,-0.713359 -0.26458,-1.058333 0.17857,-0.535742 0.68315,-0.900841 1.05833,-1.322917 0.33145,-0.372885 0.64961,-0.772232 1.05834,-1.058333 0.48469,-0.339276 1.02081,-0.623748 1.5875,-0.79375 0.3379,-0.10137 0.73596,-0.143278 1.05833,0 0.51604,0.229354 0.99076,0.601622 1.32292,1.058333 0.39505,0.543203 0.60923,1.206256 0.79375,1.852083 0.17131,0.599633 0.39526,1.242298 0.26458,1.852084 -0.14899,0.695264 -0.59904,1.30928 -1.05833,1.852083 -0.52523,0.620718 -1.10715,1.261589 -1.85209,1.5875 -0.73168,0.320109 -1.5826,0.264583 -2.38125,0.264583 -0.71104,0 -2.11666,-0.264583 -2.11666,-0.264583"
       style="fill:none;stroke-linecap:round;stroke-linejoin:round" />
    <path
       id="lkteqwg4af"
       stroke-width="1.05833"
       stroke="#001f3f"
       d="m 381.40007,57.09623 v 0 c 0,0 -0.0655,-0.365395 0,-0.529166 0.11811,-0.295246 0.28774,-0.586807 0.52917,-0.79375 0.39045,-0.334675 0.83505,-0.631127 1.32292,-0.79375 0.59163,-0.19721 1.26044,-0.461794 1.85208,-0.264584 0.37417,0.124725 0.49345,0.665536 0.52917,1.058334 0.0565,0.621067 0.0359,1.305649 -0.26459,1.852083 -0.69709,1.267444 -1.651,2.389494 -2.64583,3.439583 -0.60656,0.640249 -1.39901,1.074881 -2.11667,1.5875 -0.51752,0.369655 -1.06648,0.693624 -1.5875,1.058333 -0.36126,0.252881 -0.95139,0.365946 -1.05833,0.79375 -0.0677,0.270569 0.51485,0.264584 0.79375,0.264584 0.53647,0 1.05103,-0.264584 1.5875,-0.264584 0.71104,0 1.40562,0.264584 2.11667,0.264584 0.79864,0 2.38125,-0.264584 2.38125,-0.264584"
       style="fill:none;stroke-linecap:round;stroke-linejoin:round" />
    <path
       id="lkteqwgyxr"
       stroke-width="1.05833"
       stroke="#001f3f"
       d="m 402.30216,53.392064 v 0 c 0,0 -0.10682,-0.410843 -0.26459,-0.529167 -0.22312,-0.167338 -0.52318,-0.332224 -0.79375,-0.264583 -0.4989,0.124724 -0.93855,0.452096 -1.32291,0.79375 -0.42209,0.375179 -0.95732,0.767304 -1.05834,1.322916 -0.0998,0.548794 0.15859,1.170602 0.52917,1.5875 0.39306,0.442188 0.9983,0.740188 1.5875,0.79375 0.47299,0.043 0.96549,-0.216416 1.32292,-0.529166 0.387,-0.338641 0.65844,-0.826781 0.79375,-1.322917 0.13922,-0.510522 0,-1.058333 0,-1.5875 0,-0.440973 0.17369,-0.917599 0,-1.322917 -0.12526,-0.292277 -0.79375,-0.529166 -0.79375,-0.529166"
       style="fill:none;stroke-linecap:round;stroke-linejoin:round" />
    <path
       id="lkteqwhikl"
       stroke-width="1.05833"
       stroke="#001f3f"
       d="m 412.88549,53.92123 v 0 c 0,0 0.0659,0.205992 0,0.264584 -0.75158,0.668065 -1.5612,1.270111 -2.38125,1.852083 -1.91511,1.359106 -3.96465,2.530213 -5.82083,3.96875 -1.67884,1.301104 -3.19395,2.801183 -4.7625,4.233333 -0.46054,0.420494 -0.91708,0.849424 -1.32292,1.322917 -0.12835,0.149733 -0.26458,0.529166 -0.26458,0.529166"
       style="fill:none;stroke-linecap:round;stroke-linejoin:round" />
    <path
       id="lkteqwhwdh"
       stroke-width="1.05833"
       stroke="#001f3f"
       d="m 411.82716,63.710813 v 0 c 0,0 -0.14878,-0.310906 -0.26459,-0.264583 -0.40944,0.163772 -0.6844,0.560036 -1.05833,0.79375 -0.33446,0.209042 -0.86265,0.186717 -1.05833,0.529167 -0.21879,0.38287 -0.25631,0.964083 0,1.322916 0.27606,0.386477 0.84796,0.529167 1.32291,0.529167 0.64207,0 1.34528,-0.134977 1.85209,-0.529167 0.37488,-0.291586 0.47672,-0.850878 0.52916,-1.322916 0.0402,-0.36141 -0.0629,-0.755772 -0.26458,-1.058334 -0.1764,-0.264583 -0.79375,-0.529166 -0.79375,-0.529166"
       style="fill:none;stroke-linecap:round;stroke-linejoin:round" />
    <path
       id="lkteqwmq06"
       stroke-width="1.05833"
       stroke="#001f3f"
       d="m 292.50007,10.529564 v 0 c 0,0 0.3714,0.07888 0.52917,0 0.0789,-0.03944 0.0856,-0.243192 0,-0.264583 -0.34224,-0.08556 -0.72803,-0.123868 -1.05833,0 -0.41289,0.154837 -0.77603,0.454985 -1.05834,0.79375 -0.17854,0.214254 -0.3893,0.544298 -0.26458,0.79375 0.19722,0.394417 0.64,0.654301 1.05833,0.79375 0.41834,0.139448 0.91761,0.173707 1.32292,0 0.29229,-0.125262 0.49406,-0.477705 0.52917,-0.79375 0.0592,-0.533186 -0.14822,-1.06381 -0.26459,-1.5875 -0.0605,-0.2722538 -0.26458,-0.7937502 -0.26458,-0.7937502"
       style="fill:none;stroke-linecap:round;stroke-linejoin:round" />
    <path
       id="lkteqwn5bl"
       stroke-width="1.05833"
       stroke="#001f3f"
       d="m 296.99799,11.323314 v 0 c 0,0 -0.54372,0.332706 -0.79375,0.529167 -0.98563,0.774425 -1.98474,1.536067 -2.91042,2.38125 -1.10529,1.009184 -2.14733,2.086872 -3.175,3.175 -0.47297,0.500782 -0.83584,1.100431 -1.32291,1.5875 -0.31181,0.311814 -1.05834,0.79375 -1.05834,0.79375"
       style="fill:none;stroke-linecap:round;stroke-linejoin:round" />
    <path
       id="lkteqwnftx"
       stroke-width="1.05833"
       stroke="#001f3f"
       d="m 293.55841,18.467064 v 0 c 0,0 0.0558,-0.361828 0,-0.529167 -0.0394,-0.118324 -0.14878,-0.310906 -0.26459,-0.264583 -0.40944,0.163772 -0.79375,0.440973 -1.05833,0.79375 -0.28496,0.379952 -0.46199,0.852749 -0.52917,1.322917 -0.0279,0.195225 0.0693,0.501277 0.26459,0.529166 0.53107,0.07587 1.07365,-0.110431 1.5875,-0.264583 0.37777,-0.113334 0.83955,-0.200991 1.05833,-0.529167 0.19569,-0.293528 0,-1.058333 0,-1.058333"
       style="fill:none;stroke-linecap:round;stroke-linejoin:round" />
    <path
       id="lkteqwofqd"
       stroke-width="1.05833"
       stroke="#001f3f"
       d="m 442.51882,11.587897 v 0 c 0,0 -1.12411,-0.0057 -1.5875,0.264584 -0.6464,0.377073 -1.22915,0.930523 -1.5875,1.5875 -0.21116,0.387127 -0.1737,0.917599 0,1.322916 0.12526,0.292278 0.48281,0.595794 0.79375,0.529167 1.04201,-0.223287 2.0969,-0.634563 2.91042,-1.322917 0.42582,-0.360301 0.47866,-1.031999 0.52917,-1.5875 0.0407,-0.447857 -0.0415,-0.932463 -0.26459,-1.322916 -0.15777,-0.276093 -0.65153,-0.244748 -0.79375,-0.529167 -0.0789,-0.157766 0.52917,0 0.52917,0"
       style="fill:none;stroke-linecap:round;stroke-linejoin:round" />
    <path
       id="lkteqwotwd"
       stroke-width="1.05833"
       stroke="#001f3f"
       d="m 447.28132,13.969147 v 0 c 0,0 -1.2364,0.879618 -1.85208,1.322917 -1.58917,1.144207 -3.18484,2.279544 -4.7625,3.439583 -1.42108,1.044911 -2.93074,1.985664 -4.23333,3.175 -0.74261,0.678027 -1.24873,1.576793 -1.85209,2.38125 -0.19079,0.254392 -0.52916,0.79375 -0.52916,0.79375"
       style="fill:none;stroke-linecap:round;stroke-linejoin:round" />
    <path
       id="lkteqwp5n1"
       stroke-width="1.05833"
       stroke="#001f3f"
       d="m 443.57716,23.494147 v 0 c 0,0 0,0 0,0 -0.88194,0.440973 -1.94861,0.625679 -2.64584,1.322917 -0.31181,0.311814 -0.28231,0.984152 0,1.322917 0.2879,0.345474 0.88839,0.380455 1.32292,0.264583 0.95274,-0.254066 1.9486,-0.625679 2.64583,-1.322917 0.454,-0.454009 0.64402,-1.220374 0.52917,-1.852083 -0.0892,-0.490855 -1.05833,-1.058333 -1.05833,-1.058333"
       style="fill:none;stroke-linecap:round;stroke-linejoin:round" />
  </g>
</svg>
