<?xml version="1.0" encoding="UTF-8" standalone="no"?>
<svg
   version="1.1"
   width="2292.3853"
   height="667.55273"
   id="svg3168"
   sodipodi:docname="keemia (2).svg"
   xmlns:inkscape="http://www.inkscape.org/namespaces/inkscape"
   xmlns:sodipodi="http://sodipodi.sourceforge.net/DTD/sodipodi-0.dtd"
   xmlns="http://www.w3.org/2000/svg"
   xmlns:svg="http://www.w3.org/2000/svg">
  <sodipodi:namedview
     id="namedview3170"
     pagecolor="#ffffff"
     bordercolor="#000000"
     borderopacity="0.25"
     inkscape:pageshadow="2"
     inkscape:pageopacity="0.0"
     inkscape:pagecheckerboard="0"
     inkscape:deskcolor="#d1d1d1"
     showgrid="false" />
  <defs
     id="defs4">
    <style
       type="text/css"
       id="style2"><![CDATA[text {font-family:"Arial"}path {fill:none;stroke-linecap:round;stroke-linejoin:round;}rect {fill:none}]]></style>
  </defs>
  <path
     id="ll1lsv3ale"
     stroke-width="4"
     stroke="#0074d9"
     d="m 2.0000061,177.96445 v 0 c 0,0 0,0 0,0 0.8,-0.8 1.49943,-1.715 2.4,-2.4 2.31085,-1.757 4.71428,-3.4 7.1999999,-4.9 1.55727,-0.94 3.11602,-2.046 4.9,-2.4 2.35414,-0.467 4.84661,-0.471 7.2,0 1.75412,0.351 3.14194,1.729 4.8,2.4 2.38401,0.965 4.78113,1.98 7.3,2.5 1.56691,0.324 3.23107,-0.314 4.8,0 2.48069,0.496 4.79835,1.605 7.2,2.4 2.43169,0.805 4.86831,1.595 7.3,2.4 2.40165,0.795 4.85112,1.46 7.2,2.4 1.66091,0.664 3.1372,1.74 4.8,2.4 2.38097,0.945 4.91903,1.455 7.3,2.4 1.6628,0.66 3.54166,1.129 4.8,2.4 2.04856,2.07 2.74074,5.241 4.8,7.3 2.05926,2.059 5.23221,2.749 7.3,4.8 2.04805,2.031 3.00723,4.94 4.8,7.2 1.42109,1.791 3.52869,3 4.800004,4.9 1.99764,2.986 3.11155,6.484 4.9,9.6 1.4497,2.526 3.19232,4.872 4.8,7.3 1.59234,2.405 3.66376,4.549 4.8,7.2 1.29934,3.032 1.24709,6.51 2.4,9.6 1.26094,3.38 3.52373,6.326 4.8,9.7 1.16985,3.093 1.68628,6.395 2.5,9.6 0.81965,3.228 1.68376,6.447 2.4,9.7 0.88419,4.016 1.94798,8.013 2.4,12.1 0.35177,3.181 -0.39489,6.424 0,9.6 0.41103,3.305 1.5961,6.468 2.4,9.7 0.7961,3.201 1.99296,6.327 2.4,9.6 0.399,3.209 -0.399,6.491 0,9.7 0.40704,3.273 1.6039,6.399 2.4,9.6 0.8039,3.232 1.5961,6.468 2.4,9.7 0.7961,3.201 1.67347,6.383 2.4,9.6 0.90715,4.017 2.07679,8.003 2.5,12.1 0.41446,4.012 -0.44338,8.091 0,12.1 0.3626,3.278 1.6039,6.399 2.4,9.6 0.8039,3.232 2.03385,6.389 2.4,9.7 0.43972,3.976 -0.49361,8.031 0,12 0.31609,2.542 2.08391,4.758 2.4,7.3 0.49361,3.969 0,8 0,12 0,3.233 0,6.467 0,9.7 0,4 -0.43972,8.024 0,12 0.36615,3.311 2.07128,6.385 2.4,9.7 0.477,4.81 -0.47896,9.69 0,14.5 0.32686,3.282 1.99296,6.327 2.4,9.6 0.399,3.209 0,6.467 0,9.7 0,3.2 0,6.4 0,9.6 0,3.233 -0.35544,6.486 0,9.7 0.44842,4.054 1.39619,8.046 2.4,12 0.63293,2.493 1.67656,4.863 2.5,7.3 0.80991,2.397 1.40844,4.873 2.4,7.2 1.41397,3.319 3.53906,6.32 4.8,9.7 1.15291,3.09 1.36126,6.469 2.4,9.6 1.36645,4.118 3.0993,8.108 4.8,12.1 0.70114,1.646 1.5956,3.202 2.4,4.8 1.62893,3.236 3.09675,6.558 4.9,9.7 1.43586,2.502 3.37531,4.692 4.8,7.2 1.78185,3.137 3.01815,6.563 4.8,9.7 1.42469,2.508 2.98673,4.957 4.8,7.2 1.43734,1.778 3.46988,3.016 4.9,4.8 1.82155,2.272 2.94325,5.056 4.8,7.3 2.16398,2.615 4.79006,4.81 7.2,7.2 1.62345,1.61 3.28325,3.183 4.9,4.8 1.61675,1.617 3.19165,3.275 4.8,4.9 1.59169,1.608 2.98981,3.442 4.8,4.8 1.43108,1.073 3.19671,1.607 4.8,2.4 1.63007,0.807 3.13451,1.963 4.9,2.4 1.55317,0.384 3.2,0 4.8,0 2.4,0 4.84586,-0.467 7.2,0 1.78398,0.354 3.17341,1.828 4.9,2.4 3.13137,1.037 6.34639,1.858 9.6,2.4 1.57823,0.263 3.24683,-0.384 4.8,0 1.76549,0.437 3.11602,2.046 4.9,2.4 2.35414,0.467 4.82584,-0.351 7.2,0 3.30305,0.489 6.53674,1.431 9.7,2.5 1.6947,0.573 3.04588,2.049 4.8,2.4 2.35339,0.471 4.83221,-0.392 7.2,0 2.52708,0.418 4.78748,1.902 7.3,2.4 1.56943,0.311 3.2,0 4.8,0 2.4,0 4.83221,-0.392 7.2,0 2.52708,0.418 4.77292,1.982 7.3,2.4 2.36779,0.392 4.8,0 7.2,0 1.6,0 3.2,0 4.8,0 2.43333,0 4.86667,0 7.3,0 2.4,0 4.8,0 7.2,0 2.4,0 4.8,0 7.2,0 2.43333,0 4.86667,0 7.3,0 2.4,0 4.8,0 7.2,0 2.43333,0 4.89933,0.397 7.3,0 2.49586,-0.413 4.7046,-1.984 7.2,-2.4 2.36735,-0.395 4.8,0 7.2,0 3.23333,0 6.46667,0 9.7,0 2.4,0 4.8,0 7.2,0 2.43333,0 4.86667,0 7.3,0 1.6,0 3.2,0 4.8,0 2.4,0 4.8,0 7.2,0 2.43333,0 4.86667,0 7.3,0 2.4,0 4.8,0 7.2,0 2.4,0 4.8,0 7.2,0 2.43333,0 4.86667,0 7.3,0 2.4,0 4.8,0 7.2,0 2.43333,0 4.86667,0 7.3,0 3.2,0 6.42446,0.395 9.6,0 3.30537,-0.411 6.53792,-1.353 9.7,-2.4 1.6982,-0.562 3.1439,-1.724 4.8,-2.4 2.352,-0.96 4.7932,-1.687 7.2,-2.5 2.4267,-0.82 4.8683,-1.595 7.3,-2.4 2.4017,-0.795 4.8511,-1.46 7.2,-2.4 1.6609,-0.664 3.1372,-1.74 4.8,-2.4 2.381,-0.945 5.0988,-1.09 7.3,-2.4 1.9445,-1.157 3.2,-3.2 4.8,-4.8 0.8,-0.8 1.6055,-1.595 2.4,-2.4 1.6056,-1.628 3.1832,-3.283 4.8,-4.9 1.6168,-1.617 3.516,-2.98 4.9,-4.8 1.0828,-1.424 1.3267,-3.369 2.4,-4.8 1.3576,-1.81 3.2083,-3.192 4.8,-4.8 1.6084,-1.625 3.1832,-3.283 4.8,-4.9 1.6168,-1.617 3.2749,-3.192 4.9,-4.8 1.6083,-1.592 3.6429,-2.855 4.8,-4.8 1.3098,-2.201 1.7002,-4.836 2.4,-7.3 0.9012,-3.173 1.6039,-6.399 2.4,-9.6 0.8039,-3.232 1.9317,-6.402 2.4,-9.7 0.3374,-2.376 -0.3374,-4.824 0,-7.2 0.4683,-3.298 1.5961,-6.468 2.4,-9.7 0.7961,-3.201 1.9362,-6.334 2.4,-9.6 0.3421,-2.409 -0.3561,-4.893 0,-7.3 0.4839,-3.271 1.9344,-6.342 2.5,-9.6 0.2737,-1.576 -0.225,-3.216 0,-4.8 0.5781,-4.071 1.948,-8.013 2.4,-12.1 0.3518,-3.181 -0.3949,-6.424 0,-9.6 0.411,-3.305 1.9317,-6.402 2.4,-9.7 0.3374,-2.376 -0.3374,-4.824 0,-7.2 0.4683,-3.298 1.5961,-6.468 2.4,-9.7 0.7961,-3.201 2.0374,-6.322 2.4,-9.6 0.4434,-4.009 -0.4414,-8.091 0,-12.1 0.3645,-3.311 1.6806,-6.448 2.4,-9.7 0.881,-3.983 1.9958,-7.941 2.4,-12 0.3997,-4.013 -0.4616,-8.093 0,-12.1 0.3785,-3.285 2.1588,-6.311 2.5,-9.6 0.4987,-4.808 -0.3986,-9.683 0,-14.5 0.4041,-4.882 1.53,-9.679 2.4,-14.5 0.7302,-4.047 1.9925,-8.008 2.4,-12.1 0.3964,-3.98 -0.3964,-8.02 0,-12 0.4075,-4.092 1.9942,-8.008 2.4,-12.1 0.398,-4.014 -0.3997,-8.087 0,-12.1 0.4042,-4.059 1.6032,-7.999 2.4,-12 0.8032,-4.033 1.9925,-8.008 2.4,-12.1 0.3964,-3.98 0,-8 0,-12 0,-3.233 0,-6.467 0,-9.7 0,-3.233 -0.4546,-6.499 0,-9.7 0.3557,-2.505 1.705,-4.768 2.4,-7.2 0.9062,-3.172 1.344,-6.475 2.4,-9.6 0.587,-1.737 1.913,-3.163 2.5,-4.9 1.056,-3.125 1.4988,-6.427 2.4,-9.6 0.6998,-2.464 1.7002,-4.836 2.4,-7.3 0.9012,-3.173 1.1007,-6.568 2.4,-9.6 1.1362,-2.651 3.5172,-4.617 4.8,-7.2 1.1392,-2.294 1.0768,-5.107 2.4,-7.3 1.1811,-1.958 3.516,-2.98 4.9,-4.8 1.0828,-1.424 1.6066,-3.197 2.4,-4.8 0.8066,-1.63 1.5934,-3.27 2.4,-4.9 0.7934,-1.603 1.4077,-3.312 2.4,-4.8 0.6276,-0.941 1.6,-1.6 2.4,-2.4 0.8,-0.8 1.6,-1.6 2.4,-2.4 0.8,-0.8 1.7784,-1.455 2.4,-2.4 0.9992,-1.52 1.3064,-3.447 2.4,-4.9 1.3749,-1.827 2.9896,-3.544 4.9,-4.8 0.6684,-0.44 1.7344,0.444 2.4,0 1.8827,-1.255 2.9898,-3.442 4.8,-4.8 1.4311,-1.073 3.1967,-1.607 4.8,-2.4 1.6301,-0.807 3.3427,-1.46 4.9,-2.4 2.4857,-1.5 4.7198,-3.391 7.2,-4.9 1.5283,-0.93 3.3636,-1.334 4.8,-2.4 1.8359,-1.363 2.9351,-3.631 4.9,-4.8 2.174,-1.294 4.8,-1.6 7.2,-2.4 2.4,-0.8 4.6953,-2.044 7.2,-2.4 3.2012,-0.455 6.4988,0.455 9.7,0 2.5047,-0.356 4.7457,-1.786 7.2,-2.4 0.7761,-0.194 2.4,0 2.4,0" />
  <path
     id="ll1lsv9sve"
     stroke-width="4"
     stroke="#0074d9"
     d="m 129.90001,281.66445 v 0 c 0,0 1.6,0 2.4,0 0.8,0 1.64105,0.253 2.4,0 1.69706,-0.566 3.10294,-1.834 4.8,-2.4 0.75895,-0.253 1.6,0 2.4,0 1.63333,0 3.26667,0 4.9,0 1.6,0 3.2,0 4.8,0 0.8,0 1.68446,0.358 2.4,0 1.01193,-0.506 1.32522,-2.047 2.4,-2.4 1.55163,-0.51 3.26667,0 4.9,0 0.8,0 1.6,0 2.4,0 1.6,0 3.2,0 4.8,0 1.6,0 3.24777,0.388 4.8,0 1.73544,-0.434 3.06351,-1.97 4.8,-2.4 1.58552,-0.392 3.26667,0 4.9,0 1.6,0 3.24777,-0.388 4.8,0 1.73544,0.434 3.10294,1.834 4.8,2.4 0.75895,0.253 1.6,0 2.4,0 2.43333,0 4.86667,0 7.3,0 1.6,0 3.23107,0.314 4.8,0 2.48069,-0.496 4.71852,-1.908 7.2,-2.4 1.60212,-0.318 3.26667,0 4.9,0 2.4,0 4.84661,-0.471 7.2,0 1.75412,0.351 3.19671,1.607 4.8,2.4 1.63007,0.807 3.11602,2.046 4.9,2.4 2.35414,0.467 4.8,0 7.2,0 2.4,0 4.8,0 7.2,0 3.23333,0 6.46667,0 9.7,0 2.4,0 4.84661,0.471 7.2,0 1.75412,-0.351 3.01115,-2.4 4.8,-2.4 2.56147,0 4.76398,2.04 7.3,2.4 3.16821,0.45 6.4,0 9.6,0 2.43333,0 4.89084,-0.342 7.3,0 3.26572,0.464 6.30152,2.4 9.6,2.4 2.56147,0 4.86831,-1.595 7.3,-2.4 2.40165,-0.795 4.69531,-2.044 7.2,-2.4 3.20121,-0.455 6.46667,0 9.7,0 2.4,0 4.8,0 7.2,0 2.4,0 4.84586,-0.467 7.2,0 1.78398,0.354 3.20943,1.729 4.9,2.4 2.35155,0.933 4.8,1.6 7.2,2.4 2.4,0.8 4.69531,2.044 7.2,2.4 3.20121,0.455 6.46667,0 9.7,0 2.4,0 4.81834,0.296 7.2,0 4.08048,-0.507 8.01301,-1.948 12.1,-2.4 3.18061,-0.352 6.4,0 9.6,0 3.23333,0 6.46667,0 9.7,0 2.4,0 4.8,0 7.2,0 2.43333,0 4.86667,0 7.3,0 3.2,0 6.4,0 9.6,0 2.43333,0 4.89084,0.342 7.3,0 3.26572,-0.464 6.39903,-1.604 9.6,-2.4 3.23236,-0.804 6.40226,-1.932 9.7,-2.4 2.37616,-0.337 4.8,0 7.2,0 2.43333,0 4.86667,0 7.3,0 2.4,0 4.8,0 7.2,0 2.4,0 4.81834,0.296 7.2,0 4.08048,-0.507 8.02894,-1.822 12.1,-2.4 1.5841,-0.225 3.2,0 4.8,0 2.4333,0 4.8667,0 7.3,0 2.4,0 4.8,0 7.2,0 3.2,0 6.4,0 9.6,0 2.4333,0 4.8667,0 7.3,0 1.6,0 3.2306,0.311 4.8,0 2.5125,-0.498 4.7385,-2.4 7.3,-2.4 1.7889,0 3.0646,1.966 4.8,2.4 1.5522,0.388 3.2311,-0.314 4.8,0 2.4807,0.496 4.7041,1.987 7.2,2.4 2.4007,0.397 4.8667,0 7.3,0 1.6,0 3.2,0 4.8,0 1.6,0 3.2468,-0.384 4.8,0 1.7655,0.437 3.1345,1.963 4.9,2.4 1.5532,0.384 3.2,0 4.8,0 1.6,0 3.2,0 4.8,0 1.6,0 3.2,0 4.8,0 0.8333,0 1.6667,0 2.5,0 0.8,0 1.6,0 2.4,0 0.8,0 1.6,0 2.4,0 0.8,0 1.6845,-0.358 2.4,0 1.0119,0.506 1.3881,1.894 2.4,2.4 0.7155,0.358 2.4,0 2.4,0" />
  <text
     id="tl1lsvhwe8"
     x="221.10001"
     y="215.06445"
     font-size="36px"
     fill="#ff851b">NaCl</text>
  <path
     id="ll1lsvrdzb"
     stroke-width="4"
     stroke="#ff4136"
     d="m 180.60001,354.06445 v 0 c 0,0 0,0 0,0 0.8,0 1.96047,-0.668 2.4,0 1.40729,2.14 1.09017,5.099 2.4,7.3 1.15707,1.945 2.60482,4.251 4.8,4.8 1.73544,0.434 3.73381,-0.964 4.8,-2.4 1.52668,-2.057 1.58328,-4.872 2.4,-7.3 1.61665,-4.806 2.83087,-9.771 4.9,-14.4 1.18845,-2.659 3.50481,-4.692 4.8,-7.3 1.12512,-2.266 0.61115,-5.411 2.4,-7.2 1.13137,-1.131 0,3.2 0,4.8 0,4.833 0,9.667 0,14.5 0,4.833 -0.59644,9.704 0,14.5 0.22075,1.775 0.70063,5.359 2.4,4.8 2.75784,-0.907 3.60171,-4.603 4.9,-7.2 3.5509,-7.102 6.25752,-14.598 9.6,-21.8 2.25913,-4.868 4.52855,-9.746 7.2,-14.4 0.58666,-1.022 1.44162,-3.018 2.5,-2.5 1.63333,0.8 2.4,4.9 2.4,4.9" />
  <path
     id="ll1lsvs2iy"
     stroke-width="4"
     stroke="#ff4136"
     d="m 233.60001,366.16445 v 0 c 0,0 0,-1.6 0,-2.4 0,-0.8 0.35777,-1.684 0,-2.4 -0.50596,-1.012 -1.60829,-1.592 -2.4,-2.4 -0.80837,-0.825 -1.59163,-1.675 -2.4,-2.5 -0.79171,-0.808 -1.26863,-2.4 -2.4,-2.4 -1.78885,0 -3.73381,0.964 -4.8,2.4 -1.52668,2.057 -1.07681,5.107 -2.4,7.3 -1.18112,1.958 -4.17697,2.631 -4.9,4.8 -0.3653,1.096 1.4026,2.039 2.5,2.4 1.51996,0.5 3.31444,0.594 4.8,0 2.67814,-1.071 4.94763,-2.998 7.2,-4.8 1.7669,-1.414 3.79644,-2.772 4.8,-4.8 0.72441,-1.464 1.63333,-4.9 0,-4.9 -1.81873,0 -2.4,3.081 -2.4,4.9 0,2.53 0.97666,5.109 2.4,7.2 0.46885,0.689 2.5,0 2.5,0" />
  <path
     id="ll1lsvsuia"
     stroke-width="4"
     stroke="#ff4136"
     d="m 274.70001,313.06445 v 0 c 0,0 -2.12109,-3.491 -2.5,-2.4 -1.04964,3.023 0.39489,6.424 0,9.6 -0.41103,3.305 -2.4,9.7 -2.4,9.7" />
  <path
     id="ll1lsvt287"
     stroke-width="4"
     stroke="#ff4136"
     d="m 265.00001,322.76445 v 0 c 0,0 -1.37545,-1.966 -2.4,-2.5 -0.70953,-0.37 -3.11554,0.358 -2.4,0 2.26274,-1.131 4.67018,-2.4 7.2,-2.4 2.56147,0 4.87335,1.58 7.3,2.4 2.40685,0.813 7.2,2.5 7.2,2.5" />
  <path
     id="ll1lsvwcqf"
     stroke-width="4"
     stroke="#7fdbff"
     d="m 395.30001,317.86445 v 0 c 0,0 2.4,-1.269 2.4,-2.4 0,-0.8 -1.62389,-0.194 -2.4,0 -2.45429,0.614 -5.41115,0.611 -7.2,2.4 -4.11191,4.112 -6.28498,9.793 -9.7,14.5 -3.02358,4.167 -7.69471,7.317 -9.6,12.1 -1.48024,3.716 -1.39811,8.252 0,12 1.1946,3.202 4.14623,5.765 7.2,7.3 3.67399,1.847 8.0949,3.331 12.1,2.4 7.01312,-1.63 13.37126,-5.614 19.3,-9.7 7.04118,-4.852 13.49909,-10.617 19.3,-16.9 3.91348,-4.238 7.22029,-9.145 9.6,-14.4 1.69619,-3.746 1.82186,-8.029 2.4,-12.1 0.22496,-1.584 1.55223,-5.188 0,-4.8 -3.88057,0.97 -7.32098,3.913 -9.6,7.2 -5.12154,7.387 -8.29745,15.955 -12.1,24.1 -1.83554,3.932 -4.8,7.761 -4.8,12.1 0,4.339 1.73179,9.032 4.8,12.1 2.35525,2.355 9.7,2.4 9.7,2.4" />
  <path
     id="ll1lsvx0dg"
     stroke-width="4"
     stroke="#7fdbff"
     d="m 472.50001,305.86445 v 0 c 0,0 -2.4,-1.269 -2.4,-2.4 0,-0.8 1.6,0 2.4,0 3.23333,0 9.7,0 9.7,0" />
  <path
     id="ll1lsw5xls"
     stroke-width="4"
     stroke="#7fdbff"
     d="m 446.00001,445.76445 v 0 c 0,0 2.4,-1.269 2.4,-2.4 0,-1.131 -1.89404,-1.388 -2.4,-2.4 -0.35777,-0.716 0.71554,-2.042 0,-2.4 -1.43108,-0.716 -3.24683,-0.384 -4.8,0 -1.76549,0.437 -3.20943,1.729 -4.9,2.4 -2.35155,0.933 -5.41115,0.611 -7.2,2.4 -1.78885,1.789 -1.60497,4.798 -2.4,7.2 -0.80497,2.432 -1.98172,4.773 -2.4,7.3 -0.39191,2.368 0,4.8 0,7.2 0,2.433 -0.39735,4.899 0,7.3 0.41311,2.496 0.88211,5.176 2.4,7.2 1.07331,1.431 3.31158,1.408 4.8,2.4 0.94136,0.628 1.45864,1.772 2.4,2.4 1.48842,0.992 3.06351,1.97 4.8,2.4 1.58552,0.392 3.26667,0 4.9,0 1.6,0 3.36892,0.716 4.8,0 2.02386,-1.012 3.38648,-3.033 4.8,-4.8 1.8019,-2.252 2.99584,-4.949 4.8,-7.2 1.44479,-1.802 4.03299,-2.759 4.9,-4.9 0.90084,-2.225 0,-4.8 0,-7.2 0,-2.4 0.46694,-4.846 0,-7.2 -0.35385,-1.784 -1.38638,-3.39 -2.4,-4.9 -0.64381,-0.959 -1.34482,-2.4 -2.5,-2.4 -1.78885,0 -3.20669,1.587 -4.8,2.4 -1.6068,0.82 -3.1932,1.68 -4.8,2.5 -1.59331,0.813 -3.06351,1.97 -4.8,2.4 -1.58552,0.392 -4.9,0 -4.9,0" />
  <path
     id="ll1lsw9kr0"
     stroke-width="4"
     stroke="#ff4136"
     d="m 320.50001,564.06445 v 0 c 0,0 0,0 0,0 0.8,-0.833 1.58882,-1.678 2.4,-2.5 1.58893,-1.611 2.90935,-3.557 4.8,-4.8 0.6963,-0.458 1.75161,-0.367 2.5,0 1.01604,0.498 1.77842,1.455 2.4,2.4 0.99922,1.52 1.12729,3.601 2.4,4.9 0.55982,0.571 1.62582,0.202 2.4,0 2.45856,-0.64 5.02467,-1.188 7.2,-2.5 1.95774,-1.181 3.6136,-2.91 4.9,-4.8 0.4501,-0.661 0,-3.2 0,-2.4 0,1.6 0,3.2 0,4.8 0,3.233 1.14388,6.676 0,9.7 -1.42222,3.76 -4.95971,6.331 -7.3,9.6 -1.69535,2.368 -2.7493,5.232 -4.8,7.3 -2.03113,2.048 -4.46358,3.888 -7.2,4.8 -0.75895,0.253 -0.56569,-1.834 0,-2.4 2.03961,-2.04 4.8017,-3.197 7.2,-4.8 4.83504,-3.231 9.2988,-7.099 14.5,-9.7 6.14152,-3.071 13.24093,-3.97 19.3,-7.2 6.11373,-3.26 11.76187,-7.452 16.9,-12.1 2.98625,-2.701 4.97708,-6.342 7.2,-9.7 0.98753,-1.492 2.96569,-3.103 2.4,-4.8 -0.56569,-1.697 -3.31316,-3.395 -4.8,-2.4 -4.2966,2.874 -7.19042,7.581 -9.7,12.1 -5.57542,10.04 -10.95539,20.344 -14.4,31.3 -1.44969,4.611 -1.64077,9.954 0,14.5 1.74779,4.843 9.6,12.1 9.6,12.1" />
  <path
     id="ll1lswaqu6"
     stroke-width="4"
     stroke="#ff4136"
     d="m 417.00001,542.26445 v 0 c 0,0 1.83431,0.566 2.4,0 0.56569,-0.566 0.71554,-2.042 0,-2.4 -1.43108,-0.716 -3.2,0 -4.8,0 -0.8,0 -1.68446,-0.358 -2.4,0 -2.57992,1.29 -5.39584,2.549 -7.2,4.8 -1.60878,2.007 -2.5,4.728 -2.5,7.3 0,1.804 1.48502,3.309 2.5,4.8 0.63654,0.935 1.26863,2.4 2.4,2.4 2.52982,0 5.17614,-0.882 7.2,-2.4 1.43108,-1.073 1.6,-3.2 2.4,-4.8 0.8,-1.6 2.10789,-3.035 2.4,-4.8 0.52799,-3.19 0,-6.467 0,-9.7 0,-1.6 -0.40322,-3.252 0,-4.8 0.45463,-1.746 1.41522,-3.359 2.5,-4.8 1.37487,-1.827 2.76351,-3.861 4.8,-4.9 1.4251,-0.727 4.8,0 4.8,0" />
  <path
     id="ll1lswbiof"
     stroke-width="4"
     stroke="#ff4136"
     d="m 441.20001,532.66445 v 0 c 0,0 0.36955,-3.11 0,-2.4 -1.17357,2.253 -1.79253,4.76 -2.5,7.2 -0.92754,3.199 -2.4,9.7 -2.4,9.7" />
  <path
     id="ll1lswbqtx"
     stroke-width="4"
     stroke="#ff4136"
     d="m 429.10001,542.26445 v 0 c 0,0 -3.2,0 -2.4,0 2.4,0 4.8,0 7.2,0 1.6,0 4.8,0 4.8,0" />
  <path
     id="ll1lswctm7"
     stroke-width="4"
     stroke="#ff4136"
     d="m 482.20001,564.06445 v 0 c 0,0 -2.4,-1.345 -2.4,-2.5 0,-0.8 1.68446,0.358 2.4,0 1.01193,-0.506 1.89404,-1.388 2.4,-2.4 0.35777,-0.716 -0.56569,-2.966 0,-2.4 1.26491,1.265 1.41719,3.305 2.4,4.8 0.63466,0.965 1.30873,2.121 2.4,2.5 1.51148,0.525 3.37187,0.721 4.8,0 2.06175,-1.042 3.26667,-3.267 4.9,-4.9 1.6,-1.6 3.7881,-2.776 4.8,-4.8 0.7155,-1.431 0,-3.2 0,-4.8 0,-0.8 0,1.6 0,2.4 0,3.2 0,6.4 0,9.6 0,4.033 1.1502,8.234 0,12.1 -1.3384,4.498 -4.46776,8.284 -7.2,12.1 -1.33104,1.859 -2.68049,4.251 -4.9,4.8 -1.73649,0.43 -4.8,-0.611 -4.8,-2.4 0,-2.912 2.88148,-5.109 4.8,-7.3 3.74219,-4.274 8.07499,-7.992 12.1,-12 4.0417,-4.025 8.0667,-8.067 12.1,-12.1 1.6,-1.6 3.7881,-2.776 4.8,-4.8 0.7155,-1.431 1.4311,-4.084 0,-4.8 -1.6,-0.8 -3.6492,1.03 -4.8,2.4 -3.012,3.585 -5.1992,7.816 -7.3,12 -1.9469,3.878 -4.3252,7.787 -4.8,12.1 -0.3645,3.311 0.3298,7.091 2.4,9.7 1.5724,1.982 7.2,2.4 7.2,2.4" />
  <path
     id="ll1lswdq47"
     stroke-width="4"
     stroke="#ff4136"
     d="m 544.90001,544.66445 v 0 c 0,0 0.3578,-1.684 0,-2.4 -0.506,-1.012 -1.2686,-2.4 -2.4,-2.4 -1.1314,0 -1.7257,1.492 -2.4,2.4 -1.7357,2.338 -3.4904,4.699 -4.8,7.3 -1.1424,2.269 -2.5,4.659 -2.5,7.2 0,1.804 0.7862,4.237 2.5,4.8 1.6994,0.559 3.5351,-1.135 4.8,-2.4 1.2649,-1.265 2.1079,-3.035 2.4,-4.8 0.528,-3.19 0,-6.467 0,-9.7 0,-3.2 0,-6.4 0,-9.6 0,-1.6 -0.3843,-3.247 0,-4.8 0.4368,-1.765 0.8964,-3.877 2.4,-4.9 1.3227,-0.9 3.2,0 4.8,0 1.6333,0 4.9,0 4.9,0" />
  <path
     id="ll1lswet3j"
     stroke-width="4"
     stroke="#ff4136"
     d="m 564.20001,532.66445 v 0 c 0,0 0,0 0,0 0,1.6 0.4371,3.261 0,4.8 -1.1855,4.174 -3.7527,7.889 -4.8,12.1 -0.5792,2.329 0,7.2 0,7.2" />
  <path
     id="ll1lswf11n"
     stroke-width="4"
     stroke="#ff4136"
     d="m 552.20001,547.16445 v 0 c 0,0 -0.5831,-1.905 0,-2.5 1.2518,-1.278 3.0459,-2.049 4.8,-2.4 2.3534,-0.471 4.8,0 7.2,0 2.4333,0 7.3,0 7.3,0" />
  <path
     id="ll1lswj2xn"
     stroke-width="4"
     stroke="#7fdbff"
     d="m 489.40001,436.16445 v 0 c 0,0 2.4,-1.269 2.4,-2.4 0,-1.155 -1.445,-1.85 -2.4,-2.5 -1.47887,-1.006 -3.06456,-1.966 -4.8,-2.4 -1.55223,-0.388 -3.23057,-0.311 -4.8,0 -2.51252,0.498 -5.25336,0.86 -7.3,2.4 -1.45318,1.094 -2.04615,3.116 -2.4,4.9 -0.46694,2.354 -1.07331,5.053 0,7.2 0.8,1.6 3.01115,2.4 4.8,2.4 1.81873,0 3.60732,-1.121 4.9,-2.4 2.05015,-2.029 4.01192,-4.425 4.8,-7.2 0.8834,-3.11 -0.399,-6.491 0,-9.7 0.40704,-3.273 1.4988,-6.427 2.4,-9.6 0.69984,-2.464 1.26081,-5.006 2.4,-7.3 1.28283,-2.583 2.48388,-5.481 4.8,-7.2 1.31152,-0.973 3.26667,0 4.9,0 1.6,0 4.8,0 4.8,0" />
  <path
     id="ll1lswjqu0"
     stroke-width="4"
     stroke="#7fdbff"
     d="m 513.50001,426.46445 v 0 c 0,0 -3.2,0 -4.8,0 -0.8,0 1.6234,-0.192 2.4,0 2.4865,0.615 7.3,2.4 7.3,2.4" />
  <path
     id="ll1lswpq2z"
     stroke-width="4"
     stroke="#0074d9"
     d="m 407.40001,494.06445 v 0 c 0,0 3.06844,-0.44 2.4,0 -3.01431,1.982 -6.75854,2.711 -9.7,4.8 -2.76742,1.965 -4.56041,5.066 -7.2,7.2 -1.40297,1.134 -4.8,2.5 -4.8,2.5" />
  <path
     id="ll1lswqbig"
     stroke-width="4"
     stroke="#0074d9"
     d="m 482.20001,491.66445 v 0 c 0,0 -1.6,0 -2.4,0 -0.8,0 -3.11554,-0.358 -2.4,0 2.26274,1.131 5.22454,0.82 7.2,2.4 2.25237,1.802 2.95192,4.985 4.8,7.2 2.20483,2.642 5.38659,4.44 7.3,7.3 1.40664,2.103 2.4,7.2 2.4,7.2" />
  <path
     id="ll1lswt0ak"
     stroke-width="4"
     stroke="#0074d9"
     d="m 269.80001,370.96445 v 0 c 0,0 1.5918,1.608 2.4,2.4 0.82521,0.808 1.54086,1.756 2.5,2.4 1.49786,1.005 4.8,2.5 4.8,2.5" />
  <path
     id="ll1lswt94v"
     stroke-width="4"
     stroke="#0074d9"
     d="m 303.60001,385.46445 v 0 c 0,0 3.71722,0.976 4.8,2.4 1.53778,2.022 2.5,7.2 2.5,7.2" />
  <path
     id="ll1lswtgad"
     stroke-width="4"
     stroke="#0074d9"
     d="m 356.70001,409.56445 v 0 c 0,0 1.45864,1.772 2.4,2.4 1.48842,0.992 4.8,2.4 4.8,2.4" />
  <path
     id="ll1lswtn9m"
     stroke-width="4"
     stroke="#0074d9"
     d="m 402.50001,426.46445 v 0 c 0,0 1.67479,1.592 2.5,2.4 0.8082,0.792 1.3923,1.886 2.4,2.4 2.26284,1.155 4.93079,1.358 7.2,2.5 2.60118,1.31 7.3,4.8 7.3,4.8" />
  <path
     id="ll1lswuj4s"
     stroke-width="4"
     stroke="#0074d9"
     d="m 385.70001,385.46445 v 0 c 0,0 1.83431,-0.566 2.4,0 0.56569,0.566 0,1.6 0,2.4 0,0.8 0.19214,1.623 0,2.4 -0.61521,2.486 -1.43855,4.926 -2.4,7.3 -0.67713,1.672 -2.5,4.8 -2.5,4.8" />
  <path
     id="ll1lswuslz"
     stroke-width="4"
     stroke="#0074d9"
     d="m 380.80001,419.26445 v 0 c 0,0 0,2.4 0,2.4" />
  <path
     id="ll1lswuyh2"
     stroke-width="4"
     stroke="#0074d9"
     d="m 371.20001,450.56445 v 0 c 0,0 -1.90309,3.15 -2.4,4.9 -1.11451,3.924 -0.95687,8.185 -2.4,12 -1.03681,2.741 -4.9,7.3 -4.9,7.3" />
  <path
     id="ll1lswv5hb"
     stroke-width="4"
     stroke="#0074d9"
     d="m 356.70001,498.86445 v 0 c 0,0 -3.51717,4.617 -4.8,7.2 -1.13919,2.294 -2.4,7.3 -2.4,7.3" />
  <path
     id="ll1lsxrx96"
     stroke-width="4"
     stroke="#ff851b"
     d="m 986.50001,192.46445 v 0 c 0,0 1.6165,0.162 2.4,0 3.2699,-0.676 6.5044,-1.532 9.7,-2.5 4.84239,-1.467 9.70039,-2.925 14.39999,-4.8 7.3466,-2.931 14.5191,-6.284 21.7,-9.6 3.2887,-1.519 6.0993,-4.504 9.7,-4.9 4.0938,-0.451 8.0501,1.751 12.1,2.5 4.7851,0.885 9.781,0.869 14.4,2.4 7.5367,2.498 14.4268,6.654 21.8,9.6 8.735,3.49 17.4269,7.218 26.5,9.7 8.6589,2.369 17.6661,3.203 26.5,4.8 8.8661,1.603 17.7339,3.197 26.6,4.8 8.8339,1.597 17.657,3.254 26.5,4.8 9.6573,1.688 19.2733,3.674 29,4.9 9.5906,1.209 19.3396,0.972 28.9,2.4 6.5566,0.979 12.7597,3.717 19.3,4.8 7.9974,1.324 16.2257,0.943 24.2,2.4 9.7742,1.785 19.2617,4.886 28.9,7.3 9.6618,2.42 19.2471,5.179 29,7.2 9.5621,1.982 19.1413,4.44 28.9,4.8 12.0849,0.446 24.1157,-1.938 36.2,-2.4 8.8602,-0.339 17.7333,0 26.6,0 10.4333,0 20.8743,-0.399 31.3,0 10.4895,0.402 20.973,1.188 31.4,2.4 10.5225,1.223 21.0782,2.517 31.4,4.9 10.6643,2.462 21.4335,5.077 31.4,9.6 7.9218,3.595 15.7367,8.166 21.7,14.5 7.1816,7.628 12.5701,16.96 16.9,26.5 3.7963,8.365 5.4911,17.575 7.2,26.6 1.5019,7.932 1.9282,16.041 2.4,24.1 0.3292,5.624 -0.4293,11.283 0,16.9 0.3734,4.885 1.9581,9.621 2.4,14.5 0.3608,3.984 0.7803,8.077 0,12 -1.6418,8.254 -4.0162,16.409 -7.2,24.2 -4.0772,9.977 -9.3857,19.413 -14.5,28.9 -6.1564,11.42 -11.761,23.241 -19.3,33.8 -4.6294,6.484 -11.0189,11.526 -16.9,16.9 -3.8007,3.473 -7.3169,7.695 -12.1,9.6 -3.716,1.48 -8.0786,-0.789 -12,0 -12.2468,2.465 -24.3517,5.741 -36.2,9.7 -14.7244,4.92 -29.2912,10.422 -43.4,16.9 -15.7046,7.21 -30.2416,16.79 -45.9,24.1 -8.5234,3.979 -17.3771,7.407 -26.5,9.7 -3.9117,0.983 -8.1369,0.749 -12.1,0 -9.0028,-1.703 -17.517,-5.496 -26.5,-7.3 -7.1675,-1.439 -14.4894,-2.4 -21.8,-2.4 -13.6901,0 -27.3893,0.928 -41,2.4 -8.931,0.966 -17.677,3.212 -26.5,4.9 -8.0773,1.545 -16.0661,3.587 -24.2,4.8 -7.9848,1.19 -16.3842,0.03 -24.1,2.4 -13.4243,4.132 -26.2219,10.262 -38.6,16.9 -10.2086,5.475 -18.8178,13.596 -28.9,19.3 -8.4781,4.797 -17.359,9.02 -26.6,12.1 -5.3979,1.799 -11.2211,2.047 -16.9,2.4 -7.2194,0.449 -14.5341,0.985 -21.7,0 -10.6457,-1.464 -21.792,-2.488 -31.4,-7.3 -10.2082,-5.113 -18.6238,-13.435 -26.5,-21.7 -9.1021,-9.552 -15.8514,-21.102 -24.1,-31.4 -7.85509,-9.807 -16.50029,-18.971 -24.19999,-28.9 -6.0126,-7.754 -11.9176,-15.647 -16.9,-24.1 -5.4806,-9.298 -11.8813,-18.505 -14.4,-29 -3.1949,-13.312 -1.6881,-27.328 -2.4,-41 -0.9215,-17.696 -1.7013,-35.398 -2.5,-53.1 -0.8346,-18.498 -1.9508,-36.988 -2.4,-55.5 -0.351,-14.462 0.5753,-28.945 0,-43.4 -0.2263,-5.685 -1.0267,-11.378 -2.4,-16.9 -0.2731,-1.098 -1.2686,-2.4 -2.4,-2.4 -0.8,0 -0.6614,2.85 0,2.4 2.8255,-1.923 5.4792,-4.347 7.2,-7.3 3.9893,-6.846 6.8431,-14.31 9.7,-21.7 1.1894,-3.077 1.2471,-6.51 2.4,-9.6 1.2609,-3.38 2.6999,-6.767 4.8,-9.7 1.9896,-2.779 5.0745,-4.606 7.3,-7.2 2.622,-3.056 4.5884,-6.635 7.2,-9.7 2.2013,-2.583 4.7901,-4.81 7.2,-7.2 1.6234,-1.61 3.2832,-3.183 4.9,-4.8 0.8168,-0.817 1.5888,-1.678 2.4,-2.5 1.5889,-1.611 3.4424,-2.99 4.8,-4.8 1.0733,-1.431 0.9636,-3.734 2.4,-4.8 2.0568,-1.527 7.29999,-2.4 7.29999,-2.4" />
  <text
     id="tl1lsxvy9h"
     x="1155.1"
     y="393.06445"
     font-size="36px"
     fill="#ff851b">NaCl</text>
  <path
     id="ll1lsy3heq"
     stroke-width="4"
     stroke="#0074d9"
     d="m 1852.7,122.46445 v 0 c 0,0 1.577,-1.705 2.5,-2.4 2.3196,-1.746 4.7923,-3.278 7.2,-4.9 2.3923,-1.611 4.4017,-4.1 7.2,-4.8 1.0976,-0.274 1.7695,1.461 2.4,2.4 1.0219,1.522 0.8633,4.073 2.5,4.9 2.1422,1.082 4.8738,0.591 7.2,0 4.2177,-1.071 8.326,-2.734 12.1,-4.9 1.9625,-1.126 2.7761,-3.788 4.8,-4.8 1.4311,-0.716 3.9125,-1.331 4.8,0 1.3313,1.997 0.5792,4.871 0,7.2 -2.6416,10.621 -4.9478,21.493 -9.6,31.4 -1.9436,4.139 -5.8258,7.271 -9.7,9.7 -2.7947,1.752 -6.3015,2.4 -9.6,2.4 -1.1552,0 -3.3134,-1.58 -2.5,-2.4 4.0948,-4.129 9.301,-7.095 14.5,-9.7 10.9608,-5.492 22.7545,-9.181 33.8,-14.5 10.7092,-5.157 21.1061,-10.957 31.4,-16.9 5.0201,-2.898 10.6813,-5.239 14.5,-9.6 2.1943,-2.506 4.7714,-7.360997 2.4,-9.699997 -2.3773,-2.345 -7.339,0.139 -9.7,2.5 -10.1048,10.104997 -20.279,20.834997 -26.5,33.699997 -5.3587,11.082 -7.3,23.89 -7.3,36.2 0,3.441 7.3,7.3 7.3,7.3" />
  <path
     id="ll1lsy48hk"
     stroke-width="4"
     stroke="#0074d9"
     d="m 1983,161.06445 v 0 c 0,0 -3.1029,1.834 -4.8,2.4 -0.7589,0.253 -3.2,0 -2.4,0 1.6,0 3.2,0 4.8,0 3.2333,0 6.4667,0 9.7,0 1.6,0 5.6265,-1.37 4.8,0 -2.9465,4.884 -7.6868,8.486 -12.1,12.1 -4.4634,3.655 -9.5932,6.41 -14.4,9.6 -2.4266,1.61 -5.6769,2.382 -7.3,4.8 -0.6438,0.959 1.2687,2.266 2.4,2.5 3.1665,0.654 9.7,0 9.7,0" />
  <path
     id="ll1lsy4qal"
     stroke-width="4"
     stroke="#0074d9"
     d="m 2089.2,76.564453 v 0 c 0,0 -0.6646,-4.366 -2.4,-4.8 -2.4543,-0.614 -5.4111,0.611 -7.2,2.4 -10.4972,10.497 -21.0836,21.242 -29,33.799997 -5.9815,9.489 -10.9907,20.238 -12.1,31.4 -0.6068,6.106 2.9519,12.57 7.3,16.9 4.3388,4.321 10.8392,8.073 16.9,7.2 12.1345,-1.747 23.4049,-8.001 33.8,-14.5 9.166,-5.731 18.8026,-12.277 24.1,-21.7 2.7883,-4.96 1.8516,-13.119 -2.4,-16.9 -4.8441,-4.308 -12.8171,-2.4 -19.3,-2.4 -4.1119,0 -12.1,2.4 -12.1,2.4" />
  <path
     id="ll1lsy5wv7"
     stroke-width="4"
     stroke="#0074d9"
     d="m 1816.5,168.26445 v 0 c 0,0 -1.4414,1.799 -2.4,2.4 -5.5032,3.45 -11.3344,6.351 -16.9,9.7 -10.5029,6.319 -20.5987,13.323 -31.3,19.3 -16.6484,9.299 -33.8303,17.609 -50.7,26.5 -12.0972,6.376 -24.1794,12.781 -36.2,19.3 -7.2802,3.948 -13.7738,9.699 -21.7,12.1 -1.712,0.519 -2.4,-4.8 -2.4,-4.8" />
  <path
     id="ll1lsy6dc6"
     stroke-width="4"
     stroke="#0074d9"
     d="m 1703.1,187.56445 v 0 c 0,0 0,0 0,0 -4,5.633 -7.4561,11.695 -12,16.9 -6.7277,7.706 -14.7376,14.205 -21.7,21.7 -3.5184,3.787 -6.0447,8.445 -9.7,12.1 -2.0396,2.04 -4.9494,2.996 -7.2,4.8 -1.8023,1.445 -4.9,2.59 -4.9,4.9 0,2.286 2.8893,3.711 4.9,4.8 6.9557,3.766 14.1257,7.321 21.7,9.6 8.6023,2.588 26.5,4.9 26.5,4.9" />
  <path
     id="ll1lsy8v4i"
     stroke-width="4"
     stroke="#ff851b"
     d="m 1729.7,404.76445 v 0 c 0,0 -1.6,0 -2.4,0 -2.4333,0 -5.0543,-0.937 -7.3,0 -7.6432,3.189 -14.2925,8.396 -21.7,12.1 -8.6731,4.337 -18.2993,6.825 -26.5,12 -7.2318,4.563 -13.2534,10.853 -19.3,16.9 -2.0723,2.072 -4.1961,4.455 -4.9,7.3 -0.2775,1.121 1.5348,1.765 2.5,2.4 1.4947,0.983 3.8796,0.866 4.8,2.4 1.6971,2.828 2.4,6.302 2.4,9.6 0,3.331 -1.5961,6.468 -2.4,9.7 -0.7961,3.201 -1.6039,6.399 -2.4,9.6 -0.8039,3.232 -2.4,6.369 -2.4,9.7 0,3.298 0.7708,6.732 2.4,9.6 1.6881,2.972 4.3043,5.485 7.2,7.3 3.6763,2.305 7.9565,3.512 12.1,4.8 8.7409,2.717 17.6224,4.969 26.5,7.2 3.9943,1.004 8.0641,1.679 12.1,2.5 3.9974,0.813 7.9994,1.603 12,2.4 4.0327,0.803 8.0843,1.516 12.1,2.4 3.2529,0.716 6.7183,0.915 9.7,2.4 5.1641,2.571 9.4896,6.572 14.4,9.6 5.5287,3.409 11.0031,6.977 16.9,9.7 4.6222,2.134 9.5204,3.739 14.5,4.8 6.3406,1.351 12.827,2.758 19.3,2.4 8.1786,-0.452 16.1826,-2.7 24.1,-4.8 4.1941,-1.112 8.0346,-3.283 12.1,-4.8 2.3703,-0.884 4.9326,-1.278 7.2,-2.4 1.0354,-0.512 1.9791,-1.369 2.5,-2.4 1.1549,-2.286 1.6696,-4.845 2.4,-7.3 1.67,-5.613 3.7262,-11.143 4.8,-16.9 1.3344,-7.154 2.4,-14.423 2.4,-21.7 0,-4.899 -1.2157,-9.746 -2.4,-14.5 -1.2231,-4.91 -3.4734,-9.517 -4.8,-14.4 -1.0781,-3.968 -1.0943,-8.201 -2.4,-12.1 -1.1502,-3.435 -4.2414,-6.138 -4.9,-9.7 -1.0182,-5.507 1.3516,-11.366 0,-16.8 -1.9164,-7.705 -4.6069,-15.626 -9.6,-21.8 -5.7654,-7.128 -13.6804,-12.457 -21.7,-16.9 -6.694,-3.709 -14.536,-4.792 -21.8,-7.2 -4.8026,-1.592 -9.4378,-3.812 -14.4,-4.8 -3.171,-0.632 -6.4667,0 -9.7,0 -4.0333,0 -8.1067,0.567 -12.1,0 -1.7711,-0.252 -3.0459,-2.049 -4.8,-2.4 -2.3534,-0.471 -4.8238,-0.337 -7.2,0 -3.2977,0.468 -6.5379,1.353 -9.7,2.4 -6.5185,2.158 -13.7496,3.158 -19.3,7.2 -3.7938,2.763 -7.2,12.1 -7.2,12.1" />
  <path
     id="ll1lsyat62"
     stroke-width="4"
     stroke="#ff851b"
     d="m 2152,370.96445 v 0 c 0,0 1.894,-1.388 2.4,-2.4 0.3578,-0.716 0.8,-2.4 0,-2.4 -3.3308,0 -6.6194,1.133 -9.7,2.4 -10.6625,4.384 -21.3884,8.783 -31.4,14.5 -12.5885,7.188 -24.2807,15.85 -36.2,24.1 -8.9852,6.219 -18.5291,11.825 -26.5,19.3 -5.0537,4.739 -8.5281,10.963 -12.1,16.9 -1.3042,2.168 -3.5407,4.942 -2.4,7.2 1.1597,2.296 4.7811,1.98 7.3,2.5 1.5669,0.324 3.9125,-1.331 4.8,0 1.3313,1.997 0.1835,4.807 0,7.2 -0.6172,8.049 -2.7817,16.036 -2.4,24.1 0.426,9 1.1076,18.381 4.8,26.6 3.7573,8.363 9.4639,16.337 16.9,21.7 7.6201,5.496 17.2131,8.178 26.5,9.6 11.9277,1.826 24.1616,0.825 36.2,0 11.353,-0.778 22.4592,-3.86 33.8,-4.8 8.0059,-0.664 16.0821,-0.499 24.1,0 4.8897,0.304 9.8481,0.864 14.5,2.4 2.7653,0.913 4.4341,4.283 7.3,4.8 6.3311,1.142 13.0729,1.616 19.3,0 12.5701,-3.261 25.6018,-6.895 36.2,-14.4 9.3386,-6.613 16.9708,-16.18 21.7,-26.6 3.6656,-8.077 3.927,-17.763 2.4,-26.5 -1.8033,-10.318 -6.6265,-20.07 -12.1,-29 -3.5596,-5.808 -9.6833,-9.583 -14.5,-14.4 -2.4167,-2.417 -4.9834,-4.699 -7.2,-7.3 -2.5943,-3.045 -6.7064,-5.631 -7.2,-9.6 -1.197,-9.626 2.4,-19.3 2.4,-29 0,-6.483 0.8852,-13.711 -2.4,-19.3 -5.1837,-8.819 -12.8205,-16.621 -21.7,-21.7 -8.6527,-4.949 -19.0536,-6.641 -29,-7.3 -14.4589,-0.959 -28.9875,0.997 -43.4,2.5 -8.9613,0.935 -17.8263,2.751 -26.6,4.8 -4.9578,1.158 -14.5,4.8 -14.5,4.8" />
  <text
     id="tl1lsygfa1"
     x="1698.1"
     y="475.06445"
     font-size="36px"
     fill="#ff851b">NaCl</text>
  <text
     id="tl1lsyjbd6"
     x="2125.1001"
     y="480.06445"
     font-size="36px"
     fill="#ff851b">NaCl</text>
  <path
     id="ll1oy8339t"
     stroke-width="4"
     stroke="#91e99b"
     d="m 160.40001,19.364453 v 0 c 0,0 0.40069,1.299 0,1.7 -0.40069,0.401 -1.44658,-0.507 -1.7,0 -0.50684,1.014 -0.50684,2.386 0,3.4 0.25342,0.507 1.44658,0.507 1.7,0 0.50684,-1.014 -0.35839,-2.325 0,-3.4 0.25342,-0.76 1.7,-1.7 1.7,-1.7" />
  <path
     id="ll1oy86eyi"
     stroke-width="4"
     stroke="#91e99b"
     d="m 350.20001,9.0644531 v 0 c 0,0 -1.29931,0.401 -1.7,0 -0.89598,-0.896 -1.7,-3.4 -1.7,-3.4" />
  <path
     id="ll1oy86p70"
     stroke-width="4"
     stroke="#91e99b"
     d="m 418.70001,3.9644531 v 0 c 0,0 -0.91383,-1.545 -1.7,-1.7 -2.25634,-0.446 -4.61128,-0.228 -6.9,0 -3.42999,0.341 -7.16203,0.07 -10.2,1.7 -4.62694,2.48 -9.08304,5.835 -12,10.1999999 -1.93349,2.893 -3.53457,7.343 -1.7,10.3 1.88947,3.045 6.62223,3.19 10.2,3.4 6.28145,0.368 12.77023,0.1 18.8,-1.7 5.61878,-1.676 10.51775,-5.253 15.4,-8.5 2.04113,-1.357 3.28802,-3.666 5.2,-5.2 0.98832,-0.793 4.29598,-2.5959999 3.4,-1.7 -1.44472,1.445 -3.84418,1.788 -5.1,3.4 -2.83606,3.64 -5.27642,7.681 -6.9,12 -1.84978,4.921 -1.30705,10.578 -3.4,15.4 -3.66743,8.45 -8.06205,16.715 -13.7,24 -4.19161,5.416 -9.70511,9.796 -15.4,13.6 -2.98909,1.997 -6.62001,3.176 -10.2,3.5 -2.91688,0.264 -7.87505,1.038 -8.6,-1.8 -1.06822,-4.181 1.90067,-9.004 5.1,-11.9 9.15654,-8.289 19.88847,-14.813 30.8,-20.6 17.14758,-9.095 35.40051,-15.932 53.1,-23.9 11.40051,-5.132 34.2,-15.3999999 34.2,-15.3999999" />
</svg>
