<?xml version="1.0" encoding="UTF-8" standalone="no"?>
<!-- Created with Inkscape (http://www.inkscape.org/) -->

<svg
   width="590.76318mm"
   height="95.784447mm"
   viewBox="0 0 590.76317 95.784447"
   version="1.1"
   id="svg215672"
   inkscape:version="1.1.1 (3bf5ae0d25, 2021-09-20)"
   sodipodi:docname="oxygen.svg"
   xmlns:inkscape="http://www.inkscape.org/namespaces/inkscape"
   xmlns:sodipodi="http://sodipodi.sourceforge.net/DTD/sodipodi-0.dtd"
   xmlns="http://www.w3.org/2000/svg"
   xmlns:svg="http://www.w3.org/2000/svg">
  <sodipodi:namedview
     id="namedview215674"
     pagecolor="#ffffff"
     bordercolor="#666666"
     borderopacity="1.0"
     inkscape:pageshadow="2"
     inkscape:pageopacity="0.0"
     inkscape:pagecheckerboard="0"
     inkscape:document-units="mm"
     showgrid="false"
     inkscape:zoom="0.77771465"
     inkscape:cx="1159.8084"
     inkscape:cy="278.37974"
     inkscape:window-width="1920"
     inkscape:window-height="1144"
     inkscape:window-x="1920"
     inkscape:window-y="28"
     inkscape:window-maximized="1"
     inkscape:current-layer="layer1" />
  <defs
     id="defs215669" />
  <g
     inkscape:label="Layer 1"
     inkscape:groupmode="layer"
     id="layer1"
     transform="translate(367.1105,-75.126318)">
    <path
       id="lktg10h73x"
       stroke-width="1.05833"
       stroke="#3d9970"
       d="m -356.65796,89.459861 v 0 c 0,0 0.35277,0 0.26458,0 -0.17639,0 -0.35518,0.029 -0.52917,0 -0.35868,-0.05977 -0.6965,-0.228389 -1.05833,-0.264584 -0.52654,-0.05265 -1.05951,0.03519 -1.5875,0 -0.79687,-0.05313 -1.58809,-0.171264 -2.38125,-0.264583 -0.70618,-0.08308 -1.40743,-0.213916 -2.11667,-0.264583 -0.52782,-0.0377 -1.05833,0 -1.5875,0 -0.26458,0 -0.60666,0.187087 -0.79375,0 -0.18709,-0.187087 -0.16938,-0.590497 0,-0.79375 0.32922,-0.395076 0.91151,-0.485193 1.32292,-0.79375 0.65049,-0.487865 1.25461,-1.035976 1.85208,-1.5875 0.5499,-0.507603 1.0841,-1.033754 1.5875,-1.5875 0.37988,-0.417857 0.71951,-0.871141 1.05834,-1.322917 0.19079,-0.254397 0.21117,-0.79375 0.52916,-0.79375 0.2789,0 -0.17639,0.529167 -0.26458,0.79375 -0.35278,1.058333 -0.82459,2.084176 -1.05833,3.175 -0.29797,1.390518 -0.32076,2.826597 -0.52917,4.233333 -0.1445,0.975387 -0.42028,1.9304 -0.52917,2.910417 -0.0682,0.613595 0,1.852083 0,1.852083"
       style="fill:none;stroke-linecap:round;stroke-linejoin:round" />
    <path
       id="lktg10id4q"
       stroke-width="1.05833"
       stroke="#3d9970"
       d="m -352.16005,93.957777 v 0 c 0,0 -0.40444,-0.124724 -0.52916,0 -0.19721,0.197221 -0.12914,0.549963 -0.26459,0.79375 -0.30886,0.555943 -0.75379,1.029177 -1.05833,1.5875 -0.22743,0.416957 -0.52917,1.322917 -0.52917,1.322917"
       style="fill:none;stroke-linecap:round;stroke-linejoin:round" />
    <path
       id="lktg10iu7e"
       stroke-width="1.05833"
       stroke="#3d9970"
       d="m -341.31213,80.993194 v 0 c 0,0 0,0 0,0 -0.35278,0 -0.70771,0.03895 -1.05833,0 -0.44696,-0.04966 -0.87597,-0.214921 -1.32292,-0.264583 -0.35062,-0.03895 -0.73408,-0.138959 -1.05833,0 -0.34393,0.147399 -0.62642,0.459078 -0.79375,0.79375 -0.28714,0.574278 -0.42362,1.21875 -0.52917,1.852083 -0.16015,0.960887 -0.26458,1.936274 -0.26458,2.910417 0,0.449712 0.14103,0.890508 0.26458,1.322916 0.0542,0.189627 0.17639,0.352769 0.26458,0.529167 0.0882,0.176398 0.0674,0.529167 0.26459,0.529167 0.31799,0 0.50147,-0.403913 0.79375,-0.529167 0.33423,-0.143245 0.70335,-0.185711 1.05833,-0.264583 0.439,-0.09755 0.90957,-0.08745 1.32292,-0.264584 0.22928,-0.09827 0.30605,-0.417618 0.52916,-0.529166 0.15777,-0.07887 0.52917,-0.176398 0.52917,0 0,0.318002 -0.40002,0.503158 -0.52917,0.79375 -0.22654,0.50972 -0.45544,1.0346 -0.52916,1.5875 -0.10491,0.786791 0,1.5875 0,2.38125 0,0.440981 0,0.881935 0,1.322916 0,0.352769 0,0.705565 0,1.058334 0,0.176397 0.14676,0.431323 0,0.529166 -0.22015,0.146765 -0.53707,0.06416 -0.79375,0 -0.46077,-0.115199 -0.8572,-0.436033 -1.32292,-0.529166 -0.43241,-0.08649 -0.88194,0 -1.32292,0 -0.17639,0 -0.35277,0 -0.52916,0 -0.17639,0 -0.35278,0 -0.52917,0 -0.0882,0 -0.26458,0.08818 -0.26458,0 0,-0.197221 0.2259,-0.335783 0.26458,-0.529167 0.0519,-0.25945 0,-0.529167 0,-0.79375 0,-0.176398 0,-0.529167 0,-0.529167"
       style="fill:none;stroke-linecap:round;stroke-linejoin:round" />
    <path
       id="lktg10k8cj"
       stroke-width="1.05833"
       stroke="#3d9970"
       d="m -331.25796,91.047361 v 0 c 0,0 -0.0558,-0.361818 0,-0.529167 0.0394,-0.118322 0.30402,-0.382905 0.26458,-0.264583 -0.12473,0.374173 -0.31038,0.73017 -0.52917,1.058333 -0.31325,0.469874 -0.72618,0.866219 -1.05833,1.322917 -0.37407,0.51435 -0.83503,0.992002 -1.05833,1.5875 -0.0693,0.184652 0.0933,0.627009 0.26458,0.529166 0.64975,-0.371289 1.0376,-1.079897 1.5875,-1.5875 0.59748,-0.551524 1.22743,-1.066958 1.85208,-1.5875 0.43383,-0.361526 0.81782,-0.805788 1.32292,-1.058333 0.23665,-0.118322 0.60666,-0.187087 0.79375,0 0.18709,0.187087 0.0837,0.54274 0,0.79375 -0.18709,0.561261 -0.55347,1.046877 -0.79375,1.5875 -0.11327,0.254847 -0.26458,0.514853 -0.26458,0.79375 0,0.08819 0.1857,0.03945 0.26458,0 0.63598,-0.318003 1.27348,-0.645054 1.85208,-1.058333 0.66166,-0.472626 1.18355,-1.124665 1.85209,-1.5875 0.48643,-0.336762 1.01354,-0.650267 1.5875,-0.79375 0.19132,-0.04784 0.5047,0.0689 0.52916,0.264583 0.0773,0.618808 -0.21675,1.230286 -0.26458,1.852083 -0.0406,0.527606 -0.0527,1.060953 0,1.5875 0.0362,0.361818 -0.0759,0.930646 0.26458,1.058334 0.58392,0.218969 1.85209,-0.264584 1.85209,-0.264584"
       style="fill:none;stroke-linecap:round;stroke-linejoin:round" />
    <path
       id="lktg10kyzk"
       stroke-width="1.05833"
       stroke="#3d9970"
       d="m -315.64755,91.311944 v 0 c 0,0 -0.6975,-0.219472 -1.05833,-0.264583 -0.35006,-0.04376 -0.70771,-0.03895 -1.05833,0 -0.44696,0.04966 -0.89629,0.12237 -1.32292,0.264583 -0.37418,0.124725 -0.83955,0.201004 -1.05833,0.529167 -0.35616,0.53422 -0.52917,1.210019 -0.52917,1.852083 0,0.474954 0.19333,0.987081 0.52917,1.322917 0.25713,0.257122 0.69692,0.304747 1.05833,0.264583 0.47204,-0.05244 0.92774,-0.265721 1.32292,-0.529167 0.67655,-0.451035 1.37383,-0.929904 1.85208,-1.5875 0.2645,-0.363696 0.12237,-0.896276 0.26458,-1.322916 0.0394,-0.118322 0.20881,-0.376132 0.26459,-0.264584 0.11832,0.236644 -0.13613,0.56687 0,0.79375 0.1636,0.27268 0.48333,0.46019 0.79375,0.529167 0.51656,0.114803 1.08548,0.167349 1.5875,0 0.86142,-0.287152 1.60792,-0.847037 2.38125,-1.322917 1.52089,-0.935937 3.13848,-1.752388 4.49791,-2.910416 1.04872,-0.893366 1.83924,-2.058168 2.64584,-3.175 0.34639,-0.47961 0.72841,-0.99949 0.79375,-1.5875 0.0351,-0.316045 -0.22342,-0.706385 -0.52917,-0.79375 -0.4324,-0.123534 -0.94055,0.02789 -1.32292,0.264583 -1.49977,0.928423 -3.0298,1.8855 -4.23333,3.175 -1.30182,1.394804 -2.32175,3.05599 -3.175,4.7625 -0.40223,0.804466 -0.74731,1.773264 -0.52917,2.645833 0.1815,0.726017 0.91815,1.252829 1.5875,1.5875 0.80446,0.40222 2.64584,0.529167 2.64584,0.529167"
       style="fill:none;stroke-linecap:round;stroke-linejoin:round" />
    <path
       id="lktg10ma3r"
       stroke-width="1.05833"
       stroke="#3d9970"
       d="m -288.92463,91.576527 v 0 c 0,0 -0.0624,-0.326945 0,-0.264583 0.31181,0.311812 0.48193,0.746522 0.79375,1.058333 0.31181,0.311812 0.72352,0.506757 1.05833,0.79375 0.2841,0.243523 0.43878,0.675429 0.79375,0.79375 0.26459,0.08819 0.61521,-0.05032 0.79375,-0.264583 0.30405,-0.36486 0.36686,-0.876565 0.52917,-1.322917 0.54335,-1.494234 1.00812,-3.017281 1.5875,-4.497916 0.21559,-0.550942 0.52917,-1.058334 0.79375,-1.5875 0.17639,-0.352769 0.20099,-0.83955 0.52917,-1.058334 0.16408,-0.109378 0.25053,0.332449 0.26458,0.529167 0.0754,1.055635 -0.12131,2.123652 0,3.175 0.14474,1.254443 0.5461,2.465943 0.79375,3.704167 0.10521,0.526044 0.13447,1.067064 0.26458,1.5875 0.0478,0.19132 0.12514,0.668602 0.26459,0.529166 0.50278,-0.502787 0.79922,-1.189937 1.05833,-1.852083 0.53873,-1.376759 0.84232,-2.835222 1.32292,-4.233333 0.48991,-1.425205 0.89038,-2.897188 1.5875,-4.233334 0.37611,-0.720883 1.07955,-1.217136 1.5875,-1.852083 0.19864,-0.248311 0.21117,-0.79375 0.52916,-0.79375 0.37418,0 0.61204,0.466672 0.79375,0.79375 0.27089,0.487601 0.52917,1.5875 0.52917,1.5875"
       style="fill:none;stroke-linecap:round;stroke-linejoin:round" />
    <path
       id="lktg10n4su"
       stroke-width="1.05833"
       stroke="#3d9970"
       d="m -273.5788,91.576527 v 0 c 0,0 0.20881,-0.153035 0.26459,-0.264583 0.12472,-0.249449 0.33222,-0.523187 0.26458,-0.79375 -0.0478,-0.19132 -0.33196,-0.264583 -0.52917,-0.264583 -0.62363,0 -1.28585,0.0032 -1.85208,0.264583 -0.62542,0.28866 -1.12205,0.815155 -1.5875,1.322917 -0.51266,0.559249 -0.98363,1.173506 -1.32292,1.852083 -0.20111,0.40222 -0.38813,0.890508 -0.26458,1.322917 0.0874,0.305752 0.48525,0.45204 0.79375,0.529166 0.4278,0.106945 0.92147,0.182483 1.32292,0 0.62707,-0.285035 1.10043,-0.835845 1.5875,-1.322916 0.48706,-0.487072 0.88672,-1.054391 1.32291,-1.5875 0.3576,-0.437066 0.69681,-0.88908 1.05833,-1.322917 0.0798,-0.09581 0.35278,-0.352769 0.26459,-0.264583 -0.26459,0.264583 -0.65478,0.446325 -0.79375,0.79375 -0.23161,0.579014 -0.26458,1.22846 -0.26458,1.852083 0,0.449712 -0.12853,1.10453 0.26458,1.322917 0.61677,0.342635 2.11666,0 2.11666,0"
       style="fill:none;stroke-linecap:round;stroke-linejoin:round" />
    <path
       id="lktg10o212"
       stroke-width="1.05833"
       stroke="#3d9970"
       d="m -280.19338,93.957777 v 0 c 0,0 -0.17639,0 -0.26458,0 -0.0882,0 -0.32695,0.06236 -0.26459,0 0.13945,-0.139435 0.36508,-0.155204 0.52917,-0.264583 0.36691,-0.244607 0.66391,-0.59653 1.05833,-0.79375 0.32525,-0.162613 0.73309,-0.10197 1.05834,-0.264583 0.0789,-0.03945 0,-0.264584 0,-0.264584"
       style="fill:none;stroke-linecap:round;stroke-linejoin:round" />
    <path
       id="lktg10ot9p"
       stroke-width="1.05833"
       stroke="#3d9970"
       d="m -266.43505,93.693194 v 0 c 0,0 -0.12472,-0.404442 0,-0.529167 0.19721,-0.19722 0.51656,-0.233785 0.79375,-0.264583 0.52593,-0.05845 1.06242,-0.06564 1.5875,0 0.19569,0.02434 0.52917,0.06736 0.52917,0.264583 0,0.394415 -0.26713,0.763535 -0.52917,1.058334 -0.45763,0.514826 -1.03203,0.915564 -1.5875,1.322916 -0.76928,0.564145 -1.60974,1.026398 -2.38125,1.5875 -0.20174,0.146712 -0.39079,0.321601 -0.52917,0.529167 -0.0489,0.07339 -0.0706,0.211667 0,0.264583 0.31554,0.236644 0.67331,0.443601 1.05834,0.529167 0.43047,0.09567 0.88906,0.07887 1.32291,0 0.5488,-0.09977 1.5875,-0.529167 1.5875,-0.529167"
       style="fill:none;stroke-linecap:round;stroke-linejoin:round" />
    <path
       id="lktg10pmpi"
       stroke-width="1.05833"
       stroke="#3d9970"
       d="m -250.56005,81.522361 v 0 c 0,0 -0.38972,0.125148 -0.52917,0.264583 -0.48706,0.487072 -0.94082,1.01436 -1.32291,1.5875 -1.032,1.547998 -2.12077,3.077924 -2.91042,4.7625 -0.54503,1.162738 -0.89224,2.430833 -1.05833,3.704167 -0.1033,0.791924 -0.05,1.64719 0.26458,2.38125 0.24566,0.573193 0.75158,1.072964 1.32292,1.322916 0.90337,0.395235 1.93428,0.668602 2.91041,0.529167 0.97614,-0.139435 1.91897,-0.656616 2.64584,-1.322917 1.43176,-1.312439 2.66929,-2.854298 3.70416,-4.497916 0.49061,-0.779198 0.60406,-1.744795 0.79375,-2.645834 0.16453,-0.781499 0.37753,-1.590648 0.26459,-2.38125 -0.0727,-0.509084 -0.32382,-1.114054 -0.79375,-1.322916 -0.49023,-0.217885 -1.08941,0.06535 -1.5875,0.264583 -0.84308,0.337238 -1.72111,0.699453 -2.38125,1.322917 -0.96178,0.908341 -1.64743,2.074254 -2.38125,3.175 -0.32818,0.492257 -0.79375,1.5875 -0.79375,1.5875"
       style="fill:none;stroke-linecap:round;stroke-linejoin:round" />
    <path
       id="lktg10qoch"
       stroke-width="1.05833"
       stroke="#3d9970"
       d="m -231.77463,84.168194 v 0 c 0,0 -0.23183,-0.08189 -0.26459,0 -0.16701,0.417539 -0.23254,0.874342 -0.26458,1.322917 -0.0566,0.791739 0,1.5875 0,2.38125 0,0.529166 0.0527,1.060952 0,1.5875 -0.0362,0.361817 -0.26458,1.058333 -0.26458,1.058333"
       style="fill:none;stroke-linecap:round;stroke-linejoin:round" />
    <path
       id="lktg10qyrs"
       stroke-width="1.05833"
       stroke="#3d9970"
       d="m -235.74338,86.814027 v 0 c 0,0 -0.35278,0 -0.26459,0 1.14653,0 2.29306,0 3.43959,0 1.05833,0 2.11666,0 3.175,0 0.79375,0 2.38125,0 2.38125,0"
       style="fill:none;stroke-linecap:round;stroke-linejoin:round" />
    <path
       id="lktg10x7ew"
       stroke-width="1.05833"
       stroke="#3d9970"
       d="m -212.72463,82.845277 v 0 c 0,0 0.26458,0.08819 0.26458,0 0,-0.124724 -0.13986,-0.264583 -0.26458,-0.264583 -0.44971,0 -0.90319,0.103161 -1.32292,0.264583 -0.73626,0.283184 -1.48054,0.591847 -2.11667,1.058334 -0.70405,0.516308 -1.30667,1.170331 -1.85208,1.852083 -0.51976,0.649711 -0.985,1.35636 -1.32292,2.116667 -0.37396,0.841428 -0.79375,1.725057 -0.79375,2.645833 0,0.753533 0.49692,1.424067 0.79375,2.116667 0.23306,0.543798 0.42417,1.125511 0.79375,1.5875 0.35278,0.440981 0.80882,0.824653 1.32292,1.058333 0.48838,0.221985 1.05289,0.309139 1.5875,0.264583 0.55586,-0.04633 1.14127,-0.194495 1.5875,-0.529166 0.65049,-0.487866 1.13647,-1.175544 1.5875,-1.852084 0.61298,-0.91948 1.26996,-1.851951 1.5875,-2.910416 0.22808,-0.76028 0.0876,-1.592342 0,-2.38125 -0.0898,-0.808144 -0.31966,-1.595596 -0.52917,-2.38125 -0.14372,-0.538956 -0.33854,-1.063281 -0.52916,-1.5875 -0.16231,-0.446352 -0.31677,-0.898128 -0.52917,-1.322917 -0.14221,-0.284427 -0.26458,-0.617352 -0.52917,-0.79375 -0.30256,-0.201718 -0.69469,-0.264583 -1.05833,-0.264583 -0.27889,0 -0.79375,0.264583 -0.79375,0.264583"
       style="fill:none;stroke-linecap:round;stroke-linejoin:round" />
    <path
       id="lktg10y3lr"
       stroke-width="1.05833"
       stroke="#3d9970"
       d="m -206.63922,93.693194 v 0 c 0,0 0,0 0,0 -0.17639,0.440981 -0.28481,0.91567 -0.52916,1.322917 -0.29055,0.48424 -1.05834,1.322916 -1.05834,1.322916"
       style="fill:none;stroke-linecap:round;stroke-linejoin:round" />
    <path
       id="lktg10yibs"
       stroke-width="1.05833"
       stroke="#3d9970"
       d="m -194.46838,82.580694 v 0 c 0,0 -0.30605,-0.417618 -0.52917,-0.529166 -0.32524,-0.162613 -0.6975,-0.219472 -1.05833,-0.264584 -0.35006,-0.04376 -0.72802,-0.123878 -1.05834,0 -0.41289,0.154834 -0.78286,0.449421 -1.05833,0.79375 -0.44419,0.555228 -0.83348,1.177528 -1.05833,1.852083 -0.22486,0.674556 -0.21005,1.407716 -0.26459,2.116667 -0.0338,0.439685 -0.0487,0.884634 0,1.322917 0.0402,0.361421 0.007,0.801211 0.26459,1.058333 0.25713,0.257122 0.6975,0.219472 1.05833,0.264583 0.35006,0.04376 0.70556,0 1.05833,0 0.35278,0 0.70556,0 1.05834,0 0.35277,0 0.71035,0.058 1.05833,0 0.19452,-0.03241 0.33785,-0.216746 0.52917,-0.264583 0.17112,-0.04278 0.60805,-0.157771 0.52916,0 -0.1422,0.284427 -0.6646,0.238575 -0.79375,0.529167 -0.25328,0.569886 -0.0933,1.252458 -0.26458,1.852083 -0.18452,0.645822 -0.64272,1.19761 -0.79375,1.852083 -0.11899,0.51562 -0.0584,1.061562 0,1.5875 0.0308,0.277178 0.20989,0.520277 0.26458,0.79375 0.0346,0.172958 0.0979,0.382403 0,0.529167 -0.10939,0.164095 -0.33316,0.242808 -0.52916,0.264583 -0.61359,0.06818 -1.23473,0 -1.85209,0 -0.52916,0 -1.06096,0.05265 -1.5875,0 -0.36183,-0.0362 -0.74652,-0.0775 -1.05833,-0.264583 -0.16911,-0.101468 -0.26458,-0.331946 -0.26458,-0.529167 0,-0.278897 0.17639,-0.529166 0.26458,-0.79375 0.0882,-0.264583 0.13986,-0.5443 0.26458,-0.79375 0.14221,-0.284427 0.52917,-0.79375 0.52917,-0.79375"
       style="fill:none;stroke-linecap:round;stroke-linejoin:round" />
    <path
       id="lktg10zkn0"
       stroke-width="1.05833"
       stroke="#3d9970"
       d="m -187.32463,92.899444 v 0 c 0,0 0.15302,-0.208809 0.26458,-0.264583 0.24945,-0.124725 0.59654,-0.06736 0.79375,-0.264584 0.12473,-0.124724 0.0789,-0.686937 0,-0.529166 -0.16262,0.325252 -0.088,0.740463 -0.26458,1.058333 -0.27425,0.49366 -0.71163,0.877147 -1.05834,1.322917 -0.27073,0.348086 -1.10556,0.746522 -0.79375,1.058333 0.33584,0.335836 0.93243,-0.258815 1.32292,-0.529167 0.77082,-0.533638 1.40098,-1.246505 2.11667,-1.852083 0.4311,-0.364781 0.80687,-0.828966 1.32291,-1.058333 0.32238,-0.143272 0.80889,-0.249449 1.05834,0 0.24945,0.249449 0.11156,0.723662 0,1.058333 -0.16263,0.487865 -0.54401,0.873363 -0.79375,1.322917 -0.19155,0.344778 -0.52917,0.663919 -0.52917,1.058333 0,0.19722 0.35678,-0.168804 0.52917,-0.264583 0.62156,-0.345308 1.24911,-0.681488 1.85208,-1.058334 0.80896,-0.505592 1.5875,-1.058333 2.38125,-1.5875 0.52917,-0.352769 0.99701,-0.822139 1.5875,-1.058333 0.32755,-0.131022 0.90057,-0.315542 1.05833,0 0.23992,0.479822 -0.16861,1.059683 -0.26458,1.5875 -0.0805,0.442463 -0.26458,0.873204 -0.26458,1.322917 0,0.363643 -0.0511,0.877914 0.26458,1.058333 0.45945,0.262546 1.07413,0.128349 1.5875,0 0.92152,-0.230373 2.64583,-1.058333 2.64583,-1.058333"
       style="fill:none;stroke-linecap:round;stroke-linejoin:round" />
    <path
       id="lktg110b71"
       stroke-width="1.05833"
       stroke="#3d9970"
       d="m -165.89338,91.047361 v 0 c 0,0 -0.53079,-0.02921 -0.79375,0 -0.53319,0.05924 -1.07546,0.104563 -1.5875,0.264583 -0.90665,0.283316 -1.80634,0.613886 -2.64584,1.058333 -0.67051,0.354965 -1.41701,0.701384 -1.85208,1.322917 -0.25288,0.361262 -0.2823,0.984144 0,1.322917 0.28789,0.345466 0.87321,0.264583 1.32292,0.264583 0.79863,0 1.61897,-0.02646 2.38125,-0.264583 0.67868,-0.21209 1.3493,-0.555546 1.85208,-1.058334 0.33584,-0.335835 0.27745,-0.920168 0.52917,-1.322916 0.19831,-0.317315 0.41957,-0.79375 0.79375,-0.79375 0.44097,0 0.63595,0.667041 1.05833,0.79375 0.50685,0.152056 1.0674,0.09753 1.5875,0 0.90501,-0.169678 1.84787,-0.334328 2.64583,-0.79375 2.14144,-1.232959 4.15034,-2.69666 6.08542,-4.233334 1.07441,-0.853201 2.03824,-1.851342 2.91042,-2.910416 0.3761,-0.456697 0.62374,-1.020816 0.79375,-1.5875 0.10137,-0.3379 0.35062,-1.09728 0,-1.058333 -0.90247,0.100277 -1.6796,0.746574 -2.38125,1.322916 -1.78366,1.465157 -3.56291,2.978044 -5.02709,4.7625 -1.38169,1.683941 -2.68971,3.511153 -3.43958,5.55625 -0.27992,0.763402 -0.13249,1.908625 0.52917,2.38125 0.86418,0.617273 3.175,0.264583 3.175,0.264583"
       style="fill:none;stroke-linecap:round;stroke-linejoin:round" />
    <path
       id="lktg111cz4"
       stroke-width="1.05833"
       stroke="#3d9970"
       d="m -146.04963,93.164027 v 0 c 0,0 -0.15303,-0.208809 -0.26459,-0.264583 -0.0789,-0.03945 -0.3175,-0.07056 -0.26458,0 0.29934,0.399124 0.66452,0.752025 1.05833,1.058333 0.40593,0.315728 0.87642,0.538613 1.32292,0.79375 0.17123,0.09784 0.33196,0.264584 0.52917,0.264584 0.36363,0 0.84015,0.02646 1.05833,-0.264584 0.63939,-0.852514 0.84634,-1.957255 1.32292,-2.910416 0.6705,-1.341014 1.41837,-2.641997 2.11666,-3.96875 0.1837,-0.349039 0.31039,-0.730171 0.52917,-1.058334 0.13838,-0.207565 0.27972,-0.529166 0.52917,-0.529166 0.17639,0 0,0.352769 0,0.529166 0,0.79375 0,1.5875 0,2.38125 0,0.79375 -0.044,1.588717 0,2.38125 0.0443,0.797402 0.15163,1.590649 0.26458,2.38125 0.0636,0.445188 0.0635,0.920697 0.26458,1.322917 0.0882,0.176398 0.36508,0.373962 0.52917,0.264583 0.23207,-0.154702 0.20614,-0.521044 0.26458,-0.79375 0.20662,-0.964168 0.22866,-1.971278 0.52917,-2.910416 0.40942,-1.279419 1.00618,-2.493116 1.5875,-3.704167 0.47821,-0.996262 1.00182,-1.973315 1.5875,-2.910417 0.2993,-0.478869 0.55324,-1.070371 1.05833,-1.322916 0.32526,-0.162613 0.85662,-0.03797 1.05834,0.264583 0.2446,0.366924 0,0.881936 0,1.322917 0,0.440981 0,1.322916 0,1.322916"
       style="fill:none;stroke-linecap:round;stroke-linejoin:round" />
    <path
       id="lktg1129kb"
       stroke-width="1.05833"
       stroke="#3d9970"
       d="m -131.49755,92.899444 v 0 c 0,0 0.0624,-0.202221 0,-0.264583 -0.13944,-0.139436 -0.33465,-0.232172 -0.52917,-0.264584 -0.34798,-0.058 -0.70556,0 -1.05833,0 -0.52917,0 -1.0645,-0.08046 -1.5875,0 -0.6346,0.09763 -1.28677,0.224764 -1.85208,0.529167 -0.60648,0.326575 -1.25299,0.720778 -1.5875,1.322917 -0.17661,0.31787 -0.0313,0.846984 0.26458,1.058333 0.43654,0.311811 1.05103,0.264583 1.5875,0.264583 0.71104,0 1.44703,-0.0254 2.11667,-0.264583 0.59893,-0.213916 1.11217,-0.63582 1.5875,-1.058333 0.32959,-0.292973 0.51826,-0.714005 0.79375,-1.058334 0.0779,-0.09739 0.13986,-0.264583 0.26458,-0.264583 0.0882,0 0.0394,0.185711 0,0.264583 -0.318,0.635979 -0.81534,1.183852 -1.05833,1.852084 -0.12057,0.331549 -0.24945,0.808884 0,1.058333 0.39441,0.394414 1.5875,0.529167 1.5875,0.529167"
       style="fill:none;stroke-linecap:round;stroke-linejoin:round" />
    <path
       id="lktg112y3w"
       stroke-width="1.05833"
       stroke="#3d9970"
       d="m -126.20588,95.016111 v 0 c 0,0 0,0 0,0 0.17639,-0.264584 0.23688,-0.668497 0.52916,-0.79375 0.40532,-0.173699 0.88194,0 1.32292,0 0.35277,0 0.80888,-0.249449 1.05833,0 0.24945,0.249449 0.20749,0.773033 0,1.058333 -0.55142,0.758216 -1.40485,1.241954 -2.11666,1.852083 -0.52301,0.448284 -1.04378,0.900033 -1.5875,1.322917 -0.25101,0.195236 -0.93597,0.24474 -0.79375,0.529167 0.15777,0.315542 0.70829,0.04376 1.05833,0 0.36084,-0.04511 0.69469,-0.264584 1.05833,-0.264584 0.36365,0 0.69692,0.22442 1.05834,0.264584 0.43828,0.04871 0.88463,0.04871 1.32291,0 0.36142,-0.04016 1.05834,-0.264584 1.05834,-0.264584"
       style="fill:none;stroke-linecap:round;stroke-linejoin:round" />
    <path
       id="lktg113sn4"
       stroke-width="1.05833"
       stroke="#3d9970"
       d="m -108.74338,82.580694 v 0 c 0,0 0.26458,-0.79375 0,-0.79375 -0.31801,0 -0.31221,0.561287 -0.52917,0.79375 -1.02124,1.094185 -2.27698,1.977628 -3.175,3.175 -1.23423,1.645629 -2.30875,3.425931 -3.175,5.291667 -0.29943,0.644922 -0.44778,1.429623 -0.26458,2.116666 0.19547,0.733055 0.66421,1.475687 1.32291,1.852084 0.69342,0.39624 1.59065,0.377534 2.38125,0.264583 1.10437,-0.157771 2.26267,-0.416322 3.175,-1.058333 1.53004,-1.076696 2.89206,-2.438718 3.96875,-3.96875 0.64201,-0.912337 0.86448,-2.076397 1.05834,-3.175 0.0781,-0.44286 0.0952,-1.053095 -0.26459,-1.322917 -0.4989,-0.374174 -1.24708,-0.415845 -1.85208,-0.264583 -0.8809,0.220239 -1.73919,0.680852 -2.38125,1.322916 -0.318,0.318003 -0.26458,1.322917 -0.26458,1.322917"
       style="fill:none;stroke-linecap:round;stroke-linejoin:round" />
    <path
       id="lktg114gi5"
       stroke-width="1.05833"
       stroke="#3d9970"
       d="m -104.77463,93.957777 v 0 c 0,0 -0.26459,-0.139858 -0.26459,-0.264583 0,-0.08819 0.1764,0 0.26459,0 0.52916,0 1.07092,0.114803 1.5875,0 0.31041,-0.06898 0.49207,-0.428599 0.79375,-0.529167 0.25101,-0.08366 0.57359,-0.146764 0.79375,0 0.14676,0.09784 0.0978,0.382403 0,0.529167 -0.27676,0.415105 -0.70557,0.705564 -1.05834,1.058333 -0.44098,0.440981 -0.8536,0.912257 -1.32291,1.322917 -0.23932,0.209391 -0.60296,0.27477 -0.79375,0.529167 -0.10584,0.141102 -0.12473,0.404442 0,0.529166 0.19722,0.197221 0.52318,0.19693 0.79375,0.264584 0.43627,0.109061 0.88392,0.167031 1.32291,0.264583 0.35497,0.07887 0.76743,0.04641 1.05834,0.264583 0.1411,0.105834 0.14676,0.431324 0,0.529167 -0.46411,0.309404 -1.0622,0.341551 -1.5875,0.529167 -0.70964,0.253444 -1.38563,0.611002 -2.11667,0.79375 -0.34224,0.08557 -1.05833,0 -1.05833,0"
       style="fill:none;stroke-linecap:round;stroke-linejoin:round" />
    <path
       id="lktg1174c7"
       stroke-width="1.05833"
       stroke="#3d9970"
       d="m -92.868384,84.432777 v 0 c 0,0 -0.153035,-0.320357 -0.264583,-0.264583 -0.176398,0.08819 -0.212699,0.338905 -0.264584,0.529167 -0.213942,0.784463 -0.395499,1.579192 -0.529166,2.38125 -0.131287,0.78777 -0.125783,1.594776 -0.264584,2.38125 -0.126391,0.7162 -0.529166,2.116666 -0.529166,2.116666"
       style="fill:none;stroke-linecap:round;stroke-linejoin:round" />
    <path
       id="lktg117du8"
       stroke-width="1.05833"
       stroke="#3d9970"
       d="m -98.953801,87.607777 v 0 c 0,0 0.529167,0 0.79375,0 0.529167,0 1.059075,-0.02781 1.5875,0 1.148319,0.06043 2.289678,0.264584 3.439584,0.264584 1.237879,0 3.704166,-0.264584 3.704166,-0.264584"
       style="fill:none;stroke-linecap:round;stroke-linejoin:round" />
    <path
       id="lktg11c2sy"
       stroke-width="1.05833"
       stroke="#3d9970"
       d="m -77.787134,88.666111 v 0 c 0,0 -0.57195,0.171132 -0.529167,0 0.106945,-0.427805 0.534379,-0.701702 0.79375,-1.058334 0.44622,-0.613568 0.832856,-1.27291 1.322917,-1.852083 0.483394,-0.571288 1.03124,-1.086882 1.5875,-1.5875 0.327766,-0.294984 0.663919,-0.99097 1.058333,-0.79375 0.394415,0.197221 0.02752,0.882809 0,1.322917 -0.06077,0.972238 -0.07353,1.955191 -0.264583,2.910416 -0.251831,1.259205 -0.705565,2.469436 -1.058333,3.704167 -0.176398,0.617352 -0.263473,1.267566 -0.529167,1.852083 -0.182483,0.401453 -0.79375,1.058334 -0.79375,1.058334"
       style="fill:none;stroke-linecap:round;stroke-linejoin:round" />
    <path
       id="lktg11ci36"
       stroke-width="1.05833"
       stroke="#3d9970"
       d="m -71.701718,92.899444 v 0 c 0,0 0.243205,-0.08557 0.264584,0 0.08557,0.342239 0.111548,0.723662 0,1.058333 -0.249449,0.748348 -0.826347,1.36271 -1.058334,2.116667 -0.129672,0.421481 0,1.322917 0,1.322917"
       style="fill:none;stroke-linecap:round;stroke-linejoin:round" />
    <path
       id="lktg11ctjv"
       stroke-width="1.05833"
       stroke="#3d9970"
       d="m -57.678801,84.432777 v 0 c 0,0 0.07887,-0.371395 0,-0.529166 -0.111548,-0.223123 -0.279718,-0.529167 -0.529167,-0.529167 -0.474953,0 -0.910563,0.293529 -1.322916,0.529167 -0.828278,0.473313 -1.726221,0.893948 -2.38125,1.5875 -0.873363,0.924719 -1.586707,2.018718 -2.116667,3.175 -0.454528,0.991711 -0.851085,2.085604 -0.79375,3.175 0.03736,0.710062 0.608065,1.301776 1.058333,1.852083 0.357611,0.437065 0.783167,0.892254 1.322917,1.058333 0.674344,0.207487 1.456029,0.24773 2.116667,0 0.825791,-0.309668 1.493043,-0.963877 2.116666,-1.5875 0.886354,-0.886354 1.858989,-1.770935 2.38125,-2.910416 0.483315,-1.054524 0.47879,-2.280656 0.529167,-3.439584 0.0385,-0.885507 0.04662,-1.815914 -0.264583,-2.645833 -0.241856,-0.644975 -0.835846,-1.100428 -1.322917,-1.5875 -0.311812,-0.311811 -1.058333,-0.79375 -1.058333,-0.79375"
       style="fill:none;stroke-linecap:round;stroke-linejoin:round" />
    <path
       id="lktg11dlmb"
       stroke-width="1.05833"
       stroke="#3d9970"
       d="m -43.655885,91.576527 v 0 c 0,0 0.352769,-0.176397 0.529167,-0.264583 0.176398,-0.08819 0.529167,-0.461804 0.529167,-0.264583 0,0.249449 -0.384175,0.326178 -0.529167,0.529166 -0.2989,0.418465 -0.449739,0.940673 -0.79375,1.322917 -0.460798,0.511995 -1.133898,0.804519 -1.5875,1.322917 -0.183647,0.209894 -0.54348,0.79375 -0.264583,0.79375 0.51427,0 0.862938,-0.563774 1.322916,-0.79375 0.776923,-0.388462 1.58287,-0.716174 2.38125,-1.058334 1.053836,-0.451643 2.087298,-0.960358 3.175,-1.322916 0.508926,-0.169651 1.051031,-0.264584 1.5875,-0.264584 0.363644,0 0.998564,-0.09411 1.058334,0.264584 0.08453,0.507259 -0.508503,0.895032 -0.79375,1.322916 -0.244608,0.366925 -0.537448,0.699506 -0.79375,1.058334 -0.184838,0.258762 -0.84717,0.79375 -0.529167,0.79375 0.514271,0 0.857594,-0.574781 1.322917,-0.79375 1.037404,-0.488183 2.121164,-0.871273 3.175,-1.322917 0.79838,-0.342159 1.582869,-0.716174 2.38125,-1.058333 0.436536,-0.187087 0.847963,-0.529167 1.322916,-0.529167 0.176398,0 0.02487,0.354542 0,0.529167 -0.06361,0.445188 -0.146261,0.889053 -0.264583,1.322916 -0.146764,0.538136 -0.805921,1.103207 -0.529167,1.5875 0.266171,0.465773 1.051031,0.264584 1.5875,0.264584 0.449713,0 1.322917,-0.264584 1.322917,-0.264584"
       style="fill:none;stroke-linecap:round;stroke-linejoin:round" />
    <path
       id="lktg11ecrq"
       stroke-width="1.05833"
       stroke="#3d9970"
       d="m -20.901718,91.047361 v 0 c 0,0 -0.279718,-0.529167 -0.529167,-0.529167 -0.394414,0 -0.705564,0.352769 -1.058333,0.529167 -0.529167,0.264583 -1.095243,0.465587 -1.5875,0.79375 -0.573141,0.382084 -1.146519,0.79375 -1.5875,1.322916 -0.455189,0.546233 -0.871247,1.166098 -1.058333,1.852084 -0.09567,0.350811 -0.09038,0.979461 0.264583,1.058333 0.709956,0.157771 1.426713,-0.299191 2.116667,-0.529167 0.637196,-0.212407 1.305533,-0.403357 1.852083,-0.79375 0.710459,-0.50747 1.29921,-1.176364 1.852083,-1.852083 0.249767,-0.30525 0.25027,-0.779436 0.529167,-1.058333 0.124724,-0.124725 0.404442,-0.124725 0.529166,0 0.124725,0.124724 -0.137742,0.418967 0,0.529166 0.370867,0.296704 0.849922,0.486172 1.322917,0.529167 0.534273,0.04858 1.084104,-0.07914 1.5875,-0.264583 1.184884,-0.436536 2.405089,-0.863362 3.439583,-1.5875 1.638062,-1.146652 3.053001,-2.586646 4.497917,-3.96875 0.5875867,-0.562055 1.2510294,-1.111859 1.5875,-1.852084 0.1504685,-0.331046 0.09906,-1.058333 -0.2645834,-1.058333 -0.9498806,0 -1.8554699,0.531442 -2.6458336,1.058333 -1.879494,1.253014 -3.719935,2.610909 -5.291666,4.233334 -1.191498,1.229942 -2.262029,2.648399 -2.910417,4.233333 -0.21119,0.516255 0.05085,1.300506 0.529167,1.5875 1.008988,0.605393 3.439583,0.79375 3.439583,0.79375"
       style="fill:none;stroke-linecap:round;stroke-linejoin:round" />
    <path
       id="lktg11fasx"
       stroke-width="1.05833"
       stroke="#3d9970"
       d="m 9.7899481,82.845277 v 0 c 0,0 0.086995,-0.279082 0,-0.264583 -0.550201,0.09171 -1.1574727,0.173911 -1.5875,0.529167 -1.6347016,1.350407 -3.1733595,2.842207 -4.4979166,4.497916 -1.1622352,1.452775 -2.2194573,3.035115 -2.91041662,4.7625 -0.23161625,0.579015 -0.17639771,1.411103 0.26458332,1.852084 0.6716713,0.671671 1.7032817,0.940514 2.6458333,1.058333 1.2283017,0.153538 2.5335441,0.137821 3.7041666,-0.264583 1.7174104,-0.590365 3.4552469,-1.385253 4.7624999,-2.645834 1.252141,-1.207426 1.916906,-2.918539 2.645833,-4.497916 0.340731,-0.738267 0.529167,-1.568133 0.529167,-2.38125 0,-0.557795 -0.105648,-1.224492 -0.529167,-1.5875 -0.334803,-0.286994 -0.9067,-0.14568 -1.322916,0 -1.377924,0.482282 -2.762568,1.029679 -3.9687502,1.852083 -0.7745942,0.528135 -1.8520833,2.116667 -1.8520833,2.116667"
       style="fill:none;stroke-linecap:round;stroke-linejoin:round" />
    <path
       id="lktg11fzj7"
       stroke-width="1.05833"
       stroke="#3d9970"
       d="m 15.610781,93.957777 v 0 c 0,0 -0.264583,0.08819 -0.264583,0 0,-0.124724 0.176398,-0.176397 0.264583,-0.264583 0.176398,-0.176398 0.285645,-0.475059 0.529167,-0.529167 0.602668,-0.133932 1.234731,0 1.852083,0 0.529167,0 1.101117,-0.208438 1.5875,0 0.256355,0.109855 0.304033,0.517658 0.264584,0.79375 -0.05577,0.390446 -0.25027,0.779436 -0.529167,1.058334 -0.623623,0.623623 -1.39155,1.085479 -2.116667,1.5875 -0.42283,0.292708 -0.876405,0.538612 -1.322916,0.79375 -0.171239,0.09784 -0.389732,0.125148 -0.529167,0.264583 -0.224843,0.224843 -0.75401,0.568907 -0.529167,0.79375 0.311812,0.311811 0.887942,0.0725 1.322917,0 0.633333,-0.105542 1.852083,-0.529167 1.852083,-0.529167"
       style="fill:none;stroke-linecap:round;stroke-linejoin:round" />
    <path
       id="lktg1zadqk"
       stroke-width="1.05833"
       stroke="#7fdbff"
       d="m -337.0788,108.77444 v 0 c 0,0 -0.17639,0 -0.26458,0 -0.0882,0 -0.17639,0 -0.26458,0 -0.26459,0 -0.52917,0 -0.79375,0 -0.35278,0 -0.70772,0.0389 -1.05834,0 -0.44695,-0.0497 -0.87476,-0.22722 -1.32291,-0.26458 -0.61523,-0.0513 -1.2363,0.044 -1.85209,0 -0.62204,-0.0444 -1.23227,-0.19571 -1.85208,-0.26458 -0.17531,-0.0196 -0.3714,0.0789 -0.52917,0 -0.0789,-0.0394 -0.0689,-0.2095 0,-0.26459 0.40157,-0.32125 0.87642,-0.53861 1.32292,-0.79375 0.78838,-0.4505 1.56909,-0.91683 2.38125,-1.32291 0.77691,-0.38846 1.64149,-0.60309 2.38125,-1.05834 0.42489,-0.26146 0.66875,-0.74668 1.05833,-1.05833 0.0689,-0.0551 0.26459,-0.0882 0.26459,0 0,0.62362 -0.083,1.25547 -0.26459,1.85208 -0.4388,1.44177 -1.1957,2.7781 -1.5875,4.23334 -0.23042,0.85587 -0.1298,1.7698 -0.26458,2.64583 -0.0424,0.27564 -0.26458,0.79375 -0.26458,0.79375"
       style="fill:none;stroke-linecap:round;stroke-linejoin:round" />
    <path
       id="lktg1zb96s"
       stroke-width="1.05833"
       stroke="#7fdbff"
       d="m -332.58088,113.27236 v 0 c 0,0 0.28597,-0.0856 0.26458,0 -0.0957,0.38264 -0.36388,0.70022 -0.52916,1.05833 -0.364,0.78867 -1.05834,2.38125 -1.05834,2.38125"
       style="fill:none;stroke-linecap:round;stroke-linejoin:round" />
    <path
       id="lktg1zbpe7"
       stroke-width="1.05833"
       stroke="#7fdbff"
       d="m -318.82255,104.01194 v 0 c 0,0 0.68693,0.0789 0.52917,0 -0.32525,-0.16261 -0.71336,-0.14959 -1.05833,-0.26458 -0.45057,-0.15018 -0.88195,-0.35277 -1.32292,-0.52917 -0.44097,-0.17639 -0.84798,-0.52916 -1.32292,-0.52916 -0.24945,0 -0.37333,0.33438 -0.52916,0.52916 -0.19865,0.24832 -0.39759,0.50427 -0.52917,0.79375 -0.31182,0.68599 -0.56899,1.39743 -0.79375,2.11667 -0.21693,0.69416 -0.46877,1.39192 -0.52917,2.11667 -0.0302,0.36237 0.007,0.80121 0.26459,1.05833 0.25713,0.25712 0.69469,0.26458 1.05833,0.26458 0.53647,0 1.06994,-0.12342 1.5875,-0.26458 0.4582,-0.12496 0.86215,-0.41397 1.32292,-0.52917 0.25668,-0.0642 0.79375,-0.26458 0.79375,0 0,0.51427 -0.59596,0.84823 -0.79375,1.32292 -0.24695,0.59267 -0.44431,1.21566 -0.52917,1.85208 -0.0933,0.69938 0.0639,1.41402 0,2.11667 -0.0252,0.27776 -0.21873,0.51864 -0.26458,0.79375 -0.0435,0.26099 0.15875,0.58208 0,0.79375 -0.16734,0.22312 -0.51701,0.23 -0.79375,0.26458 -0.43757,0.0547 -0.88195,0 -1.32292,0 -0.35278,0 -0.70556,0 -1.05833,0 -0.26459,0 -0.52917,0 -0.79375,0 -0.0882,0 -0.20223,0.0624 -0.26459,0 -0.0624,-0.0624 0,-0.17639 0,-0.26458 0,-0.26458 0,-0.52917 0,-0.79375 0,-0.26458 0,-0.52917 0,-0.79375 0,-0.1764 0.0428,-0.35803 0,-0.52917 -0.0478,-0.19132 -0.26458,-0.52916 -0.26458,-0.52916"
       style="fill:none;stroke-linecap:round;stroke-linejoin:round" />
    <path
       id="lktg1zds410"
       stroke-width="1.05833"
       stroke="#7fdbff"
       d="m -310.88505,108.50986 v 0 c 0,0 0,0 0,0 0.17639,0.26458 0.25951,0.62521 0.52917,0.79375 0.47301,0.29562 1.0999,0.25829 1.5875,0.52917 0.32709,0.18171 0.79375,0.79375 0.79375,0.79375"
       style="fill:none;stroke-linecap:round;stroke-linejoin:round" />
    <path
       id="lktg1zdzvq"
       stroke-width="1.05833"
       stroke="#7fdbff"
       d="m -311.94338,111.15569 v 0 c 0,0 -0.33797,0.0489 -0.26458,0 0.32817,-0.21878 0.70555,-0.35277 1.05833,-0.52916 0.52917,-0.26459 1.04138,-0.56621 1.5875,-0.79375 0.51488,-0.21453 1.5875,-0.52917 1.5875,-0.52917"
       style="fill:none;stroke-linecap:round;stroke-linejoin:round" />
    <path
       id="lktg1ze7rn"
       stroke-width="1.05833"
       stroke="#7fdbff"
       d="m -308.23921,107.45153 v 0 c 0,0 0,0 0,0 -0.0882,0.26458 -0.20409,0.52149 -0.26459,0.79375 -0.11637,0.52369 -0.22636,1.0524 -0.26458,1.5875 -0.0503,0.70376 0,2.11666 0,2.11666"
       style="fill:none;stroke-linecap:round;stroke-linejoin:round" />
    <path
       id="lktg1zexqd"
       stroke-width="1.05833"
       stroke="#7fdbff"
       d="m -297.92046,108.24528 v 0 c 0,0 -0.98084,0.18708 -0.79375,0 0.58833,-0.58833 1.42437,-0.86141 2.11666,-1.32292 0.63126,-0.42085 1.23852,-0.8767 1.85209,-1.32292 0.35662,-0.25937 0.61736,-0.79375 1.05833,-0.79375 0.27889,0 0.26458,0.51486 0.26458,0.79375 0,0.97415 -0.1869,1.93937 -0.26458,2.91042 -0.0987,1.23394 -0.15251,2.47139 -0.26458,3.70417 -0.0644,0.70813 -0.26459,2.11666 -0.26459,2.11666"
       style="fill:none;stroke-linecap:round;stroke-linejoin:round" />
    <path
       id="lktg1zfwhp"
       stroke-width="1.05833"
       stroke="#7fdbff"
       d="m -233.09755,105.86403 v 0 c 0,0 -0.24319,-0.0856 -0.26458,0 -0.0856,0.34224 0.0271,0.70659 0,1.05833 -0.0613,0.79629 -0.22029,1.58385 -0.26459,2.38125 -0.044,0.79253 0,2.38125 0,2.38125"
       style="fill:none;stroke-linecap:round;stroke-linejoin:round" />
    <path
       id="lktg1zg4f7"
       stroke-width="1.05833"
       stroke="#7fdbff"
       d="m -237.86005,110.09736 v 0 c 0,0 -0.36836,-0.19539 -0.26458,-0.26458 0.30256,-0.20172 0.69532,-0.24323 1.05833,-0.26459 1.14455,-0.0673 2.29374,-0.0395 3.43958,0 1.41303,0.0487 4.23334,0.26459 4.23334,0.26459"
       style="fill:none;stroke-linecap:round;stroke-linejoin:round" />
    <path
       id="lktg1zgl5o"
       stroke-width="1.05833"
       stroke="#7fdbff"
       d="m -213.78297,105.86403 v 0 c 0,0 0.59153,-0.0775 0.52917,-0.26459 -0.10056,-0.30167 -0.4777,-0.56427 -0.79375,-0.52916 -0.58801,0.0653 -1.16916,0.37541 -1.5875,0.79375 -0.76123,0.76123 -1.4103,1.66409 -1.85208,2.64583 -0.36909,0.82018 -0.67703,1.75866 -0.52917,2.64583 0.13679,0.82071 0.6573,1.61745 1.32292,2.11667 0.4989,0.37417 1.2574,0.45239 1.85208,0.26458 1.16836,-0.36896 2.46679,-0.85225 3.175,-1.85208 0.90333,-1.27529 1.05514,-2.95823 1.32292,-4.49792 0.0919,-0.52853 0.0705,-1.16858 -0.26459,-1.5875 -0.44418,-0.55522 -1.15924,-0.89844 -1.85208,-1.05833 -0.52273,-0.12062 -1.07168,0.11721 -1.5875,0.26458 -0.11993,0.0343 -0.26458,0.26459 -0.26458,0.26459"
       style="fill:none;stroke-linecap:round;stroke-linejoin:round" />
    <path
       id="lktg1zh5t4"
       stroke-width="1.05833"
       stroke="#7fdbff"
       d="m -203.99338,112.47861 v 0 c 0,0 0,0 0,0 -0.26459,0.52917 -0.48525,1.08268 -0.79375,1.5875 -0.66327,1.08535 -1.54783,2.03732 -2.11667,3.175 -0.15776,0.31554 0,1.05833 0,1.05833"
       style="fill:none;stroke-linecap:round;stroke-linejoin:round" />
    <path
       id="lktg1zhi7m"
       stroke-width="1.05833"
       stroke="#7fdbff"
       d="m -189.97047,104.54111 v 0 c 0,0 -0.0468,-0.61952 -0.26458,-0.79375 -0.28395,-0.22717 -0.70556,-0.1764 -1.05833,-0.26458 -0.35278,-0.0882 -0.6947,-0.26459 -1.05834,-0.26459 -0.36363,0 -0.78467,0.0251 -1.05833,0.26459 -0.47862,0.41878 -0.7428,1.03531 -1.05833,1.5875 -0.39137,0.6849 -0.87766,1.34879 -1.05834,2.11666 -0.1818,0.77267 -0.23343,1.62261 0,2.38125 0.14672,0.47684 0.62222,0.81606 1.05834,1.05834 0.39311,0.21838 0.87476,0.22722 1.32291,0.26458 0.61523,0.0513 1.23686,0.0513 1.85209,0 0.44815,-0.0374 0.92069,-0.0635 1.32291,-0.26458 0.17639,-0.0882 0.35278,-0.70557 0.26459,-0.52917 -0.35278,0.70556 -0.78136,1.37806 -1.05834,2.11667 -0.25536,0.68096 -0.31528,1.42155 -0.52916,2.11666 -0.13968,0.45395 -0.37898,0.87236 -0.52917,1.32292 -0.11499,0.34496 -0.12953,0.7207 -0.26458,1.05833 -0.0463,0.11581 -0.14156,0.24408 -0.26459,0.26459 -0.43497,0.0725 -0.88194,0 -1.32291,0 -0.35278,0 -0.7091,0.0499 -1.05834,0 -0.27609,-0.0395 -0.59654,-0.0674 -0.79375,-0.26459 -0.19721,-0.19722 -0.26458,-0.51485 -0.26458,-0.79375 0,-0.19722 0.22591,-0.33578 0.26458,-0.52916 0.0519,-0.25945 0,-0.52917 0,-0.79375 0,-0.0882 0,-0.26459 0,-0.26459"
       style="fill:none;stroke-linecap:round;stroke-linejoin:round" />
    <path
       id="lktg1zisgk"
       stroke-width="1.05833"
       stroke="#7fdbff"
       d="m -177.53505,107.18694 v 0 c 0,0 0,0 0,0 0.26458,0.26459 0.4729,0.60124 0.79375,0.79375 0.57595,0.34558 1.23831,0.52097 1.85208,0.79375 0.97381,0.43281 2.91042,1.32292 2.91042,1.32292"
       style="fill:none;stroke-linecap:round;stroke-linejoin:round" />
    <path
       id="lktg1zizw10"
       stroke-width="1.05833"
       stroke="#7fdbff"
       d="m -177.00588,110.89111 v 0 c 0,0 -0.96109,-0.0415 -0.79375,-0.26458 0.35497,-0.47332 1.01745,-0.6354 1.5875,-0.79375 1.03379,-0.28716 2.1341,-0.26895 3.175,-0.52917 0.73103,-0.18275 2.11666,-0.79375 2.11666,-0.79375"
       style="fill:none;stroke-linecap:round;stroke-linejoin:round" />
    <path
       id="lktg1zj84h"
       stroke-width="1.05833"
       stroke="#7fdbff"
       d="m -172.77255,106.39319 v 0 c 0,0 0,0 0,0 -0.0882,0.1764 -0.2104,0.33954 -0.26458,0.52917 -0.12355,0.43241 -0.23467,0.87421 -0.26459,1.32292 -0.0587,0.88 0,2.64583 0,2.64583"
       style="fill:none;stroke-linecap:round;stroke-linejoin:round" />
    <path
       id="lktg1zjyqt"
       stroke-width="1.05833"
       stroke="#7fdbff"
       d="m -154.78088,105.86403 v 0 c 0,0 -0.35278,0 -0.26459,0 0.79375,0 1.5875,0 2.38125,0 0.79375,0 1.5875,0 2.38125,0 0.26459,0 0.52917,0 0.79375,0 0.17639,0 0.65389,-0.12473 0.52917,0 -0.19721,0.19722 -0.56169,0.10988 -0.79375,0.26458 -0.57313,0.38209 -1.04962,0.89263 -1.5875,1.32292 -0.78522,0.62817 -1.57679,1.24872 -2.38125,1.85208 -0.60694,0.45522 -1.25322,0.85714 -1.85208,1.32292 -0.19691,0.15314 -0.41761,0.30604 -0.52917,0.52916 -0.0789,0.15777 -0.0558,0.36182 0,0.52917 0.0394,0.11832 0.14358,0.23434 0.26458,0.26458 0.60501,0.15127 1.26479,0.0548 1.85209,0.26459 0.66962,0.23915 1.2161,0.74033 1.85208,1.05833 0.77691,0.38846 1.59258,0.69435 2.38125,1.05833 0.35812,0.16529 0.96267,0.14653 1.05833,0.52917 0.0771,0.3085 -0.4949,0.4205 -0.79375,0.52917 -0.68348,0.24855 -1.40352,0.38653 -2.11666,0.52916 -1.0521,0.21043 -2.10207,0.52917 -3.175,0.52917 -0.81312,0 -2.38125,-0.52917 -2.38125,-0.52917"
       style="fill:none;stroke-linecap:round;stroke-linejoin:round" />
    <path
       id="lktg1zkz6r"
       stroke-width="1.05833"
       stroke="#7fdbff"
       d="m -94.720467,107.18694 v 0 c 0,0 0,0 0,0 0,0.0882 0,0.1764 0,0.26459 0,0.79375 0.07186,1.59075 0,2.38125 -0.105013,1.15525 -0.529167,2.27957 -0.529167,3.43958 0,0.39441 0.529167,1.05833 0.529167,1.05833"
       style="fill:none;stroke-linecap:round;stroke-linejoin:round" />
    <path
       id="lktg1zl6yd"
       stroke-width="1.05833"
       stroke="#7fdbff"
       d="m -98.953801,111.94944 v 0 c 0,0 -0.943345,0.0804 -1.058329,-0.26458 -0.10057,-0.30168 0.478204,-0.48972 0.793746,-0.52917 1.137682,-0.14221 2.293064,0 3.439583,0 1.411103,0 4.233334,0 4.233334,0"
       style="fill:none;stroke-linecap:round;stroke-linejoin:round" />
    <path
       id="lktg1zlpa6"
       stroke-width="1.05833"
       stroke="#7fdbff"
       d="m -71.437134,109.30361 v 0 c 0,0 -0.389308,0.26458 -0.264584,0.26458 0.197221,0 0.352769,-0.17639 0.529167,-0.26458 0.881936,-0.44098 1.789695,-0.8337 2.645833,-1.32292 0.998406,-0.57052 1.962838,-1.20062 2.910417,-1.85208 0.465349,-0.31993 0.763879,-0.97848 1.322917,-1.05833 0.314801,-0.045 0.50038,0.47707 0.529166,0.79375 0.06437,0.70813 -0.205528,1.40808 -0.264583,2.11666 -0.117422,1.40899 -0.08922,2.83038 -0.264583,4.23334 -0.0902,0.72165 -0.529167,2.11666 -0.529167,2.11666"
       style="fill:none;stroke-linecap:round;stroke-linejoin:round" />
    <path
       id="lktg1znh4v"
       stroke-width="1.05833"
       stroke="#7fdbff"
       d="m -60.060051,114.33069 v 0 c 0,0 0.529167,-0.17639 0.529167,0 0,0.39442 -0.425397,0.67781 -0.529167,1.05834 -0.164095,0.60166 -0.264583,1.85208 -0.264583,1.85208"
       style="fill:none;stroke-linecap:round;stroke-linejoin:round" />
    <path
       id="lktg1znpo1"
       stroke-width="1.05833"
       stroke="#7fdbff"
       d="m -47.889218,105.86403 v 0 c 0,0 0.187087,-0.60667 0,-0.79375 -0.187087,-0.18709 -0.570521,-0.14206 -0.79375,0 -0.790945,0.50334 -1.538869,1.11379 -2.116666,1.85208 -1.025578,1.31046 -2.02782,2.6883 -2.645834,4.23333 -0.294799,0.73697 -0.389149,1.68945 0,2.38125 0.492998,0.87644 1.395201,1.65487 2.38125,1.85209 0.986049,0.19722 2.073725,-0.23596 2.910417,-0.79375 1.090903,-0.72726 2.05949,-1.73773 2.645833,-2.91042 0.518769,-1.03756 0.639154,-2.28478 0.529167,-3.43958 -0.0748,-0.78529 -0.548799,-1.51448 -1.058334,-2.11667 -0.490061,-0.57917 -1.285028,-0.81888 -1.852083,-1.32292 -0.237675,-0.21127 -0.529167,-0.79375 -0.529167,-0.79375"
       style="fill:none;stroke-linecap:round;stroke-linejoin:round" />
    <path
       id="lktg1zogmu"
       stroke-width="1.05833"
       stroke="#7fdbff"
       d="m -33.072551,107.98069 v 0 c 0,0 0,0 0,0 0.264583,0.1764 0.533241,0.34682 0.79375,0.52917 0.621532,0.43508 1.220814,0.90207 1.852083,1.32292 0.427884,0.28524 1.322917,0.79375 1.322917,0.79375"
       style="fill:none;stroke-linecap:round;stroke-linejoin:round" />
    <path
       id="lktg1zonf7"
       stroke-width="1.05833"
       stroke="#7fdbff"
       d="m -33.072551,110.89111 v 0 c 0,0 0.156289,-0.2027 0.264583,-0.26458 0.513689,-0.29353 1.035315,-0.58137 1.5875,-0.79375 0.599281,-0.23048 1.852083,-0.52917 1.852083,-0.52917"
       style="fill:none;stroke-linecap:round;stroke-linejoin:round" />
    <path
       id="lktg1zouoi"
       stroke-width="1.05833"
       stroke="#7fdbff"
       d="m -29.897551,107.18694 v 0 c 0,0 -0.20881,0.15304 -0.264584,0.26459 -0.300381,0.60076 -0.642726,1.19761 -0.79375,1.85208 -0.118983,0.51562 0,1.5875 0,1.5875"
       style="fill:none;stroke-linecap:round;stroke-linejoin:round" />
    <path
       id="lktg1zpegt"
       stroke-width="1.05833"
       stroke="#7fdbff"
       d="m -3.4392184,104.01194 v 0 c 0,0 -1.0583333,0 -1.5875,0 -0.3527689,0 -1.4054137,0.0631 -1.0583333,0 1.3131006,-0.23873 2.64033,-0.4006 3.96875,-0.52916 1.40729222,-0.13618 2.82363325,-0.37301 4.2333332,-0.26459 0.9180777,0.0706 2.1720969,0.004 2.6458333,0.79375 0.5463911,0.91067 0.2661179,2.2551 -0.2645833,3.175 -0.8725958,1.51249 -2.3406364,2.61335 -3.70416662,3.70417 -0.86291207,0.69032 -1.93376018,1.07045 -2.91041658,1.5875 -0.5228696,0.27681 -1.0952427,0.46559 -1.5875,0.79375 -0.3113352,0.20757 -0.961099,0.45908 -0.79375,0.79375 0.2011098,0.40222 0.8740775,0.23654 1.3229166,0.26458 0.9682427,0.0605 1.940269,0 2.91041666,0 0.88193561,0 2.64583334,0 2.64583334,0"
       style="fill:none;stroke-linecap:round;stroke-linejoin:round" />
    <path
       id="lktg1zq5i0"
       stroke-width="1.05833"
       stroke="#7fdbff"
       d="m 24.606615,107.45153 v 0 c 0,0 -1.058334,0 -1.5875,0 -0.08819,0 -0.352769,0 -0.264584,0 0.970148,0 1.940269,0 2.910417,0 1.940269,0 5.820833,0 5.820833,0"
       style="fill:none;stroke-linecap:round;stroke-linejoin:round" />
    <path
       id="lktg1zqdak"
       stroke-width="1.05833"
       stroke="#7fdbff"
       d="m 24.606615,110.62653 v 0 c 0,0 -0.971762,-0.0164 -1.322917,0.26458 -0.206613,0.16529 -0.236643,0.67543 0,0.79375 0.635979,0.318 1.408298,0.20299 2.116667,0.26458 1.320879,0.11486 3.96875,0.26459 3.96875,0.26459"
       style="fill:none;stroke-linecap:round;stroke-linejoin:round" />
    <path
       id="lktg1zqobq"
       stroke-width="1.05833"
       stroke="#7fdbff"
       d="m 46.037864,108.24528 v 0 c 0,0 -2.293064,0 -3.439583,0 -0.617352,0 1.234731,0 1.852083,0 1.322917,0 3.96875,0 3.96875,0"
       style="fill:none;stroke-linecap:round;stroke-linejoin:round" />
    <path
       id="lktg1zqvfu"
       stroke-width="1.05833"
       stroke="#7fdbff"
       d="m 43.656614,112.21403 v 0 c 0,0 -1.632902,0.41957 -2.38125,0.79375 -0.111548,0.0558 0.140124,0.25627 0.264584,0.26458 1.231979,0.0821 2.470123,0.0411 3.704166,0 1.413087,-0.0471 4.233334,-0.26458 4.233334,-0.26458"
       style="fill:none;stroke-linecap:round;stroke-linejoin:round" />
    <path
       id="lktg1zr5ir"
       stroke-width="1.05833"
       stroke="#7fdbff"
       d="m 59.531614,108.50986 v 0 c 0,0 -0.879343,-0.19066 -1.322917,-0.26458 -0.087,-0.0145 -0.352768,0 -0.264583,0 0.970148,0 1.940719,0.0294 2.910417,0 1.94138,-0.0588 5.820833,-0.26459 5.820833,-0.26459"
       style="fill:none;stroke-linecap:round;stroke-linejoin:round" />
    <path
       id="lktg1zrch4"
       stroke-width="1.05833"
       stroke="#7fdbff"
       d="m 62.971197,110.62653 v 0 c 0,0 -1.91299,0.79234 -2.910416,1.05833 -0.340863,0.0909 -1.411102,0 -1.058334,0 0.617353,0 1.234732,0 1.852084,0 1.499314,0 4.497916,0 4.497916,0"
       style="fill:none;stroke-linecap:round;stroke-linejoin:round" />
    <path
       id="lktg1zuuit"
       stroke-width="1.05833"
       stroke="#7fdbff"
       d="m 87.312864,104.54111 v 0 c 0,0 0.225134,0.0789 0.264583,0 0.07887,-0.15777 0.07887,-0.3714 0,-0.52917 -0.03945,-0.0789 -0.191902,-0.0499 -0.264583,0 -1.351862,0.92941 -2.622868,1.97239 -3.96875,2.91042 -1.565275,1.09096 -3.202173,2.07701 -4.7625,3.175 -0.822352,0.5787 -1.633802,1.17938 -2.38125,1.85208 -0.146579,0.13193 -0.455904,0.48133 -0.264583,0.52917 0.770043,0.19251 1.591865,-0.0831 2.38125,0 0.894476,0.0942 1.751912,0.42984 2.645833,0.52917 0.701252,0.0779 1.422479,0.1262 2.116667,0 0.312869,-0.0569 0.74877,-0.21437 0.79375,-0.52917 0.06718,-0.47016 -0.277443,-0.92017 -0.529167,-1.32292 -0.635767,-1.01724 -1.343978,-1.99284 -2.116667,-2.91041 -0.642726,-0.76325 -1.411102,-1.41111 -2.116666,-2.11667 -0.440981,-0.44098 -0.9924,-0.79407 -1.322917,-1.32292 -0.140229,-0.22436 -0.224367,-0.65352 0,-0.79375 0.616717,-0.38544 1.396709,-0.42632 2.116667,-0.52916 1.138369,-0.16262 2.290445,-0.22201 3.439583,-0.26459 1.233884,-0.0457 2.474515,0.11179 3.704166,0 0.724271,-0.0659 2.116667,-0.52916 2.116667,-0.52916"
       style="fill:none;stroke-linecap:round;stroke-linejoin:round" />
    <path
       id="lktg1zvuh5"
       stroke-width="1.05833"
       stroke="#7fdbff"
       d="m 92.339947,111.94944 v 0 c 0,0 -0.202221,-0.0624 -0.264583,0 -0.399309,0.39931 -0.683154,0.90083 -1.058334,1.32292 -0.331443,0.37288 -1.058333,1.05833 -1.058333,1.05833"
       style="fill:none;stroke-linecap:round;stroke-linejoin:round" />
    <path
       id="lktg1zw3om"
       stroke-width="1.05833"
       stroke="#7fdbff"
       d="m 108.74411,104.01194 v 0 c 0,0 -0.14081,-0.2491 -0.26458,-0.26458 -0.61259,-0.0766 -1.25315,-0.14973 -1.85208,0 -0.84267,0.21066 -1.67709,0.54978 -2.38125,1.05833 -0.91001,0.65723 -1.72403,1.47125 -2.38125,2.38125 -0.50856,0.70417 -1.17314,1.52025 -1.05834,2.38125 0.0989,0.74179 0.93774,1.21621 1.5875,1.5875 0.63146,0.36084 1.40872,0.69575 2.11667,0.52917 0.92861,-0.21849 1.72744,-0.89281 2.38125,-1.5875 0.78811,-0.83738 1.42502,-1.84274 1.85208,-2.91042 0.2966,-0.74152 0.3215,-1.58464 0.26459,-2.38125 -0.0338,-0.47373 -0.31676,-0.89812 -0.52917,-1.32291 -0.14221,-0.28443 -0.52917,-0.79375 -0.52917,-0.79375"
       style="fill:none;stroke-linecap:round;stroke-linejoin:round" />
    <rect
       id="rktg203kc9"
       x="70.379532"
       y="98.455696"
       width="45.508331"
       height="18.785416"
       stroke="#3d9970"
       stroke-width="1.05833"
       style="fill:none" />
    <path
       id="lktg2h2hak"
       stroke-width="1.05833"
       stroke="#aaaaaa"
       d="m -315.91213,132.58694 v 0 c 0,0 0.22514,-0.14626 0.26458,-0.26458 0.0558,-0.16735 0.17639,-0.52917 0,-0.52917 -0.31799,0 -0.56889,0.30433 -0.79375,0.52917 -0.57496,0.57497 -1.03924,1.25161 -1.5875,1.85208 -1.30421,1.42844 -2.60102,2.8656 -3.96875,4.23334 -0.66292,0.66291 -1.45374,1.18917 -2.11666,1.85208 -0.39932,0.39931 -0.69082,0.89416 -1.05834,1.32292 -0.16234,0.18939 -0.46866,0.28715 -0.52916,0.52916 -0.0478,0.19132 0.075,0.47498 0.26458,0.52917 0.50881,0.14536 1.06297,-0.0699 1.5875,0 0.80598,0.10747 1.57371,0.43415 2.38125,0.52917 0.70072,0.0824 1.42071,0.11599 2.11667,0 0.38905,-0.0648 1.00941,-0.1378 1.05833,-0.52917 0.0734,-0.58706 -0.43053,-1.12051 -0.79375,-1.5875 -0.88144,-1.13326 -1.86817,-2.1876 -2.91042,-3.175 -0.64025,-0.60656 -1.45535,-1.00399 -2.11666,-1.5875 -0.84172,-0.74269 -1.5875,-1.5875 -2.38125,-2.38125 -0.35278,-0.35277 -0.70556,-0.70556 -1.05834,-1.05833 -0.0882,-0.0882 -0.36836,-0.1954 -0.26458,-0.26459 0.30256,-0.20171 0.70698,-0.17089 1.05833,-0.26458 0.97162,-0.25911 1.91853,-0.62844 2.91042,-0.79375 1.13427,-0.18904 2.29052,-0.2204 3.43958,-0.26458 1.14568,-0.0441 2.29424,0.0521 3.43959,0 0.79781,-0.0363 1.58496,-0.20334 2.38125,-0.26459 0.35174,-0.0271 1.05833,0 1.05833,0"
       style="fill:none;stroke-linecap:round;stroke-linejoin:round" />
    <path
       id="lktg2h3p49"
       stroke-width="1.05833"
       stroke="#aaaaaa"
       d="m -305.85796,135.23278 v 0 c 0,0 0,0 0,0 0.44097,0.35277 0.8586,0.73689 1.32291,1.05833 0.68409,0.4736 1.39427,0.91011 2.11667,1.32292 0.51367,0.29353 1.5875,0.79375 1.5875,0.79375"
       style="fill:none;stroke-linecap:round;stroke-linejoin:round" />
    <path
       id="lktg2h3xav"
       stroke-width="1.05833"
       stroke="#aaaaaa"
       d="m -305.06421,138.67236 v 0 c 0,0 -0.72366,0.11155 -1.05834,0 -0.11832,-0.0394 0.15303,-0.20881 0.26459,-0.26458 0.60075,-0.30038 1.21488,-0.58135 1.85208,-0.79375 0.68995,-0.22998 1.44534,-0.24945 2.11667,-0.52917 0.40705,-0.1696 1.05833,-0.79375 1.05833,-0.79375"
       style="fill:none;stroke-linecap:round;stroke-linejoin:round" />
    <path
       id="lktg2h45cp"
       stroke-width="1.05833"
       stroke="#aaaaaa"
       d="m -301.88921,134.96819 v 0 c 0,0 -0.20223,-0.0624 -0.26459,0 -0.13945,0.13944 -0.2218,0.33666 -0.26458,0.52917 -0.13529,0.60878 -0.0812,1.25603 -0.26458,1.85208 -0.17399,0.56547 -0.79375,0.99587 -0.79375,1.5875 0,0.44098 0.79375,1.05834 0.79375,1.05834"
       style="fill:none;stroke-linecap:round;stroke-linejoin:round" />
    <path
       id="lktg2h4m2d"
       stroke-width="1.05833"
       stroke="#aaaaaa"
       d="m -283.1038,131.52861 v 0 c 0,0 0,0 0,0 -0.35278,-0.0882 -0.70176,-0.19328 -1.05833,-0.26458 -0.52605,-0.1052 -1.06477,-0.14396 -1.5875,-0.26459 -0.62562,-0.14438 -1.21875,-0.63471 -1.85208,-0.52916 -0.55704,0.0928 -1.01614,0.5842 -1.32292,1.05833 -0.68599,1.06016 -1.12577,2.26428 -1.5875,3.43958 -0.5099,1.29792 -0.8648,2.65168 -1.32292,3.96875 -0.24755,0.71171 -0.61099,1.38563 -0.79375,2.11667 -0.0856,0.34224 -0.1815,0.75584 0,1.05833 0.14349,0.23916 0.5617,0.10988 0.79375,0.26459 0.31134,0.20756 0.45183,0.64177 0.79375,0.79375 0.49023,0.21788 1.06994,0.12342 1.5875,0.26458 0.45821,0.12496 0.86625,0.3987 1.32292,0.52917 0.1696,0.0484 0.35278,0 0.52917,0 0.26458,0 0.56687,0.13612 0.79375,0 0.27267,-0.1636 0.35277,-0.52917 0.52916,-0.79375 0.35278,-0.52917 0.79516,-1.00854 1.05834,-1.5875 0.18608,-0.40939 0.20098,-0.87773 0.26458,-1.32292 0.0249,-0.17462 0.12472,-0.40444 0,-0.52917 -0.36364,-0.36364 -0.82603,-0.66124 -1.32292,-0.79375 -0.85641,-0.22838 -1.76389,-0.17639 -2.64583,-0.26458 -0.88195,-0.0882 -1.79359,-0.0212 -2.64583,-0.26458 -0.42401,-0.12116 -1.05834,-0.79375 -1.05834,-0.79375"
       style="fill:none;stroke-linecap:round;stroke-linejoin:round" />
    <path
       id="lktg2h5qnd"
       stroke-width="1.05833"
       stroke="#aaaaaa"
       d="m -279.39963,142.37653 v 0 c 0,0 -0.11677,0.55724 -0.26458,0.79375 -0.29931,0.47887 -0.65902,0.9236 -1.05834,1.32291 -0.22485,0.22485 -0.79375,0.52917 -0.79375,0.52917"
       style="fill:none;stroke-linecap:round;stroke-linejoin:round" />
    <path
       id="lktg2h62kn"
       stroke-width="1.05833"
       stroke="#aaaaaa"
       d="m -262.4663,131.79319 v 0 c 0,0 -0.1781,0.0172 -0.26458,0 -0.35658,-0.0713 -0.70556,-0.35277 -1.05834,-0.26458 -0.76528,0.19132 -1.49545,0.57216 -2.11666,1.05833 -1.42507,1.11528 -2.85074,2.28124 -3.96875,3.70417 -0.85288,1.08548 -1.66557,2.33638 -1.85209,3.70417 -0.10658,0.7816 0.45941,1.60329 1.05834,2.11666 0.7212,0.61818 1.70023,0.96827 2.64583,1.05834 0.9816,0.0935 2.04478,-0.057 2.91042,-0.52917 1.15101,-0.62783 2.23586,-1.52157 2.91041,-2.64583 0.70442,-1.17404 1.05834,-2.59961 1.05834,-3.96875 0,-0.78883 -0.7476,-1.39161 -1.05834,-2.11667 -0.21972,-0.51268 -0.27971,-1.0886 -0.52916,-1.5875 -0.11156,-0.22312 -0.52917,-0.52917 -0.52917,-0.52917"
       style="fill:none;stroke-linecap:round;stroke-linejoin:round" />
    <path
       id="lktg2h6na5"
       stroke-width="1.05833"
       stroke="#aaaaaa"
       d="m -255.32255,134.70361 v 0 c 0,0 -0.65154,-0.24474 -0.79375,-0.52917 -0.0789,-0.15777 0.35563,0.0316 0.52917,0 0.79999,-0.14544 1.5726,-0.44405 2.38125,-0.52916 0.8771,-0.0923 1.7656,-0.055 2.64583,0 0.53542,0.0335 1.25814,-0.15889 1.5875,0.26458 0.43654,0.56126 0.54051,1.46135 0.26458,2.11667 -0.48642,1.15525 -1.51678,2.00273 -2.38125,2.91041 -0.90421,0.94943 -1.90753,1.80131 -2.91041,2.64584 -0.67461,0.56808 -1.46112,0.9975 -2.11667,1.5875 -0.23636,0.21272 -0.52917,0.47574 -0.52917,0.79375 0,0.17639 0.36183,-0.0558 0.52917,0 0.37418,0.12472 0.66928,0.46431 1.05833,0.52916 0.69596,0.116 1.41111,0 2.11667,0 0.79375,0 2.38125,0 2.38125,0"
       style="fill:none;stroke-linecap:round;stroke-linejoin:round" />
    <path
       id="lktg2h7csw"
       stroke-width="1.05833"
       stroke="#aaaaaa"
       d="m -239.44755,137.61403 v 0 c 0,0 -0.26458,-0.38931 -0.26458,-0.26459 0,0.19722 0.11485,0.40082 0.26458,0.52917 0.48287,0.41389 1.02754,0.75681 1.5875,1.05833 0.59139,0.31843 1.85208,0.79375 1.85208,0.79375"
       style="fill:none;stroke-linecap:round;stroke-linejoin:round" />
    <path
       id="lktg2h7js3"
       stroke-width="1.05833"
       stroke="#aaaaaa"
       d="m -239.44755,141.05361 v 0 c 0,0 -0.32694,0.0624 -0.26458,0 0.31181,-0.31181 0.65688,-0.61127 1.05833,-0.79375 0.58452,-0.26569 1.24742,-0.31321 1.85208,-0.52917 0.63254,-0.2259 1.85209,-0.79375 1.85209,-0.79375"
       style="fill:none;stroke-linecap:round;stroke-linejoin:round" />
    <path
       id="lktg2h7rsk"
       stroke-width="1.05833"
       stroke="#aaaaaa"
       d="m -236.80172,137.87861 v 0 c 0,0 -0.13985,0.5443 -0.26458,0.79375 -0.22998,0.45998 -0.58095,0.85476 -0.79375,1.32292 -0.23081,0.50779 -0.52917,1.5875 -0.52917,1.5875"
       style="fill:none;stroke-linecap:round;stroke-linejoin:round" />
    <path
       id="lktg2h8cv9"
       stroke-width="1.05833"
       stroke="#aaaaaa"
       d="m -225.68922,136.55569 v 0 c 0,0 -0.35277,0 -0.52916,0 -0.0882,0 0.18979,0.0468 0.26458,0 0.64336,-0.40208 1.2269,-0.8931 1.85208,-1.32291 0.78612,-0.54044 1.60498,-1.03302 2.38125,-1.5875 0.45954,-0.32825 0.82927,-0.7841 1.32292,-1.05834 0.31787,-0.17661 0.98702,-0.62116 1.05833,-0.26458 0.19338,0.96689 -0.38971,1.93429 -0.52916,2.91042 -0.2135,1.49447 -0.31567,3.00344 -0.52917,4.49791 -0.13945,0.97613 -0.36706,1.93779 -0.52917,2.91042 -0.10252,0.61516 -0.26458,1.85208 -0.26458,1.85208"
       style="fill:none;stroke-linecap:round;stroke-linejoin:round" />
    <path
       id="lktg2h8rss"
       stroke-width="1.05833"
       stroke="#aaaaaa"
       d="m -205.58088,133.90986 v 0 c 0,0 -0.0775,-0.74652 -0.26459,-1.05833 -0.10146,-0.1691 -0.33394,-0.2367 -0.52916,-0.26459 -0.43654,-0.0624 -0.9176,-0.1737 -1.32292,0 -0.87683,0.37579 -1.7242,0.89588 -2.38125,1.5875 -1.04508,1.10009 -1.92645,2.36818 -2.64583,3.70417 -0.5289,0.98224 -1.12022,2.06113 -1.05834,3.175 0.0382,0.68776 0.72256,1.24979 1.32292,1.5875 0.87643,0.493 1.90485,0.79375 2.91042,0.79375 0.83668,0 1.78962,-0.20212 2.38125,-0.79375 1.17666,-1.17665 2.06788,-2.67287 2.64583,-4.23333 0.33695,-0.90975 0.14391,-1.95101 0,-2.91042 -0.12411,-0.82743 -0.47195,-1.60893 -0.79375,-2.38125 -0.1223,-0.29353 -0.33052,-0.54544 -0.52917,-0.79375 -0.15583,-0.19479 -0.52916,-0.52917 -0.52916,-0.52917"
       style="fill:none;stroke-linecap:round;stroke-linejoin:round" />
    <path
       id="lktg2h9f4o"
       stroke-width="1.05833"
       stroke="#aaaaaa"
       d="m -198.43713,129.94111 v 0 c 0,0 -0.22514,0.0789 -0.26459,0 -0.0789,-0.15777 -0.12472,-0.40444 0,-0.52917 0.19721,-0.19722 0.51656,-0.23378 0.79375,-0.26458 0.52593,-0.0584 1.08549,-0.16735 1.5875,0 0.35498,0.11832 0.64636,0.44982 0.79375,0.79375 0.13897,0.32425 0.18151,0.75584 0,1.05833 -0.38502,0.64172 -1.01259,1.10842 -1.5875,1.5875 -0.48857,0.40714 -1.05833,0.70557 -1.5875,1.05834 -0.26458,0.17639 -0.65154,0.24474 -0.79375,0.52916 -0.0882,0.1764 0.0733,0.48133 0.26459,0.52917 0.59893,0.14973 1.23472,0 1.85208,0 0.52917,0 1.5875,0 1.5875,0"
       style="fill:none;stroke-linecap:round;stroke-linejoin:round" />
    <path
       id="lktg2ha0qm"
       stroke-width="1.05833"
       stroke="#aaaaaa"
       d="m -190.23505,129.14736 v 0 c 0,0 0,0 0,0 0.17639,-0.0882 0.33394,-0.2367 0.52917,-0.26458 0.43654,-0.0624 0.88194,0 1.32291,0 0.35278,0 0.70556,0 1.05834,0 0.26458,0 0.60666,-0.18709 0.79375,0 0.13945,0.13943 -0.37517,0.14139 -0.52917,0.26458 -0.29218,0.23376 -0.51408,0.54515 -0.79375,0.79375 -0.51483,0.45762 -1.06911,0.86932 -1.5875,1.32292 -0.18773,0.16425 -0.37949,0.32961 -0.52917,0.52916 -0.11832,0.15777 -0.26458,0.33195 -0.26458,0.52917 0,0.12472 0.14878,0.21825 0.26458,0.26458 0.33763,0.13505 0.70176,0.19328 1.05834,0.26459 0.52604,0.1052 1.07366,0.11043 1.5875,0.26458 0.37778,0.11335 0.72012,0.32623 1.05833,0.52917 0.10695,0.0642 0.36198,0.18666 0.26458,0.26458 -0.46198,0.3696 -1.02203,0.61976 -1.5875,0.79375 -0.59605,0.18341 -1.85208,0.26458 -1.85208,0.26458"
       style="fill:none;stroke-linecap:round;stroke-linejoin:round" />
    <path
       id="lktg2i3dis"
       stroke-width="1.05833"
       stroke="#aaaaaa"
       d="m -360.09755,154.81194 v 0 c 0,0 0.3714,0.0789 0.52917,0 0.0789,-0.0394 -0.0624,-0.20222 0,-0.26458 0.0624,-0.0624 0.26458,-0.0882 0.26458,0 0,0.12472 -0.19848,0.1588 -0.26458,0.26458 -0.37685,0.60296 -0.66392,1.26045 -1.05833,1.85209 -0.31325,0.46987 -0.65902,0.9236 -1.05834,1.32291 -0.22485,0.22485 -1.11174,0.52917 -0.79375,0.52917 0.39442,0 0.73016,-0.31038 1.05834,-0.52917 0.73382,-0.48921 1.41111,-1.05833 2.11666,-1.5875 0.70556,-0.52916 1.39154,-1.08548 2.11667,-1.5875 0.42282,-0.29271 0.82844,-0.65246 1.32292,-0.79375 0.18962,-0.0542 0.50127,0.0693 0.52916,0.26459 0.0759,0.53107 -0.0812,1.08333 -0.26458,1.5875 -0.17574,0.48328 -0.53861,0.8764 -0.79375,1.32291 -0.0978,0.17124 -0.46179,0.52917 -0.26458,0.52917 0.39441,0 0.73015,-0.31038 1.05833,-0.52917 0.73382,-0.48921 1.40546,-1.06595 2.11667,-1.5875 0.6118,-0.44865 1.18604,-0.95961 1.85208,-1.32291 0.31923,-0.17413 0.6947,-0.26459 1.05833,-0.26459 0.2789,0 0.66903,0.0151 0.79375,0.26459 0.19721,0.39441 0,0.88193 0,1.32291 0,0.44098 0,0.88194 0,1.32292 0,0.52917 -0.28046,1.13877 0,1.5875 0.25172,0.40275 0.8535,0.6014 1.32292,0.52917 0.77966,-0.11994 2.11667,-1.05834 2.11667,-1.05834"
       style="fill:none;stroke-linecap:round;stroke-linejoin:round" />
    <path
       id="lktg2i46ce"
       stroke-width="1.05833"
       stroke="#aaaaaa"
       d="m -340.2538,154.28278 v 0 c 0,0 -0.35455,0.0249 -0.52916,0 -0.44519,-0.0636 -0.87322,-0.26459 -1.32292,-0.26459 -0.44971,0 -0.92069,0.0635 -1.32292,0.26459 -0.5051,0.25254 -0.90316,0.68056 -1.32291,1.05833 -0.46354,0.41719 -1.04403,0.76512 -1.32292,1.32292 -0.19721,0.39441 -0.25631,0.96409 0,1.32291 0.27605,0.38648 0.84937,0.49274 1.32292,0.52917 0.70895,0.0545 1.44704,-0.0254 2.11666,-0.26458 0.59893,-0.21392 1.22279,-0.53732 1.5875,-1.05834 0.30765,-0.4395 0.11043,-1.07365 0.26459,-1.5875 0.11333,-0.37777 0.29251,-0.74279 0.52916,-1.05833 0.0529,-0.0706 0.20222,-0.0624 0.26459,0 0.22485,0.22484 0.22749,0.69318 0.52916,0.79375 0.58568,0.19524 1.26938,0.20394 1.85209,0 1.22906,-0.43019 2.39321,-1.07699 3.43958,-1.85208 1.35395,-1.00293 2.65158,-2.12387 3.70417,-3.43959 0.40109,-0.50136 0.47103,-1.21266 0.52916,-1.85208 0.0329,-0.36214 0.0968,-1.0985 -0.26458,-1.05833 -0.82694,0.0919 -1.54155,0.72165 -2.11667,1.32291 -1.39014,1.45333 -2.75774,2.98797 -3.70416,4.7625 -0.50491,0.94671 -0.71563,2.11839 -0.52917,3.175 0.10838,0.61415 0.73899,1.10395 1.32292,1.32292 0.91211,0.34205 2.91041,0.26458 2.91041,0.26458"
       style="fill:none;stroke-linecap:round;stroke-linejoin:round" />
    <path
       id="lktg2i512r"
       stroke-width="1.05833"
       stroke="#aaaaaa"
       d="m -317.23505,148.19736 v 0 c 0,0 -0.33195,-0.26458 -0.52916,-0.26458 -0.19721,0 -0.39651,0.11866 -0.52917,0.26458 -0.75974,0.83571 -1.51489,1.69005 -2.11667,2.64583 -0.90389,1.43561 -1.84478,2.88851 -2.38125,4.49792 -0.27889,0.83669 -0.26306,1.80403 0,2.64583 0.20546,0.65747 0.73628,1.22651 1.32292,1.5875 0.61938,0.38116 1.39052,0.56952 2.11667,0.52917 0.91935,-0.0511 1.85048,-0.3298 2.64583,-0.79375 1.35635,-0.79121 2.64539,-1.7508 3.70417,-2.91042 0.82614,-0.90482 1.44732,-2.01856 1.85208,-3.175 0.23308,-0.66595 0.31553,-1.48561 0,-2.11666 -0.2124,-0.42479 -0.84798,-0.52917 -1.32292,-0.52917 -0.81311,0 -1.66263,0.14872 -2.38125,0.52917 -0.82857,0.43865 -1.45374,1.18917 -2.11666,1.85208 -0.48707,0.48707 -1.32292,1.5875 -1.32292,1.5875"
       style="fill:none;stroke-linecap:round;stroke-linejoin:round" />
    <path
       id="lktg2ieupl"
       stroke-width="1.05833"
       stroke="#aaaaaa"
       d="m -279.13505,154.01819 v 0 c 0,0 0,0 0,0 -0.0882,-0.17639 -0.15519,-0.36507 -0.26458,-0.52916 -0.0692,-0.10377 -0.14878,-0.21826 -0.26458,-0.26459 -0.33763,-0.13504 -0.6947,-0.26458 -1.05834,-0.26458 -0.4497,0 -0.88194,0.1764 -1.32291,0.26458 -0.44098,0.0882 -0.94875,0.0151 -1.32292,0.26459 -0.46988,0.31324 -0.78792,0.82714 -1.05833,1.32291 -0.2671,0.48969 -0.75571,1.07778 -0.52917,1.5875 0.24028,0.54063 1.00106,0.71557 1.5875,0.79375 0.79163,0.10555 1.63974,0.032 2.38125,-0.26458 0.63955,-0.25583 1.12415,-0.81322 1.5875,-1.32292 0.4278,-0.47058 0.77391,-1.01867 1.05833,-1.5875 0.16263,-0.32525 0.37958,-0.71337 0.26459,-1.05833 -0.0624,-0.18709 -0.4334,0.0922 -0.52917,0.26458 -0.36595,0.65871 -0.68719,1.3707 -0.79375,2.11667 -0.0759,0.53107 0.004,1.11855 0.26458,1.5875 0.21416,0.38547 0.61866,0.75994 1.05834,0.79375 0.81071,0.0624 2.38125,-0.52917 2.38125,-0.52917"
       style="fill:none;stroke-linecap:round;stroke-linejoin:round" />
    <path
       id="lktg2iffgc"
       stroke-width="1.05833"
       stroke="#aaaaaa"
       d="m -269.34547,153.48903 v 0 c 0,0 -0.13985,-0.26459 -0.26458,-0.26459 -0.53646,0 -1.08229,0.0841 -1.5875,0.26459 -0.74288,0.26532 -1.45311,0.63177 -2.11666,1.05833 -0.57943,0.37248 -1.12671,0.81092 -1.5875,1.32292 -0.34402,0.38224 -0.93503,0.82843 -0.79375,1.32291 0.13047,0.45667 0.84797,0.52917 1.32291,0.52917 0.89941,0 1.80188,-0.21823 2.64583,-0.52917 0.85204,-0.3139 1.63469,-0.80605 2.38125,-1.32291 0.4102,-0.28398 0.66876,-0.74668 1.05834,-1.05834 0.0689,-0.0551 0.32694,-0.0624 0.26458,0 -0.39932,0.39931 -0.94774,0.63625 -1.32292,1.05834 -0.34165,0.38436 -0.64598,0.83034 -0.79375,1.32291 -0.12671,0.42238 -0.22687,0.94478 0,1.32292 0.13613,0.22688 0.54275,0.0837 0.79375,0 1.0877,-0.36256 2.18916,-0.73758 3.175,-1.32292 1.85136,-1.09923 3.64607,-2.31568 5.29167,-3.70416 1.19254,-1.00621 2.16994,-2.24608 3.175,-3.43959 0.40966,-0.48646 0.73113,-1.04214 1.05833,-1.5875 0.20293,-0.33821 0.35278,-0.70556 0.52917,-1.05833 0.0882,-0.1764 -0.15286,0.36666 -0.26458,0.52917 -0.85963,1.25036 -1.78438,2.45507 -2.64584,3.70416 -0.90266,1.30887 -1.85699,2.58829 -2.64583,3.96875 -0.27674,0.4843 -0.62894,1.0387 -0.52917,1.5875 0.10103,0.5556 0.56468,1.04868 1.05834,1.32292 0.38548,0.21415 1.32291,0 1.32291,0"
       style="fill:none;stroke-linecap:round;stroke-linejoin:round" />
    <path
       id="lktg2ig767"
       stroke-width="1.05833"
       stroke="#aaaaaa"
       d="m -265.90588,151.63694 v 0 c 0,0 -0.004,-0.71712 0.26458,-0.79375 1.10567,-0.31591 2.29027,-0.22751 3.43958,-0.26458 1.58668,-0.0512 4.7625,0 4.7625,0"
       style="fill:none;stroke-linecap:round;stroke-linejoin:round" />
    <path
       id="lktg2ighi5"
       stroke-width="1.05833"
       stroke="#aaaaaa"
       d="m -251.88297,155.34111 v 0 c 0,0 0,0 0,0 -0.26458,-0.1764 -0.47576,-0.52917 -0.79375,-0.52917 -0.47494,0 -0.86897,0.3895 -1.32291,0.52917 -0.69511,0.21389 -1.45634,0.22439 -2.11667,0.52917 -0.51274,0.23664 -0.97621,0.61256 -1.32292,1.05833 -0.29158,0.37489 -0.52916,0.84796 -0.52916,1.32292 0,0.318 0.22459,0.70239 0.52916,0.79375 0.6758,0.20275 1.42678,0.14782 2.11667,0 0.57849,-0.12396 1.10903,-0.44577 1.5875,-0.79375 0.50435,-0.3668 0.88194,-0.88194 1.32292,-1.32292 0.17639,-0.1764 0.37949,-0.32962 0.52916,-0.52917 0.11833,-0.15777 0.0882,-0.61735 0.26459,-0.52916 0.24945,0.12472 0.0904,0.57597 0.26458,0.79375 0.19865,0.24831 0.48333,0.46019 0.79375,0.52916 0.51657,0.11481 1.06687,0.0947 1.5875,0 0.46728,-0.0849 0.87822,-0.3624 1.32292,-0.52916 0.26114,-0.0979 0.59654,-0.0674 0.79375,-0.26459 0.12472,-0.12472 0.15776,-0.60804 0,-0.52916 -0.44624,0.22312 -0.72688,0.68545 -1.05834,1.05833 -0.37517,0.42209 -0.65901,0.92361 -1.05833,1.32292 -0.31181,0.31181 -0.86112,0.39933 -1.05833,0.79375 -0.0882,0.17639 0.3479,0.34226 0.52916,0.26458 0.51906,-0.22246 0.82464,-0.79259 1.32292,-1.05833 0.83813,-0.44702 1.77559,-0.6776 2.64583,-1.05834 0.54203,-0.23714 1.02083,-0.62375 1.5875,-0.79375 0.3379,-0.10136 0.76481,-0.19568 1.05834,0 0.16408,0.10938 -0.13624,0.37944 -0.26459,0.52917 -0.40585,0.4735 -0.88194,0.88194 -1.32291,1.32292 -0.26459,0.26458 -0.67543,0.43878 -0.79375,0.79375 -0.0558,0.16735 0.3714,0.0789 0.52916,0 0.56884,-0.28443 1.02635,-0.75904 1.5875,-1.05834 0.76643,-0.40875 1.61483,-0.64958 2.38125,-1.05833 0.56116,-0.2993 1.01867,-0.77391 1.5875,-1.05833 0.32525,-0.16262 0.89571,-0.58984 1.05834,-0.26459 0.2124,0.42479 -0.31677,0.89813 -0.52917,1.32292 -0.22998,0.45998 -0.63113,0.83505 -0.79375,1.32292 -0.11156,0.33467 -0.24945,0.80888 0,1.05833 0.19721,0.19722 0.53631,-0.15732 0.79375,-0.26458 0.8018,-0.33409 1.59531,-0.68848 2.38125,-1.05834 0.71375,-0.33589 1.39161,-0.7476 2.11667,-1.05833 0.51269,-0.21974 1.04636,-0.39389 1.5875,-0.52917 0.19132,-0.0478 -0.3714,0.14626 -0.52917,0.26459 -0.55105,0.41328 -1.15131,0.7898 -1.5875,1.32291 -0.37464,0.45789 -0.72037,1.00045 -0.79375,1.5875 -0.0309,0.24752 0.27972,0.52917 0.52917,0.52917 0.64206,0 1.28555,-0.22701 1.85208,-0.52917 2.09533,-1.11752 4.17573,-2.29266 6.08542,-3.70416 2.16172,-1.5978 4.12025,-3.45753 6.08541,-5.29167 0.68538,-0.63968 1.22492,-1.41981 1.85209,-2.11667 0.16687,-0.18542 0.60805,-0.76581 0.52916,-0.52916 -0.16262,0.48786 -0.50007,0.90074 -0.79375,1.32291 -1.11827,1.60753 -2.35335,3.13315 -3.43958,4.7625 -0.50368,0.75552 -0.95897,1.54938 -1.32292,2.38125 -0.25735,0.58822 -0.68489,1.2292 -0.52916,1.85209 0.0882,0.35277 0.70869,0.36449 1.05833,0.26458 0.35978,-0.10279 0.79375,-0.79375 0.79375,-0.79375"
       style="fill:none;stroke-linecap:round;stroke-linejoin:round" />
    <path
       id="lktg2ihzvm"
       stroke-width="1.05833"
       stroke="#aaaaaa"
       d="m -227.27672,151.90153 v 0 c 0,0 -0.38834,-0.24911 -0.26458,-0.26459 0.78762,-0.0985 1.58832,-0.036 2.38125,0 1.14873,0.0522 3.43958,0.26459 3.43958,0.26459"
       style="fill:none;stroke-linecap:round;stroke-linejoin:round" />
    <path
       id="lktg2ii7rx"
       stroke-width="1.05833"
       stroke="#aaaaaa"
       d="m -234.68505,148.72653 v 0 c 0,0 -0.52318,-0.19693 -0.79375,-0.26459 -0.0856,-0.0214 -0.26458,0 -0.26458,0"
       style="fill:none;stroke-linecap:round;stroke-linejoin:round" />
    <path
       id="lktg2iip9h"
       stroke-width="1.05833"
       stroke="#aaaaaa"
       d="m -260.08505,158.51611 v 0 c 0,0 -0.0882,0.44098 -0.26458,0.52917 -0.23665,0.11832 -0.53707,-0.0642 -0.79375,0 -0.121,0.0302 -0.15303,0.20881 -0.26459,0.26458 -0.0789,0.0395 -0.32694,0.0624 -0.26458,0 0.13945,-0.13944 0.35278,-0.1764 0.52917,-0.26458 0.35278,-0.1764 0.68055,-0.41582 1.05833,-0.52917 0.51384,-0.15415 1.05324,-0.21601 1.5875,-0.26458 0.43916,-0.0399 1.32292,0 1.32292,0"
       style="fill:none;stroke-linecap:round;stroke-linejoin:round" />
    <path
       id="lktg2ijc46"
       stroke-width="1.05833"
       stroke="#aaaaaa"
       d="m -202.1413,147.13903 v 0 c 0,0 -0.15302,-0.32036 -0.26458,-0.26459 -1.02852,0.51427 -2.00787,1.13954 -2.91042,1.85209 -2.45519,1.93831 -4.80577,4.00722 -7.14375,6.08541 -1.63204,1.45071 -3.18455,2.98858 -4.7625,4.49792 -0.45066,0.43106 -1.32292,1.32292 -1.32292,1.32292"
       style="fill:none;stroke-linecap:round;stroke-linejoin:round" />
    <path
       id="lktg2ijpoq"
       stroke-width="1.05833"
       stroke="#aaaaaa"
       d="m -207.69755,155.60569 v 0 c 0,0 0.38696,-0.50932 0.52917,-0.79375 0.0394,-0.0789 0.0624,-0.32694 0,-0.26458 -0.22486,0.22484 -0.33838,0.53935 -0.52917,0.79375 -0.33883,0.45178 -0.71163,0.87715 -1.05833,1.32292 -0.27073,0.34808 -0.51145,0.71956 -0.79375,1.05833 -0.1597,0.19164 -0.77862,0.52917 -0.52917,0.52917 0.39442,0 0.71106,-0.34219 1.05833,-0.52917 0.79949,-0.4305 1.57876,-0.89808 2.38125,-1.32292 0.69717,-0.36909 1.40044,-0.72776 2.11667,-1.05833 0.43123,-0.19902 0.86216,-0.41397 1.32292,-0.52917 0.25668,-0.0642 0.79375,-0.26458 0.79375,0 0,0.59164 -0.46558,1.09525 -0.79375,1.5875 -0.38209,0.57314 -0.83585,1.10043 -1.32292,1.5875 -0.22485,0.22485 -1.0186,0.30433 -0.79375,0.52917 0.25713,0.25712 0.72817,-0.11221 1.05833,-0.26458 0.82445,-0.38053 1.5769,-0.9016 2.38125,-1.32292 1.04817,-0.54904 2.10565,-1.08096 3.175,-1.5875 0.60702,-0.28752 1.23831,-0.52096 1.85209,-0.79375 0.18021,-0.0801 0.41977,-0.42868 0.52916,-0.26458 0.19569,0.29353 0.11156,0.72366 0,1.05833 -0.16262,0.48787 -0.54749,0.87146 -0.79375,1.32292 -0.2833,0.51937 -0.87742,1.00181 -0.79375,1.5875 0.0514,0.35999 0.6947,0.26458 1.05834,0.26458 0.71104,0 2.11666,-0.26458 2.11666,-0.26458"
       style="fill:none;stroke-linecap:round;stroke-linejoin:round" />
    <path
       id="lktg2ikg61"
       stroke-width="1.05833"
       stroke="#aaaaaa"
       d="m -189.70588,154.28278 v 0 c 0,0 -0.13986,-0.26459 -0.26459,-0.26459 -0.36363,0 -0.70335,0.18571 -1.05833,0.26459 -0.439,0.0975 -0.92812,0.0492 -1.32292,0.26458 -0.60471,0.32986 -1.10043,0.83585 -1.5875,1.32292 -0.57495,0.57496 -1.35385,1.07325 -1.5875,1.85208 -0.10751,0.3584 0.46666,0.61203 0.79375,0.79375 0.4876,0.27088 1.03113,0.56891 1.5875,0.52917 0.75162,-0.0537 1.48281,-0.38627 2.11667,-0.79375 0.6295,-0.40468 1.03125,-1.08689 1.5875,-1.5875 0.32777,-0.29499 0.69142,-0.54915 1.05833,-0.79375 0.16409,-0.10938 0.33785,-0.21675 0.52917,-0.26459 0.17112,-0.0428 0.35278,0 0.52917,0 0.44097,0 0.89173,0.0924 1.32291,0 0.81812,-0.17531 1.6329,-0.41957 2.38125,-0.79375 1.55583,-0.7779 3.15379,-1.54172 4.49792,-2.64583 1.16056,-0.95332 2.01949,-2.23046 2.91042,-3.43958 0.35095,-0.47631 0.98084,-1.02624 0.79375,-1.5875 -0.13945,-0.41834 -0.9244,-0.18878 -1.32292,0 -1.32655,0.62836 -2.5823,1.43467 -3.70417,2.38125 -1.71588,1.44777 -3.37545,2.99717 -4.7625,4.7625 -0.58686,0.74692 -1.05833,1.69595 -1.05833,2.64583 0,0.86863 0.47139,1.74096 1.05833,2.38125 0.45387,0.49511 1.85209,0.79375 1.85209,0.79375"
       style="fill:none;stroke-linecap:round;stroke-linejoin:round" />
    <path
       id="lktg2iovbw"
       stroke-width="1.05833"
       stroke="#aaaaaa"
       d="m -173.83088,133.90986 v 0 c 0,0 -0.35278,0 -0.26459,0 0.52917,0 1.05834,0 1.5875,0 0.97014,0 1.94128,-0.044 2.91042,0 0.97314,0.0442 2.91042,0.26458 2.91042,0.26458"
       style="fill:none;stroke-linecap:round;stroke-linejoin:round" />
    <path
       id="lktg2ip7aj"
       stroke-width="1.05833"
       stroke="#aaaaaa"
       d="m -175.68297,137.87861 v 0 c 0,0 -0.73015,0.31038 -1.05833,0.52917 -0.0734,0.0489 0.17639,0 0.26458,0 0.35278,0 0.70556,0 1.05834,0 0.70555,0 1.41111,0 2.11666,0 1.05834,0 2.12144,0.10033 3.175,0 0.80945,-0.0771 2.38125,-0.52917 2.38125,-0.52917"
       style="fill:none;stroke-linecap:round;stroke-linejoin:round" />
    <path
       id="lktg2ipmhj"
       stroke-width="1.05833"
       stroke="#aaaaaa"
       d="m -157.16213,134.17444 v 0 c 0,0 -0.90458,-0.13943 -1.32292,0 -0.18709,0.0624 -0.42235,0.41085 -0.26458,0.52917 0.35976,0.26982 0.87408,0.23654 1.32291,0.26458 0.96825,0.0605 2.91042,0 2.91042,0"
       style="fill:none;stroke-linecap:round;stroke-linejoin:round" />
    <path
       id="lktg2ipuoz"
       stroke-width="1.05833"
       stroke="#aaaaaa"
       d="m -161.66005,138.93694 v 0 c 0,0 -0.70556,0.35277 -0.52917,0.52917 0.31799,0.318 0.87409,0.23654 1.32292,0.26458 0.96825,0.0605 1.94028,0 2.91042,0 0.79375,0 2.38125,0 2.38125,0"
       style="fill:none;stroke-linecap:round;stroke-linejoin:round" />
    <path
       id="lktg2iq4qf"
       stroke-width="1.05833"
       stroke="#aaaaaa"
       d="m -147.90172,136.29111 v 0 c 0,0 -1.05833,0 -1.5875,0 -0.0882,0 -0.35277,0 -0.26458,0 0.61736,0 1.23558,0.0324 1.85208,0 1.06054,-0.0558 2.11392,-0.22037 3.175,-0.26458 1.05742,-0.0441 3.175,0 3.175,0"
       style="fill:none;stroke-linecap:round;stroke-linejoin:round" />
    <path
       id="lktg2iqc5l"
       stroke-width="1.05833"
       stroke="#aaaaaa"
       d="m -147.37255,138.93694 v 0 c 0,0 -0.74652,0.48194 -1.05833,0.79375 -0.0624,0.0624 -0.0879,0.25726 0,0.26459 1.05467,0.0879 2.11666,0 3.175,0 1.41111,0 4.23333,0 4.23333,0"
       style="fill:none;stroke-linecap:round;stroke-linejoin:round" />
    <path
       id="lktg2iumct"
       stroke-width="1.05833"
       stroke="#aaaaaa"
       d="m -246.32672,133.90986 v 0 c 0,0 -0.0624,-0.20222 0,-0.26458 0.22486,-0.22485 0.50148,-0.40392 0.79375,-0.52917 0.33424,-0.14325 0.69751,-0.21947 1.05834,-0.26458 0.35005,-0.0438 0.71035,-0.058 1.05833,0 0.19453,0.0324 0.44097,0.0882 0.52917,0.26458 0.11832,0.23664 0,0.52917 0,0.79375 0,0.52917 0.0439,1.06016 0,1.5875 -0.0445,0.53462 -0.0812,1.08334 -0.26459,1.5875 -0.17574,0.48329 -0.56376,0.86294 -0.79375,1.32292 -0.21239,0.42479 -0.31676,0.89812 -0.52916,1.32291 -0.22999,0.45998 -0.54401,0.87337 -0.79375,1.32292 -0.19155,0.34478 -0.31038,0.73017 -0.52917,1.05833 -0.13837,0.20757 -0.43652,0.29755 -0.52917,0.52917 -0.0983,0.24567 0.11833,0.55711 0,0.79375 -0.0882,0.1764 -0.38971,0.12515 -0.52916,0.26458 -0.0624,0.0624 -0.0882,0.26459 0,0.26459 0.19721,0 0.33784,-0.21675 0.52916,-0.26459 0.17113,-0.0428 0.35278,0 0.52917,0 0.0882,0 0.17759,-0.0146 0.26458,0 0.44359,0.0739 0.87597,0.21492 1.32292,0.26459 0.35062,0.0389 0.70556,0 1.05833,0 0.35278,0 0.70556,0 1.05834,0 0.0882,0 0.17639,0 0.26458,0 0.0882,0 0.22514,-0.0789 0.26458,0 0.0789,0.15777 0,0.52916 0,0.52916"
       style="fill:none;stroke-linecap:round;stroke-linejoin:round" />
    <path
       id="lktg2j5q8g"
       stroke-width="1.05833"
       stroke="#aaaaaa"
       d="m -120.91422,135.49736 v 0 c 0,0 0,0 0,0 0,0.1764 0.0789,0.3714 0,0.52917 -0.0395,0.0789 -0.17639,0 -0.26458,0 -0.26458,0 -0.52917,0 -0.79375,0 -0.1764,0 -0.35277,0 -0.52917,0 -0.35277,0 -0.70556,0 -1.05833,0 -0.35277,0 -0.70556,0 -1.05833,0 -0.26459,0 -0.52917,0 -0.79375,0 -0.26459,0 -0.52917,0 -0.79375,0 -0.61736,0 -1.23473,0 -1.85209,0 -0.35277,0 -0.70556,0 -1.05833,0 -0.0882,0 -0.1764,0 -0.26458,0 -0.0882,0 -0.1764,0 -0.26459,0 -0.17639,0 -0.52916,0.17639 -0.52916,0 0,-0.24945 0.3216,-0.39079 0.52916,-0.52917 0.32817,-0.21878 0.73523,-0.30297 1.05834,-0.52917 0.5643,-0.39502 1.10043,-0.83584 1.5875,-1.32291 0.57496,-0.57497 1.01253,-1.27712 1.5875,-1.85209 0.31181,-0.31181 0.72353,-0.50675 1.05833,-0.79375 0.28411,-0.24352 0.52917,-0.52916 0.79375,-0.79375 0.0882,-0.0882 0.13986,-0.26458 0.26458,-0.26458 0.0882,0 0,0.1764 0,0.26458 0,0.52917 0.0715,1.06318 0,1.5875 -0.19399,1.42254 -0.56692,2.81567 -0.79375,4.23334 -0.12618,0.78861 -0.16552,1.58877 -0.26458,2.38125 -0.0774,0.6188 -0.2128,1.2306 -0.26458,1.85208 -0.0366,0.43945 0,1.32292 0,1.32292"
       style="fill:none;stroke-linecap:round;stroke-linejoin:round" />
    <path
       id="lktg2j6qop"
       stroke-width="1.05833"
       stroke="#aaaaaa"
       d="m -105.3038,131.79319 v 0 c 0,0 -0.0558,-0.36181 0,-0.52916 0.0395,-0.11832 0.38931,-0.26459 0.26458,-0.26459 -0.19722,0 -0.36507,0.15521 -0.52916,0.26459 -0.63127,0.42084 -1.28255,0.82171 -1.85209,1.32291 -1.63925,1.44254 -3.16433,3.00998 -4.7625,4.49792 -0.95959,0.89342 -1.95392,1.74911 -2.91041,2.64583 -0.45495,0.42654 -0.8536,0.91226 -1.32292,1.32292 -0.23932,0.20939 -0.79375,0.21116 -0.79375,0.52917 0,0.318 0.48334,0.46019 0.79375,0.52916 0.51657,0.11481 1.05936,-0.033 1.5875,0 0.88461,0.0553 1.75948,0.26459 2.64583,0.26459 0.62363,0 1.26045,-0.0674 1.85209,-0.26459 0.48786,-0.16261 1.21136,-0.29173 1.32291,-0.79375 0.12835,-0.57753 -0.45447,-1.10281 -0.79375,-1.5875 -0.90048,-1.2864 -1.88407,-2.51576 -2.91041,-3.70416 -0.6522,-0.75518 -1.43987,-1.38348 -2.11667,-2.11667 -0.38304,-0.41495 -0.80579,-0.81783 -1.05833,-1.32292 -0.20111,-0.40222 -0.4657,-0.92069 -0.26459,-1.32291 0.16262,-0.32526 0.70176,-0.19328 1.05834,-0.26459 0.96689,-0.19338 1.92751,-0.45053 2.91041,-0.52916 1.23079,-0.0985 2.47029,0.0457 3.70417,0 1.14914,-0.0426 2.29439,-0.16047 3.43958,-0.26459 0.79537,-0.0723 2.38125,-0.26458 2.38125,-0.26458"
       style="fill:none;stroke-linecap:round;stroke-linejoin:round" />
    <path
       id="lktg2jpmjc"
       stroke-width="1.05833"
       stroke="#aaaaaa"
       d="m -96.837134,131.79319 v 0 c 0,0 0,0 0,0 0.08819,0 0.185711,0.0394 0.264583,0 0.111549,-0.0558 0.157639,-0.20042 0.264584,-0.26458 0.338217,-0.20294 0.73017,-0.31038 1.058333,-0.52917 0.207566,-0.13837 0.352769,-0.35277 0.529167,-0.52916 0.08818,-0.0882 0.264583,-0.38931 0.264583,-0.26459 0,0.2789 -0.16928,0.53166 -0.264583,0.79375 -0.257519,0.70816 -0.58674,1.39214 -0.79375,2.11667 -0.323242,1.13138 -0.57359,2.2837 -0.79375,3.43958 -0.133033,0.6985 -0.176398,1.41111 -0.264584,2.11667 -0.08818,0.70556 -0.213915,1.40742 -0.264583,2.11667 -0.0377,0.52781 0,1.05833 0,1.5875 0,0.26458 0,0.52916 0,0.79375 0,0.17639 0,0.52916 0,0.52916"
       style="fill:none;stroke-linecap:round;stroke-linejoin:round" />
    <path
       id="lktg2jqbef"
       stroke-width="1.05833"
       stroke="#aaaaaa"
       d="m -86.253801,130.47028 v 0 c 0,0 -1.078706,-0.14537 -1.5875,0 -0.189627,0.0542 -0.404018,0.38973 -0.264583,0.52916 0.257122,0.25713 0.698341,0.21315 1.058333,0.26459 0.877438,0.12536 1.759479,0.26458 2.645834,0.26458 1.062011,0 2.117778,-0.16388 3.175,-0.26458 0.795046,-0.0757 1.58496,-0.20334 2.38125,-0.26459 0.351737,-0.0271 0.742791,-0.15777 1.058333,0 0.157771,0.0789 0.07887,0.3714 0,0.52917 -0.197221,0.39441 -0.499719,0.72969 -0.79375,1.05833 -1.206632,1.34858 -2.535264,2.58734 -3.704167,3.96875 -0.774858,0.91575 -1.387977,1.95752 -2.116666,2.91042 -0.418412,0.54716 -0.953109,1.00637 -1.322917,1.5875 -0.254979,0.40069 -0.298503,0.90773 -0.529167,1.32292 -0.214153,0.38547 -0.518266,0.714 -0.79375,1.05833 -0.07792,0.0974 -0.264583,0.26458 -0.264583,0.26458"
       style="fill:none;stroke-linecap:round;stroke-linejoin:round" />
    <path
       id="lktg2jr25n"
       stroke-width="1.05833"
       stroke="#aaaaaa"
       d="m -88.635051,143.43486 v 0 c 0,0 -0.371395,-0.0789 -0.529166,0 -0.07887,0.0395 0.08557,0.24321 0,0.26458 -0.342239,0.0856 -0.705565,0 -1.058334,0 -0.08819,0 -0.352769,0 -0.264583,0 0.705564,0 1.411102,0 2.116667,0 0.705564,0 1.411102,0 2.116666,0 0.617353,0 1.236081,0.0411 1.852084,0 0.70948,-0.0473 2.116666,-0.26458 2.116666,-0.26458"
       style="fill:none;stroke-linecap:round;stroke-linejoin:round" />
    <path
       id="lktg2jrpyu"
       stroke-width="1.05833"
       stroke="#aaaaaa"
       d="m -64.293384,130.99944 v 0 c 0,0 -0.359569,0.0485 -0.529167,0 -0.456671,-0.13046 -0.876565,-0.36687 -1.322917,-0.52916 -0.524219,-0.19064 -1.038701,-0.4294 -1.5875,-0.52917 -0.433863,-0.0789 -0.890508,-0.0865 -1.322916,0 -0.46572,0.0931 -1.059471,0.13399 -1.322917,0.52917 -0.681408,1.02208 -0.83902,2.3105 -1.322917,3.43958 -0.575071,1.34183 -1.422743,2.57342 -1.852083,3.96875 -0.286491,0.93107 -0.264583,1.93627 -0.264583,2.91042 0,0.53647 0.21119,1.0537 0.264583,1.5875 0.03511,0.35102 0,0.70556 0,1.05833 0,0.1764 -0.07887,0.3714 0,0.52917 0.03945,0.0789 0.176398,0 0.264583,0 0.264584,0 0.537078,-0.0642 0.79375,0 0.460772,0.1152 0.857198,0.43603 1.322917,0.52916 0.432409,0.0865 0.881936,0 1.322917,0 0.352769,0 0.705564,0 1.058333,0 0.264583,0 0.606663,0.18709 0.79375,0 0.187087,-0.18708 -0.118322,-0.5571 0,-0.79375 0.252545,-0.50509 0.734483,-0.86029 1.058333,-1.32291 0.294905,-0.4213 0.54401,-0.87337 0.79375,-1.32292 0.191559,-0.34478 0.594016,-0.66929 0.529167,-1.05833 -0.05228,-0.31367 -0.524087,-0.36063 -0.79375,-0.52917 -0.436086,-0.27255 -0.811477,-0.73991 -1.322917,-0.79375 -1.231053,-0.12959 -2.467213,0.21701 -3.704166,0.26458 -1.05754,0.0407 -3.175,0 -3.175,0"
       style="fill:none;stroke-linecap:round;stroke-linejoin:round" />
    <path
       id="lktg2jsziu"
       stroke-width="1.05833"
       stroke="#aaaaaa"
       d="m -55.297551,135.49736 v 0 c 0,0 0,-0.35277 0,-0.26458 0,0.26458 -0.153776,0.57846 0,0.79375 0.328242,0.45953 0.835131,0.7738 1.322917,1.05833 0.580178,0.33843 1.852083,0.79375 1.852083,0.79375"
       style="fill:none;stroke-linecap:round;stroke-linejoin:round" />
    <path
       id="lktg2jt6is"
       stroke-width="1.05833"
       stroke="#aaaaaa"
       d="m -55.297551,138.67236 v 0 c 0,0 -0.946785,0.33467 -1.058333,0 -0.118322,-0.35496 0.466672,-0.61203 0.79375,-0.79375 0.4876,-0.27088 1.07262,-0.31464 1.5875,-0.52917 0.546126,-0.22754 1.5875,-0.79375 1.5875,-0.79375"
       style="fill:none;stroke-linecap:round;stroke-linejoin:round" />
    <path
       id="lktg2jtdxj"
       stroke-width="1.05833"
       stroke="#aaaaaa"
       d="m -52.916301,134.17444 v 0 c 0,0 0.02789,-0.34824 0,-0.26458 -0.114988,0.34496 -0.12954,0.7207 -0.264583,1.05833 -0.219737,0.5493 -0.751602,0.99738 -0.79375,1.5875 -0.05181,0.72544 0.529166,2.11667 0.529166,2.11667"
       style="fill:none;stroke-linecap:round;stroke-linejoin:round" />
    <path
       id="lktg2jts8m"
       stroke-width="1.05833"
       stroke="#aaaaaa"
       d="m -42.597551,137.34944 v 0 c 0,0 -0.62701,0.14677 -0.529167,0 0.244607,-0.36692 0.705564,-0.52916 1.058333,-0.79375 0.705565,-0.52916 1.424438,-1.041 2.116667,-1.5875 0.983827,-0.77671 1.91471,-1.61983 2.910417,-2.38125 0.505195,-0.38631 1.018672,-0.7739 1.5875,-1.05833 0.07887,-0.0394 0.01984,0.17865 0,0.26458 -0.245296,1.06297 -0.510143,2.12162 -0.79375,3.175 -0.333852,1.23997 -0.838306,2.43904 -1.058334,3.70417 -0.135995,0.782 0,1.5875 0,2.38125 0,0.52917 0,1.5875 0,1.5875"
       style="fill:none;stroke-linecap:round;stroke-linejoin:round" />
    <path
       id="lktg2ju621"
       stroke-width="1.05833"
       stroke="#aaaaaa"
       d="m -21.960052,132.32236 v 0 c 0,0 -0.293528,-0.91056 -0.529166,-1.32292 -0.123772,-0.21658 -0.282231,-0.56443 -0.529167,-0.52916 -0.509085,0.0727 -0.945039,0.44495 -1.322916,0.79375 -0.780363,0.72032 -1.492039,1.52236 -2.116667,2.38125 -0.791819,1.08873 -1.626103,2.1859 -2.116667,3.43958 -0.322977,0.82539 -0.427937,1.77467 -0.264583,2.64583 0.11721,0.62508 0.549539,1.20592 1.058333,1.5875 0.602827,0.45212 1.3648,0.74364 2.116667,0.79375 0.640635,0.0427 1.317863,-0.17301 1.852083,-0.52916 1.090904,-0.72726 2.144342,-1.58184 2.910417,-2.64584 0.853016,-1.18475 1.565778,-2.53722 1.852083,-3.96875 0.176398,-0.88193 -0.07316,-1.8706 -0.529167,-2.64583 -0.47535,-0.80809 -1.329557,-1.34279 -2.116666,-1.85208 -0.729271,-0.47189 -2.38125,-1.05834 -2.38125,-1.05834"
       style="fill:none;stroke-linecap:round;stroke-linejoin:round" />
    <path
       id="lktg2jv537"
       stroke-width="1.05833"
       stroke="#aaaaaa"
       d="m -121.97255,140.78903 v 0 c 0,0 0.26458,0.33194 0.26458,0.52916 0,0.62363 -0.12435,1.24442 -0.26458,1.85209 -0.12541,0.5435 -0.52917,1.5875 -0.52917,1.5875"
       style="fill:none;stroke-linecap:round;stroke-linejoin:round" />
    <path
       id="lktg2kcp4f"
       stroke-width="1.05833"
       stroke="#aaaaaa"
       d="m -11.905885,126.76611 v 0 c 0,0 -0.371396,-0.0789 -0.529167,0 -0.07887,0.0395 -0.08366,0.2367 0,0.26458 0.251011,0.0837 0.529167,0 0.79375,0 0.529167,0 1.070928,-0.1148 1.5875,0 0.3104095,0.069 0.5454389,0.33052 0.7937503,0.52917 0.1947863,0.15584 0.608039,0.29252 0.5291667,0.52917 -0.157771,0.47331 -0.6722004,0.74242 -1.0583333,1.05833 -0.5871897,0.48043 -1.2451287,0.8677 -1.8520837,1.32292 -0.451776,0.33882 -0.863388,0.73009 -1.322916,1.05833 -0.16047,0.11462 -0.371396,0.14626 -0.529167,0.26458 -0.199549,0.14968 -0.705564,0.35277 -0.529167,0.52917 0.24945,0.24945 0.706994,-0.0319 1.058334,0 0.621056,0.0565 1.230603,0.2128 1.852083,0.26458 0.439446,0.0366 1.3229167,0 1.3229167,0"
       style="fill:none;stroke-linecap:round;stroke-linejoin:round" />
    <path
       id="lktg2kdf58"
       stroke-width="1.05833"
       stroke="#aaaaaa"
       d="m 1.0586982,129.94111 v 0 c 0,0 -0.54808436,0.0983 -0.79374998,0 -0.23161625,-0.0927 -0.28932187,-0.46064 -0.52916666,-0.52917 -0.42399479,-0.12115 -0.88193566,0 -1.32291666,0 -0.3527689,0 -0.7055644,0 -1.0583333,0 -0.1763977,0 -0.5291667,0.1764 -0.5291667,0 0,-0.19722 0.3713957,-0.14626 0.5291667,-0.26458 0.1995487,-0.14967 0.3527689,-0.35277 0.5291667,-0.52917 0.2645833,-0.26458 0.5541962,-0.5063 0.7937499,-0.79375 0.2035705,-0.24429 0.2206625,-0.71662 0.5291667,-0.79375 0.24201437,-0.0605 0.45029437,0.29253 0.52916666,0.52917 0.11154833,0.33467 0.0631031,0.71125 0,1.05833 -0.11485562,0.63172 -0.43836166,1.21648 -0.52916666,1.85209 -0.0873125,0.61116 0.0614362,1.23777 0,1.85208 -0.0277548,0.27752 -0.2645833,0.79375 -0.2645833,0.79375"
       style="fill:none;stroke-linecap:round;stroke-linejoin:round" />
    <path
       id="lktjsry2nh"
       stroke-width="1.05833"
       stroke="#e65194"
       d="m 68.051197,146.71569 v 0 c 0,0 -8.095085,1.50294 -11.377083,3.78354 -1.622451,1.12742 -1.53588,3.65237 -2.06375,5.55625 -0.262837,0.94801 -0.216111,1.95599 -0.291041,2.93688 -0.02222,0.29019 -0.07059,0.59076 0,0.87312 0.03328,0.13312 0.156421,0.31748 0.291041,0.29105 0.433494,-0.0851 0.814837,-0.34986 1.190625,-0.58209 0.412644,-0.255 0.754936,-0.61269 1.164167,-0.87312 0.369411,-0.23508 0.811424,-0.34909 1.164166,-0.60854 0.720514,-0.52996 1.293099,-1.25011 2.037292,-1.74625 0.434684,-0.2898 0.995707,-0.33351 1.455208,-0.58209 0.621771,-0.33636 1.206024,-0.74154 1.772709,-1.16416 0.995918,-0.74274 2.006626,-1.4759 2.910416,-2.32834 0.655559,-0.6183 1.142815,-1.39448 1.74625,-2.06375 0.36748,-0.40759 0.812827,-0.74258 1.164167,-1.16416 0.13888,-0.16666 0.222435,-0.37629 0.291042,-0.58209 0.03069,-0.0921 0,-0.38806 0,-0.29104 0,0.58208 -0.0385,1.16544 0,1.74625 0.05866,0.88532 0.171635,1.76665 0.291041,2.64583 0.171715,1.26442 0.29554,2.54011 0.582084,3.78355 0.209179,0.90773 0.459422,1.82485 0.899583,2.64583 0.358034,0.66778 0.824759,1.32596 1.455208,1.74625 0.587666,0.39177 1.331013,0.58208 2.037292,0.58208 0.989356,0 1.991254,-0.21608 2.910417,-0.58208 1.058148,-0.42135 2.007076,-1.08847 2.936875,-1.74625 0.73488,-0.51988 1.379775,-1.1579 2.037291,-1.77271 0.70149,-0.65593 1.358186,-1.35818 2.037292,-2.03729 0.582083,-0.58208 1.131914,-1.19832 1.74625,-1.74625 0.367294,-0.32758 0.737367,-0.68136 1.190625,-0.87313 0.268049,-0.1134 0.582083,0 0.873125,0 0.388064,0 0.778034,-0.0386 1.164166,0 0.58719,0.0587 1.162077,0.2076 1.74625,0.29105 0.774304,0.11062 1.546172,0.29104 2.328334,0.29104 1.080346,0 2.163445,-0.10666 3.227916,-0.29104 1.182397,-0.20482 2.331667,-0.5691 3.492505,-0.87313 0.69143,-0.18108 1.38498,-0.35809 2.06375,-0.58208 0.206,-0.068 0.36515,-0.29104 0.58208,-0.29104 0.097,0 0.0236,0.19693 0,0.29104 -0.0744,0.29763 -0.2245,0.57364 -0.29104,0.87312 -0.12801,0.57605 -0.29104,1.15615 -0.29104,1.74625 0,1.07157 0.10813,2.14564 0.29104,3.20146 0.20629,1.19081 0.46162,2.38263 0.87312,3.51896 0.36933,1.01984 0.90527,1.97551 1.45521,2.91042 0.42312,0.71932 0.89636,1.41748 1.45521,2.03729 0.41968,0.46548 0.90969,0.88204 1.45521,1.19062 0.34816,0.19693 0.76718,0.3401 1.16416,0.29104 0.43844,-0.0542 0.80341,-0.36943 1.19063,-0.58208 0.68945,-0.37862 1.37493,-0.76639 2.03729,-1.19062 1.47275,-0.9433 2.95182,-1.88087 4.36563,-2.91042 1.12014,-0.81571 2.13473,-1.76789 3.22791,-2.61938 0.66247,-0.51599 1.42243,-0.90979 2.03729,-1.48166 0.65495,-0.60915 1.13763,-1.38187 1.74625,-2.03729 0.6535,-0.70377 1.38137,-1.33581 2.03729,-2.0373 0.61482,-0.65751 1.23934,-1.31214 1.77271,-2.03729 0.25707,-0.34948 0.32176,-0.81708 0.58209,-1.16416 0.0582,-0.0776 0.26035,-0.0921 0.29104,0 0.0921,0.27612 0,0.58208 0,0.87312 0,0.48506 0,0.97015 0,1.45521 0,1.16417 0,2.32833 0,3.4925 0,1.17298 0,2.34598 0,3.51896 0,0.87312 0,1.74625 0,2.61937 0,0.87313 -0.0959,1.75154 0,2.61938 0.0992,0.89757 0.28009,1.79477 0.58208,2.64583 0.18918,0.53311 0.39587,1.15152 0.87313,1.45521 0.67492,0.4295 1.53035,0.52546 2.32833,0.58208 0.59732,0.0424 1.23632,-0.0249 1.77271,-0.29104 0.67873,-0.33681 1.212,-0.91792 1.74625,-1.45521 1.02153,-1.02732 2.01972,-2.08531 2.91041,-3.22791 0.86022,-1.1035 1.56208,-2.32183 2.32834,-3.4925 0.50382,-0.7697 1.01629,-1.5348 1.48166,-2.32834 0.2235,-0.38108 0.3869,-0.79433 0.58209,-1.19062 0.0959,-0.1946 0.13763,-0.42868 0.29104,-0.58209 0.0686,-0.0686 0.19402,0 0.29104,0 0.48506,0 0.97015,0 1.45521,0 1.65806,0 3.31671,0.0447 4.97417,0 1.94199,-0.0524 3.8826,-0.15917 5.82083,-0.29104 2.33979,-0.1592 7.01146,-0.58208 7.01146,-0.58208"
       style="fill:none;stroke-linecap:round;stroke-linejoin:round" />
    <path
       id="lktjss0zl10"
       stroke-width="1.05833"
       stroke="#e65194"
       d="m 151.28911,101.44549 v 0 c 0,0 7.86138,-13.470339 11.37709,-20.425837 0.58774,-1.162818 0.63431,-2.529153 0.87312,-3.81 0.0533,-0.286121 0.20579,-0.667333 0,-0.873125 -0.36941,-0.369412 -0.94522,-0.468763 -1.45521,-0.582084 -0.3788,-0.08419 -0.80954,-0.157612 -1.16416,0 -0.56767,0.25228 -1.12133,0.640318 -1.45521,1.164167 -1.73345,2.719731 -3.14846,5.630016 -4.68313,8.466666 -1.78157,3.293084 -3.41542,6.666601 -5.26521,9.921875 -1.75013,3.079883 -3.70805,6.037128 -5.52979,9.075208 -1.09762,1.83047 -2.13796,3.69475 -3.22791,5.52979 -0.4712,0.79333 -0.89226,1.6237 -1.45521,2.35479 -0.13235,0.17188 -0.36515,0.29105 -0.58209,0.29105 -0.097,0 -0.0307,-0.199 0,-0.29105 0.0686,-0.20579 0.13169,-0.43489 0.29105,-0.58208 1.12236,-1.03661 2.28737,-2.03274 3.51895,-2.93687 1.69178,-1.24201 3.43065,-2.42692 5.23875,-3.4925 1.50533,-0.88713 3.03314,-1.77988 4.68313,-2.3548 0.9207,-0.3208 1.93831,-0.21627 2.91042,-0.29104 0.29019,-0.0222 0.66966,-0.20809 0.87312,0 0.28565,0.29213 0.19979,0.7924 0.29104,1.19063 0.19979,0.87183 0.48845,1.72987 0.58209,2.61937 0.10154,0.96481 -0.1433,1.95093 0,2.91042 0.0647,0.43307 0.29614,0.85735 0.60854,1.16417 0.21886,0.21497 0.57364,0.35758 0.87312,0.29104 0.63529,-0.14118 1.27236,-0.42709 1.74625,-0.87313 1.20306,-1.13228 2.24893,-2.43369 3.20146,-3.78354 0.70533,-0.99952 1.19764,-2.1345 1.74625,-3.22792 0.72184,-1.43867 1.43312,-2.8847 2.06375,-4.365621 0.15671,-0.368009 0.008,-0.881327 0.29104,-1.164167 0.2058,-0.205793 0,0.582084 0,0.873125 0,1.649228 -0.053,3.299323 0,4.947713 0.0441,1.36974 0.0423,2.75336 0.29104,4.10104 0.23951,1.29762 0.63051,2.57675 1.16417,3.78354 0.25403,0.57444 0.67805,1.08392 1.16417,1.48167 0.10618,0.0869 0.21495,-0.17688 0.29104,-0.29105 0.12033,-0.18049 0.22307,-0.37607 0.29104,-0.58208 0.224,-0.67876 0.35759,-1.38517 0.58208,-2.06375 0.1641,-0.49599 0.34843,-0.98793 0.58209,-1.45521 0.0434,-0.0868 0,0.19402 0,0.29104 0,0.38807 -0.0689,0.78227 0,1.16417 0.12684,0.70342 0.24643,1.43272 0.58208,2.06375 0.55851,1.05 1.30479,1.99477 2.06375,2.91042 0.61288,0.7394 1.2382,1.50455 2.03729,2.03729 0.41159,0.2744 0.99031,0.46008 1.45521,0.29104 0.71207,-0.25895 1.24127,-0.89032 1.74625,-1.45521 1.06405,-1.19028 2.0505,-2.45565 2.93688,-3.78354 1.45441,-2.1789 2.72751,-4.47357 4.07458,-6.72042 0.9901,-1.65142 1.97982,-3.30337 2.93687,-4.974163 0.60421,-1.054788 1.16994,-2.131166 1.74625,-3.201458 0.10285,-0.191003 0.29105,-0.365151 0.29105,-0.582083 0,-0.137187 -0.17688,0.214947 -0.29105,0.291041 -0.18049,0.120333 -0.45193,0.117502 -0.58208,0.291042 -0.18407,0.245427 -0.19402,0.582083 -0.29104,0.873125 -0.097,0.291042 -0.1819,0.586422 -0.29104,0.873125 -0.48189,1.26582 -1.10302,2.483111 -1.48167,3.783541 -0.69969,2.403 -1.37118,4.82796 -1.74625,7.3025 -0.30697,2.02528 -0.3433,4.09059 -0.29104,6.13833 0.0451,1.7652 0.15512,3.55185 0.58208,5.26521 0.26226,1.05246 0.59328,2.252 1.45521,2.91042 0.62376,0.47649 1.62346,0.28506 2.35479,0 1.58121,-0.6163 3.06568,-1.52847 4.36563,-2.61938 1.74442,-1.46388 3.17727,-3.26583 4.68312,-4.97416 2.1027,-2.38546 4.23984,-4.75152 6.13834,-7.3025 1.80366,-2.42356 3.36269,-5.02166 4.9477,-7.59354 0.75372,-1.22301 1.44177,-2.488569 2.06375,-3.783546 0.45593,-0.949246 0.8685,-1.926167 1.16417,-2.936875 0.19262,-0.658389 0.23408,-1.353661 0.29104,-2.037292 0.0403,-0.483393 0.15341,-0.995018 0,-1.455208 -0.0686,-0.205793 -0.36515,-0.291042 -0.58208,-0.291042 -0.30679,0 -0.63894,0.09287 -0.87313,0.291042 -0.47844,0.404839 -0.8523,0.927629 -1.19062,1.455208 -1.22558,1.911086 -2.42856,3.841724 -3.4925,5.847292 -1.46958,2.770191 -2.72068,5.650941 -4.10104,8.466671 -1.05384,2.14968 -2.00819,4.35382 -3.20146,6.42937 -0.27353,0.47577 -0.72514,0.83489 -1.16417,1.16417 -0.0776,0.0582 -0.0538,-0.21032 0,-0.29104 0.34457,-0.51687 0.68231,-1.06318 1.16417,-1.45521 1.09482,-0.89072 2.27883,-1.68093 3.51896,-2.35479 1.10815,-0.60217 2.26631,-1.16018 3.4925,-1.45521 1.62303,-0.39055 3.30623,-0.51284 4.97416,-0.58209 0.68541,-0.0284 1.35549,0.2153 2.0373,0.29105 0.19282,0.0214 0.44489,-0.13719 0.58208,0 0.13719,0.13718 0.0614,0.39801 0,0.58208 -0.0434,0.13015 -0.16089,0.24765 -0.29104,0.29104 -0.18407,0.0614 -0.38807,0 -0.58209,0 -0.29104,0 -0.59076,-0.0706 -0.87312,0 -0.50684,0.12671 -0.94803,0.45672 -1.45521,0.58208 -0.29109,0.072 -0.62047,-0.10964 -0.89958,0 -0.25541,0.10033 -0.42987,0.35378 -0.58209,0.58209 -0.0538,0.0807 -0.0299,0.19873 0,0.29104 0.0692,0.21394 0.25427,0.38671 0.29105,0.60854 0.2559,1.54324 0.45926,3.09719 0.58208,4.65667 0.16843,2.1387 0.0973,4.29281 0.29104,6.42937 0.10671,1.17687 0.19021,2.38731 0.60854,3.4925 0.19651,0.51911 0.60934,1.2069 1.16417,1.19063 2.95944,-0.0868 8.75771,-1.48167 8.75771,-1.48167"
       style="fill:none;stroke-linecap:round;stroke-linejoin:round" />
  </g>
</svg>
