<?xml version="1.0" encoding="UTF-8" standalone="no"?>
<!-- Created with Inkscape (http://www.inkscape.org/) -->

<svg
   width="653.70172mm"
   height="48.229389mm"
   viewBox="0 0 653.7017 48.229391"
   version="1.1"
   id="svg215672"
   inkscape:version="1.1.1 (3bf5ae0d25, 2021-09-20)"
   sodipodi:docname="saltwater.svg"
   xmlns:inkscape="http://www.inkscape.org/namespaces/inkscape"
   xmlns:sodipodi="http://sodipodi.sourceforge.net/DTD/sodipodi-0.dtd"
   xmlns="http://www.w3.org/2000/svg"
   xmlns:svg="http://www.w3.org/2000/svg">
  <sodipodi:namedview
     id="namedview215674"
     pagecolor="#ffffff"
     bordercolor="#666666"
     borderopacity="1.0"
     inkscape:pageshadow="2"
     inkscape:pageopacity="0.0"
     inkscape:pagecheckerboard="0"
     inkscape:document-units="mm"
     showgrid="false"
     inkscape:zoom="0.77771465"
     inkscape:cx="1310.2492"
     inkscape:cy="27.645101"
     inkscape:window-width="1920"
     inkscape:window-height="1144"
     inkscape:window-x="1920"
     inkscape:window-y="28"
     inkscape:window-maximized="1"
     inkscape:current-layer="layer1" />
  <defs
     id="defs215669" />
  <g
     inkscape:label="Layer 1"
     inkscape:groupmode="layer"
     id="layer1"
     transform="translate(406.79436,-32.353188)">
    <rect
       id="rktg54unb1"
       x="-406.2652"
       y="41.626873"
       width="16.933332"
       height="29.104166"
       stroke="#e65194"
       stroke-width="1.05833"
       style="fill:none" />
    <path
       id="lktg55ifks"
       stroke-width="1.05833"
       stroke="#e65194"
       d="m -382.18811,67.026877 v 0 c 0,0 0.17639,0 0.26458,0 0.35278,0 0.70556,0 1.05834,0 0.35277,0 0.70827,0.04376 1.05833,0 0.36083,-0.04511 0.6947,-0.264583 1.05833,-0.264583 0.0882,0 0.0551,0.195712 0,0.264583 -0.31166,0.389573 -0.66452,0.752025 -1.05833,1.058334 -0.40593,0.315727 -0.87337,0.544009 -1.32292,0.79375 -0.34478,0.191558 -0.7428,0.292523 -1.05833,0.529166 -0.0706,0.05292 -0.0624,0.202221 0,0.264584 0.22485,0.224842 0.52107,0.365574 0.79375,0.529166 0.1691,0.101468 0.34208,0.202221 0.52917,0.264584 0.34497,0.114987 0.7241,0.121337 1.05833,0.264583 0.29228,0.125254 0.93596,0.244739 0.79375,0.529167 -0.2124,0.424788 -0.86216,0.413967 -1.32292,0.529166 -0.60501,0.151263 -1.23101,0.208121 -1.85208,0.264584 -0.35133,0.03194 -1.05833,0 -1.05833,0"
       style="fill:none;stroke-linecap:round;stroke-linejoin:round" />
    <path
       id="lktg55j77h"
       stroke-width="1.05833"
       stroke="#e65194"
       d="m -371.60478,67.026877 v 0 c 0,0 0.0394,-0.185711 0,-0.264583 -0.0558,-0.111548 -0.14626,-0.225134 -0.26458,-0.264583 -0.16734,-0.05577 -0.35278,0 -0.52917,0 -0.0882,0 -0.19402,-0.05292 -0.26458,0 -0.29934,0.224499 -0.65478,0.446325 -0.79375,0.79375 -0.23161,0.579014 -0.16206,1.236927 -0.26458,1.852083 -0.0739,0.443574 -0.21984,0.875453 -0.26459,1.322917 -0.0439,0.438785 0,0.881935 0,1.322916 0,0.264584 -0.0642,0.537078 0,0.79375 0.0303,0.120994 0.20881,0.153035 0.26459,0.264584 0.0394,0.07887 -0.0837,0.236696 0,0.264583 0.251,0.08366 0.52916,0 0.79375,0 0.17639,0 0.35277,0 0.52916,0 0.35278,0 0.7091,0.0499 1.05834,0 0.27609,-0.03945 0.57596,-0.09036 0.79375,-0.264583 0.2483,-0.19865 0.47689,-0.480087 0.52916,-0.79375 0.0459,-0.275114 -0.10988,-0.561684 -0.26458,-0.79375 -0.20756,-0.311336 -0.43878,-0.675429 -0.79375,-0.79375 -0.50201,-0.167349 -1.05833,0 -1.5875,0 -0.44097,0 -1.32292,0 -1.32292,0"
       style="fill:none;stroke-linecap:round;stroke-linejoin:round" />
    <path
       id="lktg55jxc7"
       stroke-width="1.05833"
       stroke="#e65194"
       d="m -361.81519,67.291461 v 0 c 0,0 -0.14626,-0.304033 -0.26459,-0.264584 -0.48787,0.162613 -0.90702,0.491279 -1.32291,0.79375 -0.55708,0.405157 -1.21502,0.743506 -1.5875,1.322917 -0.45245,0.703792 -0.7381,1.54641 -0.79375,2.38125 -0.0371,0.556551 0.0395,1.320403 0.52916,1.5875 0.69683,0.3801 1.61364,0.202009 2.38125,0 0.95358,-0.250931 1.9486,-0.625687 2.64584,-1.322917 0.6142,-0.614204 0.95684,-1.518576 1.05833,-2.38125 0.085,-0.722286 -0.22822,-1.454573 -0.52917,-2.116666 -0.15483,-0.340651 -0.79375,-0.79375 -0.79375,-0.79375"
       style="fill:none;stroke-linecap:round;stroke-linejoin:round" />
    <path
       id="lktg55p6n5"
       stroke-width="1.05833"
       stroke="#e65194"
       d="m -318.15895,65.703961 v 0 c 0,0 0.0624,-0.202221 0,-0.264584 -0.0624,-0.06236 -0.19402,0.05292 -0.26458,0 -0.29934,-0.224499 -0.52917,-0.529166 -0.79375,-0.79375 -0.0882,-0.08819 -0.14358,-0.234341 -0.26458,-0.264583 -0.25668,-0.06416 -0.5571,-0.118322 -0.79375,0 -0.17639,0.08819 -0.2218,0.336656 -0.26459,0.529167 -0.13528,0.608779 -0.16975,1.23571 -0.26458,1.852083 -0.0816,0.530225 -0.26458,1.051031 -0.26458,1.5875 0,0.449712 -0.0281,0.981472 0.26458,1.322917 0.30909,0.3606 0.8572,0.436033 1.32292,0.529166 0.43241,0.08649 0.89511,0.106945 1.32291,0 0.3085,-0.07713 0.5689,-0.304324 0.79375,-0.529166 0.0624,-0.06236 0.0734,-0.313505 0,-0.264584 -0.31133,0.207566 -0.59543,0.476435 -0.79375,0.79375 -0.25171,0.402749 -0.31676,0.898128 -0.52916,1.322917 -0.22999,0.459978 -0.47803,0.916993 -0.79375,1.322917 -0.3063,0.393805 -0.67507,0.738954 -1.05834,1.058333 -0.1515,0.126259 -0.33578,0.225901 -0.52916,0.264583 -0.25945,0.05188 -0.52917,0 -0.79375,0 -0.26459,0 -0.53707,0.06416 -0.79375,0 -0.121,-0.03024 -0.23434,-0.143589 -0.26459,-0.264583 -0.0642,-0.256672 -0.0374,-0.531839 0,-0.79375 0.0514,-0.359992 0.19327,-0.701754 0.26459,-1.058333 0.0173,-0.08649 0,-0.264584 0,-0.264584"
       style="fill:none;stroke-linecap:round;stroke-linejoin:round" />
    <path
       id="lktg55q3w8"
       stroke-width="1.05833"
       stroke="#e65194"
       d="m -309.69228,65.439377 v 0 c 0,0 0.11833,-0.557106 0,-0.79375 -0.0882,-0.176397 -0.33348,-0.289057 -0.52917,-0.264583 -0.55348,0.06919 -1.22019,0.109379 -1.5875,0.529167 -0.35326,0.403727 -0.4759,1.094422 -0.26458,1.5875 0.14324,0.334221 0.70556,0.352769 1.05833,0.264583 0.42781,-0.106945 0.83955,-0.410872 1.05834,-0.79375 0.17503,-0.306308 0,-0.705564 0,-1.058333 0,-0.176398 0,-0.529167 0,-0.529167"
       style="fill:none;stroke-linecap:round;stroke-linejoin:round" />
    <path
       id="lktg55qgt4"
       stroke-width="1.05833"
       stroke="#e65194"
       d="m -302.81311,67.026877 v 0 c 0,0 -0.75245,0.06794 -1.05834,0.264584 -0.95006,0.610764 -1.79584,1.372923 -2.64583,2.116666 -1.26805,1.109557 -2.45175,2.312406 -3.70417,3.439584 -0.51199,0.460798 -1.1339,0.804518 -1.5875,1.322916 -0.18365,0.209894 -0.26458,0.79375 -0.26458,0.79375"
       style="fill:none;stroke-linecap:round;stroke-linejoin:round" />
    <path
       id="lktg55qowp"
       stroke-width="1.05833"
       stroke="#e65194"
       d="m -303.60686,73.906044 v 0 c 0,0 0.49441,-0.569251 0.79375,-0.79375 0.0705,-0.05292 0.3135,-0.0734 0.26458,0 -0.20755,0.311335 -0.56924,0.4944 -0.79375,0.79375 -0.30855,0.4114 -0.65247,0.828437 -0.79375,1.322917 -0.0542,0.189626 0.0694,0.501279 0.26458,0.529166 0.53108,0.07586 1.12749,0.01138 1.5875,-0.264583 0.48425,-0.290539 0.93583,-0.771657 1.05834,-1.322917 0.0856,-0.385021 -0.52917,-1.058333 -0.52917,-1.058333"
       style="fill:none;stroke-linecap:round;stroke-linejoin:round" />
    <path
       id="lktg5622z1"
       stroke-width="1.05833"
       stroke="#001f3f"
       d="m -259.95061,48.506044 v 0 c 0,0 0,0 0,0 0,0.08819 -0.0837,0.236696 0,0.264584 0.251,0.08366 0.52916,0 0.79375,0 0.52916,0 1.05833,0 1.5875,0 0.79375,0 1.58984,0.06088 2.38125,0 0.36256,-0.02789 0.6947,-0.264584 1.05833,-0.264584 0.12473,0 -0.16081,0.195395 -0.26458,0.264584 -0.42789,0.285247 -0.87642,0.538612 -1.32292,0.793749 -0.78838,0.450507 -1.54936,0.958956 -2.38125,1.322917 -0.58823,0.25736 -1.29082,0.217355 -1.85208,0.529167 -0.27798,0.154437 -0.52917,0.475747 -0.52917,0.79375 0,0.19722 0.33955,0.210396 0.52917,0.264583 0.4324,0.123534 0.89629,0.12237 1.32291,0.264583 0.63721,0.212408 1.23831,0.520965 1.85209,0.79375 0.18021,0.08009 0.66861,0.125148 0.52916,0.264584 -0.41834,0.418332 -1.0228,0.617273 -1.5875,0.79375 -0.85847,0.268261 -1.75431,0.410289 -2.64583,0.529166 -0.4371,0.05829 -1.32292,0 -1.32292,0"
       style="fill:none;stroke-linecap:round;stroke-linejoin:round" />
    <path
       id="lktg562thk"
       stroke-width="1.05833"
       stroke="#001f3f"
       d="m -245.9277,48.506044 v 0 c 0,0 -0.35277,-0.352769 -0.52916,-0.529166 -0.0882,-0.08819 -0.14878,-0.218255 -0.26459,-0.264584 -0.33762,-0.135043 -0.69469,-0.264583 -1.05833,-0.264583 -0.19721,0 -0.34606,0.191347 -0.52917,0.264583 -0.25894,0.103585 -0.69582,0.0034 -0.79375,0.264584 -0.21677,0.578061 0.0411,1.23608 0,1.852083 -0.0473,0.70948 -0.1706,1.411869 -0.26458,2.116666 -0.0824,0.618147 -0.21279,1.230604 -0.26458,1.852084 -0.0366,0.439446 0.10695,0.895112 0,1.322916 -0.0771,0.308505 -0.52917,0.475748 -0.52917,0.79375 0,0.197221 0.36508,0.155205 0.52917,0.264584 0.10377,0.06919 0.14358,0.234341 0.26458,0.264583 0.25668,0.06416 0.54809,-0.09827 0.79375,0 0.23161,0.09266 0.27972,0.529167 0.52917,0.529167 0.31799,0 0.5951,-0.280855 0.79375,-0.529167 0.17422,-0.217778 0.15472,-0.537395 0.26458,-0.79375 0.15537,-0.362532 0.43351,-0.675693 0.52917,-1.058333 0.0856,-0.342239 0.13896,-0.734087 0,-1.058334 -0.1474,-0.343931 -0.46888,-0.608118 -0.79375,-0.79375 -0.31573,-0.180419 -0.70556,-0.176397 -1.05834,-0.264583 -0.35277,-0.08819 -1.05833,-0.264583 -1.05833,-0.264583"
       style="fill:none;stroke-linecap:round;stroke-linejoin:round" />
    <path
       id="lktg563k1n"
       stroke-width="1.05833"
       stroke="#001f3f"
       d="m -233.49228,49.035211 v 0 c 0,0 -0.33785,-0.216747 -0.52917,-0.264583 -0.52044,-0.130123 -1.08679,-0.457174 -1.5875,-0.264584 -0.75891,0.291889 -1.31188,0.979779 -1.85208,1.5875 -0.8789,0.988748 -1.84396,1.966092 -2.38125,3.175 -0.21788,0.49022 -0.0234,1.134904 0.26458,1.5875 0.36981,0.581131 0.91699,1.165146 1.5875,1.322917 0.94825,0.223123 1.99097,0.05723 2.91042,-0.264584 0.90041,-0.315145 1.84256,-0.800179 2.38125,-1.5875 0.67738,-0.990017 0.92586,-2.247344 1.05833,-3.439583 0.0524,-0.472043 -0.3624,-0.878205 -0.52916,-1.322917 -0.0979,-0.261143 -0.26459,-0.793749 -0.26459,-0.793749"
       style="fill:none;stroke-linecap:round;stroke-linejoin:round" />
    <path
       id="lktg56506d"
       stroke-width="1.05833"
       stroke="#001f3f"
       d="m -212.5902,52.739377 v 0 c 0,0 -0.15315,0.441643 0,0.529167 0.55747,0.318558 1.24297,0.326126 1.85209,0.529167 0.71486,0.238284 2.11666,0.79375 2.11666,0.79375"
       style="fill:none;stroke-linecap:round;stroke-linejoin:round" />
    <path
       id="lktg5656o0"
       stroke-width="1.05833"
       stroke="#001f3f"
       d="m -212.06103,54.856044 v 0 c 0,0 0.14878,-0.218255 0.26458,-0.264583 0.33763,-0.135044 0.71336,-0.149596 1.05834,-0.264584 0.45057,-0.150177 0.89811,-0.316759 1.32291,-0.529166 0.28442,-0.142214 0.79375,-0.529167 0.79375,-0.529167"
       style="fill:none;stroke-linecap:round;stroke-linejoin:round" />
    <path
       id="lktg565e3n"
       stroke-width="1.05833"
       stroke="#001f3f"
       d="m -210.20895,51.151877 v 0 c 0,0 0,0 0,0 0,0.352769 0.0293,0.706782 0,1.058334 -0.0591,0.70858 -0.26458,1.405625 -0.26458,2.116666 0,0.449713 0.26458,1.322917 0.26458,1.322917"
       style="fill:none;stroke-linecap:round;stroke-linejoin:round" />
    <path
       id="lktg565orw"
       stroke-width="1.05833"
       stroke="#001f3f"
       d="m -199.8902,52.210211 v 0 c 0,0 -0.56168,0.109881 -0.79375,0.264583 -0.0734,0.04892 -0.0789,0.304033 0,0.264583 0.7442,-0.372083 1.38936,-0.918845 2.11667,-1.322916 0.86196,-0.47887 1.77438,-0.861563 2.64583,-1.322917 0.62842,-0.332687 1.16226,-0.885878 1.85209,-1.058333 0.19132,-0.04784 0.29985,0.335148 0.26458,0.529166 -0.14967,0.823199 -0.61225,1.564482 -0.79375,2.38125 -0.17325,0.779622 -0.20767,1.584643 -0.26458,2.38125 -0.0314,0.439844 0,1.322917 0,1.322917"
       style="fill:none;stroke-linecap:round;stroke-linejoin:round" />
    <path
       id="lktg566scj"
       stroke-width="1.05833"
       stroke="#001f3f"
       d="m -159.40895,46.653961 v 0 c 0,0 0.0395,-0.185711 0,-0.264583 -0.0558,-0.111549 -0.15303,-0.320358 -0.26458,-0.264584 -0.50509,0.252545 -1.04868,0.564674 -1.32292,1.058334 -0.21415,0.385471 -0.27548,0.978587 0,1.322916 0.22037,0.275484 0.72803,0.123878 1.05834,0 0.41288,-0.154834 0.83955,-0.410871 1.05833,-0.79375 0.17502,-0.306308 0.13102,-0.730779 0,-1.058333 -0.0732,-0.183092 -0.52917,-0.264583 -0.52917,-0.264583"
       style="fill:none;stroke-linecap:round;stroke-linejoin:round" />
    <path
       id="lktg5674l6"
       stroke-width="1.05833"
       stroke="#001f3f"
       d="m -152.2652,47.976878 v 0 c 0,0 -0.70371,0.531627 -1.05833,0.79375 -1.67386,1.237191 -3.3619,2.45528 -5.02708,3.704166 -1.15721,0.867886 -2.2978,1.757759 -3.43959,2.645833 -0.44577,0.34671 -1.10045,0.539274 -1.32291,1.058334 -0.12526,0.292285 0.52916,0.79375 0.52916,0.79375"
       style="fill:none;stroke-linecap:round;stroke-linejoin:round" />
    <path
       id="lktg567ccm"
       stroke-width="1.05833"
       stroke="#001f3f"
       d="m -153.8527,55.120627 v 0 c 0,0 0.38973,-0.125147 0.52917,-0.264583 0.0624,-0.06236 -0.19119,-0.04892 -0.26458,0 -0.46988,0.31324 -1.04868,0.564674 -1.32292,1.058333 -0.21415,0.385472 -0.31181,1.011106 0,1.322917 0.31181,0.311812 0.88463,0.04871 1.32292,0 0.36142,-0.04016 0.85661,0.03797 1.05833,-0.264583 0.24461,-0.366924 0.1791,-0.919956 0,-1.322917 -0.20262,-0.455903 -1.05833,-1.058333 -1.05833,-1.058333"
       style="fill:none;stroke-linecap:round;stroke-linejoin:round" />
    <path
       id="lktg5680c6"
       stroke-width="1.05833"
       stroke="#001f3f"
       d="m -258.09853,63.587294 v 0 c 0,0 -0.70556,0 -1.05833,0 -0.0882,0 -0.35015,-0.02143 -0.26459,0 0.78884,0.19722 1.56923,0.487177 2.38125,0.529167 4.31666,0.223282 8.64231,0.228864 12.96459,0.264583 6.34978,0.05247 12.7,0 19.05,0 6.70277,0 13.4057,0.0444 20.10833,0 6.61503,-0.04382 13.23017,-0.11975 19.84375,-0.264583 5.4696,-0.119777 10.93555,-0.371422 16.40417,-0.529167 3.70366,-0.106839 7.4092,-0.145124 11.1125,-0.264583 1.76516,-0.05694 3.53766,-0.05823 5.29166,-0.264584 1.2541,-0.147531 2.44973,-0.648996 3.70417,-0.79375 1.05135,-0.121311 2.11799,0.05286 3.175,0 0.71017,-0.03551 1.40562,-0.264583 2.11667,-0.264583 0.27889,0 0.79375,-0.01429 0.79375,0.264583 0,0.318003 -0.79375,0.529167 -0.79375,0.529167"
       style="fill:none;stroke-linecap:round;stroke-linejoin:round" />
    <path
       id="lktg5694wa"
       stroke-width="1.05833"
       stroke="#001f3f"
       d="m -209.67978,70.731044 v 0 c 0,0 0.0837,-0.236696 0,-0.264583 -0.251,-0.08366 -0.56687,0.136128 -0.79375,0 -0.27267,-0.163592 -0.28086,-0.595101 -0.52917,-0.79375 -0.21778,-0.174229 -0.51865,-0.218731 -0.79375,-0.264584 -0.26098,-0.0435 -0.63996,-0.215291 -0.79375,0 -0.37319,0.522473 -0.38479,1.22645 -0.52916,1.852084 -0.12063,0.522737 -0.22004,1.052882 -0.26459,1.5875 -0.0439,0.527341 -0.11479,1.070927 0,1.5875 0.069,0.310409 0.24475,0.651536 0.52917,0.79375 0.31553,0.157771 0.71241,0.06919 1.05833,0 0.12231,-0.02461 0.14626,-0.225134 0.26459,-0.264584 0.16734,-0.05577 0.52916,-0.176398 0.52916,0 0,0.197221 -0.41977,0.100489 -0.52916,0.264584 -0.26345,0.395181 -0.36686,0.876564 -0.52917,1.322916 -0.19062,0.524219 -0.41977,1.040553 -0.52917,1.5875 -0.0692,0.345916 0.11156,0.723662 0,1.058333 -0.0789,0.236644 -0.29251,0.450295 -0.52916,0.529167 -0.33468,0.111548 -0.71609,0.08557 -1.05834,0 -0.38264,-0.09567 -0.68415,-0.404442 -1.05833,-0.529167 -0.16734,-0.05577 -0.45028,0.157771 -0.52917,0 -0.0882,-0.176397 0.22591,-0.335782 0.26459,-0.529166 0.0519,-0.259451 0,-0.529167 0,-0.79375 0,-0.08819 0,-0.264584 0,-0.264584"
       style="fill:none;stroke-linecap:round;stroke-linejoin:round" />
    <path
       id="lktg569xmq"
       stroke-width="1.05833"
       stroke="#001f3f"
       d="m -199.62561,68.085211 v 0 c 0,0 -0.16481,-0.18976 -0.26459,-0.264584 -0.25439,-0.190791 -0.50932,-0.67138 -0.79375,-0.529166 -0.61611,0.308054 -0.9884,0.985361 -1.32291,1.5875 -0.12849,0.231298 -0.18709,0.606663 0,0.79375 0.33583,0.335835 0.85034,0.576421 1.32291,0.529166 0.51171,-0.05117 0.90445,-0.49485 1.32292,-0.79375 0.20299,-0.144991 0.41762,-0.306043 0.52917,-0.529166 0.0789,-0.157771 0,-0.529167 0,-0.529167"
       style="fill:none;stroke-linecap:round;stroke-linejoin:round" />
    <path
       id="lktg56a9qy"
       stroke-width="1.05833"
       stroke="#001f3f"
       d="m -190.89436,70.731044 v 0 c 0,0 -0.35277,0.352769 -0.52917,0.529167 -1.23473,1.234731 -2.42763,2.512721 -3.70417,3.704166 -1.37075,1.279366 -2.90748,2.378313 -4.23333,3.704167 -0.36364,0.363643 -0.79375,1.322916 -0.79375,1.322916"
       style="fill:none;stroke-linecap:round;stroke-linejoin:round" />
    <path
       id="lktg56ah0e"
       stroke-width="1.05833"
       stroke="#001f3f"
       d="m -192.48186,78.139377 v 0 c 0,0 0.50932,-0.386953 0.79375,-0.529167 0.0789,-0.03945 0.3175,-0.07056 0.26458,0 -0.29935,0.399124 -0.83521,0.612114 -1.05833,1.058334 -0.15777,0.315542 -0.22037,0.782849 0,1.058333 0.22717,0.283951 0.71337,0.379571 1.05833,0.264583 0.30168,-0.100568 0.48419,-0.478948 0.52917,-0.79375 0.0514,-0.359992 -0.26459,-1.058333 -0.26459,-1.058333"
       style="fill:none;stroke-linecap:round;stroke-linejoin:round" />
    <path
       id="lktg56b6h2"
       stroke-width="1.05833"
       stroke="#001f3f"
       d="m -130.83395,60.412294 v 0 c 0,0 -0.70556,0 -1.05833,0 -0.26458,0 0.52917,0 0.79375,0 1.05833,0 2.11667,0 3.175,0 1.32292,0 3.96875,0 3.96875,0"
       style="fill:none;stroke-linecap:round;stroke-linejoin:round" />
    <path
       id="lktg56be00"
       stroke-width="1.05833"
       stroke="#001f3f"
       d="m -131.6277,64.381044 v 0 c 0,0 -0.0856,0.243205 0,0.264583 0.68982,0.172456 1.4178,0.133536 2.11667,0.264584 0.71482,0.134038 2.11667,0.529166 2.11667,0.529166"
       style="fill:none;stroke-linecap:round;stroke-linejoin:round" />
    <path
       id="lktg56bnpj"
       stroke-width="1.05833"
       stroke="#001f3f"
       d="m -117.3402,61.206044 v 0 c 0,0 -0.37139,0.07887 -0.52916,0 -0.0789,-0.03945 -0.0879,-0.256593 0,-0.264583 0.96615,-0.08784 1.9409,0.03463 2.91041,0 1.50093,-0.0536 4.49792,-0.264584 4.49792,-0.264584"
       style="fill:none;stroke-linecap:round;stroke-linejoin:round" />
    <path
       id="lktg56bv3f"
       stroke-width="1.05833"
       stroke="#001f3f"
       d="m -117.07561,64.381044 v 0 c 0,0 -0.52917,0.06736 -0.52917,0.264583 0,0.176398 0.35277,0 0.52917,0 0.97014,0 2.91041,0 2.91041,0"
       style="fill:none;stroke-linecap:round;stroke-linejoin:round" />
    <path
       id="lktg56c2ya"
       stroke-width="1.05833"
       stroke="#001f3f"
       d="m -101.72978,60.412294 v 0 c 0,0 -0.79375,-0.211164 -0.79375,-0.529167 0,-0.264583 0.52917,0 0.79375,0 1.14652,0 2.293645,0.03696 3.439582,0 1.589114,-0.05125 4.7625,-0.264583 4.7625,-0.264583"
       style="fill:none;stroke-linecap:round;stroke-linejoin:round" />
    <path
       id="lktg56c9nv"
       stroke-width="1.05833"
       stroke="#001f3f"
       d="m -99.348531,62.793544 v 0 c 0,0 -1.067219,0.209894 -0.793749,0.264583 0.691858,0.138377 2.116665,0 2.116665,0"
       style="fill:none;stroke-linecap:round;stroke-linejoin:round" />
    <path
       id="lktg57glky"
       stroke-width="1.05833"
       stroke="#e65194"
       d="m -348.85061,71.260211 v 0 c 0,0 0.20222,-0.34208 0.26458,-0.529167 0.0279,-0.08366 0.0837,-0.236696 0,-0.264583 -0.251,-0.08366 -0.52916,0 -0.79375,0 -0.26458,0 -0.53277,-0.0435 -0.79375,0 -0.2751,0.04585 -0.57949,0.08604 -0.79375,0.264583 -0.33876,0.28231 -0.73905,0.620765 -0.79375,1.058333 -0.0489,0.391372 0.35278,0.705565 0.52917,1.058334 0.17639,0.352768 0.25027,0.779436 0.52917,1.058333 0.27889,0.278897 0.6733,0.4436 1.05833,0.529167 0.43047,0.09567 0.88464,0.04871 1.32292,0 0.36141,-0.04016 0.7426,-0.08416 1.05833,-0.264584 0.32488,-0.185631 0.55421,-0.506306 0.79375,-0.79375 0.20357,-0.24429 0.42861,-0.492072 0.52917,-0.79375 0.0837,-0.25101 -0.0837,-0.54274 0,-0.79375 0.0279,-0.08366 0.20222,-0.06236 0.26458,0 0.0624,0.06236 0.0394,0.185711 0,0.264584 -0.14221,0.284427 -0.36556,0.52107 -0.52917,0.79375 -0.10146,0.169095 -0.14626,0.371395 -0.26458,0.529166 -0.14967,0.199549 -0.77862,0.529167 -0.52917,0.529167 0.31799,0 0.51766,-0.371396 0.79375,-0.529167 0.34245,-0.195686 0.72387,-0.320119 1.05834,-0.529166 0.37394,-0.233707 0.69142,-0.549143 1.05833,-0.79375 0.16409,-0.109379 0.33196,-0.264584 0.52917,-0.264584 0.0882,0 0.0173,0.178091 0,0.264584 -0.0713,0.356579 -0.17639,0.705564 -0.26459,1.058333 -0.0882,0.352769 -0.61736,0.970148 -0.26458,1.058333 0.4989,0.124725 0.88194,-0.529166 1.32292,-0.79375 0.44097,-0.264583 0.90162,-0.498845 1.32291,-0.79375 0.46264,-0.32385 0.8326,-0.778166 1.32292,-1.058333 0.15315,-0.08752 0.45028,-0.157771 0.52917,0 0.0882,0.176398 -0.21041,0.33954 -0.26459,0.529167 -0.12354,0.432408 -0.20098,0.877728 -0.26458,1.322916 -0.025,0.174625 0,0.529167 0,0.529167"
       style="fill:none;stroke-linecap:round;stroke-linejoin:round" />
    <path
       id="lktg57hsxh"
       stroke-width="1.05833"
       stroke="#e65194"
       d="m -338.79644,64.381044 v 0 c 0,0 0.17638,0 0.26458,0 0.35278,0 0.7091,-0.0499 1.05833,0 0.27609,0.03945 0.5617,0.109881 0.79375,0.264583 0.0734,0.04892 0.0624,0.202221 0,0.264584 -0.31181,0.311811 -0.72352,0.506756 -1.05833,0.79375 -0.2841,0.243522 -0.52917,0.529166 -0.79375,0.79375 -0.0882,0.08819 -0.26458,0.139858 -0.26458,0.264583 0,0.124725 0.14625,0.225134 0.26458,0.264583 0.16734,0.05577 0.35804,-0.04278 0.52917,0 0.19132,0.04784 0.34207,0.202221 0.52916,0.264584 0.0837,0.02789 0.26459,-0.08819 0.26459,0 0,0.19722 -0.12514,0.389731 -0.26459,0.529166 -0.13945,0.139436 -0.34208,0.202221 -0.52916,0.264584 -0.34498,0.114988 -0.69836,0.213148 -1.05834,0.264583 -0.26192,0.03741 -0.79375,0 -0.79375,0"
       style="fill:none;stroke-linecap:round;stroke-linejoin:round" />
    <path
       id="lktg57uabp"
       stroke-width="1.05833"
       stroke="#e65194"
       d="m -327.15478,64.910211 v 0 c 0,0 0,0 0,0 0,0.176397 0.0789,0.371395 0,0.529166 -0.19721,0.394415 -0.50078,0.728742 -0.79375,1.058334 -0.41431,0.466116 -0.88194,0.881935 -1.32292,1.322916 -0.61736,0.617353 -1.31975,1.160066 -1.85208,1.852084 -0.36072,0.468947 -0.48019,1.085797 -0.79375,1.5875 -0.13221,0.211534 -0.35278,0.352769 -0.52917,0.529166 -0.0882,0.08819 -0.26458,0.139859 -0.26458,0.264584 0,0.19722 0.1005,0.419787 0.26458,0.529166 0.14677,0.09784 0.35805,-0.04278 0.52917,0 0.19132,0.04784 0.33579,0.225901 0.52917,0.264584 0.25944,0.05188 0.53182,0.03741 0.79375,0 0.35998,-0.05143 0.74652,-0.0775 1.05833,-0.264584 0.16911,-0.101467 0.12514,-0.389731 0.26458,-0.529166 0.13945,-0.139436 0.35278,-0.176398 0.52917,-0.264584 0.17639,-0.08818 0.44097,-0.08818 0.52917,-0.264583 0.11832,-0.236643 0.0983,-0.548084 0,-0.79375 -0.0927,-0.231616 -0.3908,-0.321601 -0.52917,-0.529167 -0.21878,-0.328162 -0.31038,-0.73017 -0.52917,-1.058333 -0.31325,-0.469874 -0.78408,-0.829257 -1.05833,-1.322917 -0.17659,-0.31787 -0.12134,-0.724111 -0.26458,-1.058333 -0.12526,-0.292285 -0.41107,-0.498502 -0.52917,-0.79375 -0.0655,-0.163777 0,-0.352769 0,-0.529167 0,-0.176397 0,-0.352769 0,-0.529166 0,-0.08819 -0.0789,-0.225134 0,-0.264584 0.15777,-0.07887 0.35805,0.04278 0.52917,0 0.19132,-0.04784 0.33579,-0.225901 0.52916,-0.264583 0.25945,-0.05188 0.52917,0 0.79375,0 0.35278,0 0.70556,0 1.05834,0 0.17639,0 0.52916,0 0.52916,0"
       style="fill:none;stroke-linecap:round;stroke-linejoin:round" />
    <path
       id="lktg58orwn"
       stroke-width="1.05833"
       stroke="#001f3f"
       d="m -226.34853,55.649794 v 0 c 0,0 0,0 0,0 -0.0882,0 -0.17639,0 -0.26458,0 -0.35278,0 -0.70828,-0.04376 -1.05834,0 -0.36082,0.04511 -0.71785,0.136896 -1.05833,0.264583 -0.36931,0.138483 -0.83955,0.201004 -1.05833,0.529167 -0.19569,0.293529 -0.17503,0.752025 0,1.058333 0.21878,0.382879 0.63999,0.654315 1.05833,0.79375 0.41834,0.139436 0.88413,0.04387 1.32292,0 0.44747,-0.04474 0.91197,-0.08194 1.32291,-0.264583 0.40297,-0.179096 0.72353,-0.506756 1.05834,-0.79375 0.28409,-0.243522 0.52916,-0.529167 0.79375,-0.79375 0.0882,-0.08819 0.13986,-0.264583 0.26458,-0.264583 0.0882,0 0.0454,0.188965 0,0.264583 -0.22688,0.378143 -0.57497,0.675455 -0.79375,1.058333 -0.13837,0.242147 -0.161,0.534803 -0.26458,0.79375 -0.0733,0.183092 -0.45168,0.466805 -0.26459,0.529167 0.34498,0.114988 0.74046,-0.08797 1.05834,-0.264583 0.49365,-0.274241 0.85304,-0.745093 1.32291,-1.058334 0.32818,-0.218784 0.73739,-0.299905 1.05834,-0.529166 0.30448,-0.217488 0.48241,-0.586185 0.79375,-0.79375 0.0734,-0.04892 0.0327,0.182695 0,0.264583 -0.14649,0.36621 -0.3738,0.695801 -0.52917,1.058333 -0.10986,0.256355 -0.19694,0.523187 -0.26458,0.79375 -0.0214,0.08557 -0.0865,0.281887 0,0.264584 0.46572,-0.09313 0.90596,-0.301731 1.32291,-0.529167 0.55833,-0.304535 1.05834,-0.705564 1.5875,-1.058333 0.26459,-0.176398 0.48526,-0.606293 0.79375,-0.529167 0.27057,0.06765 0.26459,0.514853 0.26459,0.79375 0,0.278897 -0.26459,0.514853 -0.26459,0.79375 0,0.278897 0.26459,0.79375 0.26459,0.79375"
       style="fill:none;stroke-linecap:round;stroke-linejoin:round" />
    <path
       id="lktg58ptu7"
       stroke-width="1.05833"
       stroke="#001f3f"
       d="m -217.08811,47.183128 v 0 c 0,0 0.35277,0 0.52916,0 0.26459,0 0.53431,-0.05189 0.79375,0 0.19338,0.03868 0.52917,0.06736 0.52917,0.264583 0,0.249449 -0.35278,0.352769 -0.52917,0.529167 -0.35277,0.352768 -0.76835,0.652356 -1.05833,1.058333 -0.1621,0.226959 -0.26458,0.514853 -0.26458,0.79375 0,0.124724 0.1608,0.195395 0.26458,0.264583 0.16409,0.109379 0.36006,0.163116 0.52917,0.264583 0.27267,0.163592 0.79375,0.211164 0.79375,0.529167 0,0.278897 -0.53481,0.160999 -0.79375,0.264583 -0.18311,0.07324 -0.35278,0.176398 -0.52917,0.264584 -0.35278,0.176398 -1.05833,0.529166 -1.05833,0.529166"
       style="fill:none;stroke-linecap:round;stroke-linejoin:round" />
    <path
       id="lktg59kqpy"
       stroke-width="1.05833"
       stroke="#001f3f"
       d="m -221.85061,69.408127 v 0 c 0,0 0.0756,-0.309959 0,-0.264583 -0.48425,0.290539 -0.89678,0.687784 -1.32292,1.058333 -1.60278,1.393719 -3.23145,2.761165 -4.7625,4.233334 -0.76553,0.73607 -1.42552,1.574905 -2.11667,2.381249 -0.36751,0.428758 -0.80578,0.817828 -1.05833,1.322917 -0.11832,0.236643 -0.16938,0.590497 0,0.79375 0.32922,0.395076 0.82007,0.685985 1.32292,0.79375 0.77613,0.166317 1.59235,0.08766 2.38125,0 0.80814,-0.0898 1.60409,-0.290036 2.38125,-0.529167 0.37697,-0.115993 1.16669,-0.149912 1.05833,-0.529166 -0.34943,-1.22301 -1.23841,-2.254912 -2.11667,-3.175 -0.99877,-1.046321 -2.30546,-1.747996 -3.43958,-2.645833 -0.98278,-0.778034 -1.96318,-1.560301 -2.91042,-2.38125 -0.37701,-0.326734 -0.83521,-0.612114 -1.05833,-1.058334 -0.0882,-0.176397 0.0844,-0.449077 0.26458,-0.529166 0.66459,-0.295381 1.39385,-0.448866 2.11667,-0.529167 0.87655,-0.09739 1.76389,0 2.64583,0 0.97014,0 1.94028,0 2.91042,0 0.52917,0 1.5875,0 1.5875,0"
       style="fill:none;stroke-linecap:round;stroke-linejoin:round" />
    <path
       id="lktg59of6n"
       stroke-width="1.05833"
       stroke="#001f3f"
       d="m -179.51728,49.035211 v 0 c 0,0 0.0734,-0.215662 0,-0.264583 -0.23207,-0.154702 -0.5374,-0.154729 -0.79375,-0.264584 -0.36253,-0.155363 -0.68903,-0.390684 -1.05833,-0.529166 -0.3405,-0.127688 -0.69964,-0.204814 -1.05834,-0.264584 -0.17399,-0.029 -0.43841,-0.151262 -0.52916,0 -0.23138,0.38563 -0.21985,0.875454 -0.26459,1.322917 -0.0439,0.438785 0,0.881935 0,1.322916 0,0.529167 -0.18579,1.092015 0,1.5875 0.11166,0.297736 0.48916,0.437807 0.79375,0.529167 0.59733,0.179202 1.23061,0.212805 1.85209,0.264583 0.43944,0.03662 0.88638,0.06236 1.32291,0 0.19524,-0.02789 0.52917,-0.461803 0.52917,-0.264583 0,0.394415 -0.35277,0.705564 -0.52917,1.058333 -0.26458,0.529167 -0.59155,1.031505 -0.79375,1.5875 -0.15369,0.422619 -0.21492,0.875956 -0.26458,1.322917 -0.0389,0.350626 0.058,0.710353 0,1.058333 -0.0324,0.194522 -0.0775,0.466805 -0.26458,0.529167 -0.41834,0.139435 -0.88194,0 -1.32292,0 -0.44098,0 -0.88194,0 -1.32292,0 -0.26458,0 -0.5571,0.118322 -0.79375,0 -0.17639,-0.08819 -0.20222,-0.34208 -0.26458,-0.529167 -0.0279,-0.08366 -0.0214,-0.179017 0,-0.264583 0.0676,-0.270563 0.20989,-0.520277 0.26458,-0.79375 0.0346,-0.172958 0,-0.352769 0,-0.529167 0,-0.264583 0,-0.79375 0,-0.79375"
       style="fill:none;stroke-linecap:round;stroke-linejoin:round" />
    <path
       id="lktg5a7eh7"
       stroke-width="1.05833"
       stroke="#001f3f"
       d="m -77.652698,55.120627 v 0 c 0,0 -0.557107,-0.118321 -0.79375,0 -0.176398,0.08819 -0.414311,0.657516 -0.264584,0.529167 0.757582,-0.649367 1.411103,-1.411102 2.116667,-2.116667 0.440981,-0.440981 0.8568,-0.908605 1.322917,-1.322916 0.329591,-0.292973 0.617352,-0.79375 1.058333,-0.79375 0.264583,0 0.07892,0.541205 0,0.79375 -0.366395,1.172501 -0.950463,2.269014 -1.322917,3.439583 -0.246538,0.774832 -0.383725,1.581256 -0.529166,2.38125 -0.03157,0.17354 0,0.529167 0,0.529167"
       style="fill:none;stroke-linecap:round;stroke-linejoin:round" />
    <path
       id="lktg5a7tfu"
       stroke-width="1.05833"
       stroke="#001f3f"
       d="m -64.158948,50.887294 v 0 c 0,0 -0.0775,-0.466804 -0.264584,-0.529167 -0.418332,-0.139435 -0.93464,-0.209073 -1.322916,0 -0.825447,0.444474 -1.596629,1.072013 -2.116667,1.852084 -0.572611,0.858917 -1.004067,1.879547 -1.058333,2.910416 -0.03961,0.752502 0.316574,1.533472 0.79375,2.116667 0.37465,0.457888 0.995865,0.79375 1.5875,0.79375 0.753533,0 1.583848,-0.260932 2.116666,-0.79375 0.781394,-0.781394 1.20986,-1.871874 1.5875,-2.910417 0.336974,-0.926676 0.529167,-1.924367 0.529167,-2.910416 0,-0.557795 -0.100648,-1.230419 -0.529167,-1.5875 -0.279347,-0.232781 -1.058333,0.264583 -1.058333,0.264583"
       style="fill:none;stroke-linecap:round;stroke-linejoin:round" />
    <path
       id="lktg5a8b1f"
       stroke-width="1.05833"
       stroke="#001f3f"
       d="m -49.871449,51.945627 v 0 c 0,0 -0.183515,-0.03474 -0.264583,0 -0.543798,0.233045 -1.095243,0.465588 -1.5875,0.79375 -1.100746,0.733822 -2.141987,1.554824 -3.175,2.38125 -0.732075,0.585656 -1.596628,1.072013 -2.116667,1.852084 -0.244607,0.366924 -0.286993,0.988113 0,1.322916 0.363009,0.423519 1.051164,0.37592 1.5875,0.529167 0.699294,0.199787 1.389407,0.529167 2.116667,0.529167 0.474954,0 1.270476,-0.05712 1.322917,-0.529167 0.07853,-0.706702 -0.702072,-1.236715 -1.058334,-1.852083 -0.613886,-1.060344 -1.145513,-2.174029 -1.852083,-3.175 -0.359648,-0.509482 -0.908605,-0.8568 -1.322917,-1.322917 -0.292973,-0.329591 -0.866245,-0.623358 -0.79375,-1.058333 0.06485,-0.389044 0.671566,-0.451803 1.058334,-0.529167 0.518901,-0.103769 1.062963,0.06993 1.5875,0 0.805974,-0.107474 2.38125,-0.529167 2.38125,-0.529167"
       style="fill:none;stroke-linecap:round;stroke-linejoin:round" />
    <path
       id="lktg5a8u5k"
       stroke-width="1.05833"
       stroke="#001f3f"
       d="m -40.346449,51.416461 v 0 c 0,0 -0.523187,-0.332237 -0.79375,-0.264584 -0.498898,0.124725 -0.959273,0.430107 -1.322916,0.79375 -0.974143,0.974143 -1.895026,2.019935 -2.645834,3.175 -0.410659,0.631799 -0.887227,1.368955 -0.79375,2.116667 0.103188,0.825606 0.61431,1.680607 1.322917,2.116667 0.600895,0.369781 1.452219,0.237304 2.116667,0 0.648679,-0.231669 1.434835,-0.651219 1.5875,-1.322917 0.332845,-1.464548 0.01905,-3.02305 -0.264584,-4.497917 -0.164041,-0.85299 -0.746522,-1.57054 -1.058333,-2.38125 -0.130545,-0.339407 -0.264583,-1.058333 -0.264583,-1.058333"
       style="fill:none;stroke-linecap:round;stroke-linejoin:round" />
    <path
       id="lktg5a9fsz"
       stroke-width="1.05833"
       stroke="#001f3f"
       d="m -82.415198,63.058127 v 0 c 0,0 -0.08819,-0.264583 0,-0.264583 0.363643,0 0.69514,0.246856 1.058333,0.264583 3.260513,0.159041 6.525207,0.264584 9.789583,0.264584 4.939665,0 9.879965,-0.09287 14.816667,-0.264584 5.207053,-0.181107 10.403311,-0.614203 15.610416,-0.79375 2.467981,-0.08509 4.938898,0 7.408334,0 1.499314,0 3.000163,0.06808 4.497916,0 0.449236,-0.02037 1.322917,-0.264583 1.322917,-0.264583"
       style="fill:none;stroke-linecap:round;stroke-linejoin:round" />
    <path
       id="lktg5acdlg"
       stroke-width="1.05833"
       stroke="#001f3f"
       d="m -10.183949,63.058127 v 0 c 0,0 0.2268801,-0.657622 0,-0.79375 -0.378143,-0.22688 -0.907627,-0.148325 -1.322917,0 -0.855107,0.305409 -1.739185,0.680853 -2.38125,1.322917 -0.557794,0.557795 -1.23571,1.348026 -1.058333,2.116667 0.170603,0.739245 1.116065,1.138899 1.852083,1.322916 1.112309,0.278077 2.296425,0.08795 3.4395836,0 1.1565995,-0.08898 2.3391018,-0.162348 3.4395832,-0.529166 0.5357284,-0.178568 0.9554104,-0.629576 1.3229167,-1.058334 0.1815042,-0.211746 0.097234,-0.570627 0.2645833,-0.79375 0.1183217,-0.157771 0.5291667,-0.461803 0.5291667,-0.264583 0,0.249449 -0.4176183,0.306044 -0.5291667,0.529167 -0.2494491,0.498898 -0.3527689,1.058333 -0.5291666,1.5875 -0.088186,0.264583 -0.2645834,0.514852 -0.2645834,0.79375 0,0.19722 0.077496,0.591529 0.2645834,0.529166 0.5357283,-0.178567 0.8585993,-0.736891 1.3229166,-1.058333 0.6840802,-0.473604 1.4325865,-0.849313 2.1166667,-1.322917 0.4643172,-0.321442 0.85304306,-0.745093 1.3229166,-1.058333 0.0733954,-0.04892 0.3040327,-0.07887 0.26458333,0 -0.19722041,0.394414 -0.57959624,0.672862 -0.79374999,1.058333 -0.23066374,0.415184 -0.34207974,0.886381 -0.52916664,1.322917 -0.077682,0.181266 -0.459105,0.561578 -0.2645833,0.529167 0.6625431,-0.110411 1.2635441,-0.470059 1.85208326,-0.79375 1.17959184,-0.648785 2.29494284,-1.40806 3.43958324,-2.116667 0.707443,-0.437938 1.3441627,-1.01391 2.1166667,-1.322917 0.1830917,-0.07324 0.47498,0.07496 0.5291666,0.264584 0.1453621,0.508793 -0.086995,1.06553 0,1.5875 0.091705,0.550201 0.5291667,1.5875 0.5291667,1.5875"
       style="fill:none;stroke-linecap:round;stroke-linejoin:round" />
    <path
       id="lktg5adc5d"
       stroke-width="1.05833"
       stroke="#001f3f"
       d="m 12.305634,51.945627 v 0 c 0,0 0,0 0,0 0.529167,0 1.058333,0 1.5875,0 0.440981,0 0.904584,-0.139435 1.322917,0 0.187086,0.06236 0.352769,0.352769 0.264583,0.529167 -0.223123,0.44622 -0.72689,0.685456 -1.058333,1.058333 -0.37518,0.42209 -0.745094,0.853044 -1.058334,1.322917 -0.218784,0.328163 -0.404442,0.68416 -0.529166,1.058333 -0.05578,0.167349 -0.124725,0.404442 0,0.529167 0.278897,0.278897 0.684159,0.404442 1.058333,0.529167 0.426641,0.142213 0.905378,0.09758 1.322917,0.264583 0.08189,0.03276 0.06236,0.202221 0,0.264583 -0.39931,0.39931 -0.853044,0.745094 -1.322917,1.058334 -0.591635,0.394414 -1.852083,1.058333 -1.852083,1.058333"
       style="fill:none;stroke-linecap:round;stroke-linejoin:round" />
    <path
       id="lktg5c6zub"
       stroke-width="1.05833"
       stroke="#001f3f"
       d="m -68.127698,70.466461 v 0 c 0,0 -0.529167,0.461803 -0.529167,0.264583 0,-0.249449 0.352769,-0.352769 0.529167,-0.529167 0.352769,-0.352769 0.76835,-0.652356 1.058333,-1.058333 0.16211,-0.22696 0.06736,-0.99097 0.264583,-0.79375 0.249449,0.249449 0.02707,0.706596 0,1.058333 -0.06125,0.79629 -0.140017,1.592395 -0.264583,2.38125 -0.140282,0.888392 -0.340704,1.766385 -0.529167,2.645834 -0.0762,0.355573 -0.264583,1.058333 -0.264583,1.058333"
       style="fill:none;stroke-linecap:round;stroke-linejoin:round" />
    <path
       id="lktg5c7ehh"
       stroke-width="1.05833"
       stroke="#001f3f"
       d="m -58.073532,68.085211 v 0 c 0,0 0.529167,0 0.79375,0 0.529167,0 1.058333,0 1.5875,0 0.79375,0 1.5875,0 2.38125,0 0.440981,0 0.944774,-0.226881 1.322917,0 0.22688,0.136128 0.133323,0.565203 0,0.79375 -0.506677,0.8686 -1.21166,1.605994 -1.852084,2.38125 -1.035711,1.253754 -2.159105,2.434298 -3.175,3.704166 -0.397298,0.496623 -0.749485,1.031558 -1.058333,1.5875 -0.13544,0.243787 -0.264583,0.79375 -0.264583,0.79375"
       style="fill:none;stroke-linecap:round;stroke-linejoin:round" />
    <path
       id="lktg5c7woh"
       stroke-width="1.05833"
       stroke="#001f3f"
       d="m -60.454782,77.874794 v 0 c 0,0 0,0 0,0 0.440981,0.08819 0.873205,0.264583 1.322917,0.264583 0.449712,0 0.874527,-0.230082 1.322916,-0.264583 0.703475,-0.05411 1.411103,0 2.116667,0 0.79375,0 2.38125,0 2.38125,0"
       style="fill:none;stroke-linecap:round;stroke-linejoin:round" />
    <path
       id="lktg5d4i2r"
       stroke-width="1.05833"
       stroke="#001f3f"
       d="m 80.038966,59.883127 v 0 c 0,0 -0.351578,0.01455 -0.264583,0 0.615156,-0.102526 1.233937,-0.182165 1.852083,-0.264583 0.704797,-0.09398 1.421395,-0.115596 2.116667,-0.264583 0.545412,-0.116867 1.042988,-0.408173 1.5875,-0.529167 0.258286,-0.05739 0.729589,-0.256672 0.79375,0 0.09567,0.38264 -0.276675,0.755333 -0.529167,1.058333 -0.638783,0.766525 -1.38549,1.43772 -2.116666,2.116667 -0.504772,0.468709 -1.075505,0.862118 -1.5875,1.322917 -0.37084,0.333745 -0.781579,0.643228 -1.058334,1.058333 -0.09784,0.146764 -0.124724,0.404442 0,0.529167 0.278898,0.278897 0.67908,0.420819 1.058334,0.529166 0.864817,0.247095 1.78816,0.258339 2.645833,0.529167 0.828305,0.261567 1.616472,0.646536 2.38125,1.058333 0.388276,0.209074 1.255554,0.399336 1.058333,0.79375 -0.372083,0.744194 -1.364747,0.966735 -2.116666,1.322917 -0.932921,0.441907 -1.912118,0.795628 -2.910417,1.058333 -0.687626,0.180949 -2.116667,0.264584 -2.116667,0.264584"
       style="fill:none;stroke-linecap:round;stroke-linejoin:round" />
    <path
       id="lktg5dbcoq"
       stroke-width="1.05833"
       stroke="#001f3f"
       d="m 89.299383,70.201877 v 0 c 0,0 0.02487,0.354542 0,0.529167 -0.06361,0.445188 -0.16346,0.88474 -0.264583,1.322917 -0.163539,0.708633 -0.529167,2.116666 -0.529167,2.116666"
       style="fill:none;stroke-linecap:round;stroke-linejoin:round" />
    <path
       id="lktg5dpn3n"
       stroke-width="1.05833"
       stroke="#001f3f"
       d="m 101.20563,59.883127 v 0 c 0,0 0,0 0,0 0.0882,-0.08819 0.26459,-0.139858 0.26459,-0.264583 0,-0.124725 -0.15764,-0.200422 -0.26459,-0.264583 -0.33821,-0.202936 -0.70556,-0.352769 -1.05833,-0.529167 -0.352769,-0.176398 -0.675693,-0.433493 -1.058334,-0.529167 -0.342238,-0.08557 -0.705564,0 -1.058333,0 -0.08819,0 -0.202221,-0.06236 -0.264583,0 -0.139436,0.139436 -0.195342,0.344514 -0.264584,0.529167 -0.195844,0.522288 -0.314642,1.072621 -0.529166,1.5875 -0.227542,0.546126 -0.623756,1.020815 -0.79375,1.5875 -0.101362,0.337899 0,0.705564 0,1.058333 0,0.176398 -0.07887,0.371396 0,0.529167 0.111548,0.223123 0.292523,0.450294 0.529166,0.529167 0.334672,0.111548 0.716095,0.08557 1.058334,0 0.38264,-0.09567 0.692123,-0.382694 1.058333,-0.529167 0.08189,-0.03276 0.215662,-0.07339 0.264583,0 0.154702,0.232066 0.264584,0.514853 0.264584,0.79375 0,0.363643 -0.264584,0.69469 -0.264584,1.058333 0,0.449713 0.264584,0.873205 0.264584,1.322917 0,0.449712 -0.176398,0.881936 -0.264584,1.322917 -0.08818,0.440981 -0.167031,0.88392 -0.264583,1.322916 -0.07887,0.354965 -0.121338,0.724112 -0.264583,1.058334 -0.125254,0.292285 -0.365575,0.52107 -0.529167,0.79375 -0.101468,0.169095 -0.125148,0.389731 -0.264583,0.529166 -0.06236,0.06236 -0.185712,0.03945 -0.264584,0 -0.284427,-0.142213 -0.487997,-0.441801 -0.79375,-0.529166 -0.339196,-0.09692 -0.705564,0 -1.058333,0 -0.176398,0 -0.352769,0 -0.529167,0 -0.264583,0 -0.529166,0 -0.79375,0 -0.08818,0 -0.176397,0 -0.264583,0 -0.08819,0 -0.264583,0.08818 -0.264583,0 0,-0.363644 0.164676,-0.708687 0.264583,-1.058334 0.07662,-0.268155 0.160999,-0.534802 0.264583,-0.79375 0.07324,-0.183091 0.216747,-0.337846 0.264584,-0.529166 0.04278,-0.171133 0,-0.529167 0,-0.529167"
       style="fill:none;stroke-linecap:round;stroke-linejoin:round" />
    <path
       id="lktg5dx9xf"
       stroke-width="1.05833"
       stroke="#001f3f"
       d="m 107.55563,61.999794 v 0 c 0,0 0,0 0,0 0.0882,0 0.18092,0.02789 0.26459,0 0.18708,-0.06236 0.38973,-0.125148 0.52916,-0.264583 0.13944,-0.139436 0.12515,-0.389732 0.26459,-0.529167 0.13943,-0.139435 0.34607,-0.191347 0.52916,-0.264583 0.25895,-0.103585 0.51864,-0.310436 0.79375,-0.264584 0.31367,0.05228 0.56891,0.304324 0.79375,0.529167 0.22485,0.224843 0.4418,0.487998 0.52917,0.79375 0.0969,0.339196 0.13102,0.730779 0,1.058333 -0.23619,0.590497 -0.74279,1.035315 -1.05833,1.5875 -0.39138,0.684901 -0.70557,1.411103 -1.05834,2.116667 -0.26458,0.529167 -0.43301,1.118552 -0.79375,1.5875 -0.53231,0.692018 -1.23473,1.234731 -1.85208,1.852083 -0.35277,0.352769 -0.70556,0.705565 -1.05833,1.058334 -0.1764,0.176397 -0.35277,0.352769 -0.52917,0.529166 -0.26458,0.264584 -0.52917,0.529167 -0.79375,0.79375 -0.0882,0.08819 -0.38558,0.234342 -0.26458,0.264584 0.4278,0.106944 0.88193,0 1.32291,0 0.35277,0 0.70771,-0.03895 1.05834,0 0.44696,0.04966 0.88392,0.167031 1.32291,0.264583 0.35497,0.07887 1.05834,0.264583 1.05834,0.264583"
       style="fill:none;stroke-linecap:round;stroke-linejoin:round" />
    <path
       id="lktg5edpvn"
       stroke-width="1.05833"
       stroke="#001f3f"
       d="m 120.52022,64.910211 v 0 c 0,0 0,0 0,0 0.0882,0 0.35276,0 0.26458,0 -0.35277,0 -0.71035,0.058 -1.05833,0 -0.19453,-0.03241 -0.34608,-0.191347 -0.52917,-0.264584 -0.25895,-0.103584 -0.52917,-0.176397 -0.79375,-0.264583 -0.26458,-0.08819 -0.57063,-0.09723 -0.79375,-0.264583 -0.15777,-0.118322 -0.15521,-0.365072 -0.26458,-0.529167 -0.0692,-0.10377 -0.22514,-0.146262 -0.26459,-0.264583 -0.0558,-0.167349 -0.0346,-0.356209 0,-0.529167 0.0547,-0.273473 0.1764,-0.529167 0.26459,-0.79375 0.0882,-0.264583 0.0674,-0.59653 0.26458,-0.79375 0.2789,-0.278897 0.67908,-0.42082 1.05833,-0.529167 0.2544,-0.07268 0.52917,0 0.79375,0 0.44098,0 0.88464,-0.04871 1.32292,0 0.36142,0.04016 0.77899,0.0318 1.05833,0.264584 0.303,0.252492 0.33761,0.713554 0.52917,1.058333 0.24974,0.449554 0.65844,0.82677 0.79375,1.322917 0.13922,0.510513 0.0439,1.060159 0,1.5875 -0.0446,0.534617 -0.0583,1.092305 -0.26458,1.5875 -0.24461,0.587057 -0.68427,1.07315 -1.05834,1.5875 -0.33216,0.456697 -0.65902,0.923607 -1.05833,1.322916 -0.39931,0.399309 -0.87715,0.711624 -1.32292,1.058334 -0.34808,0.270721 -0.62005,0.74504 -1.05833,0.79375 -0.47204,0.05244 -1.32292,-0.529167 -1.32292,-0.529167"
       style="fill:none;stroke-linecap:round;stroke-linejoin:round" />
    <path
       id="lktg5ernns"
       stroke-width="1.05833"
       stroke="#001f3f"
       d="m 134.27855,65.968544 v 0 c 0,0 0,0 0,0 -0.35277,-0.08819 -0.69469,-0.264583 -1.05833,-0.264583 -0.44972,0 -0.87321,0.264583 -1.32292,0.264583 -0.62362,0 -1.23103,-0.208121 -1.85208,-0.264583 -0.35134,-0.03194 -0.70557,0 -1.05834,0 -0.26458,0 -0.52916,0 -0.79375,0 -0.0882,0 -0.20222,0.06236 -0.26458,0 -0.0624,-0.06236 -0.0214,-0.179017 0,-0.264584 0.0677,-0.270563 0.12621,-0.551603 0.26458,-0.79375 0.21879,-0.382878 0.53745,-0.699505 0.79375,-1.058333 0.18484,-0.258763 0.37473,-0.515779 0.52917,-0.79375 0.28731,-0.517181 0.50022,-1.073811 0.79375,-1.5875 0.0619,-0.108294 0.14359,-0.234341 0.26458,-0.264583 0.25667,-0.06416 0.62847,-0.206613 0.79375,0 0.28094,0.351155 0.23008,0.874527 0.26459,1.322916 0.0541,0.703474 0,1.411103 0,2.116667 0,0.79375 0,1.5875 0,2.38125 0,0.705564 0,1.411102 0,2.116667 0,0.440981 0.0624,0.88638 0,1.322916 -0.0279,0.195236 -0.26459,0.529167 -0.26459,0.529167"
       style="fill:none;stroke-linecap:round;stroke-linejoin:round" />
    <path
       id="lktg5etxoj"
       stroke-width="1.05833"
       stroke="#001f3f"
       d="m 139.04105,64.116461 v 0 c 0,0 -0.28244,-0.332767 -0.26458,-0.529167 0.0736,-0.809784 0.0781,-1.70471 0.52916,-2.38125 0.32817,-0.492257 1.09525,-0.465587 1.5875,-0.79375 0.31134,-0.207566 0.41958,-0.79375 0.79375,-0.79375 0.31801,0 0.49202,0.477943 0.52917,0.79375 0.14428,1.226264 0.16319,2.480284 0,3.704167 -0.19225,1.441767 -0.77309,2.807044 -1.05833,4.233333 -0.15664,0.783114 -0.21768,1.583981 -0.26459,2.38125 -0.0414,0.704347 0,1.411102 0,2.116667 0,0.08818 0,0.264583 0,0.264583"
       style="fill:none;stroke-linecap:round;stroke-linejoin:round" />
    <path
       id="lktg5f5lzx"
       stroke-width="1.05833"
       stroke="#001f3f"
       d="m 27.651467,62.793544 v 0 c 0,0 0,0 0,0 0.79375,-0.264583 1.592263,-0.515276 2.38125,-0.79375 0.710565,-0.250799 1.392132,-0.58674 2.116667,-0.79375 0.515831,-0.147373 1.061455,-0.369782 1.5875,-0.264583 0.432408,0.08649 0.663919,0.596529 1.058333,0.79375 0.325252,0.162613 0.69469,0.264583 1.058333,0.264583 0.798645,0 1.600333,-0.09723 2.38125,-0.264583 0.464397,-0.09951 1.322917,-0.529167 1.322917,-0.529167"
       style="fill:none;stroke-linecap:round;stroke-linejoin:round" />
    <path
       id="lktg5f6160"
       stroke-width="1.05833"
       stroke="#001f3f"
       d="m 26.857717,67.291461 v 0 c 0,0 -0.08107,-0.229844 0,-0.264584 0.590153,-0.252915 1.250897,-0.303715 1.852083,-0.529166 0.813303,-0.304986 1.557206,-0.783643 2.38125,-1.058334 0.771393,-0.257122 1.577605,-0.405527 2.38125,-0.529166 0.348668,-0.05363 0.742792,-0.157771 1.058334,0 0.284427,0.142213 0.238574,0.664607 0.529166,0.79375 0.569886,0.253285 1.229519,0.227965 1.852084,0.264583 0.880427,0.05178 1.767205,0.07641 2.645833,0 1.155647,-0.100489 3.439583,-0.529167 3.439583,-0.529167"
       style="fill:none;stroke-linecap:round;stroke-linejoin:round" />
    <path
       id="lktg5f8xju"
       stroke-width="1.05833"
       stroke="#001f3f"
       d="m 153.85772,67.291461 v 0 c 0,0 -0.54809,-0.09827 -0.79375,0 -1.09863,0.439446 -2.31476,0.775044 -3.175,1.5875 -0.80341,0.758772 -1.51858,1.807501 -1.5875,2.910416 -0.0389,0.622406 0.73128,1.125696 1.32291,1.322917 1.09091,0.363643 2.29365,0.360071 3.43959,0.264583 1.0021,-0.0835 1.99151,-0.385339 2.91041,-0.79375 0.69329,-0.308134 1.37166,-0.735727 1.85209,-1.322916 0.35321,-0.431695 0.23354,-1.114505 0.52916,-1.5875 0.16854,-0.269664 0.97015,-0.79375 0.79375,-0.529167 -0.34591,0.518901 -0.88193,0.881936 -1.32291,1.322917 -0.52917,0.529166 -1.08689,1.03124 -1.5875,1.5875 -0.29499,0.327765 -1.22156,1.165277 -0.79375,1.058333 0.73601,-0.184018 1.25552,-0.854181 1.85208,-1.322917 0.63936,-0.502364 1.18356,-1.124664 1.85208,-1.5875 0.48644,-0.336761 1.07032,-0.506439 1.5875,-0.79375 0.27797,-0.154437 0.49207,-0.629735 0.79375,-0.529166 0.25101,0.08366 0.0837,0.542739 0,0.79375 -0.27469,0.824044 -0.64653,1.616471 -1.05833,2.38125 -0.20908,0.388276 -1.22616,1.144825 -0.79375,1.058333 0.81587,-0.163169 1.45574,-0.81751 2.11667,-1.322917 0.84359,-0.645107 1.55929,-1.444175 2.38125,-2.116666 0.15263,-0.124884 0.47498,-0.454211 0.52916,-0.264584 0.19384,0.678418 0.10729,1.419305 0,2.116667 -0.0722,0.469424 -0.45109,0.854445 -0.52916,1.322917 -0.0204,0.123031 0.26458,0.264583 0.26458,0.264583"
       style="fill:none;stroke-linecap:round;stroke-linejoin:round" />
    <path
       id="lktg5f9yi9"
       stroke-width="1.05833"
       stroke="#001f3f"
       d="m 168.4098,58.560211 v 0 c 0,0 0.51766,-0.225134 0.79375,-0.264584 0.34922,-0.0499 0.74279,-0.157771 1.05833,0 0.15777,0.07887 0.11719,0.397325 0,0.529167 -0.62285,0.700723 -1.36665,1.289579 -2.11666,1.852083 -0.31555,0.236644 -0.77944,0.25027 -1.05834,0.529167 -0.19722,0.19722 -0.43193,0.570627 -0.26458,0.79375 0.21817,0.290909 0.69964,0.204814 1.05833,0.264583 0.17399,0.029 0.36539,-0.06551 0.52917,0 0.29525,0.11811 0.53935,0.338376 0.79375,0.529167 0.0998,0.07482 0.36436,0.189759 0.26458,0.264583 -0.37994,0.284957 -0.8572,0.436034 -1.32291,0.529167 -0.43241,0.08649 -1.32292,0 -1.32292,0"
       style="fill:none;stroke-linecap:round;stroke-linejoin:round" />
    <path
       id="lktg5h9ob4"
       stroke-width="1.05833"
       stroke="#001f3f"
       d="m 72.101467,58.295627 v 0 c 0,0 0.202221,0.06236 0.264583,0 0.06236,-0.06236 0.06236,-0.202221 0,-0.264583 -0.311812,-0.311811 -0.635953,-0.667041 -1.058333,-0.79375 -0.506863,-0.152056 -1.058334,0 -1.5875,0 -0.440981,0 -0.917602,-0.173699 -1.322917,0 -0.292285,0.125254 -0.428599,0.492072 -0.529167,0.79375 -0.169651,0.508926 -0.220027,1.052883 -0.264583,1.5875 -0.04395,0.527341 0.13634,1.076193 0,1.5875 -0.223811,0.839285 -0.76618,1.563238 -1.058333,2.38125 -0.151263,0.423519 -0.18415,0.880454 -0.264584,1.322917 -0.09596,0.527817 -0.205343,1.054311 -0.264583,1.5875 -0.02921,0.262969 -0.0435,0.532765 0,0.79375 0.04585,0.275113 0.196929,0.523187 0.264583,0.79375 0.02143,0.08557 0,0.176397 0,0.264583 0,0.176398 -0.09784,0.382402 0,0.529167 0.109379,0.164094 0.333481,0.240109 0.529167,0.264583 0.525092,0.06564 1.059894,-0.04059 1.5875,0 0.621797,0.04784 1.236927,0.162057 1.852083,0.264583 0.443574,0.07393 0.873205,0.264584 1.322917,0.264584 0.08818,0 0,-0.176398 0,-0.264584 0,-0.352769 -0.08557,-0.716095 0,-1.058333 0.09567,-0.38264 0.373803,-0.695801 0.529167,-1.058333 0.109855,-0.256355 0.176397,-0.529167 0.264583,-0.79375 0.08818,-0.264584 0.196929,-0.523187 0.264583,-0.79375 0.02143,-0.08557 0.04892,-0.191188 0,-0.264584 -0.138377,-0.207565 -0.292523,-0.450294 -0.529166,-0.529166 -0.591635,-0.197221 -1.230287,-0.216747 -1.852084,-0.264584 -0.527605,-0.04059 -1.060952,0.05265 -1.5875,0 -0.361817,-0.0362 -1.058333,-0.264583 -1.058333,-0.264583"
       style="fill:none;stroke-linecap:round;stroke-linejoin:round" />
    <path
       id="lktg5hcp0m"
       stroke-width="1.05833"
       stroke="#001f3f"
       d="m 62.576467,33.953961 v 0 c 0,0 0,0 0,0 -0.08819,0 -0.185711,0.03945 -0.264584,0 -0.284427,-0.142214 -0.487997,-0.441801 -0.79375,-0.529167 -0.339196,-0.09692 -0.708289,0.04376 -1.058333,0 -0.360839,-0.04511 -0.705564,-0.176397 -1.058333,-0.264583 -0.352769,-0.08819 -0.701755,-0.335888 -1.058334,-0.264583 -0.193384,0.03868 -0.202221,0.342079 -0.264583,0.529166 -0.114988,0.344964 -0.199522,0.700564 -0.264583,1.058334 -0.111549,0.613568 -0.08117,1.25603 -0.264584,1.852083 -0.17399,0.565467 -0.574013,1.038199 -0.79375,1.5875 -0.135043,0.337635 -0.204814,0.699638 -0.264583,1.058333 -0.029,0.17399 0,0.352769 0,0.529167 0,0.176398 0,0.352769 0,0.529167 0,0.08819 -0.03945,0.185711 0,0.264583 0.05577,0.111548 0.225134,0.146262 0.264583,0.264583 0.05577,0.167349 -0.05577,0.361818 0,0.529167 0.03945,0.118322 0.146262,0.225134 0.264584,0.264583 0.167349,0.05577 0.361817,-0.05577 0.529166,0 0.118322,0.03945 0.153035,0.208809 0.264584,0.264584 0.07887,0.03945 0.176397,0 0.264583,0 0.352769,0 0.705564,0 1.058333,0 0.352769,0 0.705565,0 1.058334,0 0.176397,0 0.352769,0 0.529166,0 0.176398,0 0.361818,0.05577 0.529167,0 0.118322,-0.03945 0.240109,-0.142267 0.264583,-0.264584 0.06919,-0.345916 -0.138959,-0.734086 0,-1.058333 0.1474,-0.343932 0.559991,-0.501571 0.79375,-0.79375 0.12319,-0.153988 0.373962,-0.365072 0.264584,-0.529167 -0.154702,-0.232066 -0.537396,-0.154728 -0.79375,-0.264583 -0.362532,-0.155363 -0.667888,-0.473393 -1.058334,-0.529167 -0.873072,-0.124724 -1.76612,0.06284 -2.645833,0 -0.362717,-0.02593 -1.058333,-0.264583 -1.058333,-0.264583"
       style="fill:none;stroke-linecap:round;stroke-linejoin:round" />
    <path
       id="lktg5hjwk10"
       stroke-width="1.05833"
       stroke="#001f3f"
       d="m 73.424383,37.922711 v 0 c 0,0 0.08819,0.264583 0,0.264583 -0.124724,0 -0.142266,-0.240109 -0.264583,-0.264583 -0.345916,-0.06919 -0.705565,0 -1.058333,0 -0.440982,0 -0.881936,0 -1.322917,0 -0.529167,0 -1.063652,0.07482 -1.5875,0 -0.123481,-0.01773 -0.195395,-0.160814 -0.264583,-0.264583 -0.109379,-0.164095 -0.326946,-0.34208 -0.264584,-0.529167 0.06236,-0.187087 0.377666,-0.138324 0.529167,-0.264583 0.383275,-0.319379 0.72689,-0.685456 1.058333,-1.058334 0.375179,-0.422089 0.629576,-0.95541 1.058334,-1.322916 0.211746,-0.181504 0.523187,-0.19693 0.79375,-0.264584 0.08557,-0.02143 0.247279,-0.08649 0.264583,0 0.08649,0.432409 0.03141,0.883074 0,1.322917 -0.05691,0.796607 -0.133297,1.59348 -0.264583,2.38125 -0.133668,0.802058 -0.369703,1.583928 -0.529167,2.38125 -0.105198,0.526045 -0.264583,1.5875 -0.264583,1.5875"
       style="fill:none;stroke-linecap:round;stroke-linejoin:round" />
    <path
       id="lktg5hktcm"
       stroke-width="1.05833"
       stroke="#001f3f"
       d="m 84.801466,38.187294 v 0 c 0,0 0.06236,-0.202221 0,-0.264583 -0.139435,-0.139435 -0.331946,-0.264583 -0.529166,-0.264583 -0.449713,0 -0.907812,0.09163 -1.322917,0.264583 -0.656352,0.273473 -1.376415,0.529828 -1.852083,1.058333 -0.373142,0.414602 -0.473657,1.032484 -0.529167,1.5875 -0.0362,0.361818 -0.08038,0.943346 0.264583,1.058334 0.674556,0.224843 1.432984,-0.06924 2.116667,-0.264584 0.568854,-0.162533 1.109028,-0.44577 1.5875,-0.79375 0.504349,-0.366792 0.908606,-0.8568 1.322917,-1.322916 0.292973,-0.329592 0.518266,-0.714005 0.79375,-1.058334 0.07792,-0.09739 0.208809,-0.153035 0.264583,-0.264583 0.03945,-0.07887 0.06236,-0.326946 0,-0.264583 -0.139435,0.139435 -0.191347,0.346075 -0.264583,0.529166 -0.27985,0.699638 -0.520647,1.414357 -0.79375,2.116667 -0.344276,0.885296 -0.698686,1.766676 -1.058334,2.645833 -0.434102,1.061165 -0.832114,2.138839 -1.322916,3.175 -0.304377,0.642594 -0.608066,1.301777 -1.058334,1.852084 -0.35761,0.437065 -0.853043,0.745093 -1.322916,1.058333 -0.328163,0.218784 -0.667888,0.584941 -1.058334,0.529166 -0.370416,-0.05292 -0.747342,-0.42246 -0.79375,-0.793749 -0.0589,-0.471276 0.175234,-1.006237 0.529167,-1.322917 1.367684,-1.223698 2.901236,-2.270231 4.497917,-3.175 1.068731,-0.605631 2.299044,-0.866696 3.439583,-1.322917 1.064525,-0.42582 3.175,-1.322916 3.175,-1.322916"
       style="fill:none;stroke-linecap:round;stroke-linejoin:round" />
    <path
       id="lktg5hmsts"
       stroke-width="1.05833"
       stroke="#001f3f"
       d="m 43.79105,36.599794 v 0 c 0,0 1.070319,-0.506439 1.5875,-0.79375 0.277971,-0.154437 0.509323,-0.386953 0.79375,-0.529166 0.249449,-0.124725 0.514853,-0.264584 0.79375,-0.264584 0.363643,0 0.705565,0.176398 1.058333,0.264584 0.352769,0.08818 0.708687,0.164676 1.058334,0.264583 0.268155,0.07662 0.514853,0.264583 0.79375,0.264583 0.536469,0 1.099132,-0.0426 1.5875,-0.264583 0.514112,-0.23368 1.322916,-1.058333 1.322916,-1.058333"
       style="fill:none;stroke-linecap:round;stroke-linejoin:round" />
    <path
       id="lktg5hn9os"
       stroke-width="1.05833"
       stroke="#001f3f"
       d="m 44.320217,39.245628 v 0 c 0,0 -0.726387,0.264583 -0.529167,0.264583 0.278897,0 0.523187,-0.196929 0.79375,-0.264583 0.436272,-0.109062 0.896276,-0.12237 1.322917,-0.264584 0.637196,-0.212407 1.214887,-0.581342 1.852083,-0.79375 0.167349,-0.05577 0.377905,-0.09075 0.529167,0 0.32086,0.192511 0.50157,0.559991 0.79375,0.79375 0.153987,0.12319 0.331946,0.264584 0.529166,0.264584 0.623623,0 1.852084,-0.264584 1.852084,-0.264584"
       style="fill:none;stroke-linecap:round;stroke-linejoin:round" />
    <text
       id="tkttt5fafg"
       x="208.89105"
       y="53.533127"
       font-size="9.525px"
       fill="#e65194"
       style="font-family:Arial;stroke-width:0.264583">10 punkti</text>
  </g>
</svg>
